ISO-10303-21;
HEADER;
FILE_DESCRIPTION (( 'STEP AP203' ),
    '1' );
FILE_NAME ('03003导灯柱.STEP',
    '2025-06-19T09:26:36',
    ( 'Windows 用户' ),
    ( '' ),
    'SwSTEP 2.0',
    'SolidWorks 2018',
    '' );
FILE_SCHEMA (( 'CONFIG_CONTROL_DESIGN' ));
ENDSEC;

DATA;
#1 = AXIS2_PLACEMENT_3D ( 'NONE', #17, #36, #186 ) ;
#2 = APPROVAL_PERSON_ORGANIZATION ( #206, #306, #49 ) ;
#3 = MECHANICAL_CONTEXT ( 'NONE', #79, 'mechanical' ) ;
#4 = ORIENTED_EDGE ( 'NONE', *, *, #301, .F. ) ;
#5 = EDGE_LOOP ( 'NONE', ( #332, #120, #263, #124 ) ) ;
#6 = AXIS2_PLACEMENT_3D ( 'NONE', #298, #70, #273 ) ;
#7 = ADVANCED_FACE ( 'NONE', ( #205, #104 ), #265, .T. ) ;
#8 = ORIENTED_EDGE ( 'NONE', *, *, #13, .T. ) ;
#9 = ADVANCED_FACE ( 'NONE', ( #310 ), #247, .T. ) ;
#10 = PRODUCT_RELATED_PRODUCT_CATEGORY ( 'detail', '', ( #83 ) ) ;
#11 = ORIENTED_EDGE ( 'NONE', *, *, #323, .T. ) ;
#12 = EDGE_LOOP ( 'NONE', ( #55, #35, #194 ) ) ;
#13 = EDGE_CURVE ( 'NONE', #319, #324, #78, .T. ) ;
#14 = ORIENTED_EDGE ( 'NONE', *, *, #75, .T. ) ;
#15 = AXIS2_PLACEMENT_3D ( 'NONE', #274, #41, #222 ) ;
#16 = CARTESIAN_POINT ( 'NONE',  ( 0.000000000000000000, 0.000000000000000000, 0.8000000000000003775 ) ) ;
#17 = CARTESIAN_POINT ( 'NONE',  ( -1.550000000000000266, 1.898202538678397705E-16, 0.07884182919144430701 ) ) ;
#18 = DIRECTION ( 'NONE',  ( -1.000000000000000000, 0.000000000000000000, -3.893316036581424575E-15 ) ) ;
#19 = AXIS2_PLACEMENT_3D ( 'NONE', #328, #249, #122 ) ;
#20 = CARTESIAN_POINT ( 'NONE',  ( 0.000000000000000000, 0.000000000000000000, 10.00000000000000000 ) ) ;
#21 = CIRCLE ( 'NONE', #239, 6.906250000000011546 ) ;
#22 = PERSON_AND_ORGANIZATION_ROLE ( 'creator' ) ;
#23 = DATE_AND_TIME ( #174, #148 ) ;
#24 = DATE_TIME_ROLE ( 'creation_date' ) ;
#25 = EDGE_LOOP ( 'NONE', ( #305, #29, #14, #272 ) ) ;
#26 = CARTESIAN_POINT ( 'NONE',  ( 0.000000000000000000, 0.000000000000000000, 0.8000000000000000444 ) ) ;
#27 = PERSON_AND_ORGANIZATION_ROLE ( 'design_supplier' ) ;
#28 = VECTOR ( 'NONE', #223, 1000.000000000000000 ) ;
#29 = ORIENTED_EDGE ( 'NONE', *, *, #109, .T. ) ;
#30 = AXIS2_PLACEMENT_3D ( 'NONE', #94, #141, #220 ) ;
#31 = ADVANCED_FACE ( 'NONE', ( #149 ), #299, .T. ) ;
#32 = CIRCLE ( 'NONE', #56, 1.650000000000000133 ) ;
#33 = EDGE_LOOP ( 'NONE', ( #4, #224, #281, #8 ) ) ;
#34 = AXIS2_PLACEMENT_3D ( 'NONE', #150, #146, #256 ) ;
#35 = ORIENTED_EDGE ( 'NONE', *, *, #283, .T. ) ;
#36 = DIRECTION ( 'NONE',  ( 1.224646799147353207E-16, 1.000000000000000000, -0.000000000000000000 ) ) ;
#37 = DIRECTION ( 'NONE',  ( -0.000000000000000000, -0.000000000000000000, -1.000000000000000000 ) ) ;
#38 = APPROVAL_DATE_TIME ( #107, #253 ) ;
#39 = FACE_OUTER_BOUND ( 'NONE', #284, .T. ) ;
#40 = SECURITY_CLASSIFICATION ( '', '', #147 ) ;
#41 = DIRECTION ( 'NONE',  ( -0.000000000000000000, -1.000000000000000000, 0.000000000000000000 ) ) ;
#42 = LOCAL_TIME ( 17, 26, 36.00000000000000000, #130 ) ;
#43 = CIRCLE ( 'NONE', #180, 1.572773186409550439 ) ;
#44 = DIRECTION ( 'NONE',  ( 0.000000000000000000, 0.000000000000000000, 1.000000000000000000 ) ) ;
#45 = DIRECTION ( 'NONE',  ( -0.000000000000000000, -1.000000000000000000, 0.000000000000000000 ) ) ;
#46 = EDGE_CURVE ( 'NONE', #165, #319, #118, .T. ) ;
#47 = DIRECTION ( 'NONE',  ( -0.000000000000000000, 1.000000000000000000, 0.000000000000000000 ) ) ;
#48 = AXIS2_PLACEMENT_3D ( 'NONE', #126, #302, #145 ) ;
#49 = APPROVAL_ROLE ( '' ) ;
#50 = DATE_TIME_ROLE ( 'classification_date' ) ;
#51 = ADVANCED_BREP_SHAPE_REPRESENTATION ( '03003导灯柱', ( #58, #48 ), #279 ) ;
#52 =( NAMED_UNIT ( * ) SI_UNIT ( $, .STERADIAN. ) SOLID_ANGLE_UNIT ( ) );
#53 = ORGANIZATION ( '未指定', '未指定', '' ) ;
#54 = CIRCLE ( 'NONE', #276, 1.650000000000000133 ) ;
#55 = ORIENTED_EDGE ( 'NONE', *, *, #192, .F. ) ;
#56 = AXIS2_PLACEMENT_3D ( 'NONE', #229, #172, #307 ) ;
#57 = ADVANCED_FACE ( 'NONE', ( #95 ), #207, .T. ) ;
#58 = MANIFOLD_SOLID_BREP ( '圆角1', #157 ) ;
#59 = ORIENTED_EDGE ( 'NONE', *, *, #232, .T. ) ;
#60 = CALENDAR_DATE ( 2025, 19, 6 ) ;
#61 = VERTEX_POINT ( 'NONE', #91 ) ;
#62 = EDGE_LOOP ( 'NONE', ( #139, #129 ) ) ;
#63 = CARTESIAN_POINT ( 'NONE',  ( 1.650000000000000133, 2.020667218593133001E-16, 0.8000000000000000444 ) ) ;
#64 = AXIS2_PLACEMENT_3D ( 'NONE', #90, #212, #89 ) ;
#65 = VERTEX_POINT ( 'NONE', #63 ) ;
#66 = CARTESIAN_POINT ( 'NONE',  ( 1.192622389734054877E-15, 0.000000000000000000, -0.01853055899307242543 ) ) ;
#67 = VECTOR ( 'NONE', #189, 1000.000000000000000 ) ;
#68 = EDGE_LOOP ( 'NONE', ( #259, #311 ) ) ;
#69 = DIRECTION ( 'NONE',  ( 1.000000000000000000, 0.000000000000000000, 0.000000000000000000 ) ) ;
#70 = DIRECTION ( 'NONE',  ( 0.000000000000000000, 0.000000000000000000, 1.000000000000000000 ) ) ;
#71 = AXIS2_PLACEMENT_3D ( 'NONE', #93, #221, #250 ) ;
#72 = CARTESIAN_POINT ( 'NONE',  ( -1.000000000000000000, 0.000000000000000000, 10.00000000000000000 ) ) ;
#73 = CARTESIAN_POINT ( 'NONE',  ( 0.000000000000000000, 0.000000000000000000, 10.00000000000000000 ) ) ;
#74 = ORIENTED_EDGE ( 'NONE', *, *, #192, .T. ) ;
#75 = EDGE_CURVE ( 'NONE', #96, #61, #138, .T. ) ;
#76 =( LENGTH_UNIT ( ) NAMED_UNIT ( * ) SI_UNIT ( .MILLI., .METRE. ) );
#77 = CC_DESIGN_DATE_AND_TIME_ASSIGNMENT ( #23, #24, ( #158 ) ) ;
#78 = CIRCLE ( 'NONE', #106, 1.650000000000000133 ) ;
#79 = APPLICATION_CONTEXT ( 'configuration controlled 3d designs of mechanical parts and assemblies' ) ;
#80 = VERTEX_POINT ( 'NONE', #270 ) ;
#81 = VECTOR ( 'NONE', #134, 1000.000000000000000 ) ;
#82 = EDGE_CURVE ( 'NONE', #84, #238, #43, .T. ) ;
#83 = PRODUCT ( '03003导灯柱', '03003导灯柱', '', ( #3 ) ) ;
#84 = VERTEX_POINT ( 'NONE', #113 ) ;
#85 = AXIS2_PLACEMENT_3D ( 'NONE', #191, #44, #297 ) ;
#86 = EDGE_CURVE ( 'NONE', #84, #319, #210, .T. ) ;
#87 = CIRCLE ( 'NONE', #30, 1.000000000000000000 ) ;
#88 = EDGE_LOOP ( 'NONE', ( #153, #11 ) ) ;
#89 = DIRECTION ( 'NONE',  ( -1.000000000000000000, 0.000000000000000000, 0.000000000000000000 ) ) ;
#90 = CARTESIAN_POINT ( 'NONE',  ( 0.000000000000000000, 0.000000000000000000, 0.8000000000000000444 ) ) ;
#91 = CARTESIAN_POINT ( 'NONE',  ( -1.000000000000000000, 0.000000000000000000, 0.8000000000000003775 ) ) ;
#92 = CC_DESIGN_SECURITY_CLASSIFICATION ( #40, ( #269 ) ) ;
#93 = CARTESIAN_POINT ( 'NONE',  ( 1.192622389734054877E-15, 0.000000000000000000, 6.706250000000010481 ) ) ;
#94 = CARTESIAN_POINT ( 'NONE',  ( 0.000000000000000000, 0.000000000000000000, 0.8000000000000003775 ) ) ;
#95 = FACE_OUTER_BOUND ( 'NONE', #132, .T. ) ;
#96 = VERTEX_POINT ( 'NONE', #160 ) ;
#97 = DIRECTION ( 'NONE',  ( -1.000000000000000000, 0.000000000000000000, 0.000000000000000000 ) ) ;
#98 = EDGE_CURVE ( 'NONE', #165, #65, #331, .T. ) ;
#99 = CARTESIAN_POINT ( 'NONE',  ( 2.734970150450813339E-14, 0.000000000000000000, -0.2000000000000005107 ) ) ;
#100 = DIRECTION ( 'NONE',  ( 1.000000000000000000, 0.000000000000000000, 0.000000000000000000 ) ) ;
#101 = APPLICATION_CONTEXT ( 'configuration controlled 3d designs of mechanical parts and assemblies' ) ;
#102 = LINE ( 'NONE', #162, #67 ) ;
#103 = APPROVAL_ROLE ( '' ) ;
#104 = FACE_OUTER_BOUND ( 'NONE', #88, .T. ) ;
#105 = ORIENTED_EDGE ( 'NONE', *, *, #323, .F. ) ;
#106 = AXIS2_PLACEMENT_3D ( 'NONE', #181, #321, #244 ) ;
#107 = DATE_AND_TIME ( #227, #304 ) ;
#108 = FACE_OUTER_BOUND ( 'NONE', #12, .T. ) ;
#109 = EDGE_CURVE ( 'NONE', #80, #96, #200, .T. ) ;
#110 = PERSON_AND_ORGANIZATION ( #261, #53 ) ;
#111 = DIRECTION ( 'NONE',  ( -1.000000000000000000, 0.000000000000000000, 0.000000000000000000 ) ) ;
#112 = DIRECTION ( 'NONE',  ( -1.000000000000000000, 0.000000000000000000, 0.000000000000000000 ) ) ;
#113 = CARTESIAN_POINT ( 'NONE',  ( -1.572773186409546886, 0.000000000000000000, -0.01853055899307199175 ) ) ;
#114 = ORIENTED_EDGE ( 'NONE', *, *, #283, .F. ) ;
#115 = DIRECTION ( 'NONE',  ( 0.000000000000000000, 0.000000000000000000, 1.000000000000000000 ) ) ;
#116 = CARTESIAN_POINT ( 'NONE',  ( -1.650000000000000133, 0.000000000000000000, 0.07884182919144430701 ) ) ;
#117 = COORDINATED_UNIVERSAL_TIME_OFFSET ( 8, 0, .AHEAD. ) ;
#118 = LINE ( 'NONE', #213, #81 ) ;
#119 = DIRECTION ( 'NONE',  ( -0.000000000000000000, -0.000000000000000000, -1.000000000000000000 ) ) ;
#120 = ORIENTED_EDGE ( 'NONE', *, *, #320, .F. ) ;
#121 = AXIS2_PLACEMENT_3D ( 'NONE', #16, #115, #294 ) ;
#122 = DIRECTION ( 'NONE',  ( 1.000000000000000000, 0.000000000000000000, 0.000000000000000000 ) ) ;
#123 = APPLICATION_PROTOCOL_DEFINITION ( 'international standard', 'config_control_design', 1994, #101 ) ;
#124 = ORIENTED_EDGE ( 'NONE', *, *, #13, .F. ) ;
#125 = DIRECTION ( 'NONE',  ( 0.000000000000000000, 0.000000000000000000, 1.000000000000000000 ) ) ;
#126 = CARTESIAN_POINT ( 'NONE',  ( 0.000000000000000000, 0.000000000000000000, 0.000000000000000000 ) ) ;
#127 = CALENDAR_DATE ( 2025, 19, 6 ) ;
#128 = APPROVAL_STATUS ( 'not_yet_approved' ) ;
#129 = ORIENTED_EDGE ( 'NONE', *, *, #75, .F. ) ;
#130 = COORDINATED_UNIVERSAL_TIME_OFFSET ( 8, 0, .AHEAD. ) ;
#131 = TOROIDAL_SURFACE ( 'NONE', #19, 1.550000000000000266, 0.1000000000000000056 ) ;
#132 = EDGE_LOOP ( 'NONE', ( #105, #201, #171, #252 ) ) ;
#133 = DIRECTION ( 'NONE',  ( -0.000000000000000000, -0.000000000000000000, -1.000000000000000000 ) ) ;
#134 = DIRECTION ( 'NONE',  ( -0.000000000000000000, -0.000000000000000000, -1.000000000000000000 ) ) ;
#135 = DIRECTION ( 'NONE',  ( -0.000000000000000000, -0.000000000000000000, -1.000000000000000000 ) ) ;
#136 = EDGE_CURVE ( 'NONE', #61, #96, #87, .T. ) ;
#137 = APPROVAL_PERSON_ORGANIZATION ( #110, #253, #195 ) ;
#138 = CIRCLE ( 'NONE', #121, 1.000000000000000000 ) ;
#139 = ORIENTED_EDGE ( 'NONE', *, *, #136, .F. ) ;
#140 = PLANE ( 'NONE',  #85 ) ;
#141 = DIRECTION ( 'NONE',  ( 0.000000000000000000, 0.000000000000000000, 1.000000000000000000 ) ) ;
#142 = CIRCLE ( 'NONE', #203, 1.000000000000000000 ) ;
#143 = DIRECTION ( 'NONE',  ( 0.000000000000000000, 0.000000000000000000, 1.000000000000000000 ) ) ;
#144 = ORIENTED_EDGE ( 'NONE', *, *, #136, .T. ) ;
#145 = DIRECTION ( 'NONE',  ( 1.000000000000000000, 0.000000000000000000, 0.000000000000000000 ) ) ;
#146 = DIRECTION ( 'NONE',  ( -0.000000000000000000, -0.000000000000000000, -1.000000000000000000 ) ) ;
#147 = SECURITY_CLASSIFICATION_LEVEL ( 'unclassified' ) ;
#148 = LOCAL_TIME ( 17, 26, 36.00000000000000000, #117 ) ;
#149 = FACE_OUTER_BOUND ( 'NONE', #176, .T. ) ;
#150 = CARTESIAN_POINT ( 'NONE',  ( 1.192622389734054877E-15, 0.000000000000000000, -0.01853055899307242543 ) ) ;
#151 = FACE_OUTER_BOUND ( 'NONE', #68, .T. ) ;
#152 = AXIS2_PLACEMENT_3D ( 'NONE', #322, #37, #111 ) ;
#153 = ORIENTED_EDGE ( 'NONE', *, *, #98, .T. ) ;
#154 = EDGE_CURVE ( 'NONE', #231, #80, #142, .T. ) ;
#155 = VERTEX_POINT ( 'NONE', #99 ) ;
#156 = TOROIDAL_SURFACE ( 'NONE', #6, 1.550000000000000266, 0.1000000000000000056 ) ;
#157 = CLOSED_SHELL ( 'NONE', ( #202, #289, #57, #237, #31, #233, #9, #7, #209, #285 ) ) ;
#158 = PRODUCT_DEFINITION ( '未知', '', #269, #325 ) ;
#159 = LINE ( 'NONE', #245, #28 ) ;
#160 = CARTESIAN_POINT ( 'NONE',  ( 1.000000000000000000, 1.224646799147353207E-16, 0.8000000000000003775 ) ) ;
#161 = CARTESIAN_POINT ( 'NONE',  ( 1.650000000000000133, 2.020667218593133001E-16, 0.07884182919144430701 ) ) ;
#162 = CARTESIAN_POINT ( 'NONE',  ( 1.650000000000000133, 2.020667218593133001E-16, 0.8000000000000000444 ) ) ;
#163 = DIRECTION ( 'NONE',  ( 1.000000000000000000, 0.000000000000000000, 0.000000000000000000 ) ) ;
#164 = CIRCLE ( 'NONE', #292, 0.1000000000000000056 ) ;
#165 = VERTEX_POINT ( 'NONE', #179 ) ;
#166 = CARTESIAN_POINT ( 'NONE',  ( 0.000000000000000000, 0.000000000000000000, 10.00000000000000000 ) ) ;
#167 = AXIS2_PLACEMENT_3D ( 'NONE', #326, #333, #69 ) ;
#168 = DIRECTION ( 'NONE',  ( 1.000000000000000000, 0.000000000000000000, 0.000000000000000000 ) ) ;
#169 = APPROVAL_STATUS ( 'not_yet_approved' ) ;
#170 = APPROVAL_PERSON_ORGANIZATION ( #317, #177, #103 ) ;
#171 = ORIENTED_EDGE ( 'NONE', *, *, #316, .T. ) ;
#172 = DIRECTION ( 'NONE',  ( 0.000000000000000000, 0.000000000000000000, 1.000000000000000000 ) ) ;
#173 = DIRECTION ( 'NONE',  ( 0.000000000000000000, -1.000000000000000000, 0.000000000000000000 ) ) ;
#174 = CALENDAR_DATE ( 2025, 19, 6 ) ;
#175 = COORDINATED_UNIVERSAL_TIME_OFFSET ( 8, 0, .AHEAD. ) ;
#176 = EDGE_LOOP ( 'NONE', ( #211, #183, #59, #144 ) ) ;
#177 = APPROVAL ( #128, '未指定' ) ;
#178 = CYLINDRICAL_SURFACE ( 'NONE', #225, 1.000000000000000000 ) ;
#179 = CARTESIAN_POINT ( 'NONE',  ( -1.650000000000000133, 0.000000000000000000, 0.8000000000000000444 ) ) ;
#180 = AXIS2_PLACEMENT_3D ( 'NONE', #66, #214, #268 ) ;
#181 = CARTESIAN_POINT ( 'NONE',  ( 0.000000000000000000, 0.000000000000000000, 0.07884182919144430701 ) ) ;
#182 = CALENDAR_DATE ( 2025, 19, 6 ) ;
#183 = ORIENTED_EDGE ( 'NONE', *, *, #154, .F. ) ;
#184 = PRODUCT_DEFINITION_SHAPE ( 'NONE', 'NONE',  #158 ) ;
#185 = DIRECTION ( 'NONE',  ( 0.000000000000000000, 0.000000000000000000, 1.000000000000000000 ) ) ;
#186 = DIRECTION ( 'NONE',  ( -1.000000000000000000, 1.224646799147353207E-16, 0.000000000000000000 ) ) ;
#187 = DIRECTION ( 'NONE',  ( 0.000000000000000000, 0.000000000000000000, 1.000000000000000000 ) ) ;
#188 = DATE_AND_TIME ( #60, #246 ) ;
#189 = DIRECTION ( 'NONE',  ( -0.000000000000000000, -0.000000000000000000, -1.000000000000000000 ) ) ;
#190 = ORIENTED_EDGE ( 'NONE', *, *, #320, .T. ) ;
#191 = CARTESIAN_POINT ( 'NONE',  ( 0.000000000000000000, 0.000000000000000000, 10.00000000000000000 ) ) ;
#192 = EDGE_CURVE ( 'NONE', #155, #238, #315, .T. ) ;
#193 = CARTESIAN_POINT ( 'NONE',  ( 1.192622389734054877E-15, 0.000000000000000000, 6.706250000000010481 ) ) ;
#194 = ORIENTED_EDGE ( 'NONE', *, *, #82, .T. ) ;
#195 = APPROVAL_ROLE ( '' ) ;
#196 = CC_DESIGN_APPROVAL ( #253, ( #269 ) ) ;
#197 = PERSON_AND_ORGANIZATION_ROLE ( 'creator' ) ;
#198 = PERSON_AND_ORGANIZATION ( #261, #53 ) ;
#199 = CARTESIAN_POINT ( 'NONE',  ( 1.550000000000000266, 0.000000000000000000, 0.07884182919144430701 ) ) ;
#200 = LINE ( 'NONE', #216, #230 ) ;
#201 = ORIENTED_EDGE ( 'NONE', *, *, #301, .T. ) ;
#202 = ADVANCED_FACE ( 'NONE', ( #243 ), #156, .T. ) ;
#203 = AXIS2_PLACEMENT_3D ( 'NONE', #73, #143, #163 ) ;
#204 = APPROVAL_DATE_TIME ( #218, #306 ) ;
#205 = FACE_BOUND ( 'NONE', #62, .T. ) ;
#206 = PERSON_AND_ORGANIZATION ( #261, #53 ) ;
#207 = CYLINDRICAL_SURFACE ( 'NONE', #152, 1.650000000000000133 ) ;
#208 = ORIENTED_EDGE ( 'NONE', *, *, #82, .F. ) ;
#209 = ADVANCED_FACE ( 'NONE', ( #108 ), #318, .T. ) ;
#210 = CIRCLE ( 'NONE', #1, 0.1000000000000000472 ) ;
#211 = ORIENTED_EDGE ( 'NONE', *, *, #109, .F. ) ;
#212 = DIRECTION ( 'NONE',  ( -0.000000000000000000, -0.000000000000000000, -1.000000000000000000 ) ) ;
#213 = CARTESIAN_POINT ( 'NONE',  ( -1.650000000000000133, 0.000000000000000000, 0.8000000000000000444 ) ) ;
#214 = DIRECTION ( 'NONE',  ( -0.000000000000000000, -0.000000000000000000, -1.000000000000000000 ) ) ;
#215 = CC_DESIGN_PERSON_AND_ORGANIZATION_ASSIGNMENT ( #271, #27, ( #269 ) ) ;
#216 = CARTESIAN_POINT ( 'NONE',  ( 1.000000000000000000, 1.224646799147353207E-16, 10.00000000000000000 ) ) ;
#217 = UNCERTAINTY_MEASURE_WITH_UNIT (LENGTH_MEASURE( 1.000000000000000082E-05 ), #76, 'distance_accuracy_value', 'NONE');
#218 = DATE_AND_TIME ( #182, #258 ) ;
#219 = ORIENTED_EDGE ( 'NONE', *, *, #329, .F. ) ;
#220 = DIRECTION ( 'NONE',  ( 1.000000000000000000, 0.000000000000000000, 0.000000000000000000 ) ) ;
#221 = DIRECTION ( 'NONE',  ( -1.224646799147353207E-16, -1.000000000000000000, -4.713276961144257753E-31 ) ) ;
#222 = DIRECTION ( 'NONE',  ( -1.000000000000000000, 0.000000000000000000, -3.893316036581424575E-15 ) ) ;
#223 = DIRECTION ( 'NONE',  ( -0.000000000000000000, -0.000000000000000000, -1.000000000000000000 ) ) ;
#224 = ORIENTED_EDGE ( 'NONE', *, *, #98, .F. ) ;
#225 = AXIS2_PLACEMENT_3D ( 'NONE', #166, #119, #97 ) ;
#226 = APPROVAL_STATUS ( 'not_yet_approved' ) ;
#227 = CALENDAR_DATE ( 2025, 19, 6 ) ;
#228 = PERSON_AND_ORGANIZATION_ROLE ( 'design_owner' ) ;
#229 = CARTESIAN_POINT ( 'NONE',  ( 0.000000000000000000, 0.000000000000000000, 0.07884182919144430701 ) ) ;
#230 = VECTOR ( 'NONE', #135, 1000.000000000000000 ) ;
#231 = VERTEX_POINT ( 'NONE', #72 ) ;
#232 = EDGE_CURVE ( 'NONE', #231, #61, #159, .T. ) ;
#233 = ADVANCED_FACE ( 'NONE', ( #151 ), #140, .T. ) ;
#234 = CC_DESIGN_APPROVAL ( #177, ( #158 ) ) ;
#235 = SHAPE_DEFINITION_REPRESENTATION ( #184, #51 ) ;
#236 = SPHERICAL_SURFACE ( 'NONE', #15, 6.906250000000011546 ) ;
#237 = ADVANCED_FACE ( 'NONE', ( #290 ), #178, .T. ) ;
#238 = VERTEX_POINT ( 'NONE', #251 ) ;
#239 = AXIS2_PLACEMENT_3D ( 'NONE', #193, #47, #187 ) ;
#240 = DIRECTION ( 'NONE',  ( 1.000000000000000000, 0.000000000000000000, -0.000000000000000000 ) ) ;
#241 = CARTESIAN_POINT ( 'NONE',  ( 0.000000000000000000, 0.000000000000000000, 0.8000000000000000444 ) ) ;
#242 = AXIS2_PLACEMENT_3D ( 'NONE', #266, #133, #112 ) ;
#243 = FACE_OUTER_BOUND ( 'NONE', #291, .T. ) ;
#244 = DIRECTION ( 'NONE',  ( 1.000000000000000000, 0.000000000000000000, 0.000000000000000000 ) ) ;
#245 = CARTESIAN_POINT ( 'NONE',  ( -1.000000000000000000, 0.000000000000000000, 10.00000000000000000 ) ) ;
#246 = LOCAL_TIME ( 17, 26, 36.00000000000000000, #175 ) ;
#247 = CYLINDRICAL_SURFACE ( 'NONE', #64, 1.650000000000000133 ) ;
#248 = ORIENTED_EDGE ( 'NONE', *, *, #316, .F. ) ;
#249 = DIRECTION ( 'NONE',  ( 0.000000000000000000, 0.000000000000000000, 1.000000000000000000 ) ) ;
#250 = DIRECTION ( 'NONE',  ( 1.000000000000000000, -1.224646799147353207E-16, 0.000000000000000000 ) ) ;
#251 = CARTESIAN_POINT ( 'NONE',  ( 1.572773186409549329, -1.926091648521204951E-16, -0.01853055899307199175 ) ) ;
#252 = ORIENTED_EDGE ( 'NONE', *, *, #46, .F. ) ;
#253 = APPROVAL ( #169, '未指定' ) ;
#254 = APPLICATION_PROTOCOL_DEFINITION ( 'international standard', 'config_control_design', 1994, #79 ) ;
#255 = FACE_OUTER_BOUND ( 'NONE', #5, .T. ) ;
#256 = DIRECTION ( 'NONE',  ( 1.000000000000000000, 0.000000000000000000, 0.000000000000000000 ) ) ;
#257 = AXIS2_PLACEMENT_3D ( 'NONE', #20, #300, #168 ) ;
#258 = LOCAL_TIME ( 17, 26, 36.00000000000000000, #287 ) ;
#259 = ORIENTED_EDGE ( 'NONE', *, *, #154, .T. ) ;
#260 = AXIS2_PLACEMENT_3D ( 'NONE', #278, #45, #18 ) ;
#261 = PERSON ( '未指定', '未指定', '未指定', ('未指定'), ('未指定'), ('未指定') ) ;
#262 = CIRCLE ( 'NONE', #34, 1.572773186409550439 ) ;
#263 = ORIENTED_EDGE ( 'NONE', *, *, #329, .T. ) ;
#264 = EDGE_CURVE ( 'NONE', #80, #231, #280, .T. ) ;
#265 = PLANE ( 'NONE',  #295 ) ;
#266 = CARTESIAN_POINT ( 'NONE',  ( 0.000000000000000000, 0.000000000000000000, 10.00000000000000000 ) ) ;
#267 = DATE_AND_TIME ( #127, #42 ) ;
#268 = DIRECTION ( 'NONE',  ( 1.000000000000000000, 0.000000000000000000, 0.000000000000000000 ) ) ;
#269 = PRODUCT_DEFINITION_FORMATION_WITH_SPECIFIED_SOURCE ( '任何', '', #83, .NOT_KNOWN. ) ;
#270 = CARTESIAN_POINT ( 'NONE',  ( 1.000000000000000000, 1.224646799147353207E-16, 10.00000000000000000 ) ) ;
#271 = PERSON_AND_ORGANIZATION ( #261, #53 ) ;
#272 = ORIENTED_EDGE ( 'NONE', *, *, #232, .F. ) ;
#273 = DIRECTION ( 'NONE',  ( 1.000000000000000000, 0.000000000000000000, 0.000000000000000000 ) ) ;
#274 = CARTESIAN_POINT ( 'NONE',  ( 1.192622389734054877E-15, 0.000000000000000000, 6.706250000000010481 ) ) ;
#275 = PERSON_AND_ORGANIZATION ( #261, #53 ) ;
#276 = AXIS2_PLACEMENT_3D ( 'NONE', #26, #125, #100 ) ;
#277 = CC_DESIGN_PERSON_AND_ORGANIZATION_ASSIGNMENT ( #314, #22, ( #158 ) ) ;
#278 = CARTESIAN_POINT ( 'NONE',  ( 1.192622389734054877E-15, 0.000000000000000000, 6.706250000000010481 ) ) ;
#279 =( GEOMETRIC_REPRESENTATION_CONTEXT ( 3 ) GLOBAL_UNCERTAINTY_ASSIGNED_CONTEXT ( ( #217 ) ) GLOBAL_UNIT_ASSIGNED_CONTEXT ( ( #76, #303, #52 ) ) REPRESENTATION_CONTEXT ( 'NONE', 'WORKASPACE' ) );
#280 = CIRCLE ( 'NONE', #257, 1.000000000000000000 ) ;
#281 = ORIENTED_EDGE ( 'NONE', *, *, #46, .T. ) ;
#282 = DIRECTION ( 'NONE',  ( 0.000000000000000000, 0.000000000000000000, -1.000000000000000000 ) ) ;
#283 = EDGE_CURVE ( 'NONE', #155, #84, #21, .T. ) ;
#284 = EDGE_LOOP ( 'NONE', ( #114, #74, #190 ) ) ;
#285 = ADVANCED_FACE ( 'NONE', ( #255 ), #131, .T. ) ;
#286 = CC_DESIGN_PERSON_AND_ORGANIZATION_ASSIGNMENT ( #198, #308, ( #40 ) ) ;
#287 = COORDINATED_UNIVERSAL_TIME_OFFSET ( 8, 0, .AHEAD. ) ;
#288 = ORIENTED_EDGE ( 'NONE', *, *, #86, .T. ) ;
#289 = ADVANCED_FACE ( 'NONE', ( #39 ), #236, .T. ) ;
#290 = FACE_OUTER_BOUND ( 'NONE', #25, .T. ) ;
#291 = EDGE_LOOP ( 'NONE', ( #208, #288, #248, #219 ) ) ;
#292 = AXIS2_PLACEMENT_3D ( 'NONE', #199, #173, #282 ) ;
#293 = CC_DESIGN_PERSON_AND_ORGANIZATION_ASSIGNMENT ( #275, #197, ( #269 ) ) ;
#294 = DIRECTION ( 'NONE',  ( 1.000000000000000000, 0.000000000000000000, 0.000000000000000000 ) ) ;
#295 = AXIS2_PLACEMENT_3D ( 'NONE', #241, #185, #240 ) ;
#296 = PERSON_AND_ORGANIZATION ( #261, #53 ) ;
#297 = DIRECTION ( 'NONE',  ( 1.000000000000000000, 0.000000000000000000, -0.000000000000000000 ) ) ;
#298 = CARTESIAN_POINT ( 'NONE',  ( 0.000000000000000000, 0.000000000000000000, 0.07884182919144430701 ) ) ;
#299 = CYLINDRICAL_SURFACE ( 'NONE', #242, 1.000000000000000000 ) ;
#300 = DIRECTION ( 'NONE',  ( 0.000000000000000000, 0.000000000000000000, 1.000000000000000000 ) ) ;
#301 = EDGE_CURVE ( 'NONE', #65, #324, #102, .T. ) ;
#302 = DIRECTION ( 'NONE',  ( 0.000000000000000000, 0.000000000000000000, 1.000000000000000000 ) ) ;
#303 =( NAMED_UNIT ( * ) PLANE_ANGLE_UNIT ( ) SI_UNIT ( $, .RADIAN. ) );
#304 = LOCAL_TIME ( 17, 26, 36.00000000000000000, #330 ) ;
#305 = ORIENTED_EDGE ( 'NONE', *, *, #264, .F. ) ;
#306 = APPROVAL ( #226, '未指定' ) ;
#307 = DIRECTION ( 'NONE',  ( 1.000000000000000000, 0.000000000000000000, 0.000000000000000000 ) ) ;
#308 = PERSON_AND_ORGANIZATION_ROLE ( 'classification_officer' ) ;
#309 = APPROVAL_DATE_TIME ( #188, #177 ) ;
#310 = FACE_OUTER_BOUND ( 'NONE', #33, .T. ) ;
#311 = ORIENTED_EDGE ( 'NONE', *, *, #264, .T. ) ;
#312 = CC_DESIGN_PERSON_AND_ORGANIZATION_ASSIGNMENT ( #296, #228, ( #83 ) ) ;
#313 = CC_DESIGN_DATE_AND_TIME_ASSIGNMENT ( #267, #50, ( #40 ) ) ;
#314 = PERSON_AND_ORGANIZATION ( #261, #53 ) ;
#315 = CIRCLE ( 'NONE', #71, 6.906250000000011546 ) ;
#316 = EDGE_CURVE ( 'NONE', #324, #319, #32, .T. ) ;
#317 = PERSON_AND_ORGANIZATION ( #261, #53 ) ;
#318 = SPHERICAL_SURFACE ( 'NONE', #260, 6.906250000000011546 ) ;
#319 = VERTEX_POINT ( 'NONE', #116 ) ;
#320 = EDGE_CURVE ( 'NONE', #238, #84, #262, .T. ) ;
#321 = DIRECTION ( 'NONE',  ( 0.000000000000000000, 0.000000000000000000, 1.000000000000000000 ) ) ;
#322 = CARTESIAN_POINT ( 'NONE',  ( 0.000000000000000000, 0.000000000000000000, 0.8000000000000000444 ) ) ;
#323 = EDGE_CURVE ( 'NONE', #65, #165, #54, .T. ) ;
#324 = VERTEX_POINT ( 'NONE', #161 ) ;
#325 = DESIGN_CONTEXT ( 'detailed design', #101, 'design' ) ;
#326 = CARTESIAN_POINT ( 'NONE',  ( 0.000000000000000000, 0.000000000000000000, 0.8000000000000000444 ) ) ;
#327 = CC_DESIGN_APPROVAL ( #306, ( #40 ) ) ;
#328 = CARTESIAN_POINT ( 'NONE',  ( 0.000000000000000000, 0.000000000000000000, 0.07884182919144430701 ) ) ;
#329 = EDGE_CURVE ( 'NONE', #238, #324, #164, .T. ) ;
#330 = COORDINATED_UNIVERSAL_TIME_OFFSET ( 8, 0, .AHEAD. ) ;
#331 = CIRCLE ( 'NONE', #167, 1.650000000000000133 ) ;
#332 = ORIENTED_EDGE ( 'NONE', *, *, #86, .F. ) ;
#333 = DIRECTION ( 'NONE',  ( 0.000000000000000000, 0.000000000000000000, 1.000000000000000000 ) ) ;
ENDSEC;
END-ISO-10303-21;
