ISO-10303-21;
HEADER;
FILE_DESCRIPTION (( 'STEP AP203' ),
    '1' );
FILE_NAME ('03004按键.STEP',
    '2025-06-19T09:26:21',
    ( 'Windows 用户' ),
    ( '' ),
    'SwSTEP 2.0',
    'SolidWorks 2018',
    '' );
FILE_SCHEMA (( 'CONFIG_CONTROL_DESIGN' ));
ENDSEC;

DATA;
#1 = DESIGN_CONTEXT ( 'detailed design', #146, 'design' ) ;
#2 = APPROVAL_DATE_TIME ( #21, #309 ) ;
#3 = ORIENTED_EDGE ( 'NONE', *, *, #33, .T. ) ;
#4 =( GEOMETRIC_REPRESENTATION_CONTEXT ( 3 ) GLOBAL_UNCERTAINTY_ASSIGNED_CONTEXT ( ( #38 ) ) GLOBAL_UNIT_ASSIGNED_CONTEXT ( ( #291, #55, #171 ) ) REPRESENTATION_CONTEXT ( 'NONE', 'WORKASPACE' ) );
#5 = PLANE ( 'NONE',  #179 ) ;
#6 = PLANE ( 'NONE',  #385 ) ;
#7 = COORDINATED_UNIVERSAL_TIME_OFFSET ( 8, 0, .AHEAD. ) ;
#8 = EDGE_CURVE ( 'NONE', #12, #53, #303, .T. ) ;
#9 = CARTESIAN_POINT ( 'NONE',  ( -2.500000000000000000, 3.061616997868383141E-16, -0.5000000000000000000 ) ) ;
#10 = DIRECTION ( 'NONE',  ( 1.000000000000000000, 0.000000000000000000, -0.000000000000000000 ) ) ;
#11 = DIRECTION ( 'NONE',  ( 1.000000000000000000, 0.000000000000000000, 0.000000000000000000 ) ) ;
#12 = VERTEX_POINT ( 'NONE', #272 ) ;
#13 = PLANE ( 'NONE',  #304 ) ;
#14 = VERTEX_POINT ( 'NONE', #44 ) ;
#15 = AXIS2_PLACEMENT_3D ( 'NONE', #114, #200, #296 ) ;
#16 = LINE ( 'NONE', #71, #353 ) ;
#17 = PRODUCT_RELATED_PRODUCT_CATEGORY ( 'detail', '', ( #174 ) ) ;
#18 = EDGE_CURVE ( 'NONE', #218, #372, #143, .T. ) ;
#19 = ADVANCED_BREP_SHAPE_REPRESENTATION ( '03004按键', ( #210, #49 ), #4 ) ;
#20 = CALENDAR_DATE ( 2025, 19, 6 ) ;
#21 = DATE_AND_TIME ( #103, #253 ) ;
#22 = ORIENTED_EDGE ( 'NONE', *, *, #39, .F. ) ;
#23 = APPLICATION_PROTOCOL_DEFINITION ( 'international standard', 'config_control_design', 1994, #146 ) ;
#24 = FACE_OUTER_BOUND ( 'NONE', #249, .T. ) ;
#25 = ADVANCED_FACE ( 'NONE', ( #359, #276 ), #6, .T. ) ;
#26 = DIRECTION ( 'NONE',  ( 0.000000000000000000, 0.000000000000000000, -1.000000000000000000 ) ) ;
#27 = PERSON_AND_ORGANIZATION_ROLE ( 'classification_officer' ) ;
#28 = DIRECTION ( 'NONE',  ( 0.000000000000000000, 0.000000000000000000, 1.000000000000000000 ) ) ;
#29 = APPROVAL_STATUS ( 'not_yet_approved' ) ;
#30 = CC_DESIGN_PERSON_AND_ORGANIZATION_ASSIGNMENT ( #252, #153, ( #174 ) ) ;
#31 = PERSON_AND_ORGANIZATION ( #118, #185 ) ;
#32 = SHAPE_DEFINITION_REPRESENTATION ( #80, #19 ) ;
#33 = EDGE_CURVE ( 'NONE', #127, #198, #281, .T. ) ;
#34 = DIRECTION ( 'NONE',  ( 1.000000000000000000, 0.000000000000000000, 0.000000000000000000 ) ) ;
#35 = ORIENTED_EDGE ( 'NONE', *, *, #8, .T. ) ;
#36 = CIRCLE ( 'NONE', #224, 1.250000000000000000 ) ;
#37 = CC_DESIGN_PERSON_AND_ORGANIZATION_ASSIGNMENT ( #321, #62, ( #211 ) ) ;
#38 = UNCERTAINTY_MEASURE_WITH_UNIT (LENGTH_MEASURE( 1.000000000000000082E-05 ), #291, 'distance_accuracy_value', 'NONE');
#39 = EDGE_CURVE ( 'NONE', #336, #218, #364, .T. ) ;
#40 = CARTESIAN_POINT ( 'NONE',  ( 1.250000000000000000, 1.530808498934191571E-16, 0.2999999999999999889 ) ) ;
#41 = CIRCLE ( 'NONE', #341, 1.300000000000000266 ) ;
#42 = EDGE_LOOP ( 'NONE', ( #213, #35, #46, #106 ) ) ;
#43 = DIRECTION ( 'NONE',  ( 1.000000000000000000, 0.000000000000000000, -0.000000000000000000 ) ) ;
#44 = CARTESIAN_POINT ( 'NONE',  ( -1.600000000000000089, 1.959434878635765230E-16, -1.700000000000000178 ) ) ;
#45 = CARTESIAN_POINT ( 'NONE',  ( -1.300000000000000266, 0.000000000000000000, -1.700000000000000178 ) ) ;
#46 = ORIENTED_EDGE ( 'NONE', *, *, #84, .F. ) ;
#47 = DIRECTION ( 'NONE',  ( -0.000000000000000000, -0.000000000000000000, -1.000000000000000000 ) ) ;
#48 = FACE_OUTER_BOUND ( 'NONE', #164, .T. ) ;
#49 = AXIS2_PLACEMENT_3D ( 'NONE', #112, #148, #227 ) ;
#50 = LINE ( 'NONE', #9, #265 ) ;
#51 = ORIENTED_EDGE ( 'NONE', *, *, #202, .F. ) ;
#52 = EDGE_CURVE ( 'NONE', #324, #229, #287, .T. ) ;
#53 = VERTEX_POINT ( 'NONE', #280 ) ;
#54 = ORIENTED_EDGE ( 'NONE', *, *, #208, .T. ) ;
#55 =( NAMED_UNIT ( * ) PLANE_ANGLE_UNIT ( ) SI_UNIT ( $, .RADIAN. ) );
#56 = DIRECTION ( 'NONE',  ( -0.000000000000000000, -0.000000000000000000, -1.000000000000000000 ) ) ;
#57 = ADVANCED_FACE ( 'NONE', ( #142 ), #302, .T. ) ;
#58 = CARTESIAN_POINT ( 'NONE',  ( 0.000000000000000000, 0.000000000000000000, 0.2999999999999999889 ) ) ;
#59 = AXIS2_PLACEMENT_3D ( 'NONE', #361, #181, #207 ) ;
#60 = ADVANCED_FACE ( 'NONE', ( #204 ), #13, .T. ) ;
#61 = CARTESIAN_POINT ( 'NONE',  ( 1.600000000000000089, 0.000000000000000000, -2.000000000000000000 ) ) ;
#62 = PERSON_AND_ORGANIZATION_ROLE ( 'design_supplier' ) ;
#63 = AXIS2_PLACEMENT_3D ( 'NONE', #368, #191, #163 ) ;
#64 = DIRECTION ( 'NONE',  ( 0.000000000000000000, 0.000000000000000000, 1.000000000000000000 ) ) ;
#65 = CIRCLE ( 'NONE', #231, 1.250000000000000000 ) ;
#66 = ORIENTED_EDGE ( 'NONE', *, *, #18, .T. ) ;
#67 = DIRECTION ( 'NONE',  ( -0.000000000000000000, -0.000000000000000000, 1.000000000000000000 ) ) ;
#68 = EDGE_LOOP ( 'NONE', ( #375, #383, #360, #352 ) ) ;
#69 = LOCAL_TIME ( 17, 26, 21.00000000000000000, #333 ) ;
#70 = ORIENTED_EDGE ( 'NONE', *, *, #161, .F. ) ;
#71 = CARTESIAN_POINT ( 'NONE',  ( -1.600000000000000089, 1.959434878635765230E-16, -2.000000000000000000 ) ) ;
#72 = CYLINDRICAL_SURFACE ( 'NONE', #82, 1.600000000000000089 ) ;
#73 = ORIENTED_EDGE ( 'NONE', *, *, #311, .F. ) ;
#74 = PRODUCT_DEFINITION ( '未知', '', #211, #1 ) ;
#75 = ORIENTED_EDGE ( 'NONE', *, *, #311, .T. ) ;
#76 = DIRECTION ( 'NONE',  ( 1.000000000000000000, 0.000000000000000000, 0.000000000000000000 ) ) ;
#77 = EDGE_LOOP ( 'NONE', ( #289, #223, #326, #310 ) ) ;
#78 = CARTESIAN_POINT ( 'NONE',  ( -1.300000000000000266, 0.000000000000000000, -2.000000000000000000 ) ) ;
#79 = EDGE_CURVE ( 'NONE', #130, #372, #50, .T. ) ;
#80 = PRODUCT_DEFINITION_SHAPE ( 'NONE', 'NONE',  #74 ) ;
#81 = DIRECTION ( 'NONE',  ( -1.000000000000000000, 0.000000000000000000, -0.000000000000000000 ) ) ;
#82 = AXIS2_PLACEMENT_3D ( 'NONE', #235, #67, #76 ) ;
#83 = ORIENTED_EDGE ( 'NONE', *, *, #169, .F. ) ;
#84 = EDGE_CURVE ( 'NONE', #205, #53, #41, .T. ) ;
#85 = COORDINATED_UNIVERSAL_TIME_OFFSET ( 8, 0, .AHEAD. ) ;
#86 = PERSON_AND_ORGANIZATION_ROLE ( 'creator' ) ;
#87 = CARTESIAN_POINT ( 'NONE',  ( -2.500000000000000000, 3.061616997868383141E-16, 0.000000000000000000 ) ) ;
#88 = ORIENTED_EDGE ( 'NONE', *, *, #277, .F. ) ;
#89 = ADVANCED_FACE ( 'NONE', ( #358 ), #374, .T. ) ;
#90 = DIRECTION ( 'NONE',  ( -1.000000000000000000, 0.000000000000000000, 0.000000000000000000 ) ) ;
#91 = CC_DESIGN_PERSON_AND_ORGANIZATION_ASSIGNMENT ( #145, #86, ( #211 ) ) ;
#92 = CARTESIAN_POINT ( 'NONE',  ( 0.000000000000000000, 0.000000000000000000, 0.2999999999999999889 ) ) ;
#93 = APPROVAL_PERSON_ORGANIZATION ( #31, #257, #149 ) ;
#94 = CARTESIAN_POINT ( 'NONE',  ( -1.600000000000000089, 1.959434878635765230E-16, -0.5000000000000000000 ) ) ;
#95 = DIRECTION ( 'NONE',  ( 0.000000000000000000, 0.000000000000000000, 1.000000000000000000 ) ) ;
#96 = EDGE_CURVE ( 'NONE', #336, #130, #275, .T. ) ;
#97 = CARTESIAN_POINT ( 'NONE',  ( 0.000000000000000000, 0.000000000000000000, 0.000000000000000000 ) ) ;
#98 = ORIENTED_EDGE ( 'NONE', *, *, #331, .F. ) ;
#99 = CIRCLE ( 'NONE', #241, 1.600000000000000089 ) ;
#100 = AXIS2_PLACEMENT_3D ( 'NONE', #305, #28, #232 ) ;
#101 = AXIS2_PLACEMENT_3D ( 'NONE', #45, #192, #26 ) ;
#102 = CALENDAR_DATE ( 2025, 19, 6 ) ;
#103 = CALENDAR_DATE ( 2025, 19, 6 ) ;
#104 = CARTESIAN_POINT ( 'NONE',  ( 1.250000000000000000, 1.530808498934191571E-16, 0.000000000000000000 ) ) ;
#105 = CARTESIAN_POINT ( 'NONE',  ( 0.000000000000000000, 0.000000000000000000, -2.000000000000000000 ) ) ;
#106 = ORIENTED_EDGE ( 'NONE', *, *, #110, .F. ) ;
#107 = DIRECTION ( 'NONE',  ( 0.000000000000000000, 0.000000000000000000, 1.000000000000000000 ) ) ;
#108 = LINE ( 'NONE', #40, #269 ) ;
#109 = PERSON_AND_ORGANIZATION ( #118, #185 ) ;
#110 = EDGE_CURVE ( 'NONE', #14, #205, #126, .T. ) ;
#111 = ORIENTED_EDGE ( 'NONE', *, *, #52, .F. ) ;
#112 = CARTESIAN_POINT ( 'NONE',  ( 0.000000000000000000, 0.000000000000000000, 0.000000000000000000 ) ) ;
#113 = ADVANCED_FACE ( 'NONE', ( #196 ), #212, .T. ) ;
#114 = CARTESIAN_POINT ( 'NONE',  ( 0.000000000000000000, 0.000000000000000000, -1.700000000000000178 ) ) ;
#115 = EDGE_LOOP ( 'NONE', ( #144, #225 ) ) ;
#116 = CIRCLE ( 'NONE', #234, 1.600000000000000089 ) ;
#117 = DATE_TIME_ROLE ( 'creation_date' ) ;
#118 = PERSON ( '未指定', '未指定', '未指定', ('未指定'), ('未指定'), ('未指定') ) ;
#119 = AXIS2_PLACEMENT_3D ( 'NONE', #330, #380, #325 ) ;
#120 = DIRECTION ( 'NONE',  ( -0.000000000000000000, -0.000000000000000000, 1.000000000000000000 ) ) ;
#121 = CARTESIAN_POINT ( 'NONE',  ( 2.500000000000000000, 0.000000000000000000, -0.5000000000000000000 ) ) ;
#122 = CARTESIAN_POINT ( 'NONE',  ( 0.000000000000000000, 0.000000000000000000, -0.5000000000000000000 ) ) ;
#123 = PERSON_AND_ORGANIZATION ( #118, #185 ) ;
#124 = AXIS2_PLACEMENT_3D ( 'NONE', #268, #335, #340 ) ;
#125 = DIRECTION ( 'NONE',  ( -0.000000000000000000, -0.000000000000000000, 1.000000000000000000 ) ) ;
#126 = CIRCLE ( 'NONE', #101, 0.2999999999999999334 ) ;
#127 = VERTEX_POINT ( 'NONE', #366 ) ;
#128 = EDGE_LOOP ( 'NONE', ( #66, #156 ) ) ;
#129 = DIRECTION ( 'NONE',  ( 1.000000000000000000, 0.000000000000000000, 0.000000000000000000 ) ) ;
#130 = VERTEX_POINT ( 'NONE', #273 ) ;
#131 = FACE_OUTER_BOUND ( 'NONE', #68, .T. ) ;
#132 = AXIS2_PLACEMENT_3D ( 'NONE', #370, #137, #342 ) ;
#133 = VECTOR ( 'NONE', #293, 1000.000000000000000 ) ;
#134 = VERTEX_POINT ( 'NONE', #104 ) ;
#135 = ORIENTED_EDGE ( 'NONE', *, *, #96, .F. ) ;
#136 = CARTESIAN_POINT ( 'NONE',  ( 0.000000000000000000, 0.000000000000000000, -0.5000000000000000000 ) ) ;
#137 = DIRECTION ( 'NONE',  ( 0.000000000000000000, 0.000000000000000000, 1.000000000000000000 ) ) ;
#138 = CYLINDRICAL_SURFACE ( 'NONE', #346, 1.250000000000000000 ) ;
#139 = DIRECTION ( 'NONE',  ( 0.000000000000000000, 0.000000000000000000, -1.000000000000000000 ) ) ;
#140 = CC_DESIGN_APPROVAL ( #257, ( #211 ) ) ;
#141 = AXIS2_PLACEMENT_3D ( 'NONE', #105, #315, #11 ) ;
#142 = FACE_OUTER_BOUND ( 'NONE', #42, .T. ) ;
#143 = CIRCLE ( 'NONE', #362, 2.500000000000000000 ) ;
#144 = ORIENTED_EDGE ( 'NONE', *, *, #84, .T. ) ;
#145 = PERSON_AND_ORGANIZATION ( #118, #185 ) ;
#146 = APPLICATION_CONTEXT ( 'configuration controlled 3d designs of mechanical parts and assemblies' ) ;
#147 = EDGE_LOOP ( 'NONE', ( #135, #306 ) ) ;
#148 = DIRECTION ( 'NONE',  ( 0.000000000000000000, 0.000000000000000000, 1.000000000000000000 ) ) ;
#149 = APPROVAL_ROLE ( '' ) ;
#150 = EDGE_CURVE ( 'NONE', #279, #134, #108, .T. ) ;
#151 = ORIENTED_EDGE ( 'NONE', *, *, #378, .T. ) ;
#152 = DIRECTION ( 'NONE',  ( -0.000000000000000000, -0.000000000000000000, -1.000000000000000000 ) ) ;
#153 = PERSON_AND_ORGANIZATION_ROLE ( 'design_owner' ) ;
#154 = DIRECTION ( 'NONE',  ( -1.000000000000000000, 0.000000000000000000, 0.000000000000000000 ) ) ;
#155 = ORIENTED_EDGE ( 'NONE', *, *, #184, .F. ) ;
#156 = ORIENTED_EDGE ( 'NONE', *, *, #184, .T. ) ;
#157 = EDGE_LOOP ( 'NONE', ( #73, #209 ) ) ;
#158 = CC_DESIGN_APPROVAL ( #309, ( #285 ) ) ;
#159 = AXIS2_PLACEMENT_3D ( 'NONE', #136, #47, #246 ) ;
#160 = DIRECTION ( 'NONE',  ( 0.000000000000000000, 0.000000000000000000, 1.000000000000000000 ) ) ;
#161 = EDGE_CURVE ( 'NONE', #127, #279, #36, .T. ) ;
#162 = CALENDAR_DATE ( 2025, 19, 6 ) ;
#163 = DIRECTION ( 'NONE',  ( -1.000000000000000000, 0.000000000000000000, 0.000000000000000000 ) ) ;
#164 = EDGE_LOOP ( 'NONE', ( #318, #70, #3, #75 ) ) ;
#165 = EDGE_LOOP ( 'NONE', ( #83, #239, #54, #182 ) ) ;
#166 = EDGE_CURVE ( 'NONE', #130, #336, #240, .T. ) ;
#167 = APPROVAL_DATE_TIME ( #243, #257 ) ;
#168 = APPROVAL_ROLE ( '' ) ;
#169 = EDGE_CURVE ( 'NONE', #14, #324, #16, .T. ) ;
#170 = EDGE_LOOP ( 'NONE', ( #190, #288, #238, #155 ) ) ;
#171 =( NAMED_UNIT ( * ) SI_UNIT ( $, .STERADIAN. ) SOLID_ANGLE_UNIT ( ) );
#172 = ADVANCED_FACE ( 'NONE', ( #183 ), #328, .T. ) ;
#173 = VECTOR ( 'NONE', #125, 1000.000000000000000 ) ;
#174 = PRODUCT ( '03004按键', '03004按键', '', ( #201 ) ) ;
#175 = CC_DESIGN_SECURITY_CLASSIFICATION ( #285, ( #211 ) ) ;
#176 = DIRECTION ( 'NONE',  ( -1.000000000000000000, 0.000000000000000000, 0.000000000000000000 ) ) ;
#177 = ADVANCED_FACE ( 'NONE', ( #24 ), #5, .T. ) ;
#178 = PLANE ( 'NONE',  #100 ) ;
#179 = AXIS2_PLACEMENT_3D ( 'NONE', #334, #308, #43 ) ;
#180 = CALENDAR_DATE ( 2025, 19, 6 ) ;
#181 = DIRECTION ( 'NONE',  ( 0.000000000000000000, 0.000000000000000000, 1.000000000000000000 ) ) ;
#182 = ORIENTED_EDGE ( 'NONE', *, *, #277, .T. ) ;
#183 = FACE_OUTER_BOUND ( 'NONE', #367, .T. ) ;
#184 = EDGE_CURVE ( 'NONE', #372, #218, #345, .T. ) ;
#185 = ORGANIZATION ( '未指定', '未指定', '' ) ;
#186 = DIRECTION ( 'NONE',  ( -0.000000000000000000, -0.000000000000000000, 1.000000000000000000 ) ) ;
#187 = DIRECTION ( 'NONE',  ( 1.000000000000000000, 0.000000000000000000, 0.000000000000000000 ) ) ;
#188 = DIRECTION ( 'NONE',  ( -0.000000000000000000, -0.000000000000000000, -1.000000000000000000 ) ) ;
#189 = DIRECTION ( 'NONE',  ( 0.000000000000000000, 0.000000000000000000, -1.000000000000000000 ) ) ;
#190 = ORIENTED_EDGE ( 'NONE', *, *, #79, .F. ) ;
#191 = DIRECTION ( 'NONE',  ( 0.000000000000000000, 0.000000000000000000, -1.000000000000000000 ) ) ;
#192 = DIRECTION ( 'NONE',  ( -0.000000000000000000, -1.000000000000000000, -0.000000000000000000 ) ) ;
#193 = CIRCLE ( 'NONE', #254, 1.300000000000000266 ) ;
#194 = DATE_AND_TIME ( #180, #69 ) ;
#195 = AXIS2_PLACEMENT_3D ( 'NONE', #214, #95, #129 ) ;
#196 = FACE_OUTER_BOUND ( 'NONE', #170, .T. ) ;
#197 = TOROIDAL_SURFACE ( 'NONE', #274, 1.300000000000000266, 0.2999999999999999889 ) ;
#198 = VERTEX_POINT ( 'NONE', #242 ) ;
#199 = FACE_OUTER_BOUND ( 'NONE', #165, .T. ) ;
#200 = DIRECTION ( 'NONE',  ( -0.000000000000000000, -0.000000000000000000, 1.000000000000000000 ) ) ;
#201 = MECHANICAL_CONTEXT ( 'NONE', #292, 'mechanical' ) ;
#202 = EDGE_CURVE ( 'NONE', #53, #205, #193, .T. ) ;
#203 = DIRECTION ( 'NONE',  ( 0.000000000000000000, 0.000000000000000000, -1.000000000000000000 ) ) ;
#204 = FACE_OUTER_BOUND ( 'NONE', #115, .T. ) ;
#205 = VERTEX_POINT ( 'NONE', #78 ) ;
#206 = ORIENTED_EDGE ( 'NONE', *, *, #110, .T. ) ;
#207 = DIRECTION ( 'NONE',  ( 1.000000000000000000, 0.000000000000000000, 0.000000000000000000 ) ) ;
#208 = EDGE_CURVE ( 'NONE', #12, #229, #250, .T. ) ;
#209 = ORIENTED_EDGE ( 'NONE', *, *, #286, .F. ) ;
#210 = MANIFOLD_SOLID_BREP ( '圆角3', #365 ) ;
#211 = PRODUCT_DEFINITION_FORMATION_WITH_SPECIFIED_SOURCE ( '任何', '', #174, .NOT_KNOWN. ) ;
#212 = CYLINDRICAL_SURFACE ( 'NONE', #132, 2.500000000000000000 ) ;
#213 = ORIENTED_EDGE ( 'NONE', *, *, #216, .F. ) ;
#214 = CARTESIAN_POINT ( 'NONE',  ( 0.000000000000000000, 0.000000000000000000, -0.5000000000000000000 ) ) ;
#215 = CARTESIAN_POINT ( 'NONE',  ( 0.000000000000000000, 0.000000000000000000, 0.000000000000000000 ) ) ;
#216 = EDGE_CURVE ( 'NONE', #12, #14, #116, .T. ) ;
#217 = DIRECTION ( 'NONE',  ( 0.000000000000000000, 0.000000000000000000, 1.000000000000000000 ) ) ;
#218 = VERTEX_POINT ( 'NONE', #357 ) ;
#219 = APPROVAL_PERSON_ORGANIZATION ( #369, #309, #168 ) ;
#220 = CARTESIAN_POINT ( 'NONE',  ( 0.000000000000000000, 0.000000000000000000, 0.000000000000000000 ) ) ;
#221 = EDGE_LOOP ( 'NONE', ( #379, #98, #206, #51 ) ) ;
#222 = CARTESIAN_POINT ( 'NONE',  ( 0.000000000000000000, 0.000000000000000000, -2.000000000000000000 ) ) ;
#223 = ORIENTED_EDGE ( 'NONE', *, *, #169, .T. ) ;
#224 = AXIS2_PLACEMENT_3D ( 'NONE', #312, #266, #244 ) ;
#225 = ORIENTED_EDGE ( 'NONE', *, *, #202, .T. ) ;
#226 = DATE_AND_TIME ( #162, #307 ) ;
#227 = DIRECTION ( 'NONE',  ( 1.000000000000000000, 0.000000000000000000, 0.000000000000000000 ) ) ;
#228 = SECURITY_CLASSIFICATION_LEVEL ( 'unclassified' ) ;
#229 = VERTEX_POINT ( 'NONE', #386 ) ;
#230 = APPROVAL_STATUS ( 'not_yet_approved' ) ;
#231 = AXIS2_PLACEMENT_3D ( 'NONE', #233, #64, #300 ) ;
#232 = DIRECTION ( 'NONE',  ( 1.000000000000000000, 0.000000000000000000, -0.000000000000000000 ) ) ;
#233 = CARTESIAN_POINT ( 'NONE',  ( 0.000000000000000000, 0.000000000000000000, 0.000000000000000000 ) ) ;
#234 = AXIS2_PLACEMENT_3D ( 'NONE', #264, #120, #90 ) ;
#235 = CARTESIAN_POINT ( 'NONE',  ( 0.000000000000000000, 0.000000000000000000, -2.000000000000000000 ) ) ;
#236 = PERSON_AND_ORGANIZATION ( #118, #185 ) ;
#237 = CARTESIAN_POINT ( 'NONE',  ( 0.000000000000000000, 0.000000000000000000, -2.000000000000000000 ) ) ;
#238 = ORIENTED_EDGE ( 'NONE', *, *, #39, .T. ) ;
#239 = ORIENTED_EDGE ( 'NONE', *, *, #331, .T. ) ;
#240 = CIRCLE ( 'NONE', #124, 2.500000000000000000 ) ;
#241 = AXIS2_PLACEMENT_3D ( 'NONE', #122, #356, #261 ) ;
#242 = CARTESIAN_POINT ( 'NONE',  ( -1.250000000000000000, 0.000000000000000000, 0.000000000000000000 ) ) ;
#243 = DATE_AND_TIME ( #20, #339 ) ;
#244 = DIRECTION ( 'NONE',  ( 1.000000000000000000, 0.000000000000000000, 0.000000000000000000 ) ) ;
#245 = DIRECTION ( 'NONE',  ( -1.000000000000000000, -1.224646799147353207E-16, 0.000000000000000000 ) ) ;
#246 = DIRECTION ( 'NONE',  ( 1.000000000000000000, 0.000000000000000000, 0.000000000000000000 ) ) ;
#247 = DIRECTION ( 'NONE',  ( -1.224646799147353207E-16, 1.000000000000000000, 0.000000000000000000 ) ) ;
#248 = DIRECTION ( 'NONE',  ( -1.000000000000000000, 0.000000000000000000, 0.000000000000000000 ) ) ;
#249 = EDGE_LOOP ( 'NONE', ( #267, #151 ) ) ;
#250 = LINE ( 'NONE', #61, #173 ) ;
#251 = CC_DESIGN_APPROVAL ( #373, ( #74 ) ) ;
#252 = PERSON_AND_ORGANIZATION ( #118, #185 ) ;
#253 = LOCAL_TIME ( 17, 26, 21.00000000000000000, #347 ) ;
#254 = AXIS2_PLACEMENT_3D ( 'NONE', #237, #343, #154 ) ;
#255 = ORIENTED_EDGE ( 'NONE', *, *, #96, .T. ) ;
#256 = APPROVAL_STATUS ( 'not_yet_approved' ) ;
#257 = APPROVAL ( #256, '未指定' ) ;
#258 = FACE_OUTER_BOUND ( 'NONE', #221, .T. ) ;
#259 = PERSON_AND_ORGANIZATION_ROLE ( 'creator' ) ;
#260 = AXIS2_PLACEMENT_3D ( 'NONE', #97, #217, #34 ) ;
#261 = DIRECTION ( 'NONE',  ( 1.000000000000000000, 0.000000000000000000, 0.000000000000000000 ) ) ;
#262 = ADVANCED_FACE ( 'NONE', ( #258 ), #197, .T. ) ;
#263 = LOCAL_TIME ( 17, 26, 21.00000000000000000, #7 ) ;
#264 = CARTESIAN_POINT ( 'NONE',  ( 0.000000000000000000, 0.000000000000000000, -1.700000000000000178 ) ) ;
#265 = VECTOR ( 'NONE', #317, 1000.000000000000000 ) ;
#266 = DIRECTION ( 'NONE',  ( 0.000000000000000000, 0.000000000000000000, 1.000000000000000000 ) ) ;
#267 = ORIENTED_EDGE ( 'NONE', *, *, #161, .T. ) ;
#268 = CARTESIAN_POINT ( 'NONE',  ( 0.000000000000000000, 0.000000000000000000, -0.5000000000000000000 ) ) ;
#269 = VECTOR ( 'NONE', #188, 1000.000000000000000 ) ;
#270 = CIRCLE ( 'NONE', #59, 1.250000000000000000 ) ;
#271 = CC_DESIGN_DATE_AND_TIME_ASSIGNMENT ( #377, #117, ( #74 ) ) ;
#272 = CARTESIAN_POINT ( 'NONE',  ( 1.600000000000000089, 0.000000000000000000, -1.700000000000000178 ) ) ;
#273 = CARTESIAN_POINT ( 'NONE',  ( -2.500000000000000000, 3.061616997868383141E-16, -0.5000000000000000000 ) ) ;
#274 = AXIS2_PLACEMENT_3D ( 'NONE', #355, #203, #176 ) ;
#275 = CIRCLE ( 'NONE', #320, 2.500000000000000000 ) ;
#276 = FACE_OUTER_BOUND ( 'NONE', #128, .T. ) ;
#277 = EDGE_CURVE ( 'NONE', #229, #324, #99, .T. ) ;
#278 = CARTESIAN_POINT ( 'NONE',  ( 1.300000000000000266, 1.592040838891559342E-16, -1.700000000000000178 ) ) ;
#279 = VERTEX_POINT ( 'NONE', #384 ) ;
#280 = CARTESIAN_POINT ( 'NONE',  ( 1.300000000000000266, 1.775737858763662163E-16, -2.000000000000000000 ) ) ;
#281 = LINE ( 'NONE', #323, #290 ) ;
#282 = CARTESIAN_POINT ( 'NONE',  ( 0.000000000000000000, 0.000000000000000000, -0.5000000000000000000 ) ) ;
#283 = CIRCLE ( 'NONE', #119, 1.250000000000000000 ) ;
#284 = CARTESIAN_POINT ( 'NONE',  ( 0.000000000000000000, 0.000000000000000000, -2.000000000000000000 ) ) ;
#285 = SECURITY_CLASSIFICATION ( '', '', #228 ) ;
#286 = EDGE_CURVE ( 'NONE', #134, #198, #65, .T. ) ;
#287 = CIRCLE ( 'NONE', #159, 1.600000000000000089 ) ;
#288 = ORIENTED_EDGE ( 'NONE', *, *, #166, .T. ) ;
#289 = ORIENTED_EDGE ( 'NONE', *, *, #216, .T. ) ;
#290 = VECTOR ( 'NONE', #56, 1000.000000000000000 ) ;
#291 =( LENGTH_UNIT ( ) NAMED_UNIT ( * ) SI_UNIT ( .MILLI., .METRE. ) );
#292 = APPLICATION_CONTEXT ( 'configuration controlled 3d designs of mechanical parts and assemblies' ) ;
#293 = DIRECTION ( 'NONE',  ( 0.000000000000000000, 0.000000000000000000, 1.000000000000000000 ) ) ;
#294 = ADVANCED_FACE ( 'NONE', ( #350, #337 ), #178, .F. ) ;
#295 = APPLICATION_PROTOCOL_DEFINITION ( 'international standard', 'config_control_design', 1994, #292 ) ;
#296 = DIRECTION ( 'NONE',  ( -1.000000000000000000, 0.000000000000000000, 0.000000000000000000 ) ) ;
#297 = EDGE_LOOP ( 'NONE', ( #88, #111 ) ) ;
#298 = ADVANCED_FACE ( 'NONE', ( #48 ), #354, .T. ) ;
#299 = AXIS2_PLACEMENT_3D ( 'NONE', #92, #152, #332 ) ;
#300 = DIRECTION ( 'NONE',  ( 1.000000000000000000, 0.000000000000000000, 0.000000000000000000 ) ) ;
#301 = DIRECTION ( 'NONE',  ( -1.000000000000000000, 0.000000000000000000, 0.000000000000000000 ) ) ;
#302 = TOROIDAL_SURFACE ( 'NONE', #63, 1.300000000000000266, 0.2999999999999999889 ) ;
#303 = CIRCLE ( 'NONE', #348, 0.2999999999999999334 ) ;
#304 = AXIS2_PLACEMENT_3D ( 'NONE', #222, #189, #81 ) ;
#305 = CARTESIAN_POINT ( 'NONE',  ( 0.000000000000000000, 0.000000000000000000, -0.5000000000000000000 ) ) ;
#306 = ORIENTED_EDGE ( 'NONE', *, *, #166, .F. ) ;
#307 = LOCAL_TIME ( 17, 26, 21.00000000000000000, #85 ) ;
#308 = DIRECTION ( 'NONE',  ( 0.000000000000000000, 0.000000000000000000, 1.000000000000000000 ) ) ;
#309 = APPROVAL ( #29, '未指定' ) ;
#310 = ORIENTED_EDGE ( 'NONE', *, *, #208, .F. ) ;
#311 = EDGE_CURVE ( 'NONE', #198, #134, #270, .T. ) ;
#312 = CARTESIAN_POINT ( 'NONE',  ( 0.000000000000000000, 0.000000000000000000, 0.2999999999999999889 ) ) ;
#313 = APPROVAL_PERSON_ORGANIZATION ( #123, #373, #322 ) ;
#314 = DIRECTION ( 'NONE',  ( 0.000000000000000000, 0.000000000000000000, 1.000000000000000000 ) ) ;
#315 = DIRECTION ( 'NONE',  ( -0.000000000000000000, -0.000000000000000000, 1.000000000000000000 ) ) ;
#316 = DIRECTION ( 'NONE',  ( 1.000000000000000000, 0.000000000000000000, 0.000000000000000000 ) ) ;
#317 = DIRECTION ( 'NONE',  ( 0.000000000000000000, 0.000000000000000000, 1.000000000000000000 ) ) ;
#318 = ORIENTED_EDGE ( 'NONE', *, *, #150, .F. ) ;
#319 = CC_DESIGN_PERSON_AND_ORGANIZATION_ASSIGNMENT ( #236, #27, ( #285 ) ) ;
#320 = AXIS2_PLACEMENT_3D ( 'NONE', #282, #107, #316 ) ;
#321 = PERSON_AND_ORGANIZATION ( #118, #185 ) ;
#322 = APPROVAL_ROLE ( '' ) ;
#323 = CARTESIAN_POINT ( 'NONE',  ( -1.250000000000000000, 0.000000000000000000, 0.2999999999999999889 ) ) ;
#324 = VERTEX_POINT ( 'NONE', #94 ) ;
#325 = DIRECTION ( 'NONE',  ( 1.000000000000000000, 0.000000000000000000, 0.000000000000000000 ) ) ;
#326 = ORIENTED_EDGE ( 'NONE', *, *, #52, .T. ) ;
#327 = DIRECTION ( 'NONE',  ( -0.000000000000000000, -0.000000000000000000, -1.000000000000000000 ) ) ;
#328 = CYLINDRICAL_SURFACE ( 'NONE', #195, 2.500000000000000000 ) ;
#329 = ADVANCED_FACE ( 'NONE', ( #199 ), #72, .T. ) ;
#330 = CARTESIAN_POINT ( 'NONE',  ( 0.000000000000000000, 0.000000000000000000, 0.2999999999999999889 ) ) ;
#331 = EDGE_CURVE ( 'NONE', #14, #12, #371, .T. ) ;
#332 = DIRECTION ( 'NONE',  ( -1.000000000000000000, 0.000000000000000000, 0.000000000000000000 ) ) ;
#333 = COORDINATED_UNIVERSAL_TIME_OFFSET ( 8, 0, .AHEAD. ) ;
#334 = CARTESIAN_POINT ( 'NONE',  ( 0.000000000000000000, 0.000000000000000000, 0.2999999999999999889 ) ) ;
#335 = DIRECTION ( 'NONE',  ( 0.000000000000000000, 0.000000000000000000, 1.000000000000000000 ) ) ;
#336 = VERTEX_POINT ( 'NONE', #121 ) ;
#337 = FACE_OUTER_BOUND ( 'NONE', #147, .T. ) ;
#338 = CC_DESIGN_DATE_AND_TIME_ASSIGNMENT ( #226, #351, ( #285 ) ) ;
#339 = LOCAL_TIME ( 17, 26, 21.00000000000000000, #387 ) ;
#340 = DIRECTION ( 'NONE',  ( 1.000000000000000000, 0.000000000000000000, 0.000000000000000000 ) ) ;
#341 = AXIS2_PLACEMENT_3D ( 'NONE', #284, #139, #248 ) ;
#342 = DIRECTION ( 'NONE',  ( 1.000000000000000000, 0.000000000000000000, 0.000000000000000000 ) ) ;
#343 = DIRECTION ( 'NONE',  ( 0.000000000000000000, 0.000000000000000000, -1.000000000000000000 ) ) ;
#344 = ORIENTED_EDGE ( 'NONE', *, *, #79, .T. ) ;
#345 = CIRCLE ( 'NONE', #260, 2.500000000000000000 ) ;
#346 = AXIS2_PLACEMENT_3D ( 'NONE', #58, #327, #301 ) ;
#347 = COORDINATED_UNIVERSAL_TIME_OFFSET ( 8, 0, .AHEAD. ) ;
#348 = AXIS2_PLACEMENT_3D ( 'NONE', #278, #247, #245 ) ;
#349 = APPROVAL_DATE_TIME ( #194, #373 ) ;
#350 = FACE_BOUND ( 'NONE', #297, .T. ) ;
#351 = DATE_TIME_ROLE ( 'classification_date' ) ;
#352 = ORIENTED_EDGE ( 'NONE', *, *, #33, .F. ) ;
#353 = VECTOR ( 'NONE', #186, 1000.000000000000000 ) ;
#354 = CYLINDRICAL_SURFACE ( 'NONE', #299, 1.250000000000000000 ) ;
#355 = CARTESIAN_POINT ( 'NONE',  ( 0.000000000000000000, 0.000000000000000000, -1.700000000000000178 ) ) ;
#356 = DIRECTION ( 'NONE',  ( -0.000000000000000000, -0.000000000000000000, -1.000000000000000000 ) ) ;
#357 = CARTESIAN_POINT ( 'NONE',  ( 2.500000000000000000, 0.000000000000000000, 0.000000000000000000 ) ) ;
#358 = FACE_OUTER_BOUND ( 'NONE', #77, .T. ) ;
#359 = FACE_BOUND ( 'NONE', #157, .T. ) ;
#360 = ORIENTED_EDGE ( 'NONE', *, *, #286, .T. ) ;
#361 = CARTESIAN_POINT ( 'NONE',  ( 0.000000000000000000, 0.000000000000000000, 0.000000000000000000 ) ) ;
#362 = AXIS2_PLACEMENT_3D ( 'NONE', #220, #160, #187 ) ;
#363 = CARTESIAN_POINT ( 'NONE',  ( 2.500000000000000000, 0.000000000000000000, -0.5000000000000000000 ) ) ;
#364 = LINE ( 'NONE', #363, #133 ) ;
#365 = CLOSED_SHELL ( 'NONE', ( #57, #89, #172, #381, #298, #177, #113, #294, #25, #329, #60, #262 ) ) ;
#366 = CARTESIAN_POINT ( 'NONE',  ( -1.250000000000000000, 0.000000000000000000, 0.2999999999999999889 ) ) ;
#367 = EDGE_LOOP ( 'NONE', ( #255, #344, #376, #22 ) ) ;
#368 = CARTESIAN_POINT ( 'NONE',  ( 0.000000000000000000, 0.000000000000000000, -1.700000000000000178 ) ) ;
#369 = PERSON_AND_ORGANIZATION ( #118, #185 ) ;
#370 = CARTESIAN_POINT ( 'NONE',  ( 0.000000000000000000, 0.000000000000000000, -0.5000000000000000000 ) ) ;
#371 = CIRCLE ( 'NONE', #15, 1.600000000000000089 ) ;
#372 = VERTEX_POINT ( 'NONE', #87 ) ;
#373 = APPROVAL ( #230, '未指定' ) ;
#374 = CYLINDRICAL_SURFACE ( 'NONE', #141, 1.600000000000000089 ) ;
#375 = ORIENTED_EDGE ( 'NONE', *, *, #378, .F. ) ;
#376 = ORIENTED_EDGE ( 'NONE', *, *, #18, .F. ) ;
#377 = DATE_AND_TIME ( #102, #263 ) ;
#378 = EDGE_CURVE ( 'NONE', #279, #127, #283, .T. ) ;
#379 = ORIENTED_EDGE ( 'NONE', *, *, #8, .F. ) ;
#380 = DIRECTION ( 'NONE',  ( 0.000000000000000000, 0.000000000000000000, 1.000000000000000000 ) ) ;
#381 = ADVANCED_FACE ( 'NONE', ( #131 ), #138, .T. ) ;
#382 = CC_DESIGN_PERSON_AND_ORGANIZATION_ASSIGNMENT ( #109, #259, ( #74 ) ) ;
#383 = ORIENTED_EDGE ( 'NONE', *, *, #150, .T. ) ;
#384 = CARTESIAN_POINT ( 'NONE',  ( 1.250000000000000000, 1.530808498934191571E-16, 0.2999999999999999889 ) ) ;
#385 = AXIS2_PLACEMENT_3D ( 'NONE', #215, #314, #10 ) ;
#386 = CARTESIAN_POINT ( 'NONE',  ( 1.600000000000000089, 0.000000000000000000, -0.5000000000000000000 ) ) ;
#387 = COORDINATED_UNIVERSAL_TIME_OFFSET ( 8, 0, .AHEAD. ) ;
ENDSEC;
END-ISO-10303-21;
