ISO-10303-21;
HEADER;
FILE_DESCRIPTION (( 'STEP AP214' ),
    '1' );
FILE_NAME ('Ô²ÐÎÖ§¼Ü.STEP',
    '2025-07-13T21:48:53',
    ( '' ),
    ( '' ),
    'SwSTEP 2.0',
    'SolidWorks 2024',
    '' );
FILE_SCHEMA (( 'AUTOMOTIVE_DESIGN' ));
ENDSEC;

DATA;
#1 = FACE_OUTER_BOUND ( 'NONE', #1107, .T. ) ;
#2 =( NAMED_UNIT ( * ) SI_UNIT ( $, .STERADIAN. ) SOLID_ANGLE_UNIT ( ) );
#3 = CARTESIAN_POINT ( 'NONE',  ( 0.000000000000000000, 0.000000000000000000, 0.000000000000000000 ) ) ;
#4 = EDGE_LOOP ( 'NONE', ( #312, #203, #270, #256 ) ) ;
#5 = DIRECTION ( 'NONE',  ( -0.000000000000000000, -1.000000000000000000, -0.000000000000000000 ) ) ;
#6 = EDGE_CURVE ( 'NONE', #560, #324, #463, .T. ) ;
#7 = VECTOR ( 'NONE', #488, 999.9999999999998863 ) ;
#8 = DIRECTION ( 'NONE',  ( 0.8660254037844395958, 0.000000000000000000, 0.4999999999999981681 ) ) ;
#9 = VECTOR ( 'NONE', #186, 1000.000000000000000 ) ;
#10 = MANIFOLD_SOLID_BREP ( '\X2\51f853f0\X0\-\X2\62c94f38\X0\2', #700 ) ;
#11 = AXIS2_PLACEMENT_3D ( 'NONE', #676, #866, #511 ) ;
#12 = EDGE_LOOP ( 'NONE', ( #601, #165, #501, #912 ) ) ;
#13 = VECTOR ( 'NONE', #486, 1000.000000000000000 ) ;
#14 = LINE ( 'NONE', #970, #932 ) ;
#15 = CARTESIAN_POINT ( 'NONE',  ( -34.89101615137688839, 0.000000000000000000, -19.56698729810813475 ) ) ;
#16 = EDGE_CURVE ( 'NONE', #565, #96, #158, .T. ) ;
#17 = LINE ( 'NONE', #363, #444 ) ;
#18 = ORIENTED_EDGE ( 'NONE', *, *, #819, .F. ) ;
#19 = VERTEX_POINT ( 'NONE', #933 ) ;
#20 = EDGE_CURVE ( 'NONE', #438, #634, #418, .T. ) ;
#21 = CARTESIAN_POINT ( 'NONE',  ( 0.000000000000000000, 0.000000000000000000, 0.000000000000000000 ) ) ;
#22 = DIRECTION ( 'NONE',  ( 0.8660254037844357100, 0.000000000000000000, -0.5000000000000051070 ) ) ;
#23 = DIRECTION ( 'NONE',  ( 0.4999999999999982792, 0.000000000000000000, -0.8660254037844397068 ) ) ;
#24 = EDGE_LOOP ( 'NONE', ( #1050, #639, #908, #587, #449, #752, #640, #405, #747, #956, #1096, #600, #180, #179, #783, #570, #619, #252, #285, #583, #860, #218, #67, #220, #1013, #497, #467, #795, #920, #234, #1098, #1030, #193, #769, #192, #18 ) ) ;
#25 = ORIENTED_EDGE ( 'NONE', *, *, #895, .T. ) ;
#26 = FACE_OUTER_BOUND ( 'NONE', #534, .T. ) ;
#27 = DIRECTION ( 'NONE',  ( -0.000000000000000000, -1.000000000000000000, -0.000000000000000000 ) ) ;
#28 = DIRECTION ( 'NONE',  ( 0.000000000000000000, -0.000000000000000000, -1.000000000000000000 ) ) ;
#29 = ORIENTED_EDGE ( 'NONE', *, *, #822, .T. ) ;
#30 = ORIENTED_EDGE ( 'NONE', *, *, #691, .F. ) ;
#31 = AXIS2_PLACEMENT_3D ( 'NONE', #869, #329, #1108 ) ;
#32 = DIRECTION ( 'NONE',  ( 0.000000000000000000, 1.000000000000000000, 0.000000000000000000 ) ) ;
#33 = EDGE_CURVE ( 'NONE', #119, #925, #949, .T. ) ;
#34 = CARTESIAN_POINT ( 'NONE',  ( 0.000000000000000000, 1.000000000000000000, -10.00000000000000000 ) ) ;
#35 = FACE_OUTER_BOUND ( 'NONE', #612, .T. ) ;
#36 = VERTEX_POINT ( 'NONE', #83 ) ;
#37 = VERTEX_POINT ( 'NONE', #337 ) ;
#38 = DIRECTION ( 'NONE',  ( -0.5000000000000082157, -0.000000000000000000, -0.8660254037844338226 ) ) ;
#39 = CARTESIAN_POINT ( 'NONE',  ( 0.000000000000000000, 0.000000000000000000, 0.000000000000000000 ) ) ;
#40 = CARTESIAN_POINT ( 'NONE',  ( 0.000000000000000000, 0.000000000000000000, -10.00000000000000000 ) ) ;
#41 = EDGE_LOOP ( 'NONE', ( #415, #1036 ) ) ;
#42 = FACE_OUTER_BOUND ( 'NONE', #353, .T. ) ;
#43 = DIRECTION ( 'NONE',  ( 0.000000000000000000, 0.000000000000000000, 1.000000000000000000 ) ) ;
#44 = LINE ( 'NONE', #195, #1057 ) ;
#45 = EDGE_CURVE ( 'NONE', #152, #750, #735, .T. ) ;
#46 = DIRECTION ( 'NONE',  ( 0.000000000000000000, 1.000000000000000000, 0.000000000000000000 ) ) ;
#47 = LINE ( 'NONE', #215, #863 ) ;
#48 = ORIENTED_EDGE ( 'NONE', *, *, #289, .F. ) ;
#49 = CARTESIAN_POINT ( 'NONE',  ( -8.410254037844325126, 0.000000000000000000, 5.433012701892316443 ) ) ;
#50 = VECTOR ( 'NONE', #561, 1000.000000000000000 ) ;
#51 = DIRECTION ( 'NONE',  ( 0.5000000000000091038, 0.000000000000000000, 0.8660254037844333785 ) ) ;
#52 = ORIENTED_EDGE ( 'NONE', *, *, #882, .T. ) ;
#53 = LINE ( 'NONE', #317, #843 ) ;
#54 = PLANE ( 'NONE',  #559 ) ;
#55 = DIRECTION ( 'NONE',  ( 0.000000000000000000, 1.000000000000000000, 0.000000000000000000 ) ) ;
#56 = ORIENTED_EDGE ( 'NONE', *, *, #129, .F. ) ;
#57 = DIRECTION ( 'NONE',  ( -0.000000000000000000, 1.000000000000000000, -0.000000000000000000 ) ) ;
#58 = DIRECTION ( 'NONE',  ( -2.710505431213761085E-16, -0.000000000000000000, 1.000000000000000000 ) ) ;
#59 = VERTEX_POINT ( 'NONE', #598 ) ;
#60 = LINE ( 'NONE', #478, #174 ) ;
#61 = ORIENTED_EDGE ( 'NONE', *, *, #683, .T. ) ;
#62 = DIRECTION ( 'NONE',  ( -0.000000000000000000, 1.000000000000000000, -0.000000000000000000 ) ) ;
#63 = ADVANCED_FACE ( 'NONE', ( #848 ), #777, .T. ) ;
#64 = AXIS2_PLACEMENT_3D ( 'NONE', #737, #991, #51 ) ;
#65 = VECTOR ( 'NONE', #372, 1000.000000000000227 ) ;
#66 = VECTOR ( 'NONE', #382, 999.9999999999998863 ) ;
#67 = ORIENTED_EDGE ( 'NONE', *, *, #553, .F. ) ;
#68 = CARTESIAN_POINT ( 'NONE',  ( -8.410254037844437036, -13.00000000000000000, -5.433012701892142360 ) ) ;
#69 = ORIENTED_EDGE ( 'NONE', *, *, #510, .F. ) ;
#70 = LINE ( 'NONE', #696, #987 ) ;
#71 = DIRECTION ( 'NONE',  ( 0.000000000000000000, -0.000000000000000000, -1.000000000000000000 ) ) ;
#72 = DIRECTION ( 'NONE',  ( -0.4999999999999916178, 0.000000000000000000, 0.8660254037844433705 ) ) ;
#73 = VERTEX_POINT ( 'NONE', #173 ) ;
#74 = CARTESIAN_POINT ( 'NONE',  ( 0.000000000000000000, 1.000000000000000000, 0.000000000000000000 ) ) ;
#75 = EDGE_CURVE ( 'NONE', #246, #935, #88, .T. ) ;
#76 = DIRECTION ( 'NONE',  ( -1.000000000000000000, 0.000000000000000000, 0.000000000000000000 ) ) ;
#77 = LINE ( 'NONE', #517, #300 ) ;
#78 = ORIENTED_EDGE ( 'NONE', *, *, #314, .F. ) ;
#79 = ADVANCED_FACE ( 'NONE', ( #1015 ), #178, .T. ) ;
#80 = CARTESIAN_POINT ( 'NONE',  ( 0.5000000000008401058, 0.000000000000000000, -9.999999999999959144 ) ) ;
#81 = VECTOR ( 'NONE', #190, 1000.000000000000000 ) ;
#82 = VECTOR ( 'NONE', #38, 1000.000000000000114 ) ;
#83 = CARTESIAN_POINT ( 'NONE',  ( -34.39101615137689549, -13.00000000000000000, -20.43301270189257934 ) ) ;
#84 = VECTOR ( 'NONE', #688, 1000.000000000000114 ) ;
#85 = DIRECTION ( 'NONE',  ( 0.000000000000000000, 1.000000000000000000, 0.000000000000000000 ) ) ;
#86 = EDGE_LOOP ( 'NONE', ( #52, #507, #135, #176, #744 ) ) ;
#87 = LINE ( 'NONE', #161, #335 ) ;
#88 = LINE ( 'NONE', #522, #172 ) ;
#89 =( NAMED_UNIT ( * ) PLANE_ANGLE_UNIT ( ) SI_UNIT ( $, .RADIAN. ) );
#90 = VERTEX_POINT ( 'NONE', #675 ) ;
#91 = ORIENTED_EDGE ( 'NONE', *, *, #45, .T. ) ;
#92 = EDGE_CURVE ( 'NONE', #774, #841, #423, .T. ) ;
#93 = CARTESIAN_POINT ( 'NONE',  ( 34.39101615137758472, -13.00000000000000000, 20.43301270189214947 ) ) ;
#94 = EDGE_CURVE ( 'NONE', #925, #576, #697, .T. ) ;
#95 = CARTESIAN_POINT ( 'NONE',  ( 8.410254037844399733, -13.00000000000000000, 5.433012701892201868 ) ) ;
#96 = VERTEX_POINT ( 'NONE', #261 ) ;
#97 = VERTEX_POINT ( 'NONE', #687 ) ;
#98 = LINE ( 'NONE', #1059, #155 ) ;
#99 = EDGE_CURVE ( 'NONE', #375, #828, #1027, .T. ) ;
#100 = CIRCLE ( 'NONE', #426, 10.00000000000000000 ) ;
#101 = CARTESIAN_POINT ( 'NONE',  ( 34.89101615137758472, -13.00000000000000000, 19.56698729810770843 ) ) ;
#102 = VECTOR ( 'NONE', #804, 1000.000000000000000 ) ;
#103 =( GEOMETRIC_REPRESENTATION_CONTEXT ( 3 ) GLOBAL_UNCERTAINTY_ASSIGNED_CONTEXT ( ( #525 ) ) GLOBAL_UNIT_ASSIGNED_CONTEXT ( ( #1028, #89, #854 ) ) REPRESENTATION_CONTEXT ( 'NONE', 'WORKASPACE' ) );
#104 = EDGE_LOOP ( 'NONE', ( #347, #672, #806, #867, #420 ) ) ;
#105 = DIRECTION ( 'NONE',  ( -0.000000000000000000, 1.000000000000000000, -0.000000000000000000 ) ) ;
#106 = CARTESIAN_POINT ( 'NONE',  ( 8.410254037844399733, -13.00000000000000000, 5.433012701892201868 ) ) ;
#107 = DIRECTION ( 'NONE',  ( -0.5000000000000097700, 0.000000000000000000, -0.8660254037844330455 ) ) ;
#108 = ADVANCED_BREP_SHAPE_REPRESENTATION ( '\X2\57065f62652f67b6\X0\', ( #10, #758 ), #103 ) ;
#109 = VERTEX_POINT ( 'NONE', #168 ) ;
#110 = EDGE_LOOP ( 'NONE', ( #544, #69, #681, #307 ) ) ;
#111 = CARTESIAN_POINT ( 'NONE',  ( -34.39101615137731471, -13.00000000000000000, 20.43301270189261132 ) ) ;
#112 = DIRECTION ( 'NONE',  ( 0.4999999999999971134, 0.000000000000000000, -0.8660254037844403729 ) ) ;
#113 = DIRECTION ( 'NONE',  ( -0.8660254037844395958, 0.000000000000000000, -0.4999999999999982236 ) ) ;
#114 = ADVANCED_FACE ( 'NONE', ( #617 ), #955, .F. ) ;
#115 = ORIENTED_EDGE ( 'NONE', *, *, #880, .F. ) ;
#116 = DIRECTION ( 'NONE',  ( 0.5000000000000091038, 0.000000000000000000, 0.8660254037844333785 ) ) ;
#117 = CARTESIAN_POINT ( 'NONE',  ( 0.000000000000000000, 1.000000000000000000, 0.000000000000000000 ) ) ;
#118 = CARTESIAN_POINT ( 'NONE',  ( -8.910254037844334007, -13.00000000000000000, 4.566987298107882509 ) ) ;
#119 = VERTEX_POINT ( 'NONE', #207 ) ;
#120 = VECTOR ( 'NONE', #269, 1000.000000000000227 ) ;
#121 = CIRCLE ( 'NONE', #898, 50.00000000000000000 ) ;
#122 = CARTESIAN_POINT ( 'NONE',  ( 8.910254037844369535, 0.000000000000000000, -4.566987298107821225 ) ) ;
#123 = DIRECTION ( 'NONE',  ( 0.000000000000000000, -1.000000000000000000, 0.000000000000000000 ) ) ;
#124 = PLANE ( 'NONE',  #679 ) ;
#125 = ORIENTED_EDGE ( 'NONE', *, *, #230, .T. ) ;
#126 = LINE ( 'NONE', #1075, #791 ) ;
#127 = ADVANCED_FACE ( 'NONE', ( #638 ), #202, .F. ) ;
#128 = PLANE ( 'NONE',  #1020 ) ;
#129 = EDGE_CURVE ( 'NONE', #36, #383, #17, .T. ) ;
#130 = LINE ( 'NONE', #564, #1076 ) ;
#131 = ORIENTED_EDGE ( 'NONE', *, *, #94, .F. ) ;
#132 = FACE_OUTER_BOUND ( 'NONE', #401, .T. ) ;
#133 = CARTESIAN_POINT ( 'NONE',  ( -0.5000000000000098810, -13.00000000000000000, 40.00000000000000000 ) ) ;
#134 = DIRECTION ( 'NONE',  ( 0.000000000000000000, 1.000000000000000000, 0.000000000000000000 ) ) ;
#135 = ORIENTED_EDGE ( 'NONE', *, *, #75, .F. ) ;
#136 = CARTESIAN_POINT ( 'NONE',  ( -8.910254037844428154, 0.000000000000000000, -4.566987298107698656 ) ) ;
#137 = VECTOR ( 'NONE', #723, 1000.000000000000000 ) ;
#138 = VECTOR ( 'NONE', #242, 1000.000000000000114 ) ;
#139 = DIRECTION ( 'NONE',  ( -1.000000000000000000, 0.000000000000000000, -2.710505431213761578E-16 ) ) ;
#140 = EDGE_CURVE ( 'NONE', #884, #247, #357, .T. ) ;
#141 = CARTESIAN_POINT ( 'NONE',  ( -8.910254037844334007, -13.00000000000000000, 4.566987298107882509 ) ) ;
#142 = ORIENTED_EDGE ( 'NONE', *, *, #1081, .F. ) ;
#143 = DIRECTION ( 'NONE',  ( 0.8660254037844504760, -0.000000000000000000, -0.4999999999999794054 ) ) ;
#144 = CARTESIAN_POINT ( 'NONE',  ( 0.4999999999999901190, -13.00000000000000000, 40.00000000000000000 ) ) ;
#145 = FACE_OUTER_BOUND ( 'NONE', #4, .T. ) ;
#146 = VERTEX_POINT ( 'NONE', #369 ) ;
#147 = EDGE_CURVE ( 'NONE', #322, #37, #959, .T. ) ;
#148 = CARTESIAN_POINT ( 'NONE',  ( -0.4999999999991469601, -13.00000000000000000, -39.99999999999995737 ) ) ;
#149 = FACE_OUTER_BOUND ( 'NONE', #901, .T. ) ;
#150 = EDGE_LOOP ( 'NONE', ( #364, #61, #170, #1085 ) ) ;
#151 = LINE ( 'NONE', #1017, #336 ) ;
#152 = VERTEX_POINT ( 'NONE', #1045 ) ;
#153 = STYLED_ITEM ( 'NONE', ( #505 ), #10 ) ;
#154 = CARTESIAN_POINT ( 'NONE',  ( -34.89101615137732182, -13.00000000000000000, 19.56698729810817738 ) ) ;
#155 = VECTOR ( 'NONE', #267, 999.9999999999998863 ) ;
#156 = EDGE_CURVE ( 'NONE', #1103, #935, #977, .T. ) ;
#157 = CIRCLE ( 'NONE', #321, 10.00000000000000000 ) ;
#158 = LINE ( 'NONE', #762, #519 ) ;
#159 = CARTESIAN_POINT ( 'NONE',  ( 34.89101615137816736, -13.00000000000000000, -19.56698729810737447 ) ) ;
#160 = ORIENTED_EDGE ( 'NONE', *, *, #547, .F. ) ;
#161 = CARTESIAN_POINT ( 'NONE',  ( 8.910254037844369535, 0.000000000000000000, -4.566987298107821225 ) ) ;
#162 = EDGE_CURVE ( 'NONE', #146, #709, #558, .T. ) ;
#163 = EDGE_CURVE ( 'NONE', #518, #618, #798, .T. ) ;
#164 = DIRECTION ( 'NONE',  ( -0.000000000000000000, 1.000000000000000000, -0.000000000000000000 ) ) ;
#165 = ORIENTED_EDGE ( 'NONE', *, *, #538, .T. ) ;
#166 = EDGE_LOOP ( 'NONE', ( #720, #997, #733, #529 ) ) ;
#167 = CARTESIAN_POINT ( 'NONE',  ( 0.000000000000000000, 1.000000000000000000, -50.00000000000000000 ) ) ;
#168 = CARTESIAN_POINT ( 'NONE',  ( -8.410254037844325126, -13.00000000000000000, 5.433012701892316443 ) ) ;
#169 = EDGE_CURVE ( 'NONE', #801, #90, #627, .T. ) ;
#170 = ORIENTED_EDGE ( 'NONE', *, *, #862, .T. ) ;
#171 = CARTESIAN_POINT ( 'NONE',  ( 34.39101615137758472, -13.00000000000000000, 20.43301270189214947 ) ) ;
#172 = VECTOR ( 'NONE', #164, 1000.000000000000000 ) ;
#173 = CARTESIAN_POINT ( 'NONE',  ( 0.000000000000000000, 0.000000000000000000, -50.00000000000000000 ) ) ;
#174 = VECTOR ( 'NONE', #740, 1000.000000000000000 ) ;
#175 = CARTESIAN_POINT ( 'NONE',  ( 34.89101615137816736, -13.00000000000000000, -19.56698729810737447 ) ) ;
#176 = ORIENTED_EDGE ( 'NONE', *, *, #1100, .F. ) ;
#177 = LINE ( 'NONE', #171, #826 ) ;
#178 = PLANE ( 'NONE',  #665 ) ;
#179 = ORIENTED_EDGE ( 'NONE', *, *, #822, .F. ) ;
#180 = ORIENTED_EDGE ( 'NONE', *, *, #147, .F. ) ;
#181 = ADVANCED_FACE ( 'NONE', ( #1061 ), #183, .F. ) ;
#182 = LINE ( 'NONE', #531, #649 ) ;
#183 = PLANE ( 'NONE',  #840 ) ;
#184 = ORIENTED_EDGE ( 'NONE', *, *, #230, .F. ) ;
#185 = ORIENTED_EDGE ( 'NONE', *, *, #1040, .T. ) ;
#186 = DIRECTION ( 'NONE',  ( -0.000000000000000000, 1.000000000000000000, -0.000000000000000000 ) ) ;
#187 = FACE_OUTER_BOUND ( 'NONE', #86, .T. ) ;
#188 = EDGE_CURVE ( 'NONE', #845, #524, #458, .T. ) ;
#189 = VECTOR ( 'NONE', #1067, 1000.000000000000114 ) ;
#190 = DIRECTION ( 'NONE',  ( -0.000000000000000000, 1.000000000000000000, -0.000000000000000000 ) ) ;
#191 = AXIS2_PLACEMENT_3D ( 'NONE', #348, #846, #520 ) ;
#192 = ORIENTED_EDGE ( 'NONE', *, *, #162, .F. ) ;
#193 = ORIENTED_EDGE ( 'NONE', *, *, #929, .T. ) ;
#194 = LINE ( 'NONE', #974, #278 ) ;
#195 = CARTESIAN_POINT ( 'NONE',  ( -0.5000000000000017764, -13.00000000000000000, 10.00000000000000000 ) ) ;
#196 = ADVANCED_FACE ( 'NONE', ( #805 ), #811, .T. ) ;
#197 = CARTESIAN_POINT ( 'NONE',  ( 0.4999999999999982792, -13.00000000000000000, 10.00000000000000000 ) ) ;
#198 = VERTEX_POINT ( 'NONE', #892 ) ;
#199 = EDGE_CURVE ( 'NONE', #850, #1090, #413, .T. ) ;
#200 = CARTESIAN_POINT ( 'NONE',  ( 0.000000000000000000, 0.000000000000000000, 10.00000000000000000 ) ) ;
#201 = CARTESIAN_POINT ( 'NONE',  ( 8.410254037844399733, -13.00000000000000000, 5.433012701892201868 ) ) ;
#202 = PLANE ( 'NONE',  #857 ) ;
#203 = ORIENTED_EDGE ( 'NONE', *, *, #169, .T. ) ;
#204 = ORIENTED_EDGE ( 'NONE', *, *, #961, .F. ) ;
#205 = CARTESIAN_POINT ( 'NONE',  ( -34.89101615137732182, -13.00000000000000000, 19.56698729810817738 ) ) ;
#206 = FACE_OUTER_BOUND ( 'NONE', #150, .T. ) ;
#207 = CARTESIAN_POINT ( 'NONE',  ( 0.5000000000008530954, -13.00000000000000000, -39.99999999999995737 ) ) ;
#208 = EDGE_CURVE ( 'NONE', #109, #875, #965, .T. ) ;
#209 = ORIENTED_EDGE ( 'NONE', *, *, #162, .T. ) ;
#210 = VECTOR ( 'NONE', #1070, 1000.000000000000114 ) ;
#211 = DIRECTION ( 'NONE',  ( 0.000000000000000000, 0.000000000000000000, 1.000000000000000000 ) ) ;
#212 = DIRECTION ( 'NONE',  ( -0.5000000000000000000, -0.000000000000000000, 0.8660254037844385966 ) ) ;
#213 = DIRECTION ( 'NONE',  ( -2.710505431213761085E-16, -0.000000000000000000, 1.000000000000000000 ) ) ;
#214 = ORIENTED_EDGE ( 'NONE', *, *, #404, .T. ) ;
#215 = CARTESIAN_POINT ( 'NONE',  ( -0.4999999999991598387, -13.00000000000000000, -9.999999999999959144 ) ) ;
#216 = CARTESIAN_POINT ( 'NONE',  ( -0.4999999999991598387, -13.00000000000000000, -9.999999999999959144 ) ) ;
#217 = CARTESIAN_POINT ( 'NONE',  ( -34.89101615137732182, -13.00000000000000000, 19.56698729810817738 ) ) ;
#218 = ORIENTED_EDGE ( 'NONE', *, *, #745, .F. ) ;
#219 = LINE ( 'NONE', #396, #50 ) ;
#220 = ORIENTED_EDGE ( 'NONE', *, *, #140, .F. ) ;
#221 = DIRECTION ( 'NONE',  ( -0.4999999999999916178, 0.000000000000000000, 0.8660254037844434816 ) ) ;
#222 = FACE_OUTER_BOUND ( 'NONE', #110, .T. ) ;
#223 = ORIENTED_EDGE ( 'NONE', *, *, #911, .T. ) ;
#224 = CARTESIAN_POINT ( 'NONE',  ( -0.4999999999991469601, 0.000000000000000000, -39.99999999999995737 ) ) ;
#225 = VECTOR ( 'NONE', #988, 1000.000000000000000 ) ;
#226 = ORIENTED_EDGE ( 'NONE', *, *, #504, .F. ) ;
#227 = AXIS2_PLACEMENT_3D ( 'NONE', #117, #964, #642 ) ;
#228 = DIRECTION ( 'NONE',  ( -0.000000000000000000, 1.000000000000000000, -0.000000000000000000 ) ) ;
#229 = PLANE ( 'NONE',  #716 ) ;
#230 = EDGE_CURVE ( 'NONE', #198, #709, #621, .T. ) ;
#231 = EDGE_LOOP ( 'NONE', ( #812, #280, #291, #832 ) ) ;
#232 = DIRECTION ( 'NONE',  ( -0.000000000000000000, 0.000000000000000000, 1.000000000000000000 ) ) ;
#233 = CARTESIAN_POINT ( 'NONE',  ( 34.89101615137816736, -13.00000000000000000, -19.56698729810737447 ) ) ;
#234 = ORIENTED_EDGE ( 'NONE', *, *, #1040, .F. ) ;
#235 = CARTESIAN_POINT ( 'NONE',  ( 0.000000000000000000, 0.000000000000000000, 0.000000000000000000 ) ) ;
#236 = ORIENTED_EDGE ( 'NONE', *, *, #169, .F. ) ;
#237 = DIRECTION ( 'NONE',  ( -2.710505431213761578E-16, 0.000000000000000000, 1.000000000000000000 ) ) ;
#238 = APPLICATION_PROTOCOL_DEFINITION ( 'draft international standard', 'automotive_design', 1998, #1073 ) ;
#239 = ORIENTED_EDGE ( 'NONE', *, *, #16, .T. ) ;
#240 = ADVANCED_FACE ( 'NONE', ( #35 ), #972, .F. ) ;
#241 = AXIS2_PLACEMENT_3D ( 'NONE', #704, #452, #548 ) ;
#242 = DIRECTION ( 'NONE',  ( -0.5000000000000051070, 0.000000000000000000, -0.8660254037844355990 ) ) ;
#243 = VECTOR ( 'NONE', #923, 1000.000000000000000 ) ;
#244 = ADVANCED_FACE ( 'NONE', ( #533 ), #264, .F. ) ;
#245 = DIRECTION ( 'NONE',  ( -0.4999999999999795719, 0.000000000000000000, -0.8660254037844504760 ) ) ;
#246 = VERTEX_POINT ( 'NONE', #827 ) ;
#247 = VERTEX_POINT ( 'NONE', #1079 ) ;
#248 = DIRECTION ( 'NONE',  ( -0.5000000000000051070, 0.000000000000000000, -0.8660254037844355990 ) ) ;
#249 = ADVANCED_FACE ( 'NONE', ( #815 ), #831, .F. ) ;
#250 = CARTESIAN_POINT ( 'NONE',  ( 8.410254037844364206, -13.00000000000000000, -5.433012701892257823 ) ) ;
#251 = FACE_OUTER_BOUND ( 'NONE', #12, .T. ) ;
#252 = ORIENTED_EDGE ( 'NONE', *, *, #597, .F. ) ;
#253 = DIRECTION ( 'NONE',  ( 0.000000000000000000, 0.000000000000000000, 1.000000000000000000 ) ) ;
#254 = PLANE ( 'NONE',  #11 ) ;
#255 = ORIENTED_EDGE ( 'NONE', *, *, #448, .F. ) ;
#256 = ORIENTED_EDGE ( 'NONE', *, *, #937, .T. ) ;
#257 = PRODUCT_DEFINITION_CONTEXT ( 'detailed design', #938, 'design' ) ;
#258 = CARTESIAN_POINT ( 'NONE',  ( -34.89101615137689549, -13.00000000000000000, -19.56698729810813475 ) ) ;
#259 = VECTOR ( 'NONE', #654, 1000.000000000000000 ) ;
#260 = EDGE_CURVE ( 'NONE', #967, #1035, #1001, .T. ) ;
#261 = CARTESIAN_POINT ( 'NONE',  ( -0.5000000000000098810, 0.000000000000000000, 40.00000000000000000 ) ) ;
#262 = EDGE_LOOP ( 'NONE', ( #984, #855, #644, #821 ) ) ;
#263 = DIRECTION ( 'NONE',  ( 0.000000000000000000, 0.000000000000000000, 1.000000000000000000 ) ) ;
#264 = PLANE ( 'NONE',  #241 ) ;
#265 = ORIENTED_EDGE ( 'NONE', *, *, #163, .T. ) ;
#266 = ORIENTED_EDGE ( 'NONE', *, *, #510, .T. ) ;
#267 = DIRECTION ( 'NONE',  ( -0.8660254037844397068, 0.000000000000000000, -0.4999999999999983347 ) ) ;
#268 = DIRECTION ( 'NONE',  ( -0.000000000000000000, 1.000000000000000000, -0.000000000000000000 ) ) ;
#269 = DIRECTION ( 'NONE',  ( -0.8660254037844329345, -0.000000000000000000, 0.5000000000000097700 ) ) ;
#270 = ORIENTED_EDGE ( 'NONE', *, *, #918, .T. ) ;
#271 = CARTESIAN_POINT ( 'NONE',  ( 0.4999999999999982792, -13.00000000000000000, 10.00000000000000000 ) ) ;
#272 = ADVANCED_FACE ( 'NONE', ( #392, #574 ), #304, .T. ) ;
#273 = CARTESIAN_POINT ( 'NONE',  ( 34.89101615137816736, -13.00000000000000000, -19.56698729810737447 ) ) ;
#274 = ADVANCED_FACE ( 'NONE', ( #222 ), #295, .F. ) ;
#275 = EDGE_CURVE ( 'NONE', #1113, #1090, #905, .T. ) ;
#276 = AXIS2_PLACEMENT_3D ( 'NONE', #656, #55, #749 ) ;
#277 = DIRECTION ( 'NONE',  ( 1.000000000000000000, -0.000000000000000000, -0.000000000000000000 ) ) ;
#278 = VECTOR ( 'NONE', #281, 1000.000000000000114 ) ;
#279 = VECTOR ( 'NONE', #751, 1000.000000000000114 ) ;
#280 = ORIENTED_EDGE ( 'NONE', *, *, #833, .T. ) ;
#281 = DIRECTION ( 'NONE',  ( -0.8660254037844266062, -0.000000000000000000, -0.5000000000000208722 ) ) ;
#282 = DIRECTION ( 'NONE',  ( 0.000000000000000000, 0.000000000000000000, 1.000000000000000000 ) ) ;
#283 = CARTESIAN_POINT ( 'NONE',  ( -34.39101615137689549, -13.00000000000000000, -20.43301270189257934 ) ) ;
#284 = EDGE_CURVE ( 'NONE', #371, #59, #100, .T. ) ;
#285 = ORIENTED_EDGE ( 'NONE', *, *, #1114, .F. ) ;
#286 = ORIENTED_EDGE ( 'NONE', *, *, #314, .T. ) ;
#287 = DIRECTION ( 'NONE',  ( -0.000000000000000000, 0.000000000000000000, -1.000000000000000000 ) ) ;
#288 = DIRECTION ( 'NONE',  ( 0.000000000000000000, 1.000000000000000000, 0.000000000000000000 ) ) ;
#289 = EDGE_CURVE ( 'NONE', #535, #198, #660, .T. ) ;
#290 = CARTESIAN_POINT ( 'NONE',  ( -34.39101615137731471, -13.00000000000000000, 20.43301270189261132 ) ) ;
#291 = ORIENTED_EDGE ( 'NONE', *, *, #785, .T. ) ;
#292 = ORIENTED_EDGE ( 'NONE', *, *, #961, .T. ) ;
#293 = DIRECTION ( 'NONE',  ( 0.8660254037844329345, 0.000000000000000000, -0.5000000000000098810 ) ) ;
#294 = LINE ( 'NONE', #34, #485 ) ;
#295 = PLANE ( 'NONE',  #788 ) ;
#296 = VECTOR ( 'NONE', #1065, 1000.000000000000000 ) ;
#297 = ADVANCED_FACE ( 'NONE', ( #380 ), #229, .T. ) ;
#298 = CARTESIAN_POINT ( 'NONE',  ( 0.000000000000000000, 0.000000000000000000, 0.000000000000000000 ) ) ;
#299 = CIRCLE ( 'NONE', #809, 50.00000000000000000 ) ;
#300 = VECTOR ( 'NONE', #1023, 1000.000000000000114 ) ;
#301 = CARTESIAN_POINT ( 'NONE',  ( 0.000000000000000000, 1.000000000000000000, 0.000000000000000000 ) ) ;
#302 = ORIENTED_EDGE ( 'NONE', *, *, #99, .T. ) ;
#303 = LINE ( 'NONE', #914, #259 ) ;
#304 = PLANE ( 'NONE',  #276 ) ;
#305 = VERTEX_POINT ( 'NONE', #1089 ) ;
#306 = PLANE ( 'NONE',  #775 ) ;
#307 = ORIENTED_EDGE ( 'NONE', *, *, #976, .T. ) ;
#308 = FACE_OUTER_BOUND ( 'NONE', #262, .T. ) ;
#309 = DIRECTION ( 'NONE',  ( -0.000000000000000000, 1.000000000000000000, -0.000000000000000000 ) ) ;
#310 = ORIENTED_EDGE ( 'NONE', *, *, #1000, .T. ) ;
#311 = DIRECTION ( 'NONE',  ( 0.000000000000000000, 0.000000000000000000, -1.000000000000000000 ) ) ;
#312 = ORIENTED_EDGE ( 'NONE', *, *, #326, .T. ) ;
#313 = PLANE ( 'NONE',  #465 ) ;
#314 = EDGE_CURVE ( 'NONE', #198, #109, #1084, .T. ) ;
#315 = CARTESIAN_POINT ( 'NONE',  ( 0.000000000000000000, 1.000000000000000000, 0.000000000000000000 ) ) ;
#316 = ORIENTED_EDGE ( 'NONE', *, *, #1000, .F. ) ;
#317 = CARTESIAN_POINT ( 'NONE',  ( -0.5000000000000017764, -13.00000000000000000, 10.00000000000000000 ) ) ;
#318 = VECTOR ( 'NONE', #76, 1000.000000000000000 ) ;
#319 = VECTOR ( 'NONE', #268, 1000.000000000000000 ) ;
#320 = DIRECTION ( 'NONE',  ( -0.000000000000000000, -1.000000000000000000, -0.000000000000000000 ) ) ;
#321 = AXIS2_PLACEMENT_3D ( 'NONE', #402, #913, #211 ) ;
#322 = VERTEX_POINT ( 'NONE', #1007 ) ;
#323 = CARTESIAN_POINT ( 'NONE',  ( -34.89101615137689549, -13.00000000000000000, -19.56698729810813475 ) ) ;
#324 = VERTEX_POINT ( 'NONE', #40 ) ;
#325 = DIRECTION ( 'NONE',  ( -0.8660254037844378194, 0.000000000000000000, 0.5000000000000016653 ) ) ;
#326 = EDGE_CURVE ( 'NONE', #845, #801, #385, .T. ) ;
#327 = DIRECTION ( 'NONE',  ( -4.300668617525834584E-16, 0.000000000000000000, 1.000000000000000000 ) ) ;
#328 = EDGE_LOOP ( 'NONE', ( #1119, #223, #204, #131, #425 ) ) ;
#329 = DIRECTION ( 'NONE',  ( 1.000000000000000000, 0.000000000000000000, 2.710505431213761578E-16 ) ) ;
#330 = SURFACE_STYLE_USAGE ( .BOTH. , #1022 ) ;
#331 = CARTESIAN_POINT ( 'NONE',  ( 8.910254037844371311, 0.000000000000000000, -4.566987298107821225 ) ) ;
#332 = ORIENTED_EDGE ( 'NONE', *, *, #1053, .F. ) ;
#333 = MECHANICAL_DESIGN_GEOMETRIC_PRESENTATION_REPRESENTATION (  '', ( #153 ), #368 ) ;
#334 = DIRECTION ( 'NONE',  ( 0.4999999999999970579, 0.000000000000000000, -0.8660254037844402619 ) ) ;
#335 = VECTOR ( 'NONE', #248, 1000.000000000000114 ) ;
#336 = VECTOR ( 'NONE', #1106, 1000.000000000000000 ) ;
#337 = CARTESIAN_POINT ( 'NONE',  ( 34.89101615137759183, 0.000000000000000000, 19.56698729810770843 ) ) ;
#338 = CARTESIAN_POINT ( 'NONE',  ( -34.39101615137689549, 0.000000000000000000, -20.43301270189257934 ) ) ;
#339 = ORIENTED_EDGE ( 'NONE', *, *, #399, .T. ) ;
#340 = CARTESIAN_POINT ( 'NONE',  ( 0.000000000000000000, 1.000000000000000000, 0.000000000000000000 ) ) ;
#341 = FACE_OUTER_BOUND ( 'NONE', #166, .T. ) ;
#342 = ORIENTED_EDGE ( 'NONE', *, *, #284, .T. ) ;
#343 = ORIENTED_EDGE ( 'NONE', *, *, #358, .F. ) ;
#344 = DIRECTION ( 'NONE',  ( -1.000000000000000000, 0.000000000000000000, -4.300668617525835570E-16 ) ) ;
#345 = EDGE_CURVE ( 'NONE', #906, #889, #130, .T. ) ;
#346 = DIRECTION ( 'NONE',  ( 1.000000000000000000, 0.000000000000000000, 0.000000000000000000 ) ) ;
#347 = ORIENTED_EDGE ( 'NONE', *, *, #92, .T. ) ;
#348 = CARTESIAN_POINT ( 'NONE',  ( 34.39101615137816736, -13.00000000000000000, -20.43301270189180840 ) ) ;
#349 = COLOUR_RGB ( '',0.7921568627450980005, 0.8196078431372548767, 0.9333333333333333481 ) ;
#350 = AXIS2_PLACEMENT_3D ( 'NONE', #936, #344, #434 ) ;
#351 = DIRECTION ( 'NONE',  ( -0.8660254037844330455, 0.000000000000000000, 0.5000000000000097700 ) ) ;
#352 = AXIS2_PLACEMENT_3D ( 'NONE', #653, #658, #1003 ) ;
#353 = EDGE_LOOP ( 'NONE', ( #966, #316, #376, #572 ) ) ;
#354 = FACE_OUTER_BOUND ( 'NONE', #328, .T. ) ;
#355 = CARTESIAN_POINT ( 'NONE',  ( -8.410254037844325126, -13.00000000000000000, 5.433012701892316443 ) ) ;
#356 = ADVANCED_FACE ( 'NONE', ( #145 ), #124, .T. ) ;
#357 = LINE ( 'NONE', #464, #483 ) ;
#358 = EDGE_CURVE ( 'NONE', #305, #774, #44, .T. ) ;
#359 = ORIENTED_EDGE ( 'NONE', *, *, #289, .T. ) ;
#360 = VERTEX_POINT ( 'NONE', #15 ) ;
#361 = DIRECTION ( 'NONE',  ( 0.000000000000000000, 1.000000000000000000, 0.000000000000000000 ) ) ;
#362 = LINE ( 'NONE', #647, #445 ) ;
#363 = CARTESIAN_POINT ( 'NONE',  ( -34.39101615137689549, -13.00000000000000000, -20.43301270189257934 ) ) ;
#364 = ORIENTED_EDGE ( 'NONE', *, *, #345, .T. ) ;
#365 = LINE ( 'NONE', #1051, #702 ) ;
#366 = FACE_OUTER_BOUND ( 'NONE', #484, .T. ) ;
#367 = EDGE_CURVE ( 'NONE', #889, #37, #1060, .T. ) ;
#368 =( GEOMETRIC_REPRESENTATION_CONTEXT ( 3 ) GLOBAL_UNCERTAINTY_ASSIGNED_CONTEXT ( ( #1121 ) ) GLOBAL_UNIT_ASSIGNED_CONTEXT ( ( #865, #944, #2 ) ) REPRESENTATION_CONTEXT ( 'NONE', 'WORKASPACE' ) );
#369 = CARTESIAN_POINT ( 'NONE',  ( -34.89101615137732182, 0.000000000000000000, 19.56698729810817738 ) ) ;
#370 = VECTOR ( 'NONE', #334, 1000.000000000000114 ) ;
#371 = VERTEX_POINT ( 'NONE', #457 ) ;
#372 = DIRECTION ( 'NONE',  ( 0.8660254037844264952, 0.000000000000000000, 0.5000000000000209832 ) ) ;
#373 = FACE_OUTER_BOUND ( 'NONE', #407, .T. ) ;
#374 = DIRECTION ( 'NONE',  ( -1.000000000000000000, -0.000000000000000000, -0.000000000000000000 ) ) ;
#375 = VERTEX_POINT ( 'NONE', #722 ) ;
#376 = ORIENTED_EDGE ( 'NONE', *, *, #417, .F. ) ;
#377 = CARTESIAN_POINT ( 'NONE',  ( -34.39101615137689549, -13.00000000000000000, -20.43301270189257934 ) ) ;
#378 = FACE_OUTER_BOUND ( 'NONE', #994, .T. ) ;
#379 = ADVANCED_FACE ( 'NONE', ( #206 ), #462, .T. ) ;
#380 = FACE_OUTER_BOUND ( 'NONE', #764, .T. ) ;
#381 = ORIENTED_EDGE ( 'NONE', *, *, #671, .T. ) ;
#382 = DIRECTION ( 'NONE',  ( -0.8660254037844397068, 0.000000000000000000, -0.4999999999999983347 ) ) ;
#383 = VERTEX_POINT ( 'NONE', #881 ) ;
#384 = CARTESIAN_POINT ( 'NONE',  ( -0.4999999999991469601, -13.00000000000000000, -39.99999999999995737 ) ) ;
#385 = LINE ( 'NONE', #582, #648 ) ;
#386 = AXIS2_PLACEMENT_3D ( 'NONE', #470, #539, #282 ) ;
#387 = ORIENTED_EDGE ( 'NONE', *, *, #624, .T. ) ;
#388 = VECTOR ( 'NONE', #748, 1000.000000000000000 ) ;
#389 = DIRECTION ( 'NONE',  ( -0.000000000000000000, 1.000000000000000000, -0.000000000000000000 ) ) ;
#390 = ORIENTED_EDGE ( 'NONE', *, *, #45, .F. ) ;
#391 = LINE ( 'NONE', #1083, #969 ) ;
#392 = FACE_OUTER_BOUND ( 'NONE', #549, .T. ) ;
#393 = EDGE_CURVE ( 'NONE', #324, #1103, #593, .T. ) ;
#394 = ORIENTED_EDGE ( 'NONE', *, *, #1114, .T. ) ;
#395 = ADVANCED_FACE ( 'NONE', ( #378 ), #128, .F. ) ;
#396 = CARTESIAN_POINT ( 'NONE',  ( -0.5000000000000098810, -13.00000000000000000, 40.00000000000000000 ) ) ;
#397 = ORIENTED_EDGE ( 'NONE', *, *, #412, .T. ) ;
#398 = FACE_OUTER_BOUND ( 'NONE', #513, .T. ) ;
#399 = EDGE_CURVE ( 'NONE', #109, #518, #551, .T. ) ;
#400 = CARTESIAN_POINT ( 'NONE',  ( 8.910254037844369535, -13.00000000000000000, -4.566987298107821225 ) ) ;
#401 = EDGE_LOOP ( 'NONE', ( #861, #342, #1120, #651, #800, #142 ) ) ;
#402 = CARTESIAN_POINT ( 'NONE',  ( 0.000000000000000000, 0.000000000000000000, 0.000000000000000000 ) ) ;
#403 = DIRECTION ( 'NONE',  ( -0.5000000000000082157, -0.000000000000000000, -0.8660254037844338226 ) ) ;
#404 = EDGE_CURVE ( 'NONE', #90, #96, #711, .T. ) ;
#405 = ORIENTED_EDGE ( 'NONE', *, *, #655, .F. ) ;
#406 = CARTESIAN_POINT ( 'NONE',  ( 34.39101615137816736, -13.00000000000000000, -20.43301270189180840 ) ) ;
#407 = EDGE_LOOP ( 'NONE', ( #390, #695, #431, #454 ) ) ;
#408 = CIRCLE ( 'NONE', #1041, 10.00000000000000000 ) ;
#409 = EDGE_CURVE ( 'NONE', #689, #73, #299, .T. ) ;
#410 = CARTESIAN_POINT ( 'NONE',  ( -0.4999999999991469601, -13.00000000000000000, -39.99999999999995737 ) ) ;
#411 = AXIS2_PLACEMENT_3D ( 'NONE', #235, #85, #599 ) ;
#412 = EDGE_CURVE ( 'NONE', #1068, #884, #546, .T. ) ;
#413 = LINE ( 'NONE', #440, #771 ) ;
#414 = DIRECTION ( 'NONE',  ( 0.000000000000000000, 0.000000000000000000, 1.000000000000000000 ) ) ;
#415 = ORIENTED_EDGE ( 'NONE', *, *, #903, .F. ) ;
#416 = LINE ( 'NONE', #852, #138 ) ;
#417 = EDGE_CURVE ( 'NONE', #246, #682, #808, .T. ) ;
#418 = LINE ( 'NONE', #95, #968 ) ;
#419 = CARTESIAN_POINT ( 'NONE',  ( 34.39101615137758472, -13.00000000000000000, 20.43301270189214947 ) ) ;
#420 = ORIENTED_EDGE ( 'NONE', *, *, #358, .T. ) ;
#421 = ORIENTED_EDGE ( 'NONE', *, *, #568, .T. ) ;
#422 = DIRECTION ( 'NONE',  ( -0.000000000000000000, -1.000000000000000000, -0.000000000000000000 ) ) ;
#423 = LINE ( 'NONE', #781, #630 ) ;
#424 = DIRECTION ( 'NONE',  ( -0.4999999999999999445, 0.000000000000000000, 0.8660254037844385966 ) ) ;
#425 = ORIENTED_EDGE ( 'NONE', *, *, #1016, .T. ) ;
#426 = AXIS2_PLACEMENT_3D ( 'NONE', #315, #134, #481 ) ;
#427 = CARTESIAN_POINT ( 'NONE',  ( 8.410254037844399733, -13.00000000000000000, 5.433012701892201868 ) ) ;
#428 = AXIS2_PLACEMENT_3D ( 'NONE', #1064, #32, #635 ) ;
#429 = PRODUCT_DEFINITION_FORMATION_WITH_SPECIFIED_SOURCE ( 'ä»', '', #879, .NOT_KNOWN. ) ;
#430 = CARTESIAN_POINT ( 'NONE',  ( 0.000000000000000000, 1.000000000000000000, 0.000000000000000000 ) ) ;
#431 = ORIENTED_EDGE ( 'NONE', *, *, #409, .T. ) ;
#432 = ORIENTED_EDGE ( 'NONE', *, *, #208, .F. ) ;
#433 = ADVANCED_FACE ( 'NONE', ( #366 ), #451, .F. ) ;
#434 = DIRECTION ( 'NONE',  ( -4.300668617525835570E-16, 0.000000000000000000, 1.000000000000000000 ) ) ;
#435 = CARTESIAN_POINT ( 'NONE',  ( 0.000000000000000000, -13.00000000000000000, 0.000000000000000000 ) ) ;
#436 = PRODUCT_CONTEXT ( 'NONE', #1073, 'mechanical' ) ;
#437 = ORIENTED_EDGE ( 'NONE', *, *, #929, .F. ) ;
#438 = VERTEX_POINT ( 'NONE', #201 ) ;
#439 = FACE_OUTER_BOUND ( 'NONE', #1080, .T. ) ;
#440 = CARTESIAN_POINT ( 'NONE',  ( 34.89101615137816736, 0.000000000000000000, -19.56698729810737447 ) ) ;
#441 = ORIENTED_EDGE ( 'NONE', *, *, #409, .F. ) ;
#442 = VERTEX_POINT ( 'NONE', #556 ) ;
#443 = LINE ( 'NONE', #456, #667 ) ;
#444 = VECTOR ( 'NONE', #447, 1000.000000000000000 ) ;
#445 = VECTOR ( 'NONE', #562, 1000.000000000000227 ) ;
#446 = EDGE_CURVE ( 'NONE', #37, #992, #1071, .T. ) ;
#447 = DIRECTION ( 'NONE',  ( -0.000000000000000000, 1.000000000000000000, -0.000000000000000000 ) ) ;
#448 = EDGE_CURVE ( 'NONE', #59, #324, #294, .T. ) ;
#449 = ORIENTED_EDGE ( 'NONE', *, *, #963, .F. ) ;
#450 = FACE_BOUND ( 'NONE', #24, .T. ) ;
#451 = PLANE ( 'NONE',  #1094 ) ;
#452 = DIRECTION ( 'NONE',  ( 0.8660254037844394848, 0.000000000000000000, 0.4999999999999985012 ) ) ;
#453 = ORIENTED_EDGE ( 'NONE', *, *, #918, .F. ) ;
#454 = ORIENTED_EDGE ( 'NONE', *, *, #724, .F. ) ;
#455 = ADVANCED_FACE ( 'NONE', ( #373 ), #717, .T. ) ;
#456 = CARTESIAN_POINT ( 'NONE',  ( 0.5000000000008401058, 0.000000000000000000, -9.999999999999959144 ) ) ;
#457 = CARTESIAN_POINT ( 'NONE',  ( 1.224646799147353256E-15, 1.000000000000000000, 10.00000000000000000 ) ) ;
#458 = LINE ( 'NONE', #197, #137 ) ;
#459 = EDGE_CURVE ( 'NONE', #383, #874, #362, .T. ) ;
#460 = EDGE_LOOP ( 'NONE', ( #794, #623, #1056, #607 ) ) ;
#461 = LINE ( 'NONE', #706, #577 ) ;
#462 = PLANE ( 'NONE',  #931 ) ;
#463 = CIRCLE ( 'NONE', #755, 10.00000000000000000 ) ;
#464 = CARTESIAN_POINT ( 'NONE',  ( 0.5000000000008530954, 0.000000000000000000, -39.99999999999995737 ) ) ;
#465 = AXIS2_PLACEMENT_3D ( 'NONE', #384, #818, #1011 ) ;
#466 = AXIS2_PLACEMENT_3D ( 'NONE', #506, #849, #499 ) ;
#467 = ORIENTED_EDGE ( 'NONE', *, *, #393, .T. ) ;
#468 = LINE ( 'NONE', #646, #82 ) ;
#469 = EDGE_CURVE ( 'NONE', #1035, #850, #904, .T. ) ;
#470 = CARTESIAN_POINT ( 'NONE',  ( 0.000000000000000000, 0.000000000000000000, 0.000000000000000000 ) ) ;
#471 = CARTESIAN_POINT ( 'NONE',  ( 0.000000000000000000, -13.00000000000000000, 0.000000000000000000 ) ) ;
#472 = ORIENTED_EDGE ( 'NONE', *, *, #793, .F. ) ;
#473 = LINE ( 'NONE', #669, #13 ) ;
#474 = DIRECTION ( 'NONE',  ( 0.000000000000000000, 0.000000000000000000, -1.000000000000000000 ) ) ;
#475 = DIRECTION ( 'NONE',  ( 0.000000000000000000, -1.000000000000000000, 0.000000000000000000 ) ) ;
#476 = ADVANCED_FACE ( 'NONE', ( #187 ), #981, .F. ) ;
#477 = ORIENTED_EDGE ( 'NONE', *, *, #367, .T. ) ;
#478 = CARTESIAN_POINT ( 'NONE',  ( -0.5000000000000098810, 0.000000000000000000, 40.00000000000000000 ) ) ;
#479 = PLANE ( 'NONE',  #989 ) ;
#480 = ADVANCED_FACE ( 'NONE', ( #927 ), #54, .F. ) ;
#481 = DIRECTION ( 'NONE',  ( 0.000000000000000000, 0.000000000000000000, 1.000000000000000000 ) ) ;
#482 = EDGE_CURVE ( 'NONE', #524, #565, #1092, .T. ) ;
#483 = VECTOR ( 'NONE', #277, 1000.000000000000000 ) ;
#484 = EDGE_LOOP ( 'NONE', ( #661, #1074, #1063, #1024, #543 ) ) ;
#485 = VECTOR ( 'NONE', #27, 1000.000000000000000 ) ;
#486 = DIRECTION ( 'NONE',  ( -0.000000000000000000, 1.000000000000000000, -0.000000000000000000 ) ) ;
#487 = LINE ( 'NONE', #591, #736 ) ;
#488 = DIRECTION ( 'NONE',  ( 0.5000000000000091038, 0.000000000000000000, 0.8660254037844333785 ) ) ;
#489 = ORIENTED_EDGE ( 'NONE', *, *, #129, .T. ) ;
#490 = CARTESIAN_POINT ( 'NONE',  ( 34.89101615137758472, -13.00000000000000000, 19.56698729810770843 ) ) ;
#491 = ADVANCED_FACE ( 'NONE', ( #149 ), #479, .F. ) ;
#492 = CARTESIAN_POINT ( 'NONE',  ( -34.89101615137732182, -13.00000000000000000, 19.56698729810817738 ) ) ;
#493 = ORIENTED_EDGE ( 'NONE', *, *, #903, .T. ) ;
#494 = EDGE_CURVE ( 'NONE', #906, #322, #487, .T. ) ;
#495 = CARTESIAN_POINT ( 'NONE',  ( -0.5000000000000017764, -13.00000000000000000, 10.00000000000000000 ) ) ;
#496 = CARTESIAN_POINT ( 'NONE',  ( 8.660254037844357100, 0.000000000000000000, -5.000000000000051514 ) ) ;
#497 = ORIENTED_EDGE ( 'NONE', *, *, #911, .F. ) ;
#498 = VECTOR ( 'NONE', #996, 1000.000000000000227 ) ;
#499 = DIRECTION ( 'NONE',  ( -0.8660254037844266062, 0.000000000000000000, -0.5000000000000208722 ) ) ;
#500 = VECTOR ( 'NONE', #864, 1000.000000000000114 ) ;
#501 = ORIENTED_EDGE ( 'NONE', *, *, #33, .T. ) ;
#502 = VECTOR ( 'NONE', #403, 1000.000000000000114 ) ;
#503 = CARTESIAN_POINT ( 'NONE',  ( 8.410254037844401509, 0.000000000000000000, 5.433012701892201868 ) ) ;
#504 = EDGE_CURVE ( 'NONE', #152, #689, #824, .T. ) ;
#505 = PRESENTATION_STYLE_ASSIGNMENT (( #330 ) ) ;
#506 = CARTESIAN_POINT ( 'NONE',  ( -34.89101615137689549, -13.00000000000000000, -19.56698729810813475 ) ) ;
#507 = ORIENTED_EDGE ( 'NONE', *, *, #156, .T. ) ;
#508 = LINE ( 'NONE', #690, #1021 ) ;
#509 = DIRECTION ( 'NONE',  ( -0.000000000000000000, 1.000000000000000000, -0.000000000000000000 ) ) ;
#510 = EDGE_CURVE ( 'NONE', #535, #146, #670, .T. ) ;
#511 = DIRECTION ( 'NONE',  ( 0.000000000000000000, -0.000000000000000000, -1.000000000000000000 ) ) ;
#512 = ORIENTED_EDGE ( 'NONE', *, *, #943, .F. ) ;
#513 = EDGE_LOOP ( 'NONE', ( #699, #726, #1018, #816 ) ) ;
#514 = CARTESIAN_POINT ( 'NONE',  ( -0.4999999999991469601, -13.00000000000000000, -39.99999999999995737 ) ) ;
#515 = ADVANCED_FACE ( 'NONE', ( #1078 ), #313, .F. ) ;
#516 = DIRECTION ( 'NONE',  ( 0.000000000000000000, 0.000000000000000000, -1.000000000000000000 ) ) ;
#517 = CARTESIAN_POINT ( 'NONE',  ( 34.39101615137816736, 0.000000000000000000, -20.43301270189180840 ) ) ;
#518 = VERTEX_POINT ( 'NONE', #49 ) ;
#519 = VECTOR ( 'NONE', #870, 1000.000000000000000 ) ;
#520 = DIRECTION ( 'NONE',  ( 0.8660254037844504760, 0.000000000000000000, -0.4999999999999794609 ) ) ;
#521 = VECTOR ( 'NONE', #212, 1000.000000000000227 ) ;
#522 = CARTESIAN_POINT ( 'NONE',  ( -8.910254037844428154, -13.00000000000000000, -4.566987298107698656 ) ) ;
#523 = CARTESIAN_POINT ( 'NONE',  ( -0.4999999999991598387, 0.000000000000000000, -9.999999999999959144 ) ) ;
#524 = VERTEX_POINT ( 'NONE', #742 ) ;
#525 = UNCERTAINTY_MEASURE_WITH_UNIT (LENGTH_MEASURE( 1.000000000000000082E-05 ), #1028, 'distance_accuracy_value', 'NONE');
#526 = DIRECTION ( 'NONE',  ( 0.000000000000000000, 0.000000000000000000, -1.000000000000000000 ) ) ;
#527 = ADVANCED_FACE ( 'NONE', ( #398 ), #930, .F. ) ;
#528 = FILL_AREA_STYLE_COLOUR ( '', #349 ) ;
#529 = ORIENTED_EDGE ( 'NONE', *, *, #469, .T. ) ;
#530 = ORIENTED_EDGE ( 'NONE', *, *, #943, .T. ) ;
#531 = CARTESIAN_POINT ( 'NONE',  ( 0.5000000000008530954, -13.00000000000000000, -39.99999999999995737 ) ) ;
#532 = PRODUCT_DEFINITION ( 'æœ', '', #429, #257 ) ;
#533 = FACE_OUTER_BOUND ( 'NONE', #666, .T. ) ;
#534 = EDGE_LOOP ( 'NONE', ( #209, #184, #48, #266 ) ) ;
#535 = VERTEX_POINT ( 'NONE', #1099 ) ;
#536 = CARTESIAN_POINT ( 'NONE',  ( -0.5000000000000017764, 0.000000000000000000, 10.00000000000000000 ) ) ;
#537 = VECTOR ( 'NONE', #327, 1000.000000000000000 ) ;
#538 = EDGE_CURVE ( 'NONE', #590, #119, #734, .T. ) ;
#539 = DIRECTION ( 'NONE',  ( 0.000000000000000000, 1.000000000000000000, 0.000000000000000000 ) ) ;
#540 = VECTOR ( 'NONE', #878, 1000.000000000000114 ) ;
#541 = AXIS2_PLACEMENT_3D ( 'NONE', #301, #1082, #311 ) ;
#542 = DIRECTION ( 'NONE',  ( -0.4999999999999916178, 0.000000000000000000, 0.8660254037844433705 ) ) ;
#543 = ORIENTED_EDGE ( 'NONE', *, *, #275, .T. ) ;
#544 = ORIENTED_EDGE ( 'NONE', *, *, #819, .T. ) ;
#545 = LINE ( 'NONE', #377, #210 ) ;
#546 = LINE ( 'NONE', #1052, #951 ) ;
#547 = EDGE_CURVE ( 'NONE', #628, #992, #391, .T. ) ;
#548 = DIRECTION ( 'NONE',  ( 0.4999999999999985012, 0.000000000000000000, -0.8660254037844394848 ) ) ;
#549 = EDGE_LOOP ( 'NONE', ( #1010, #91 ) ) ;
#550 = CARTESIAN_POINT ( 'NONE',  ( 8.410254037844364206, 0.000000000000000000, -5.433012701892257823 ) ) ;
#551 = LINE ( 'NONE', #355, #225 ) ;
#552 = CARTESIAN_POINT ( 'NONE',  ( -34.39101615137731471, 0.000000000000000000, 20.43301270189261132 ) ) ;
#553 = EDGE_CURVE ( 'NONE', #247, #741, #303, .T. ) ;
#554 = EDGE_LOOP ( 'NONE', ( #25, #778, #1004, #739 ) ) ;
#555 = DIRECTION ( 'NONE',  ( -1.000000000000000000, 0.000000000000000000, 0.000000000000000000 ) ) ;
#556 = CARTESIAN_POINT ( 'NONE',  ( -8.410254037844437036, -13.00000000000000000, -5.433012701892142360 ) ) ;
#557 = AXIS2_PLACEMENT_3D ( 'NONE', #719, #712, #28 ) ;
#558 = LINE ( 'NONE', #873, #189 ) ;
#559 = AXIS2_PLACEMENT_3D ( 'NONE', #144, #139, #237 ) ;
#560 = VERTEX_POINT ( 'NONE', #496 ) ;
#561 = DIRECTION ( 'NONE',  ( 2.710505431213761085E-16, 0.000000000000000000, -1.000000000000000000 ) ) ;
#562 = DIRECTION ( 'NONE',  ( 0.8660254037844264952, 0.000000000000000000, 0.5000000000000209832 ) ) ;
#563 = ADVANCED_FACE ( 'NONE', ( #308 ), #835, .F. ) ;
#564 = CARTESIAN_POINT ( 'NONE',  ( 34.89101615137758472, -13.00000000000000000, 19.56698729810770843 ) ) ;
#565 = VERTEX_POINT ( 'NONE', #1088 ) ;
#566 = CARTESIAN_POINT ( 'NONE',  ( 34.39101615137758472, 0.000000000000000000, 20.43301270189215302 ) ) ;
#567 = CARTESIAN_POINT ( 'NONE',  ( 0.5000000000008530954, -13.00000000000000000, -39.99999999999995737 ) ) ;
#568 = EDGE_CURVE ( 'NONE', #1035, #1113, #995, .T. ) ;
#569 = DIRECTION ( 'NONE',  ( -0.5000000000000082157, 0.000000000000000000, -0.8660254037844338226 ) ) ;
#570 = ORIENTED_EDGE ( 'NONE', *, *, #803, .F. ) ;
#571 = LINE ( 'NONE', #746, #279 ) ;
#572 = ORIENTED_EDGE ( 'NONE', *, *, #75, .T. ) ;
#573 = DIRECTION ( 'NONE',  ( 0.000000000000000000, 0.000000000000000000, -1.000000000000000000 ) ) ;
#574 = FACE_BOUND ( 'NONE', #41, .T. ) ;
#575 = VECTOR ( 'NONE', #542, 1000.000000000000114 ) ;
#576 = VERTEX_POINT ( 'NONE', #216 ) ;
#577 = VECTOR ( 'NONE', #105, 1000.000000000000000 ) ;
#578 = VECTOR ( 'NONE', #57, 1000.000000000000000 ) ;
#579 = LINE ( 'NONE', #323, #934 ) ;
#580 = EDGE_LOOP ( 'NONE', ( #397, #115, #30, #292 ) ) ;
#581 = CARTESIAN_POINT ( 'NONE',  ( 6.123233995736766085E-15, 1.000000000000000000, 50.00000000000000000 ) ) ;
#582 = CARTESIAN_POINT ( 'NONE',  ( 0.4999999999999901190, -13.00000000000000000, 40.00000000000000000 ) ) ;
#583 = ORIENTED_EDGE ( 'NONE', *, *, #715, .F. ) ;
#584 = PRODUCT_RELATED_PRODUCT_CATEGORY ( 'part', '', ( #879 ) ) ;
#585 = LINE ( 'NONE', #148, #578 ) ;
#586 = LINE ( 'NONE', #838, #859 ) ;
#587 = ORIENTED_EDGE ( 'NONE', *, *, #92, .F. ) ;
#588 = EDGE_CURVE ( 'NONE', #875, #535, #999, .T. ) ;
#589 = SHAPE_DEFINITION_REPRESENTATION ( #899, #108 ) ;
#590 = VERTEX_POINT ( 'NONE', #410 ) ;
#591 = CARTESIAN_POINT ( 'NONE',  ( 8.910254037844397956, -13.00000000000000000, 4.566987298107761717 ) ) ;
#592 = DIRECTION ( 'NONE',  ( 0.000000000000000000, 0.000000000000000000, 1.000000000000000000 ) ) ;
#593 = CIRCLE ( 'NONE', #386, 10.00000000000000000 ) ;
#594 = VECTOR ( 'NONE', #58, 1000.000000000000000 ) ;
#595 = ORIENTED_EDGE ( 'NONE', *, *, #345, .F. ) ;
#596 = CARTESIAN_POINT ( 'NONE',  ( 0.000000000000000000, 0.000000000000000000, 0.000000000000000000 ) ) ;
#597 = EDGE_CURVE ( 'NONE', #19, #850, #586, .T. ) ;
#598 = CARTESIAN_POINT ( 'NONE',  ( 0.000000000000000000, 1.000000000000000000, -10.00000000000000000 ) ) ;
#599 = DIRECTION ( 'NONE',  ( 0.000000000000000000, 0.000000000000000000, 1.000000000000000000 ) ) ;
#600 = ORIENTED_EDGE ( 'NONE', *, *, #446, .F. ) ;
#601 = ORIENTED_EDGE ( 'NONE', *, *, #691, .T. ) ;
#602 = ADVANCED_FACE ( 'NONE', ( #614 ), #958, .F. ) ;
#603 = LINE ( 'NONE', #167, #632 ) ;
#604 = DIRECTION ( 'NONE',  ( -0.000000000000000000, 1.000000000000000000, -0.000000000000000000 ) ) ;
#605 = EDGE_CURVE ( 'NONE', #438, #906, #1104, .T. ) ;
#606 = LINE ( 'NONE', #68, #1043 ) ;
#607 = ORIENTED_EDGE ( 'NONE', *, *, #847, .T. ) ;
#608 = DIRECTION ( 'NONE',  ( 0.000000000000000000, 0.000000000000000000, 1.000000000000000000 ) ) ;
#609 = DIRECTION ( 'NONE',  ( -0.000000000000000000, -1.000000000000000000, -0.000000000000000000 ) ) ;
#610 = EDGE_CURVE ( 'NONE', #750, #152, #615, .T. ) ;
#611 = EDGE_LOOP ( 'NONE', ( #787, #441 ) ) ;
#612 = EDGE_LOOP ( 'NONE', ( #265, #885, #432, #339 ) ) ;
#613 = VECTOR ( 'NONE', #604, 1000.000000000000000 ) ;
#614 = FACE_OUTER_BOUND ( 'NONE', #460, .T. ) ;
#615 = CIRCLE ( 'NONE', #680, 50.00000000000000000 ) ;
#616 = CIRCLE ( 'NONE', #411, 10.00000000000000000 ) ;
#617 = FACE_OUTER_BOUND ( 'NONE', #554, .T. ) ;
#618 = VERTEX_POINT ( 'NONE', #947 ) ;
#619 = ORIENTED_EDGE ( 'NONE', *, *, #199, .F. ) ;
#620 = CARTESIAN_POINT ( 'NONE',  ( -8.910254037844334007, 0.000000000000000000, 4.566987298107882509 ) ) ;
#621 = LINE ( 'NONE', #118, #81 ) ;
#622 = EDGE_LOOP ( 'NONE', ( #226, #979, #940, #381 ) ) ;
#623 = ORIENTED_EDGE ( 'NONE', *, *, #1016, .F. ) ;
#624 = EDGE_CURVE ( 'NONE', #371, #841, #508, .T. ) ;
#625 = DIRECTION ( 'NONE',  ( 0.5000000000000098810, 0.000000000000000000, 0.8660254037844329345 ) ) ;
#626 = CARTESIAN_POINT ( 'NONE',  ( -34.89101615137689549, -13.00000000000000000, -19.56698729810813475 ) ) ;
#627 = LINE ( 'NONE', #786, #1039 ) ;
#628 = VERTEX_POINT ( 'NONE', #93 ) ;
#629 = DIRECTION ( 'NONE',  ( 0.000000000000000000, -0.000000000000000000, 1.000000000000000000 ) ) ;
#630 = VECTOR ( 'NONE', #346, 1000.000000000000000 ) ;
#631 = CARTESIAN_POINT ( 'NONE',  ( 0.000000000000000000, -13.00000000000000000, 0.000000000000000000 ) ) ;
#632 = VECTOR ( 'NONE', #1031, 1000.000000000000000 ) ;
#633 = DIRECTION ( 'NONE',  ( -0.8660254037844504760, 0.000000000000000000, 0.4999999999999795164 ) ) ;
#634 = VERTEX_POINT ( 'NONE', #503 ) ;
#635 = DIRECTION ( 'NONE',  ( 0.000000000000000000, 0.000000000000000000, 1.000000000000000000 ) ) ;
#636 = DIRECTION ( 'NONE',  ( -0.8660254037844266062, -0.000000000000000000, -0.5000000000000208722 ) ) ;
#637 = ADVANCED_FACE ( 'NONE', ( #779 ), #1115, .F. ) ;
#638 = FACE_OUTER_BOUND ( 'NONE', #946, .T. ) ;
#639 = ORIENTED_EDGE ( 'NONE', *, *, #983, .F. ) ;
#640 = ORIENTED_EDGE ( 'NONE', *, *, #482, .F. ) ;
#641 = CARTESIAN_POINT ( 'NONE',  ( 0.000000000000000000, 1.000000000000000000, -50.00000000000000000 ) ) ;
#642 = DIRECTION ( 'NONE',  ( 0.000000000000000000, 0.000000000000000000, -1.000000000000000000 ) ) ;
#643 = CARTESIAN_POINT ( 'NONE',  ( 34.39101615137758472, -13.00000000000000000, 20.43301270189214947 ) ) ;
#644 = ORIENTED_EDGE ( 'NONE', *, *, #260, .F. ) ;
#645 = ORIENTED_EDGE ( 'NONE', *, *, #494, .F. ) ;
#646 = CARTESIAN_POINT ( 'NONE',  ( -34.89101615137732182, 0.000000000000000000, 19.56698729810817738 ) ) ;
#647 = CARTESIAN_POINT ( 'NONE',  ( -34.39101615137689549, 0.000000000000000000, -20.43301270189257934 ) ) ;
#648 = VECTOR ( 'NONE', #213, 1000.000000000000000 ) ;
#649 = VECTOR ( 'NONE', #714, 1000.000000000000000 ) ;
#650 = DIRECTION ( 'NONE',  ( 0.8660254037844329345, 0.000000000000000000, -0.5000000000000098810 ) ) ;
#651 = ORIENTED_EDGE ( 'NONE', *, *, #6, .F. ) ;
#652 = ADVANCED_FACE ( 'NONE', ( #1 ), #954, .F. ) ;
#653 = CARTESIAN_POINT ( 'NONE',  ( 0.000000000000000000, 1.000000000000000000, 0.000000000000000000 ) ) ;
#654 = DIRECTION ( 'NONE',  ( -4.300668617525834584E-16, 0.000000000000000000, 1.000000000000000000 ) ) ;
#655 = EDGE_CURVE ( 'NONE', #841, #524, #70, .T. ) ;
#656 = CARTESIAN_POINT ( 'NONE',  ( 0.000000000000000000, 1.000000000000000000, 0.000000000000000000 ) ) ;
#657 = EDGE_LOOP ( 'NONE', ( #952, #472, #713, #1087 ) ) ;
#658 = DIRECTION ( 'NONE',  ( 0.000000000000000000, 1.000000000000000000, 0.000000000000000000 ) ) ;
#659 = CARTESIAN_POINT ( 'NONE',  ( 34.89101615137816736, -13.00000000000000000, -19.56698729810737447 ) ) ;
#660 = LINE ( 'NONE', #917, #876 ) ;
#661 = ORIENTED_EDGE ( 'NONE', *, *, #803, .T. ) ;
#662 = FACE_OUTER_BOUND ( 'NONE', #104, .T. ) ;
#663 = DIRECTION ( 'NONE',  ( -0.8660254037844504760, 0.000000000000000000, 0.4999999999999795164 ) ) ;
#664 = DIRECTION ( 'NONE',  ( 0.000000000000000000, -0.000000000000000000, -1.000000000000000000 ) ) ;
#665 = AXIS2_PLACEMENT_3D ( 'NONE', #435, #853, #71 ) ;
#666 = EDGE_LOOP ( 'NONE', ( #185, #56, #1025, #310 ) ) ;
#667 = VECTOR ( 'NONE', #790, 1000.000000000000000 ) ;
#668 = CIRCLE ( 'NONE', #352, 10.00000000000000000 ) ;
#669 = CARTESIAN_POINT ( 'NONE',  ( -34.39101615137731471, -13.00000000000000000, 20.43301270189261132 ) ) ;
#670 = LINE ( 'NONE', #154, #243 ) ;
#671 = EDGE_CURVE ( 'NONE', #73, #689, #121, .T. ) ;
#672 = ORIENTED_EDGE ( 'NONE', *, *, #655, .T. ) ;
#673 = DIRECTION ( 'NONE',  ( 1.000000000000000000, 0.000000000000000000, 0.000000000000000000 ) ) ;
#674 = DIRECTION ( 'NONE',  ( 0.5000000000000015543, -0.000000000000000000, 0.8660254037844377084 ) ) ;
#675 = CARTESIAN_POINT ( 'NONE',  ( -0.5000000000000098810, -13.00000000000000000, 40.00000000000000000 ) ) ;
#676 = CARTESIAN_POINT ( 'NONE',  ( 0.000000000000000000, -13.00000000000000000, 0.000000000000000000 ) ) ;
#677 = EDGE_LOOP ( 'NONE', ( #530, #871, #421, #698 ) ) ;
#678 = CARTESIAN_POINT ( 'NONE',  ( 8.410254037844399733, 0.000000000000000000, 5.433012701892201868 ) ) ;
#679 = AXIS2_PLACEMENT_3D ( 'NONE', #471, #475, #820 ) ;
#680 = AXIS2_PLACEMENT_3D ( 'NONE', #74, #770, #608 ) ;
#681 = ORIENTED_EDGE ( 'NONE', *, *, #588, .F. ) ;
#682 = VERTEX_POINT ( 'NONE', #258 ) ;
#683 = EDGE_CURVE ( 'NONE', #889, #628, #177, .T. ) ;
#684 = AXIS2_PLACEMENT_3D ( 'NONE', #159, #245, #693 ) ;
#685 = DIRECTION ( 'NONE',  ( -0.5000000000000000000, -0.000000000000000000, 0.8660254037844385966 ) ) ;
#686 = ADVANCED_FACE ( 'NONE', ( #439 ), #784, .F. ) ;
#687 = CARTESIAN_POINT ( 'NONE',  ( -8.660254037844332231, 0.000000000000000000, 5.000000000000091482 ) ) ;
#688 = DIRECTION ( 'NONE',  ( 0.4999999999999985012, -0.000000000000000000, -0.8660254037844394848 ) ) ;
#689 = VERTEX_POINT ( 'NONE', #942 ) ;
#690 = CARTESIAN_POINT ( 'NONE',  ( 1.224646799147353256E-15, 1.000000000000000000, 10.00000000000000000 ) ) ;
#691 = EDGE_CURVE ( 'NONE', #576, #590, #701, .T. ) ;
#692 = FILL_AREA_STYLE ('',( #528 ) ) ;
#693 = DIRECTION ( 'NONE',  ( -0.8660254037844504760, 0.000000000000000000, 0.4999999999999795719 ) ) ;
#694 = VERTEX_POINT ( 'NONE', #1019 ) ;
#695 = ORIENTED_EDGE ( 'NONE', *, *, #504, .T. ) ;
#696 = CARTESIAN_POINT ( 'NONE',  ( -0.5000000000000017764, 0.000000000000000000, 10.00000000000000000 ) ) ;
#697 = LINE ( 'NONE', #1038, #318 ) ;
#698 = ORIENTED_EDGE ( 'NONE', *, *, #730, .T. ) ;
#699 = ORIENTED_EDGE ( 'NONE', *, *, #140, .T. ) ;
#700 = CLOSED_SHELL ( 'NONE', ( #637, #455, #868, #272, #63, #945, #480, #491, #652, #948, #356, #181, #1066, #114, #395, #379, #686, #563, #1046, #433, #196, #515, #527, #602, #763, #1116, #1032, #244, #127, #476, #79, #240, #274, #767, #249, #297 ) ) ;
#701 = LINE ( 'NONE', #514, #1110 ) ;
#702 = VECTOR ( 'NONE', #813, 1000.000000000000114 ) ;
#703 = EDGE_CURVE ( 'NONE', #634, #694, #1044, .T. ) ;
#704 = CARTESIAN_POINT ( 'NONE',  ( -34.39101615137689549, -13.00000000000000000, -20.43301270189257934 ) ) ;
#705 = ORIENTED_EDGE ( 'NONE', *, *, #963, .T. ) ;
#706 = CARTESIAN_POINT ( 'NONE',  ( 0.4999999999999901190, -13.00000000000000000, 40.00000000000000000 ) ) ;
#707 = DIRECTION ( 'NONE',  ( 0.000000000000000000, 0.000000000000000000, 1.000000000000000000 ) ) ;
#708 = CARTESIAN_POINT ( 'NONE',  ( -8.410254037844437036, 0.000000000000000000, -5.433012701892142360 ) ) ;
#709 = VERTEX_POINT ( 'NONE', #620 ) ;
#710 = PLANE ( 'NONE',  #1058 ) ;
#711 = LINE ( 'NONE', #797, #102 ) ;
#712 = DIRECTION ( 'NONE',  ( 0.000000000000000000, -1.000000000000000000, 0.000000000000000000 ) ) ;
#713 = ORIENTED_EDGE ( 'NONE', *, *, #326, .F. ) ;
#714 = DIRECTION ( 'NONE',  ( -0.000000000000000000, 1.000000000000000000, -0.000000000000000000 ) ) ;
#715 = EDGE_CURVE ( 'NONE', #560, #828, #87, .T. ) ;
#716 = AXIS2_PLACEMENT_3D ( 'NONE', #729, #1072, #664 ) ;
#717 = CYLINDRICAL_SURFACE ( 'NONE', #227, 50.00000000000000000 ) ;
#718 = AXIS2_PLACEMENT_3D ( 'NONE', #659, #325, #830 ) ;
#719 = CARTESIAN_POINT ( 'NONE',  ( 0.000000000000000000, -13.00000000000000000, 0.000000000000000000 ) ) ;
#720 = ORIENTED_EDGE ( 'NONE', *, *, #199, .T. ) ;
#721 = CARTESIAN_POINT ( 'NONE',  ( 0.4999999999999901190, -13.00000000000000000, 40.00000000000000000 ) ) ;
#722 = CARTESIAN_POINT ( 'NONE',  ( 8.410254037844364206, -13.00000000000000000, -5.433012701892257823 ) ) ;
#723 = DIRECTION ( 'NONE',  ( -0.000000000000000000, 1.000000000000000000, -0.000000000000000000 ) ) ;
#724 = EDGE_CURVE ( 'NONE', #750, #73, #603, .T. ) ;
#725 = ORIENTED_EDGE ( 'NONE', *, *, #799, .F. ) ;
#726 = ORIENTED_EDGE ( 'NONE', *, *, #847, .F. ) ;
#727 = LINE ( 'NONE', #122, #540 ) ;
#728 = DIRECTION ( 'NONE',  ( -0.5000000000000051070, 0.000000000000000000, -0.8660254037844357100 ) ) ;
#729 = CARTESIAN_POINT ( 'NONE',  ( 0.000000000000000000, -13.00000000000000000, 0.000000000000000000 ) ) ;
#730 = EDGE_CURVE ( 'NONE', #1113, #375, #416, .T. ) ;
#731 = ORIENTED_EDGE ( 'NONE', *, *, #367, .F. ) ;
#732 = CARTESIAN_POINT ( 'NONE',  ( 8.910254037844397956, -13.00000000000000000, 4.566987298107761717 ) ) ;
#733 = ORIENTED_EDGE ( 'NONE', *, *, #568, .F. ) ;
#734 = LINE ( 'NONE', #909, #388 ) ;
#735 = CIRCLE ( 'NONE', #896, 50.00000000000000000 ) ;
#736 = VECTOR ( 'NONE', #62, 1000.000000000000000 ) ;
#737 = CARTESIAN_POINT ( 'NONE',  ( -8.910254037844334007, -13.00000000000000000, 4.566987298107882509 ) ) ;
#738 = EDGE_CURVE ( 'NONE', #97, #841, #408, .T. ) ;
#739 = ORIENTED_EDGE ( 'NONE', *, *, #547, .T. ) ;
#740 = DIRECTION ( 'NONE',  ( 2.710505431213761085E-16, 0.000000000000000000, -1.000000000000000000 ) ) ;
#741 = VERTEX_POINT ( 'NONE', #80 ) ;
#742 = CARTESIAN_POINT ( 'NONE',  ( 0.4999999999999982792, 0.000000000000000000, 10.00000000000000000 ) ) ;
#743 = DIRECTION ( 'NONE',  ( 0.8660254037844339337, 0.000000000000000000, -0.5000000000000083267 ) ) ;
#744 = ORIENTED_EDGE ( 'NONE', *, *, #799, .T. ) ;
#745 = EDGE_CURVE ( 'NONE', #741, #324, #443, .T. ) ;
#746 = CARTESIAN_POINT ( 'NONE',  ( -8.410254037844437036, 0.000000000000000000, -5.433012701892142360 ) ) ;
#747 = ORIENTED_EDGE ( 'NONE', *, *, #1081, .T. ) ;
#748 = DIRECTION ( 'NONE',  ( 1.000000000000000000, -0.000000000000000000, -0.000000000000000000 ) ) ;
#749 = DIRECTION ( 'NONE',  ( 0.000000000000000000, -0.000000000000000000, 1.000000000000000000 ) ) ;
#750 = VERTEX_POINT ( 'NONE', #641 ) ;
#751 = DIRECTION ( 'NONE',  ( -0.4999999999999916178, 0.000000000000000000, 0.8660254037844433705 ) ) ;
#752 = ORIENTED_EDGE ( 'NONE', *, *, #16, .F. ) ;
#753 = DIRECTION ( 'NONE',  ( -0.8660254037844434816, 0.000000000000000000, -0.4999999999999916178 ) ) ;
#754 = EDGE_CURVE ( 'NONE', #709, #97, #14, .T. ) ;
#755 = AXIS2_PLACEMENT_3D ( 'NONE', #298, #46, #592 ) ;
#756 = EDGE_LOOP ( 'NONE', ( #928, #836, #941, #78, #125 ) ) ;
#757 = AXIS2_PLACEMENT_3D ( 'NONE', #567, #43, #1005 ) ;
#758 = AXIS2_PLACEMENT_3D ( 'NONE', #3, #414, #673 ) ;
#759 = CARTESIAN_POINT ( 'NONE',  ( -8.910254037844334007, 0.000000000000000000, 4.566987298107882509 ) ) ;
#760 = ORIENTED_EDGE ( 'NONE', *, *, #605, .F. ) ;
#761 = CARTESIAN_POINT ( 'NONE',  ( 0.4999999999999901190, 0.000000000000000000, 40.00000000000000000 ) ) ;
#762 = CARTESIAN_POINT ( 'NONE',  ( -0.5000000000000098810, 0.000000000000000000, 40.00000000000000000 ) ) ;
#763 = ADVANCED_FACE ( 'NONE', ( #354 ), #802, .F. ) ;
#764 = EDGE_LOOP ( 'NONE', ( #1112, #1055, #359, #286 ) ) ;
#765 = DIRECTION ( 'NONE',  ( 0.000000000000000000, 1.000000000000000000, 0.000000000000000000 ) ) ;
#766 = EDGE_CURVE ( 'NONE', #935, #360, #194, .T. ) ;
#767 = ADVANCED_FACE ( 'NONE', ( #26 ), #710, .F. ) ;
#768 = CARTESIAN_POINT ( 'NONE',  ( 8.910254037844369535, -13.00000000000000000, -4.566987298107821225 ) ) ;
#769 = ORIENTED_EDGE ( 'NONE', *, *, #754, .F. ) ;
#770 = DIRECTION ( 'NONE',  ( 0.000000000000000000, 1.000000000000000000, 0.000000000000000000 ) ) ;
#771 = VECTOR ( 'NONE', #633, 1000.000000000000114 ) ;
#772 = AXIS2_PLACEMENT_3D ( 'NONE', #890, #287, #555 ) ;
#773 = ORIENTED_EDGE ( 'NONE', *, *, #494, .T. ) ;
#774 = VERTEX_POINT ( 'NONE', #536 ) ;
#775 = AXIS2_PLACEMENT_3D ( 'NONE', #495, #232, #993 ) ;
#776 = DIRECTION ( 'NONE',  ( 1.000000000000000000, 0.000000000000000000, 0.000000000000000000 ) ) ;
#777 = CYLINDRICAL_SURFACE ( 'NONE', #1109, 50.00000000000000000 ) ;
#778 = ORIENTED_EDGE ( 'NONE', *, *, #20, .F. ) ;
#779 = FACE_OUTER_BOUND ( 'NONE', #1012, .T. ) ;
#780 = EDGE_CURVE ( 'NONE', #694, #560, #916, .T. ) ;
#781 = CARTESIAN_POINT ( 'NONE',  ( -0.5000000000000017764, 0.000000000000000000, 10.00000000000000000 ) ) ;
#782 = APPLICATION_PROTOCOL_DEFINITION ( 'draft international standard', 'automotive_design', 1998, #938 ) ;
#783 = ORIENTED_EDGE ( 'NONE', *, *, #780, .T. ) ;
#784 = PLANE ( 'NONE',  #191 ) ;
#785 = EDGE_CURVE ( 'NONE', #36, #442, #807, .T. ) ;
#786 = CARTESIAN_POINT ( 'NONE',  ( -0.5000000000000098810, -13.00000000000000000, 40.00000000000000000 ) ) ;
#787 = ORIENTED_EDGE ( 'NONE', *, *, #671, .F. ) ;
#788 = AXIS2_PLACEMENT_3D ( 'NONE', #217, #743, #569 ) ;
#789 = VECTOR ( 'NONE', #636, 1000.000000000000114 ) ;
#790 = DIRECTION ( 'NONE',  ( -1.000000000000000000, 0.000000000000000000, 0.000000000000000000 ) ) ;
#791 = VECTOR ( 'NONE', #143, 1000.000000000000114 ) ;
#792 = DIRECTION ( 'NONE',  ( -0.8660254037844329345, -0.000000000000000000, 0.5000000000000097700 ) ) ;
#793 = EDGE_CURVE ( 'NONE', #801, #565, #461, .T. ) ;
#794 = ORIENTED_EDGE ( 'NONE', *, *, #553, .T. ) ;
#795 = ORIENTED_EDGE ( 'NONE', *, *, #882, .F. ) ;
#796 = PLANE ( 'NONE',  #1095 ) ;
#797 = CARTESIAN_POINT ( 'NONE',  ( -0.5000000000000098810, -13.00000000000000000, 40.00000000000000000 ) ) ;
#798 = LINE ( 'NONE', #552, #120 ) ;
#799 = EDGE_CURVE ( 'NONE', #442, #874, #980, .T. ) ;
#800 = ORIENTED_EDGE ( 'NONE', *, *, #780, .F. ) ;
#801 = VERTEX_POINT ( 'NONE', #721 ) ;
#802 = PLANE ( 'NONE',  #772 ) ;
#803 = EDGE_CURVE ( 'NONE', #1090, #560, #727, .T. ) ;
#804 = DIRECTION ( 'NONE',  ( -0.000000000000000000, 1.000000000000000000, -0.000000000000000000 ) ) ;
#805 = FACE_OUTER_BOUND ( 'NONE', #677, .T. ) ;
#806 = ORIENTED_EDGE ( 'NONE', *, *, #188, .F. ) ;
#807 = LINE ( 'NONE', #894, #65 ) ;
#808 = LINE ( 'NONE', #626, #789 ) ;
#809 = AXIS2_PLACEMENT_3D ( 'NONE', #39, #288, #707 ) ;
#810 = AXIS2_PLACEMENT_3D ( 'NONE', #419, #1102, #424 ) ;
#811 = PLANE ( 'NONE',  #557 ) ;
#812 = ORIENTED_EDGE ( 'NONE', *, *, #417, .T. ) ;
#813 = DIRECTION ( 'NONE',  ( 0.4999999999999970579, 0.000000000000000000, -0.8660254037844402619 ) ) ;
#814 = DIRECTION ( 'NONE',  ( 0.8660254037844403729, 0.000000000000000000, 0.4999999999999971134 ) ) ;
#815 = FACE_OUTER_BOUND ( 'NONE', #756, .T. ) ;
#816 = ORIENTED_EDGE ( 'NONE', *, *, #880, .T. ) ;
#817 = CARTESIAN_POINT ( 'NONE',  ( 0.5000000000008401058, -13.00000000000000000, -9.999999999999959144 ) ) ;
#818 = DIRECTION ( 'NONE',  ( 1.000000000000000000, 0.000000000000000000, 4.300668617525835570E-16 ) ) ;
#819 = EDGE_CURVE ( 'NONE', #618, #146, #468, .T. ) ;
#820 = DIRECTION ( 'NONE',  ( 0.000000000000000000, -0.000000000000000000, -1.000000000000000000 ) ) ;
#821 = ORIENTED_EDGE ( 'NONE', *, *, #1053, .T. ) ;
#822 = EDGE_CURVE ( 'NONE', #694, #322, #365, .T. ) ;
#823 = DIRECTION ( 'NONE',  ( -0.000000000000000000, 1.000000000000000000, -0.000000000000000000 ) ) ;
#824 = LINE ( 'NONE', #581, #842 ) ;
#825 = PRESENTATION_LAYER_ASSIGNMENT (  '', '', ( #153 ) ) ;
#826 = VECTOR ( 'NONE', #685, 1000.000000000000227 ) ;
#827 = CARTESIAN_POINT ( 'NONE',  ( -8.910254037844428154, -13.00000000000000000, -4.566987298107698656 ) ) ;
#828 = VERTEX_POINT ( 'NONE', #550 ) ;
#829 = PLANE ( 'NONE',  #466 ) ;
#830 = DIRECTION ( 'NONE',  ( 0.5000000000000015543, 0.000000000000000000, 0.8660254037844377084 ) ) ;
#831 = PLANE ( 'NONE',  #64 ) ;
#832 = ORIENTED_EDGE ( 'NONE', *, *, #1100, .T. ) ;
#833 = EDGE_CURVE ( 'NONE', #682, #36, #545, .T. ) ;
#834 = LINE ( 'NONE', #907, #919 ) ;
#835 = PLANE ( 'NONE',  #718 ) ;
#836 = ORIENTED_EDGE ( 'NONE', *, *, #983, .T. ) ;
#837 = LINE ( 'NONE', #759, #953 ) ;
#838 = CARTESIAN_POINT ( 'NONE',  ( 34.89101615137816736, 0.000000000000000000, -19.56698729810737447 ) ) ;
#839 = VECTOR ( 'NONE', #792, 1000.000000000000227 ) ;
#840 = AXIS2_PLACEMENT_3D ( 'NONE', #101, #1054, #8 ) ;
#841 = VERTEX_POINT ( 'NONE', #200 ) ;
#842 = VECTOR ( 'NONE', #320, 1000.000000000000000 ) ;
#843 = VECTOR ( 'NONE', #926, 1000.000000000000000 ) ;
#844 = FACE_OUTER_BOUND ( 'NONE', #960, .T. ) ;
#845 = VERTEX_POINT ( 'NONE', #271 ) ;
#846 = DIRECTION ( 'NONE',  ( 0.4999999999999794609, 0.000000000000000000, 0.8660254037844504760 ) ) ;
#847 = EDGE_CURVE ( 'NONE', #119, #247, #182, .T. ) ;
#848 = FACE_OUTER_BOUND ( 'NONE', #622, .T. ) ;
#849 = DIRECTION ( 'NONE',  ( 0.5000000000000208722, 0.000000000000000000, -0.8660254037844266062 ) ) ;
#850 = VERTEX_POINT ( 'NONE', #872 ) ;
#851 = ORIENTED_EDGE ( 'NONE', *, *, #404, .F. ) ;
#852 = CARTESIAN_POINT ( 'NONE',  ( 8.910254037844369535, -13.00000000000000000, -4.566987298107821225 ) ) ;
#853 = DIRECTION ( 'NONE',  ( 0.000000000000000000, -1.000000000000000000, 0.000000000000000000 ) ) ;
#854 =( NAMED_UNIT ( * ) SI_UNIT ( $, .STERADIAN. ) SOLID_ANGLE_UNIT ( ) );
#855 = ORIENTED_EDGE ( 'NONE', *, *, #469, .F. ) ;
#856 = DIRECTION ( 'NONE',  ( 0.000000000000000000, 1.000000000000000000, 0.000000000000000000 ) ) ;
#857 = AXIS2_PLACEMENT_3D ( 'NONE', #283, #888, #1049 ) ;
#858 = LINE ( 'NONE', #338, #84 ) ;
#859 = VECTOR ( 'NONE', #674, 1000.000000000000227 ) ;
#860 = ORIENTED_EDGE ( 'NONE', *, *, #6, .T. ) ;
#861 = ORIENTED_EDGE ( 'NONE', *, *, #624, .F. ) ;
#862 = EDGE_CURVE ( 'NONE', #628, #438, #98, .T. ) ;
#863 = VECTOR ( 'NONE', #389, 1000.000000000000000 ) ;
#864 = DIRECTION ( 'NONE',  ( 0.4999999999999970579, 0.000000000000000000, -0.8660254037844402619 ) ) ;
#865 =( LENGTH_UNIT ( ) NAMED_UNIT ( * ) SI_UNIT ( .MILLI., .METRE. ) );
#866 = DIRECTION ( 'NONE',  ( 0.000000000000000000, -1.000000000000000000, 0.000000000000000000 ) ) ;
#867 = ORIENTED_EDGE ( 'NONE', *, *, #937, .F. ) ;
#868 = ADVANCED_FACE ( 'NONE', ( #962, #450 ), #796, .F. ) ;
#869 = CARTESIAN_POINT ( 'NONE',  ( -0.5000000000000098810, -13.00000000000000000, 40.00000000000000000 ) ) ;
#870 = DIRECTION ( 'NONE',  ( -1.000000000000000000, -0.000000000000000000, -0.000000000000000000 ) ) ;
#871 = ORIENTED_EDGE ( 'NONE', *, *, #260, .T. ) ;
#872 = CARTESIAN_POINT ( 'NONE',  ( 34.89101615137816736, 0.000000000000000000, -19.56698729810737092 ) ) ;
#873 = CARTESIAN_POINT ( 'NONE',  ( -34.89101615137732182, 0.000000000000000000, 19.56698729810817738 ) ) ;
#874 = VERTEX_POINT ( 'NONE', #886 ) ;
#875 = VERTEX_POINT ( 'NONE', #111 ) ;
#876 = VECTOR ( 'NONE', #650, 1000.000000000000114 ) ;
#877 = VECTOR ( 'NONE', #663, 1000.000000000000114 ) ;
#878 = DIRECTION ( 'NONE',  ( -0.5000000000000051070, 0.000000000000000000, -0.8660254037844355990 ) ) ;
#879 = PRODUCT ( '\X2\57065f62652f67b6\X0\', '\X2\57065f62652f67b6\X0\', '', ( #436 ) ) ;
#880 = EDGE_CURVE ( 'NONE', #590, #884, #585, .T. ) ;
#881 = CARTESIAN_POINT ( 'NONE',  ( -34.39101615137689549, 0.000000000000000000, -20.43301270189257934 ) ) ;
#882 = EDGE_CURVE ( 'NONE', #874, #1103, #571, .T. ) ;
#883 = CARTESIAN_POINT ( 'NONE',  ( -34.39101615137731471, -13.00000000000000000, 20.43301270189261132 ) ) ;
#884 = VERTEX_POINT ( 'NONE', #224 ) ;
#885 = ORIENTED_EDGE ( 'NONE', *, *, #976, .F. ) ;
#886 = CARTESIAN_POINT ( 'NONE',  ( -8.410254037844437036, 0.000000000000000000, -5.433012701892142360 ) ) ;
#887 = CARTESIAN_POINT ( 'NONE',  ( 34.39101615137758472, 0.000000000000000000, 20.43301270189214947 ) ) ;
#888 = DIRECTION ( 'NONE',  ( -0.5000000000000210942, 0.000000000000000000, 0.8660254037844266062 ) ) ;
#889 = VERTEX_POINT ( 'NONE', #490 ) ;
#890 = CARTESIAN_POINT ( 'NONE',  ( 0.5000000000008401058, -13.00000000000000000, -9.999999999999959144 ) ) ;
#891 = DIRECTION ( 'NONE',  ( -0.000000000000000000, 1.000000000000000000, -0.000000000000000000 ) ) ;
#892 = CARTESIAN_POINT ( 'NONE',  ( -8.910254037844334007, -13.00000000000000000, 4.566987298107882509 ) ) ;
#893 = ORIENTED_EDGE ( 'NONE', *, *, #738, .F. ) ;
#894 = CARTESIAN_POINT ( 'NONE',  ( -34.39101615137689549, -13.00000000000000000, -20.43301270189257934 ) ) ;
#895 = EDGE_CURVE ( 'NONE', #992, #634, #902, .T. ) ;
#896 = AXIS2_PLACEMENT_3D ( 'NONE', #939, #1117, #1105 ) ;
#897 = CARTESIAN_POINT ( 'NONE',  ( -8.410254037844437036, -13.00000000000000000, -5.433012701892142360 ) ) ;
#898 = AXIS2_PLACEMENT_3D ( 'NONE', #1037, #765, #263 ) ;
#899 = PRODUCT_DEFINITION_SHAPE ( 'NONE', 'NONE',  #532 ) ;
#900 = DIRECTION ( 'NONE',  ( 0.8660254037844395958, -0.000000000000000000, 0.4999999999999981681 ) ) ;
#901 = EDGE_LOOP ( 'NONE', ( #239, #851, #236, #973 ) ) ;
#902 = LINE ( 'NONE', #1091, #66 ) ;
#903 = EDGE_CURVE ( 'NONE', #59, #371, #668, .T. ) ;
#904 = LINE ( 'NONE', #273, #319 ) ;
#905 = LINE ( 'NONE', #400, #915 ) ;
#906 = VERTEX_POINT ( 'NONE', #732 ) ;
#907 = CARTESIAN_POINT ( 'NONE',  ( 0.5000000000008401058, 0.000000000000000000, -9.999999999999959144 ) ) ;
#908 = ORIENTED_EDGE ( 'NONE', *, *, #738, .T. ) ;
#909 = CARTESIAN_POINT ( 'NONE',  ( 0.5000000000008530954, -13.00000000000000000, -39.99999999999995737 ) ) ;
#910 = CARTESIAN_POINT ( 'NONE',  ( 34.89101615137816736, -13.00000000000000000, -19.56698729810737447 ) ) ;
#911 = EDGE_CURVE ( 'NONE', #324, #1068, #834, .T. ) ;
#912 = ORIENTED_EDGE ( 'NONE', *, *, #94, .T. ) ;
#913 = DIRECTION ( 'NONE',  ( 0.000000000000000000, 1.000000000000000000, 0.000000000000000000 ) ) ;
#914 = CARTESIAN_POINT ( 'NONE',  ( 0.5000000000008530954, 0.000000000000000000, -39.99999999999995737 ) ) ;
#915 = VECTOR ( 'NONE', #309, 1000.000000000000000 ) ;
#916 = CIRCLE ( 'NONE', #428, 10.00000000000000000 ) ;
#917 = CARTESIAN_POINT ( 'NONE',  ( -34.89101615137732182, -13.00000000000000000, 19.56698729810817738 ) ) ;
#918 = EDGE_CURVE ( 'NONE', #90, #305, #219, .T. ) ;
#919 = VECTOR ( 'NONE', #1086, 1000.000000000000000 ) ;
#920 = ORIENTED_EDGE ( 'NONE', *, *, #459, .F. ) ;
#921 = CARTESIAN_POINT ( 'NONE',  ( 0.5000000000008401058, -13.00000000000000000, -9.999999999999959144 ) ) ;
#922 = ORIENTED_EDGE ( 'NONE', *, *, #785, .F. ) ;
#923 = DIRECTION ( 'NONE',  ( -0.000000000000000000, 1.000000000000000000, -0.000000000000000000 ) ) ;
#924 = DIRECTION ( 'NONE',  ( 0.8660254037844395958, -0.000000000000000000, 0.4999999999999981681 ) ) ;
#925 = VERTEX_POINT ( 'NONE', #921 ) ;
#926 = DIRECTION ( 'NONE',  ( 1.000000000000000000, 0.000000000000000000, 0.000000000000000000 ) ) ;
#927 = FACE_OUTER_BOUND ( 'NONE', #657, .T. ) ;
#928 = ORIENTED_EDGE ( 'NONE', *, *, #754, .T. ) ;
#929 = EDGE_CURVE ( 'NONE', #1103, #97, #157, .T. ) ;
#930 = PLANE ( 'NONE',  #757 ) ;
#931 = AXIS2_PLACEMENT_3D ( 'NONE', #631, #123, #474 ) ;
#932 = VECTOR ( 'NONE', #116, 999.9999999999998863 ) ;
#933 = CARTESIAN_POINT ( 'NONE',  ( 34.39101615137817447, 0.000000000000000000, -20.43301270189180840 ) ) ;
#934 = VECTOR ( 'NONE', #998, 1000.000000000000000 ) ;
#935 = VERTEX_POINT ( 'NONE', #136 ) ;
#936 = CARTESIAN_POINT ( 'NONE',  ( 0.5000000000008530954, -13.00000000000000000, -39.99999999999995737 ) ) ;
#937 = EDGE_CURVE ( 'NONE', #305, #845, #53, .T. ) ;
#938 = APPLICATION_CONTEXT ( 'automotive_design' ) ;
#939 = CARTESIAN_POINT ( 'NONE',  ( 0.000000000000000000, 1.000000000000000000, 0.000000000000000000 ) ) ;
#940 = ORIENTED_EDGE ( 'NONE', *, *, #724, .T. ) ;
#941 = ORIENTED_EDGE ( 'NONE', *, *, #399, .F. ) ;
#942 = CARTESIAN_POINT ( 'NONE',  ( 6.123233995736766085E-15, 0.000000000000000000, 50.00000000000000000 ) ) ;
#943 = EDGE_CURVE ( 'NONE', #375, #967, #126, .T. ) ;
#944 =( NAMED_UNIT ( * ) PLANE_ANGLE_UNIT ( ) SI_UNIT ( $, .RADIAN. ) );
#945 = ADVANCED_FACE ( 'NONE', ( #132 ), #1009, .F. ) ;
#946 = EDGE_LOOP ( 'NONE', ( #1002, #725, #922, #489 ) ) ;
#947 = CARTESIAN_POINT ( 'NONE',  ( -34.39101615137732182, 0.000000000000000000, 20.43301270189261132 ) ) ;
#948 = ADVANCED_FACE ( 'NONE', ( #662 ), #306, .F. ) ;
#949 = LINE ( 'NONE', #1101, #537 ) ;
#950 = AXIS2_PLACEMENT_3D ( 'NONE', #643, #23, #113 ) ;
#951 = VECTOR ( 'NONE', #1048, 1000.000000000000000 ) ;
#952 = ORIENTED_EDGE ( 'NONE', *, *, #482, .T. ) ;
#953 = VECTOR ( 'NONE', #1097, 999.9999999999998863 ) ;
#954 = PLANE ( 'NONE',  #31 ) ;
#955 = PLANE ( 'NONE',  #950 ) ;
#956 = ORIENTED_EDGE ( 'NONE', *, *, #703, .F. ) ;
#957 = ORIENTED_EDGE ( 'NONE', *, *, #703, .T. ) ;
#958 = PLANE ( 'NONE',  #350 ) ;
#959 = LINE ( 'NONE', #982, #1093 ) ;
#960 = EDGE_LOOP ( 'NONE', ( #1008, #160, #1069, #477 ) ) ;
#961 = EDGE_CURVE ( 'NONE', #576, #1068, #47, .T. ) ;
#962 = FACE_OUTER_BOUND ( 'NONE', #611, .T. ) ;
#963 = EDGE_CURVE ( 'NONE', #96, #774, #60, .T. ) ;
#964 = DIRECTION ( 'NONE',  ( -0.000000000000000000, -1.000000000000000000, -0.000000000000000000 ) ) ;
#965 = LINE ( 'NONE', #883, #839 ) ;
#966 = ORIENTED_EDGE ( 'NONE', *, *, #766, .T. ) ;
#967 = VERTEX_POINT ( 'NONE', #406 ) ;
#968 = VECTOR ( 'NONE', #509, 1000.000000000000000 ) ;
#969 = VECTOR ( 'NONE', #228, 1000.000000000000000 ) ;
#970 = CARTESIAN_POINT ( 'NONE',  ( -8.910254037844334007, 0.000000000000000000, 4.566987298107882509 ) ) ;
#971 = CARTESIAN_POINT ( 'NONE',  ( 34.89101615137758472, -13.00000000000000000, 19.56698729810770843 ) ) ;
#972 = PLANE ( 'NONE',  #986 ) ;
#973 = ORIENTED_EDGE ( 'NONE', *, *, #793, .T. ) ;
#974 = CARTESIAN_POINT ( 'NONE',  ( -34.89101615137689549, 0.000000000000000000, -19.56698729810813475 ) ) ;
#975 = CARTESIAN_POINT ( 'NONE',  ( 8.910254037844369535, -13.00000000000000000, -4.566987298107821225 ) ) ;
#976 = EDGE_CURVE ( 'NONE', #875, #618, #473, .T. ) ;
#977 = LINE ( 'NONE', #708, #575 ) ;
#978 = ORIENTED_EDGE ( 'NONE', *, *, #393, .F. ) ;
#979 = ORIENTED_EDGE ( 'NONE', *, *, #610, .F. ) ;
#980 = LINE ( 'NONE', #1047, #9 ) ;
#981 = PLANE ( 'NONE',  #1077 ) ;
#982 = CARTESIAN_POINT ( 'NONE',  ( 34.89101615137758472, 0.000000000000000000, 19.56698729810770843 ) ) ;
#983 = EDGE_CURVE ( 'NONE', #97, #518, #837, .T. ) ;
#984 = ORIENTED_EDGE ( 'NONE', *, *, #597, .T. ) ;
#985 = LINE ( 'NONE', #817, #990 ) ;
#986 = AXIS2_PLACEMENT_3D ( 'NONE', #290, #107, #351 ) ;
#987 = VECTOR ( 'NONE', #776, 1000.000000000000000 ) ;
#988 = DIRECTION ( 'NONE',  ( -0.000000000000000000, 1.000000000000000000, -0.000000000000000000 ) ) ;
#989 = AXIS2_PLACEMENT_3D ( 'NONE', #133, #573, #1014 ) ;
#990 = VECTOR ( 'NONE', #823, 1000.000000000000000 ) ;
#991 = DIRECTION ( 'NONE',  ( -0.8660254037844333785, 0.000000000000000000, 0.5000000000000091038 ) ) ;
#992 = VERTEX_POINT ( 'NONE', #566 ) ;
#993 = DIRECTION ( 'NONE',  ( 1.000000000000000000, 0.000000000000000000, 0.000000000000000000 ) ) ;
#994 = EDGE_LOOP ( 'NONE', ( #957, #29, #645, #760, #1062 ) ) ;
#995 = LINE ( 'NONE', #233, #877 ) ;
#996 = DIRECTION ( 'NONE',  ( 0.5000000000000015543, -0.000000000000000000, 0.8660254037844377084 ) ) ;
#997 = ORIENTED_EDGE ( 'NONE', *, *, #275, .F. ) ;
#998 = DIRECTION ( 'NONE',  ( -0.000000000000000000, 1.000000000000000000, -0.000000000000000000 ) ) ;
#999 = LINE ( 'NONE', #492, #502 ) ;
#1000 = EDGE_CURVE ( 'NONE', #682, #360, #579, .T. ) ;
#1001 = LINE ( 'NONE', #910, #498 ) ;
#1002 = ORIENTED_EDGE ( 'NONE', *, *, #459, .T. ) ;
#1003 = DIRECTION ( 'NONE',  ( 0.000000000000000000, 0.000000000000000000, 1.000000000000000000 ) ) ;
#1004 = ORIENTED_EDGE ( 'NONE', *, *, #862, .F. ) ;
#1005 = DIRECTION ( 'NONE',  ( 1.000000000000000000, 0.000000000000000000, -0.000000000000000000 ) ) ;
#1006 = AXIS2_PLACEMENT_3D ( 'NONE', #340, #5, #526 ) ;
#1007 = CARTESIAN_POINT ( 'NONE',  ( 8.910254037844397956, 0.000000000000000000, 4.566987298107761717 ) ) ;
#1008 = ORIENTED_EDGE ( 'NONE', *, *, #446, .T. ) ;
#1009 = CYLINDRICAL_SURFACE ( 'NONE', #541, 10.00000000000000000 ) ;
#1010 = ORIENTED_EDGE ( 'NONE', *, *, #610, .T. ) ;
#1011 = DIRECTION ( 'NONE',  ( 4.300668617525835570E-16, 0.000000000000000000, -1.000000000000000000 ) ) ;
#1012 = EDGE_LOOP ( 'NONE', ( #493, #387, #893, #437, #978, #255 ) ) ;
#1013 = ORIENTED_EDGE ( 'NONE', *, *, #412, .F. ) ;
#1014 = DIRECTION ( 'NONE',  ( -1.000000000000000000, 0.000000000000000000, -0.000000000000000000 ) ) ;
#1015 = FACE_OUTER_BOUND ( 'NONE', #231, .T. ) ;
#1016 = EDGE_CURVE ( 'NONE', #925, #741, #985, .T. ) ;
#1017 = CARTESIAN_POINT ( 'NONE',  ( 34.39101615137816736, -13.00000000000000000, -20.43301270189180840 ) ) ;
#1018 = ORIENTED_EDGE ( 'NONE', *, *, #538, .F. ) ;
#1019 = CARTESIAN_POINT ( 'NONE',  ( 8.660254037844401509, 0.000000000000000000, 4.999999999999970690 ) ) ;
#1020 = AXIS2_PLACEMENT_3D ( 'NONE', #106, #814, #112 ) ;
#1021 = VECTOR ( 'NONE', #422, 1000.000000000000000 ) ;
#1022 = SURFACE_SIDE_STYLE ('',( #1033 ) ) ;
#1023 = DIRECTION ( 'NONE',  ( 0.8660254037844504760, -0.000000000000000000, -0.4999999999999794054 ) ) ;
#1024 = ORIENTED_EDGE ( 'NONE', *, *, #730, .F. ) ;
#1025 = ORIENTED_EDGE ( 'NONE', *, *, #833, .F. ) ;
#1026 = DIRECTION ( 'NONE',  ( 4.300668617525834584E-16, -0.000000000000000000, -1.000000000000000000 ) ) ;
#1027 = LINE ( 'NONE', #250, #613 ) ;
#1028 =( LENGTH_UNIT ( ) NAMED_UNIT ( * ) SI_UNIT ( .MILLI., .METRE. ) );
#1029 = ORIENTED_EDGE ( 'NONE', *, *, #147, .T. ) ;
#1030 = ORIENTED_EDGE ( 'NONE', *, *, #156, .F. ) ;
#1031 = DIRECTION ( 'NONE',  ( -0.000000000000000000, -1.000000000000000000, -0.000000000000000000 ) ) ;
#1032 = ADVANCED_FACE ( 'NONE', ( #42 ), #829, .F. ) ;
#1033 = SURFACE_STYLE_FILL_AREA ( #692 ) ;
#1034 = CARTESIAN_POINT ( 'NONE',  ( -8.660254037844435260, 0.000000000000000000, -4.999999999999916511 ) ) ;
#1035 = VERTEX_POINT ( 'NONE', #175 ) ;
#1036 = ORIENTED_EDGE ( 'NONE', *, *, #284, .F. ) ;
#1037 = CARTESIAN_POINT ( 'NONE',  ( 0.000000000000000000, 0.000000000000000000, 0.000000000000000000 ) ) ;
#1038 = CARTESIAN_POINT ( 'NONE',  ( 0.5000000000008401058, -13.00000000000000000, -9.999999999999959144 ) ) ;
#1039 = VECTOR ( 'NONE', #374, 1000.000000000000000 ) ;
#1040 = EDGE_CURVE ( 'NONE', #360, #383, #858, .T. ) ;
#1041 = AXIS2_PLACEMENT_3D ( 'NONE', #596, #856, #253 ) ;
#1042 = EDGE_LOOP ( 'NONE', ( #1029, #731, #595, #773 ) ) ;
#1043 = VECTOR ( 'NONE', #72, 1000.000000000000114 ) ;
#1044 = LINE ( 'NONE', #678, #500 ) ;
#1045 = CARTESIAN_POINT ( 'NONE',  ( 6.123233995736766085E-15, 1.000000000000000000, 50.00000000000000000 ) ) ;
#1046 = ADVANCED_FACE ( 'NONE', ( #341 ), #1111, .F. ) ;
#1047 = CARTESIAN_POINT ( 'NONE',  ( -8.410254037844437036, -13.00000000000000000, -5.433012701892142360 ) ) ;
#1048 = DIRECTION ( 'NONE',  ( 4.300668617525834584E-16, -0.000000000000000000, -1.000000000000000000 ) ) ;
#1049 = DIRECTION ( 'NONE',  ( 0.8660254037844264952, 0.000000000000000000, 0.5000000000000209832 ) ) ;
#1050 = ORIENTED_EDGE ( 'NONE', *, *, #163, .F. ) ;
#1051 = CARTESIAN_POINT ( 'NONE',  ( 8.410254037844399733, 0.000000000000000000, 5.433012701892201868 ) ) ;
#1052 = CARTESIAN_POINT ( 'NONE',  ( -0.4999999999991469601, 0.000000000000000000, -39.99999999999995737 ) ) ;
#1053 = EDGE_CURVE ( 'NONE', #967, #19, #151, .T. ) ;
#1054 = DIRECTION ( 'NONE',  ( -0.4999999999999982236, 0.000000000000000000, 0.8660254037844397068 ) ) ;
#1055 = ORIENTED_EDGE ( 'NONE', *, *, #588, .T. ) ;
#1056 = ORIENTED_EDGE ( 'NONE', *, *, #33, .F. ) ;
#1057 = VECTOR ( 'NONE', #891, 1000.000000000000000 ) ;
#1058 = AXIS2_PLACEMENT_3D ( 'NONE', #205, #625, #293 ) ;
#1059 = CARTESIAN_POINT ( 'NONE',  ( 34.39101615137758472, -13.00000000000000000, 20.43301270189214947 ) ) ;
#1060 = LINE ( 'NONE', #971, #296 ) ;
#1061 = FACE_OUTER_BOUND ( 'NONE', #1042, .T. ) ;
#1062 = ORIENTED_EDGE ( 'NONE', *, *, #20, .T. ) ;
#1063 = ORIENTED_EDGE ( 'NONE', *, *, #99, .F. ) ;
#1064 = CARTESIAN_POINT ( 'NONE',  ( 0.000000000000000000, 0.000000000000000000, 0.000000000000000000 ) ) ;
#1065 = DIRECTION ( 'NONE',  ( -0.000000000000000000, 1.000000000000000000, -0.000000000000000000 ) ) ;
#1066 = ADVANCED_FACE ( 'NONE', ( #844 ), #1118, .F. ) ;
#1067 = DIRECTION ( 'NONE',  ( 0.8660254037844329345, 0.000000000000000000, -0.5000000000000098810 ) ) ;
#1068 = VERTEX_POINT ( 'NONE', #523 ) ;
#1069 = ORIENTED_EDGE ( 'NONE', *, *, #683, .F. ) ;
#1070 = DIRECTION ( 'NONE',  ( 0.4999999999999985012, -0.000000000000000000, -0.8660254037844394848 ) ) ;
#1071 = LINE ( 'NONE', #887, #521 ) ;
#1072 = DIRECTION ( 'NONE',  ( 0.000000000000000000, -1.000000000000000000, 0.000000000000000000 ) ) ;
#1073 = APPLICATION_CONTEXT ( 'automotive_design' ) ;
#1074 = ORIENTED_EDGE ( 'NONE', *, *, #715, .T. ) ;
#1075 = CARTESIAN_POINT ( 'NONE',  ( 34.39101615137816736, -13.00000000000000000, -20.43301270189180840 ) ) ;
#1076 = VECTOR ( 'NONE', #924, 1000.000000000000227 ) ;
#1077 = AXIS2_PLACEMENT_3D ( 'NONE', #897, #753, #221 ) ;
#1078 = FACE_OUTER_BOUND ( 'NONE', #580, .T. ) ;
#1079 = CARTESIAN_POINT ( 'NONE',  ( 0.5000000000008530954, 0.000000000000000000, -39.99999999999995737 ) ) ;
#1080 = EDGE_LOOP ( 'NONE', ( #394, #332, #512, #302 ) ) ;
#1081 = EDGE_CURVE ( 'NONE', #841, #694, #616, .T. ) ;
#1082 = DIRECTION ( 'NONE',  ( -0.000000000000000000, -1.000000000000000000, -0.000000000000000000 ) ) ;
#1083 = CARTESIAN_POINT ( 'NONE',  ( 34.39101615137758472, -13.00000000000000000, 20.43301270189214947 ) ) ;
#1084 = LINE ( 'NONE', #141, #7 ) ;
#1085 = ORIENTED_EDGE ( 'NONE', *, *, #605, .T. ) ;
#1086 = DIRECTION ( 'NONE',  ( -1.000000000000000000, 0.000000000000000000, 0.000000000000000000 ) ) ;
#1087 = ORIENTED_EDGE ( 'NONE', *, *, #188, .T. ) ;
#1088 = CARTESIAN_POINT ( 'NONE',  ( 0.4999999999999901190, 0.000000000000000000, 40.00000000000000000 ) ) ;
#1089 = CARTESIAN_POINT ( 'NONE',  ( -0.5000000000000017764, -13.00000000000000000, 10.00000000000000000 ) ) ;
#1090 = VERTEX_POINT ( 'NONE', #331 ) ;
#1091 = CARTESIAN_POINT ( 'NONE',  ( 34.39101615137758472, 0.000000000000000000, 20.43301270189214947 ) ) ;
#1092 = LINE ( 'NONE', #761, #594 ) ;
#1093 = VECTOR ( 'NONE', #900, 1000.000000000000227 ) ;
#1094 = AXIS2_PLACEMENT_3D ( 'NONE', #975, #22, #728 ) ;
#1095 = AXIS2_PLACEMENT_3D ( 'NONE', #21, #361, #629 ) ;
#1096 = ORIENTED_EDGE ( 'NONE', *, *, #895, .F. ) ;
#1097 = DIRECTION ( 'NONE',  ( 0.5000000000000091038, 0.000000000000000000, 0.8660254037844333785 ) ) ;
#1098 = ORIENTED_EDGE ( 'NONE', *, *, #766, .F. ) ;
#1099 = CARTESIAN_POINT ( 'NONE',  ( -34.89101615137732182, -13.00000000000000000, 19.56698729810817738 ) ) ;
#1100 = EDGE_CURVE ( 'NONE', #442, #246, #606, .T. ) ;
#1101 = CARTESIAN_POINT ( 'NONE',  ( 0.5000000000008530954, -13.00000000000000000, -39.99999999999995737 ) ) ;
#1102 = DIRECTION ( 'NONE',  ( -0.8660254037844387076, 0.000000000000000000, -0.5000000000000000000 ) ) ;
#1103 = VERTEX_POINT ( 'NONE', #1034 ) ;
#1104 = LINE ( 'NONE', #427, #370 ) ;
#1105 = DIRECTION ( 'NONE',  ( 0.000000000000000000, 0.000000000000000000, 1.000000000000000000 ) ) ;
#1106 = DIRECTION ( 'NONE',  ( -0.000000000000000000, 1.000000000000000000, -0.000000000000000000 ) ) ;
#1107 = EDGE_LOOP ( 'NONE', ( #705, #343, #453, #214 ) ) ;
#1108 = DIRECTION ( 'NONE',  ( 2.710505431213761578E-16, 0.000000000000000000, -1.000000000000000000 ) ) ;
#1109 = AXIS2_PLACEMENT_3D ( 'NONE', #430, #609, #516 ) ;
#1110 = VECTOR ( 'NONE', #1026, 1000.000000000000000 ) ;
#1111 = PLANE ( 'NONE',  #684 ) ;
#1112 = ORIENTED_EDGE ( 'NONE', *, *, #208, .T. ) ;
#1113 = VERTEX_POINT ( 'NONE', #768 ) ;
#1114 = EDGE_CURVE ( 'NONE', #828, #19, #77, .T. ) ;
#1115 = CYLINDRICAL_SURFACE ( 'NONE', #1006, 10.00000000000000000 ) ;
#1116 = ADVANCED_FACE ( 'NONE', ( #251 ), #254, .T. ) ;
#1117 = DIRECTION ( 'NONE',  ( 0.000000000000000000, 1.000000000000000000, 0.000000000000000000 ) ) ;
#1118 = PLANE ( 'NONE',  #810 ) ;
#1119 = ORIENTED_EDGE ( 'NONE', *, *, #745, .T. ) ;
#1120 = ORIENTED_EDGE ( 'NONE', *, *, #448, .T. ) ;
#1121 = UNCERTAINTY_MEASURE_WITH_UNIT (LENGTH_MEASURE( 1.000000000000000082E-05 ), #865, 'distance_accuracy_value', 'NONE');
ENDSEC;
END-ISO-10303-21;
