ISO-10303-21;
HEADER;
/* Generated by software containing ST-Developer
 * from STEP Tools, Inc. (www.steptools.com) 
 */

FILE_DESCRIPTION(
/* description */ ('NOT SPECIFIED'),
/* implementation_level */ '2;1');

FILE_NAME(
/* name */ 'ZHUANZHOULIANJIEJIAN.step',
/* time_stamp */ '2025-06-05T11:22:18+08:00',
/* author */ (''),
/* organization */ (''),
/* preprocessor_version */ 'ST-DEVELOPER v20.1',
/* originating_system */ 'Autodesk Translation Framework v14.10.0.0',
/* authorisation */ '');

FILE_SCHEMA (('AUTOMOTIVE_DESIGN { 1 0 10303 214 3 1 1 }'));
ENDSEC;

DATA;
#10=MECHANICAL_DESIGN_GEOMETRIC_PRESENTATION_REPRESENTATION('',(#13),#751);
#11=SHAPE_REPRESENTATION_RELATIONSHIP('SRR','None',#758,#12);
#12=ADVANCED_BREP_SHAPE_REPRESENTATION('',(#14),#750);
#13=STYLED_ITEM('',(#767),#14);
#14=MANIFOLD_SOLID_BREP('\X2\5B9E4F53\X0\1',#435);
#15=CYLINDRICAL_SURFACE('',#454,1.025);
#16=CYLINDRICAL_SURFACE('',#460,1.025);
#17=CYLINDRICAL_SURFACE('',#461,2.);
#18=CYLINDRICAL_SURFACE('',#467,2.);
#19=CYLINDRICAL_SURFACE('',#474,1.025);
#20=CYLINDRICAL_SURFACE('',#479,1.025);
#21=CYLINDRICAL_SURFACE('',#481,2.);
#22=CYLINDRICAL_SURFACE('',#487,4.);
#23=CYLINDRICAL_SURFACE('',#489,4.);
#24=CYLINDRICAL_SURFACE('',#490,2.);
#25=CYLINDRICAL_SURFACE('',#492,1.5);
#26=CYLINDRICAL_SURFACE('',#494,1.5);
#27=FACE_BOUND('',#58,.T.);
#28=FACE_BOUND('',#59,.T.);
#29=FACE_BOUND('',#62,.T.);
#30=FACE_BOUND('',#63,.T.);
#31=FACE_BOUND('',#69,.T.);
#32=FACE_BOUND('',#70,.T.);
#33=FACE_BOUND('',#73,.T.);
#34=FACE_BOUND('',#74,.T.);
#35=FACE_OUTER_BOUND('',#57,.T.);
#36=FACE_OUTER_BOUND('',#60,.T.);
#37=FACE_OUTER_BOUND('',#61,.T.);
#38=FACE_OUTER_BOUND('',#64,.T.);
#39=FACE_OUTER_BOUND('',#65,.T.);
#40=FACE_OUTER_BOUND('',#66,.T.);
#41=FACE_OUTER_BOUND('',#67,.T.);
#42=FACE_OUTER_BOUND('',#68,.T.);
#43=FACE_OUTER_BOUND('',#71,.T.);
#44=FACE_OUTER_BOUND('',#72,.T.);
#45=FACE_OUTER_BOUND('',#75,.T.);
#46=FACE_OUTER_BOUND('',#76,.T.);
#47=FACE_OUTER_BOUND('',#77,.T.);
#48=FACE_OUTER_BOUND('',#78,.T.);
#49=FACE_OUTER_BOUND('',#79,.T.);
#50=FACE_OUTER_BOUND('',#80,.T.);
#51=FACE_OUTER_BOUND('',#81,.T.);
#52=FACE_OUTER_BOUND('',#82,.T.);
#53=FACE_OUTER_BOUND('',#83,.T.);
#54=FACE_OUTER_BOUND('',#84,.T.);
#55=FACE_OUTER_BOUND('',#85,.T.);
#56=FACE_OUTER_BOUND('',#86,.T.);
#57=EDGE_LOOP('',(#283,#284,#285,#286,#287,#288));
#58=EDGE_LOOP('',(#289));
#59=EDGE_LOOP('',(#290));
#60=EDGE_LOOP('',(#291,#292,#293,#294));
#61=EDGE_LOOP('',(#295,#296,#297,#298,#299,#300));
#62=EDGE_LOOP('',(#301));
#63=EDGE_LOOP('',(#302));
#64=EDGE_LOOP('',(#303,#304,#305,#306));
#65=EDGE_LOOP('',(#307,#308,#309,#310));
#66=EDGE_LOOP('',(#311,#312,#313,#314,#315,#316,#317,#318,#319,#320,#321,
#322));
#67=EDGE_LOOP('',(#323,#324,#325,#326));
#68=EDGE_LOOP('',(#327,#328,#329,#330,#331,#332));
#69=EDGE_LOOP('',(#333));
#70=EDGE_LOOP('',(#334));
#71=EDGE_LOOP('',(#335,#336,#337,#338));
#72=EDGE_LOOP('',(#339,#340,#341,#342,#343,#344));
#73=EDGE_LOOP('',(#345));
#74=EDGE_LOOP('',(#346));
#75=EDGE_LOOP('',(#347,#348,#349,#350));
#76=EDGE_LOOP('',(#351,#352,#353,#354));
#77=EDGE_LOOP('',(#355,#356,#357,#358));
#78=EDGE_LOOP('',(#359,#360,#361,#362,#363,#364,#365,#366,#367,#368,#369,
#370));
#79=EDGE_LOOP('',(#371,#372,#373,#374));
#80=EDGE_LOOP('',(#375,#376,#377,#378));
#81=EDGE_LOOP('',(#379,#380,#381,#382));
#82=EDGE_LOOP('',(#383,#384,#385,#386));
#83=EDGE_LOOP('',(#387,#388,#389,#390));
#84=EDGE_LOOP('',(#391,#392,#393,#394));
#85=EDGE_LOOP('',(#395,#396,#397,#398));
#86=EDGE_LOOP('',(#399,#400,#401,#402));
#87=LINE('',#631,#123);
#88=LINE('',#635,#124);
#89=LINE('',#637,#125);
#90=LINE('',#638,#126);
#91=LINE('',#645,#127);
#92=LINE('',#652,#128);
#93=LINE('',#654,#129);
#94=LINE('',#656,#130);
#95=LINE('',#659,#131);
#96=LINE('',#663,#132);
#97=LINE('',#665,#133);
#98=LINE('',#666,#134);
#99=LINE('',#670,#135);
#100=LINE('',#672,#136);
#101=LINE('',#676,#137);
#102=LINE('',#681,#138);
#103=LINE('',#684,#139);
#104=LINE('',#690,#140);
#105=LINE('',#693,#141);
#106=LINE('',#697,#142);
#107=LINE('',#698,#143);
#108=LINE('',#705,#144);
#109=LINE('',#709,#145);
#110=LINE('',#711,#146);
#111=LINE('',#714,#147);
#112=LINE('',#718,#148);
#113=LINE('',#720,#149);
#114=LINE('',#722,#150);
#115=LINE('',#727,#151);
#116=LINE('',#729,#152);
#117=LINE('',#733,#153);
#118=LINE('',#736,#154);
#119=LINE('',#738,#155);
#120=LINE('',#741,#156);
#121=LINE('',#744,#157);
#122=LINE('',#746,#158);
#123=VECTOR('',#501,7.8);
#124=VECTOR('',#504,4.);
#125=VECTOR('',#505,11.8);
#126=VECTOR('',#506,4.);
#127=VECTOR('',#513,1.025);
#128=VECTOR('',#520,4.);
#129=VECTOR('',#521,11.8);
#130=VECTOR('',#522,4.);
#131=VECTOR('',#525,7.8);
#132=VECTOR('',#530,1.025);
#133=VECTOR('',#533,2.5);
#134=VECTOR('',#534,2.5);
#135=VECTOR('',#537,2.5);
#136=VECTOR('',#538,11.6);
#137=VECTOR('',#541,10.3);
#138=VECTOR('',#546,10.3);
#139=VECTOR('',#549,11.6);
#140=VECTOR('',#556,2.5);
#141=VECTOR('',#559,7.8);
#142=VECTOR('',#562,11.6);
#143=VECTOR('',#563,11.8);
#144=VECTOR('',#570,1.025);
#145=VECTOR('',#575,11.8);
#146=VECTOR('',#576,11.6);
#147=VECTOR('',#579,7.8);
#148=VECTOR('',#584,1.025);
#149=VECTOR('',#587,2.5);
#150=VECTOR('',#590,2.5);
#151=VECTOR('',#595,10.3);
#152=VECTOR('',#598,2.5);
#153=VECTOR('',#601,10.3);
#154=VECTOR('',#606,11.8);
#155=VECTOR('',#609,11.8);
#156=VECTOR('',#614,2.5);
#157=VECTOR('',#619,11.8);
#158=VECTOR('',#622,11.8);
#159=CIRCLE('',#450,2.);
#160=CIRCLE('',#451,2.);
#161=CIRCLE('',#452,1.025);
#162=CIRCLE('',#453,1.025);
#163=CIRCLE('',#455,1.025);
#164=CIRCLE('',#457,2.);
#165=CIRCLE('',#458,2.);
#166=CIRCLE('',#459,1.025);
#167=CIRCLE('',#463,4.);
#168=CIRCLE('',#464,4.);
#169=CIRCLE('',#465,1.5);
#170=CIRCLE('',#466,1.5);
#171=CIRCLE('',#468,2.);
#172=CIRCLE('',#469,2.);
#173=CIRCLE('',#471,2.);
#174=CIRCLE('',#472,1.025);
#175=CIRCLE('',#473,1.025);
#176=CIRCLE('',#475,1.025);
#177=CIRCLE('',#477,2.);
#178=CIRCLE('',#478,1.025);
#179=CIRCLE('',#483,1.5);
#180=CIRCLE('',#484,1.5);
#181=CIRCLE('',#485,4.);
#182=CIRCLE('',#486,4.);
#183=VERTEX_POINT('',#627);
#184=VERTEX_POINT('',#628);
#185=VERTEX_POINT('',#630);
#186=VERTEX_POINT('',#632);
#187=VERTEX_POINT('',#634);
#188=VERTEX_POINT('',#636);
#189=VERTEX_POINT('',#639);
#190=VERTEX_POINT('',#641);
#191=VERTEX_POINT('',#644);
#192=VERTEX_POINT('',#648);
#193=VERTEX_POINT('',#649);
#194=VERTEX_POINT('',#651);
#195=VERTEX_POINT('',#653);
#196=VERTEX_POINT('',#655);
#197=VERTEX_POINT('',#657);
#198=VERTEX_POINT('',#660);
#199=VERTEX_POINT('',#668);
#200=VERTEX_POINT('',#669);
#201=VERTEX_POINT('',#671);
#202=VERTEX_POINT('',#673);
#203=VERTEX_POINT('',#675);
#204=VERTEX_POINT('',#678);
#205=VERTEX_POINT('',#680);
#206=VERTEX_POINT('',#682);
#207=VERTEX_POINT('',#686);
#208=VERTEX_POINT('',#688);
#209=VERTEX_POINT('',#692);
#210=VERTEX_POINT('',#694);
#211=VERTEX_POINT('',#696);
#212=VERTEX_POINT('',#699);
#213=VERTEX_POINT('',#701);
#214=VERTEX_POINT('',#704);
#215=VERTEX_POINT('',#708);
#216=VERTEX_POINT('',#710);
#217=VERTEX_POINT('',#712);
#218=VERTEX_POINT('',#715);
#219=VERTEX_POINT('',#724);
#220=VERTEX_POINT('',#726);
#221=VERTEX_POINT('',#730);
#222=VERTEX_POINT('',#732);
#223=EDGE_CURVE('',#183,#184,#159,.T.);
#224=EDGE_CURVE('',#185,#184,#87,.T.);
#225=EDGE_CURVE('',#185,#186,#160,.T.);
#226=EDGE_CURVE('',#187,#186,#88,.T.);
#227=EDGE_CURVE('',#188,#187,#89,.T.);
#228=EDGE_CURVE('',#188,#183,#90,.T.);
#229=EDGE_CURVE('',#189,#189,#161,.T.);
#230=EDGE_CURVE('',#190,#190,#162,.T.);
#231=EDGE_CURVE('',#190,#191,#91,.T.);
#232=EDGE_CURVE('',#191,#191,#163,.T.);
#233=EDGE_CURVE('',#192,#193,#164,.T.);
#234=EDGE_CURVE('',#193,#194,#92,.T.);
#235=EDGE_CURVE('',#195,#194,#93,.T.);
#236=EDGE_CURVE('',#196,#195,#94,.T.);
#237=EDGE_CURVE('',#196,#197,#165,.T.);
#238=EDGE_CURVE('',#192,#197,#95,.T.);
#239=EDGE_CURVE('',#198,#198,#166,.T.);
#240=EDGE_CURVE('',#189,#198,#96,.T.);
#241=EDGE_CURVE('',#184,#192,#97,.T.);
#242=EDGE_CURVE('',#183,#193,#98,.T.);
#243=EDGE_CURVE('',#199,#200,#99,.T.);
#244=EDGE_CURVE('',#201,#200,#100,.T.);
#245=EDGE_CURVE('',#202,#201,#167,.T.);
#246=EDGE_CURVE('',#203,#202,#101,.T.);
#247=EDGE_CURVE('',#194,#203,#168,.T.);
#248=EDGE_CURVE('',#204,#188,#169,.T.);
#249=EDGE_CURVE('',#205,#204,#102,.T.);
#250=EDGE_CURVE('',#206,#205,#170,.T.);
#251=EDGE_CURVE('',#199,#206,#103,.T.);
#252=EDGE_CURVE('',#200,#207,#171,.T.);
#253=EDGE_CURVE('',#208,#199,#172,.T.);
#254=EDGE_CURVE('',#208,#207,#104,.T.);
#255=EDGE_CURVE('',#207,#209,#105,.T.);
#256=EDGE_CURVE('',#209,#210,#173,.T.);
#257=EDGE_CURVE('',#211,#210,#106,.T.);
#258=EDGE_CURVE('',#211,#201,#107,.T.);
#259=EDGE_CURVE('',#212,#212,#174,.T.);
#260=EDGE_CURVE('',#213,#213,#175,.T.);
#261=EDGE_CURVE('',#213,#214,#108,.T.);
#262=EDGE_CURVE('',#214,#214,#176,.T.);
#263=EDGE_CURVE('',#206,#215,#109,.T.);
#264=EDGE_CURVE('',#216,#215,#110,.T.);
#265=EDGE_CURVE('',#216,#217,#177,.T.);
#266=EDGE_CURVE('',#217,#208,#111,.T.);
#267=EDGE_CURVE('',#218,#218,#178,.T.);
#268=EDGE_CURVE('',#212,#218,#112,.T.);
#269=EDGE_CURVE('',#217,#209,#113,.T.);
#270=EDGE_CURVE('',#216,#210,#114,.T.);
#271=EDGE_CURVE('',#219,#215,#179,.T.);
#272=EDGE_CURVE('',#219,#220,#115,.T.);
#273=EDGE_CURVE('',#187,#220,#180,.T.);
#274=EDGE_CURVE('',#186,#196,#116,.T.);
#275=EDGE_CURVE('',#221,#195,#181,.T.);
#276=EDGE_CURVE('',#221,#222,#117,.T.);
#277=EDGE_CURVE('',#211,#222,#182,.T.);
#278=EDGE_CURVE('',#222,#202,#118,.T.);
#279=EDGE_CURVE('',#221,#203,#119,.T.);
#280=EDGE_CURVE('',#185,#197,#120,.T.);
#281=EDGE_CURVE('',#204,#220,#121,.T.);
#282=EDGE_CURVE('',#205,#219,#122,.T.);
#283=ORIENTED_EDGE('',*,*,#223,.T.);
#284=ORIENTED_EDGE('',*,*,#224,.F.);
#285=ORIENTED_EDGE('',*,*,#225,.T.);
#286=ORIENTED_EDGE('',*,*,#226,.F.);
#287=ORIENTED_EDGE('',*,*,#227,.F.);
#288=ORIENTED_EDGE('',*,*,#228,.T.);
#289=ORIENTED_EDGE('',*,*,#229,.T.);
#290=ORIENTED_EDGE('',*,*,#230,.T.);
#291=ORIENTED_EDGE('',*,*,#230,.F.);
#292=ORIENTED_EDGE('',*,*,#231,.T.);
#293=ORIENTED_EDGE('',*,*,#232,.T.);
#294=ORIENTED_EDGE('',*,*,#231,.F.);
#295=ORIENTED_EDGE('',*,*,#233,.T.);
#296=ORIENTED_EDGE('',*,*,#234,.T.);
#297=ORIENTED_EDGE('',*,*,#235,.F.);
#298=ORIENTED_EDGE('',*,*,#236,.F.);
#299=ORIENTED_EDGE('',*,*,#237,.T.);
#300=ORIENTED_EDGE('',*,*,#238,.F.);
#301=ORIENTED_EDGE('',*,*,#239,.F.);
#302=ORIENTED_EDGE('',*,*,#232,.F.);
#303=ORIENTED_EDGE('',*,*,#229,.F.);
#304=ORIENTED_EDGE('',*,*,#240,.T.);
#305=ORIENTED_EDGE('',*,*,#239,.T.);
#306=ORIENTED_EDGE('',*,*,#240,.F.);
#307=ORIENTED_EDGE('',*,*,#233,.F.);
#308=ORIENTED_EDGE('',*,*,#241,.F.);
#309=ORIENTED_EDGE('',*,*,#223,.F.);
#310=ORIENTED_EDGE('',*,*,#242,.T.);
#311=ORIENTED_EDGE('',*,*,#243,.T.);
#312=ORIENTED_EDGE('',*,*,#244,.F.);
#313=ORIENTED_EDGE('',*,*,#245,.F.);
#314=ORIENTED_EDGE('',*,*,#246,.F.);
#315=ORIENTED_EDGE('',*,*,#247,.F.);
#316=ORIENTED_EDGE('',*,*,#234,.F.);
#317=ORIENTED_EDGE('',*,*,#242,.F.);
#318=ORIENTED_EDGE('',*,*,#228,.F.);
#319=ORIENTED_EDGE('',*,*,#248,.F.);
#320=ORIENTED_EDGE('',*,*,#249,.F.);
#321=ORIENTED_EDGE('',*,*,#250,.F.);
#322=ORIENTED_EDGE('',*,*,#251,.F.);
#323=ORIENTED_EDGE('',*,*,#252,.F.);
#324=ORIENTED_EDGE('',*,*,#243,.F.);
#325=ORIENTED_EDGE('',*,*,#253,.F.);
#326=ORIENTED_EDGE('',*,*,#254,.T.);
#327=ORIENTED_EDGE('',*,*,#252,.T.);
#328=ORIENTED_EDGE('',*,*,#255,.T.);
#329=ORIENTED_EDGE('',*,*,#256,.T.);
#330=ORIENTED_EDGE('',*,*,#257,.F.);
#331=ORIENTED_EDGE('',*,*,#258,.T.);
#332=ORIENTED_EDGE('',*,*,#244,.T.);
#333=ORIENTED_EDGE('',*,*,#259,.T.);
#334=ORIENTED_EDGE('',*,*,#260,.T.);
#335=ORIENTED_EDGE('',*,*,#260,.F.);
#336=ORIENTED_EDGE('',*,*,#261,.T.);
#337=ORIENTED_EDGE('',*,*,#262,.T.);
#338=ORIENTED_EDGE('',*,*,#261,.F.);
#339=ORIENTED_EDGE('',*,*,#253,.T.);
#340=ORIENTED_EDGE('',*,*,#251,.T.);
#341=ORIENTED_EDGE('',*,*,#263,.T.);
#342=ORIENTED_EDGE('',*,*,#264,.F.);
#343=ORIENTED_EDGE('',*,*,#265,.T.);
#344=ORIENTED_EDGE('',*,*,#266,.T.);
#345=ORIENTED_EDGE('',*,*,#267,.F.);
#346=ORIENTED_EDGE('',*,*,#262,.F.);
#347=ORIENTED_EDGE('',*,*,#259,.F.);
#348=ORIENTED_EDGE('',*,*,#268,.T.);
#349=ORIENTED_EDGE('',*,*,#267,.T.);
#350=ORIENTED_EDGE('',*,*,#268,.F.);
#351=ORIENTED_EDGE('',*,*,#254,.F.);
#352=ORIENTED_EDGE('',*,*,#266,.F.);
#353=ORIENTED_EDGE('',*,*,#269,.T.);
#354=ORIENTED_EDGE('',*,*,#255,.F.);
#355=ORIENTED_EDGE('',*,*,#256,.F.);
#356=ORIENTED_EDGE('',*,*,#269,.F.);
#357=ORIENTED_EDGE('',*,*,#265,.F.);
#358=ORIENTED_EDGE('',*,*,#270,.T.);
#359=ORIENTED_EDGE('',*,*,#270,.F.);
#360=ORIENTED_EDGE('',*,*,#264,.T.);
#361=ORIENTED_EDGE('',*,*,#271,.F.);
#362=ORIENTED_EDGE('',*,*,#272,.T.);
#363=ORIENTED_EDGE('',*,*,#273,.F.);
#364=ORIENTED_EDGE('',*,*,#226,.T.);
#365=ORIENTED_EDGE('',*,*,#274,.T.);
#366=ORIENTED_EDGE('',*,*,#236,.T.);
#367=ORIENTED_EDGE('',*,*,#275,.F.);
#368=ORIENTED_EDGE('',*,*,#276,.T.);
#369=ORIENTED_EDGE('',*,*,#277,.F.);
#370=ORIENTED_EDGE('',*,*,#257,.T.);
#371=ORIENTED_EDGE('',*,*,#258,.F.);
#372=ORIENTED_EDGE('',*,*,#277,.T.);
#373=ORIENTED_EDGE('',*,*,#278,.T.);
#374=ORIENTED_EDGE('',*,*,#245,.T.);
#375=ORIENTED_EDGE('',*,*,#279,.T.);
#376=ORIENTED_EDGE('',*,*,#246,.T.);
#377=ORIENTED_EDGE('',*,*,#278,.F.);
#378=ORIENTED_EDGE('',*,*,#276,.F.);
#379=ORIENTED_EDGE('',*,*,#279,.F.);
#380=ORIENTED_EDGE('',*,*,#275,.T.);
#381=ORIENTED_EDGE('',*,*,#235,.T.);
#382=ORIENTED_EDGE('',*,*,#247,.T.);
#383=ORIENTED_EDGE('',*,*,#237,.F.);
#384=ORIENTED_EDGE('',*,*,#274,.F.);
#385=ORIENTED_EDGE('',*,*,#225,.F.);
#386=ORIENTED_EDGE('',*,*,#280,.T.);
#387=ORIENTED_EDGE('',*,*,#241,.T.);
#388=ORIENTED_EDGE('',*,*,#238,.T.);
#389=ORIENTED_EDGE('',*,*,#280,.F.);
#390=ORIENTED_EDGE('',*,*,#224,.T.);
#391=ORIENTED_EDGE('',*,*,#281,.F.);
#392=ORIENTED_EDGE('',*,*,#248,.T.);
#393=ORIENTED_EDGE('',*,*,#227,.T.);
#394=ORIENTED_EDGE('',*,*,#273,.T.);
#395=ORIENTED_EDGE('',*,*,#281,.T.);
#396=ORIENTED_EDGE('',*,*,#272,.F.);
#397=ORIENTED_EDGE('',*,*,#282,.F.);
#398=ORIENTED_EDGE('',*,*,#249,.T.);
#399=ORIENTED_EDGE('',*,*,#263,.F.);
#400=ORIENTED_EDGE('',*,*,#250,.T.);
#401=ORIENTED_EDGE('',*,*,#282,.T.);
#402=ORIENTED_EDGE('',*,*,#271,.T.);
#403=PLANE('',#449);
#404=PLANE('',#456);
#405=PLANE('',#462);
#406=PLANE('',#470);
#407=PLANE('',#476);
#408=PLANE('',#480);
#409=PLANE('',#482);
#410=PLANE('',#488);
#411=PLANE('',#491);
#412=PLANE('',#493);
#413=ADVANCED_FACE('',(#35,#27,#28),#403,.F.);
#414=ADVANCED_FACE('',(#36),#15,.F.);
#415=ADVANCED_FACE('',(#37,#29,#30),#404,.T.);
#416=ADVANCED_FACE('',(#38),#16,.F.);
#417=ADVANCED_FACE('',(#39),#17,.T.);
#418=ADVANCED_FACE('',(#40),#405,.T.);
#419=ADVANCED_FACE('',(#41),#18,.T.);
#420=ADVANCED_FACE('',(#42,#31,#32),#406,.T.);
#421=ADVANCED_FACE('',(#43),#19,.F.);
#422=ADVANCED_FACE('',(#44,#33,#34),#407,.F.);
#423=ADVANCED_FACE('',(#45),#20,.F.);
#424=ADVANCED_FACE('',(#46),#408,.T.);
#425=ADVANCED_FACE('',(#47),#21,.T.);
#426=ADVANCED_FACE('',(#48),#409,.F.);
#427=ADVANCED_FACE('',(#49),#22,.T.);
#428=ADVANCED_FACE('',(#50),#410,.T.);
#429=ADVANCED_FACE('',(#51),#23,.T.);
#430=ADVANCED_FACE('',(#52),#24,.T.);
#431=ADVANCED_FACE('',(#53),#411,.F.);
#432=ADVANCED_FACE('',(#54),#25,.F.);
#433=ADVANCED_FACE('',(#55),#412,.F.);
#434=ADVANCED_FACE('',(#56),#26,.F.);
#435=CLOSED_SHELL('',(#413,#414,#415,#416,#417,#418,#419,#420,#421,#422,
#423,#424,#425,#426,#427,#428,#429,#430,#431,#432,#433,#434));
#436=DERIVED_UNIT_ELEMENT(#438,1.);
#437=DERIVED_UNIT_ELEMENT(#753,-3.);
#438=(
MASS_UNIT()
NAMED_UNIT(*)
SI_UNIT(.KILO.,.GRAM.)
);
#439=DERIVED_UNIT((#436,#437));
#440=MEASURE_REPRESENTATION_ITEM('density measure',
POSITIVE_RATIO_MEASURE(7850.),#439);
#441=PROPERTY_DEFINITION_REPRESENTATION(#446,#443);
#442=PROPERTY_DEFINITION_REPRESENTATION(#447,#444);
#443=REPRESENTATION('material name',(#445),#750);
#444=REPRESENTATION('density',(#440),#750);
#445=DESCRIPTIVE_REPRESENTATION_ITEM('\X2\94A2\X0\','\X2\94A2\X0\');
#446=PROPERTY_DEFINITION('material property','material name',#760);
#447=PROPERTY_DEFINITION('material property','density of part',#760);
#448=AXIS2_PLACEMENT_3D('',#625,#495,#496);
#449=AXIS2_PLACEMENT_3D('',#626,#497,#498);
#450=AXIS2_PLACEMENT_3D('',#629,#499,#500);
#451=AXIS2_PLACEMENT_3D('',#633,#502,#503);
#452=AXIS2_PLACEMENT_3D('',#640,#507,#508);
#453=AXIS2_PLACEMENT_3D('',#642,#509,#510);
#454=AXIS2_PLACEMENT_3D('',#643,#511,#512);
#455=AXIS2_PLACEMENT_3D('',#646,#514,#515);
#456=AXIS2_PLACEMENT_3D('',#647,#516,#517);
#457=AXIS2_PLACEMENT_3D('',#650,#518,#519);
#458=AXIS2_PLACEMENT_3D('',#658,#523,#524);
#459=AXIS2_PLACEMENT_3D('',#661,#526,#527);
#460=AXIS2_PLACEMENT_3D('',#662,#528,#529);
#461=AXIS2_PLACEMENT_3D('',#664,#531,#532);
#462=AXIS2_PLACEMENT_3D('',#667,#535,#536);
#463=AXIS2_PLACEMENT_3D('',#674,#539,#540);
#464=AXIS2_PLACEMENT_3D('',#677,#542,#543);
#465=AXIS2_PLACEMENT_3D('',#679,#544,#545);
#466=AXIS2_PLACEMENT_3D('',#683,#547,#548);
#467=AXIS2_PLACEMENT_3D('',#685,#550,#551);
#468=AXIS2_PLACEMENT_3D('',#687,#552,#553);
#469=AXIS2_PLACEMENT_3D('',#689,#554,#555);
#470=AXIS2_PLACEMENT_3D('',#691,#557,#558);
#471=AXIS2_PLACEMENT_3D('',#695,#560,#561);
#472=AXIS2_PLACEMENT_3D('',#700,#564,#565);
#473=AXIS2_PLACEMENT_3D('',#702,#566,#567);
#474=AXIS2_PLACEMENT_3D('',#703,#568,#569);
#475=AXIS2_PLACEMENT_3D('',#706,#571,#572);
#476=AXIS2_PLACEMENT_3D('',#707,#573,#574);
#477=AXIS2_PLACEMENT_3D('',#713,#577,#578);
#478=AXIS2_PLACEMENT_3D('',#716,#580,#581);
#479=AXIS2_PLACEMENT_3D('',#717,#582,#583);
#480=AXIS2_PLACEMENT_3D('',#719,#585,#586);
#481=AXIS2_PLACEMENT_3D('',#721,#588,#589);
#482=AXIS2_PLACEMENT_3D('',#723,#591,#592);
#483=AXIS2_PLACEMENT_3D('',#725,#593,#594);
#484=AXIS2_PLACEMENT_3D('',#728,#596,#597);
#485=AXIS2_PLACEMENT_3D('',#731,#599,#600);
#486=AXIS2_PLACEMENT_3D('',#734,#602,#603);
#487=AXIS2_PLACEMENT_3D('',#735,#604,#605);
#488=AXIS2_PLACEMENT_3D('',#737,#607,#608);
#489=AXIS2_PLACEMENT_3D('',#739,#610,#611);
#490=AXIS2_PLACEMENT_3D('',#740,#612,#613);
#491=AXIS2_PLACEMENT_3D('',#742,#615,#616);
#492=AXIS2_PLACEMENT_3D('',#743,#617,#618);
#493=AXIS2_PLACEMENT_3D('',#745,#620,#621);
#494=AXIS2_PLACEMENT_3D('',#747,#623,#624);
#495=DIRECTION('axis',(0.,0.,1.));
#496=DIRECTION('refdir',(1.,0.,0.));
#497=DIRECTION('center_axis',(0.,1.,0.));
#498=DIRECTION('ref_axis',(0.,0.,-1.));
#499=DIRECTION('center_axis',(0.,-1.,0.));
#500=DIRECTION('ref_axis',(-1.,0.,0.));
#501=DIRECTION('',(-1.,0.,0.));
#502=DIRECTION('center_axis',(0.,-1.,0.));
#503=DIRECTION('ref_axis',(-1.06581410364E-14,0.,-1.));
#504=DIRECTION('',(0.,0.,-1.));
#505=DIRECTION('',(1.,0.,0.));
#506=DIRECTION('',(0.,0.,-1.));
#507=DIRECTION('center_axis',(0.,1.,0.));
#508=DIRECTION('ref_axis',(1.,0.,-1.386424850264E-14));
#509=DIRECTION('center_axis',(0.,1.,0.));
#510=DIRECTION('ref_axis',(1.,0.,-1.386424850264E-14));
#511=DIRECTION('center_axis',(0.,1.,0.));
#512=DIRECTION('ref_axis',(1.,0.,0.));
#513=DIRECTION('',(0.,1.,0.));
#514=DIRECTION('center_axis',(0.,1.,0.));
#515=DIRECTION('ref_axis',(1.,0.,-1.386424850264E-14));
#516=DIRECTION('center_axis',(0.,1.,0.));
#517=DIRECTION('ref_axis',(0.,0.,-1.));
#518=DIRECTION('center_axis',(0.,1.,0.));
#519=DIRECTION('ref_axis',(0.,0.,-1.));
#520=DIRECTION('',(0.,0.,1.));
#521=DIRECTION('',(-1.,0.,0.));
#522=DIRECTION('',(0.,0.,1.));
#523=DIRECTION('center_axis',(0.,1.,0.));
#524=DIRECTION('ref_axis',(1.,0.,0.));
#525=DIRECTION('',(1.,0.,0.));
#526=DIRECTION('center_axis',(0.,1.,0.));
#527=DIRECTION('ref_axis',(1.,0.,-1.386424850264E-14));
#528=DIRECTION('center_axis',(0.,1.,0.));
#529=DIRECTION('ref_axis',(1.,0.,0.));
#530=DIRECTION('',(0.,1.,0.));
#531=DIRECTION('center_axis',(0.,1.,0.));
#532=DIRECTION('ref_axis',(0.,0.,-1.));
#533=DIRECTION('',(0.,1.,0.));
#534=DIRECTION('',(0.,1.,0.));
#535=DIRECTION('center_axis',(-1.,0.,0.));
#536=DIRECTION('ref_axis',(0.,0.,-1.));
#537=DIRECTION('',(0.,-1.,0.));
#538=DIRECTION('',(0.,0.,-1.));
#539=DIRECTION('center_axis',(1.,0.,0.));
#540=DIRECTION('ref_axis',(0.,0.,1.));
#541=DIRECTION('',(0.,-1.,0.));
#542=DIRECTION('center_axis',(1.,0.,0.));
#543=DIRECTION('ref_axis',(0.,1.,0.));
#544=DIRECTION('center_axis',(-1.,0.,0.));
#545=DIRECTION('ref_axis',(0.,0.,1.));
#546=DIRECTION('',(0.,1.,0.));
#547=DIRECTION('center_axis',(-1.,0.,0.));
#548=DIRECTION('ref_axis',(0.,-1.,0.));
#549=DIRECTION('',(0.,0.,1.));
#550=DIRECTION('center_axis',(0.,-1.,0.));
#551=DIRECTION('ref_axis',(-1.,0.,0.));
#552=DIRECTION('center_axis',(0.,-1.,0.));
#553=DIRECTION('ref_axis',(-1.,0.,0.));
#554=DIRECTION('center_axis',(0.,1.,0.));
#555=DIRECTION('ref_axis',(0.,0.,-1.));
#556=DIRECTION('',(0.,-1.,0.));
#557=DIRECTION('center_axis',(0.,-1.,0.));
#558=DIRECTION('ref_axis',(0.,0.,1.));
#559=DIRECTION('',(1.,0.,0.));
#560=DIRECTION('center_axis',(0.,-1.,0.));
#561=DIRECTION('ref_axis',(1.06581410364E-14,0.,-1.));
#562=DIRECTION('',(0.,0.,-1.));
#563=DIRECTION('',(-1.,0.,0.));
#564=DIRECTION('center_axis',(0.,1.,0.));
#565=DIRECTION('ref_axis',(1.,0.,0.));
#566=DIRECTION('center_axis',(0.,1.,0.));
#567=DIRECTION('ref_axis',(1.,0.,0.));
#568=DIRECTION('center_axis',(0.,1.,0.));
#569=DIRECTION('ref_axis',(1.,0.,0.));
#570=DIRECTION('',(0.,1.,0.));
#571=DIRECTION('center_axis',(0.,1.,0.));
#572=DIRECTION('ref_axis',(1.,0.,0.));
#573=DIRECTION('center_axis',(0.,-1.,0.));
#574=DIRECTION('ref_axis',(0.,0.,1.));
#575=DIRECTION('',(1.,0.,0.));
#576=DIRECTION('',(0.,0.,1.));
#577=DIRECTION('center_axis',(0.,1.,0.));
#578=DIRECTION('ref_axis',(1.,0.,0.));
#579=DIRECTION('',(-1.,0.,0.));
#580=DIRECTION('center_axis',(0.,1.,0.));
#581=DIRECTION('ref_axis',(1.,0.,0.));
#582=DIRECTION('center_axis',(0.,1.,0.));
#583=DIRECTION('ref_axis',(1.,0.,0.));
#584=DIRECTION('',(0.,1.,0.));
#585=DIRECTION('center_axis',(0.,0.,-1.));
#586=DIRECTION('ref_axis',(-1.,0.,0.));
#587=DIRECTION('',(0.,-1.,0.));
#588=DIRECTION('center_axis',(0.,-1.,0.));
#589=DIRECTION('ref_axis',(0.,0.,-1.));
#590=DIRECTION('',(0.,-1.,0.));
#591=DIRECTION('center_axis',(-1.,0.,0.));
#592=DIRECTION('ref_axis',(0.,0.,-1.));
#593=DIRECTION('center_axis',(1.,0.,0.));
#594=DIRECTION('ref_axis',(0.,0.,1.));
#595=DIRECTION('',(0.,1.,0.));
#596=DIRECTION('center_axis',(1.,0.,0.));
#597=DIRECTION('ref_axis',(0.,1.,0.));
#598=DIRECTION('',(0.,1.,0.));
#599=DIRECTION('center_axis',(-1.,0.,0.));
#600=DIRECTION('ref_axis',(0.,0.,1.));
#601=DIRECTION('',(0.,-1.,0.));
#602=DIRECTION('center_axis',(-1.,0.,0.));
#603=DIRECTION('ref_axis',(0.,-1.,0.));
#604=DIRECTION('center_axis',(1.,0.,0.));
#605=DIRECTION('ref_axis',(0.,0.,1.));
#606=DIRECTION('',(-1.,0.,0.));
#607=DIRECTION('center_axis',(0.,0.,1.));
#608=DIRECTION('ref_axis',(0.,1.,0.));
#609=DIRECTION('',(-1.,0.,0.));
#610=DIRECTION('center_axis',(1.,0.,0.));
#611=DIRECTION('ref_axis',(0.,1.,0.));
#612=DIRECTION('center_axis',(0.,1.,0.));
#613=DIRECTION('ref_axis',(1.,0.,0.));
#614=DIRECTION('',(0.,1.,0.));
#615=DIRECTION('center_axis',(0.,0.,1.));
#616=DIRECTION('ref_axis',(-1.,0.,0.));
#617=DIRECTION('center_axis',(1.,0.,0.));
#618=DIRECTION('ref_axis',(0.,1.,0.));
#619=DIRECTION('',(1.,0.,0.));
#620=DIRECTION('center_axis',(0.,0.,1.));
#621=DIRECTION('ref_axis',(0.,1.,0.));
#622=DIRECTION('',(1.,0.,0.));
#623=DIRECTION('center_axis',(1.,0.,0.));
#624=DIRECTION('ref_axis',(0.,0.,1.));
#625=CARTESIAN_POINT('',(0.,0.,0.));
#626=CARTESIAN_POINT('Origin',(0.,0.3,-65.5));
#627=CARTESIAN_POINT('',(-66.,0.3,-71.));
#628=CARTESIAN_POINT('',(-64.,0.3,-73.));
#629=CARTESIAN_POINT('Origin',(-64.,0.3,-71.));
#630=CARTESIAN_POINT('',(-56.2,0.3,-73.));
#631=CARTESIAN_POINT('',(-56.2,0.3,-73.));
#632=CARTESIAN_POINT('',(-54.2,0.3,-71.));
#633=CARTESIAN_POINT('Origin',(-56.2,0.3,-71.));
#634=CARTESIAN_POINT('',(-54.2,0.3,-67.));
#635=CARTESIAN_POINT('',(-54.2,0.3,-67.));
#636=CARTESIAN_POINT('',(-66.,0.3,-67.));
#637=CARTESIAN_POINT('',(-66.,0.3,-67.));
#638=CARTESIAN_POINT('',(-66.,0.3,-67.));
#639=CARTESIAN_POINT('',(-58.025,0.3,-70.4));
#640=CARTESIAN_POINT('Origin',(-57.,0.3,-70.4));
#641=CARTESIAN_POINT('',(-64.025,0.3,-70.4));
#642=CARTESIAN_POINT('Origin',(-63.,0.3,-70.4));
#643=CARTESIAN_POINT('Origin',(-63.,-4.304176241228,-70.4));
#644=CARTESIAN_POINT('',(-64.025,2.8,-70.4));
#645=CARTESIAN_POINT('',(-64.025,-4.304176241228,-70.4));
#646=CARTESIAN_POINT('Origin',(-63.,2.8,-70.4));
#647=CARTESIAN_POINT('Origin',(0.,2.8,-65.5));
#648=CARTESIAN_POINT('',(-64.,2.8,-73.));
#649=CARTESIAN_POINT('',(-66.,2.8,-71.));
#650=CARTESIAN_POINT('Origin',(-64.,2.8,-71.));
#651=CARTESIAN_POINT('',(-66.,2.8,-67.));
#652=CARTESIAN_POINT('',(-66.,2.8,-71.));
#653=CARTESIAN_POINT('',(-54.2,2.8,-67.));
#654=CARTESIAN_POINT('',(-54.2,2.8,-67.));
#655=CARTESIAN_POINT('',(-54.2,2.8,-71.));
#656=CARTESIAN_POINT('',(-54.2,2.8,-71.));
#657=CARTESIAN_POINT('',(-56.2,2.8,-73.));
#658=CARTESIAN_POINT('Origin',(-56.2,2.8,-71.));
#659=CARTESIAN_POINT('',(-64.,2.8,-73.));
#660=CARTESIAN_POINT('',(-58.025,2.8,-70.4));
#661=CARTESIAN_POINT('Origin',(-57.,2.8,-70.4));
#662=CARTESIAN_POINT('Origin',(-57.,-4.304176241228,-70.4));
#663=CARTESIAN_POINT('',(-58.025,-4.304176241228,-70.4));
#664=CARTESIAN_POINT('Origin',(-64.,-39.35588,-71.));
#665=CARTESIAN_POINT('',(-64.,0.3,-73.));
#666=CARTESIAN_POINT('',(-66.,0.3,-71.));
#667=CARTESIAN_POINT('Origin',(-66.,1.55,-70.));
#668=CARTESIAN_POINT('',(-66.,-13.,-78.6));
#669=CARTESIAN_POINT('',(-66.,-15.5,-78.6));
#670=CARTESIAN_POINT('',(-66.,-13.,-78.6));
#671=CARTESIAN_POINT('',(-66.,-15.5,-67.));
#672=CARTESIAN_POINT('',(-66.,-15.5,-67.));
#673=CARTESIAN_POINT('',(-66.,-11.5,-63.));
#674=CARTESIAN_POINT('Origin',(-66.,-11.5,-67.));
#675=CARTESIAN_POINT('',(-66.,-1.2,-63.));
#676=CARTESIAN_POINT('',(-66.,-1.2,-63.));
#677=CARTESIAN_POINT('Origin',(-66.,-1.2,-67.));
#678=CARTESIAN_POINT('',(-66.,-1.2,-65.5));
#679=CARTESIAN_POINT('Origin',(-66.,-1.2,-67.));
#680=CARTESIAN_POINT('',(-66.,-11.5,-65.5));
#681=CARTESIAN_POINT('',(-66.,-11.5,-65.5));
#682=CARTESIAN_POINT('',(-66.,-13.,-67.));
#683=CARTESIAN_POINT('Origin',(-66.,-11.5,-67.));
#684=CARTESIAN_POINT('',(-66.,-13.,-78.6));
#685=CARTESIAN_POINT('Origin',(-64.,26.65588,-78.6));
#686=CARTESIAN_POINT('',(-64.,-15.5,-80.6));
#687=CARTESIAN_POINT('Origin',(-64.,-15.5,-78.6));
#688=CARTESIAN_POINT('',(-64.,-13.,-80.6));
#689=CARTESIAN_POINT('Origin',(-64.,-13.,-78.6));
#690=CARTESIAN_POINT('',(-64.,-13.,-80.6));
#691=CARTESIAN_POINT('Origin',(0.,-15.5,-80.6));
#692=CARTESIAN_POINT('',(-56.2,-15.5,-80.6));
#693=CARTESIAN_POINT('',(-64.,-15.5,-80.6));
#694=CARTESIAN_POINT('',(-54.2,-15.5,-78.6));
#695=CARTESIAN_POINT('Origin',(-56.2,-15.5,-78.6));
#696=CARTESIAN_POINT('',(-54.2,-15.5,-67.));
#697=CARTESIAN_POINT('',(-54.2,-15.5,-67.));
#698=CARTESIAN_POINT('',(-54.2,-15.5,-67.));
#699=CARTESIAN_POINT('',(-58.025,-15.5,-78.));
#700=CARTESIAN_POINT('Origin',(-57.,-15.5,-78.));
#701=CARTESIAN_POINT('',(-64.025,-15.5,-78.));
#702=CARTESIAN_POINT('Origin',(-63.,-15.5,-78.));
#703=CARTESIAN_POINT('Origin',(-63.,-20.10417624123,-78.));
#704=CARTESIAN_POINT('',(-64.025,-13.,-78.));
#705=CARTESIAN_POINT('',(-64.025,-20.10417624123,-78.));
#706=CARTESIAN_POINT('Origin',(-63.,-13.,-78.));
#707=CARTESIAN_POINT('Origin',(0.,-13.,-80.6));
#708=CARTESIAN_POINT('',(-54.2,-13.,-67.));
#709=CARTESIAN_POINT('',(-66.,-13.,-67.));
#710=CARTESIAN_POINT('',(-54.2,-13.,-78.6));
#711=CARTESIAN_POINT('',(-54.2,-13.,-78.6));
#712=CARTESIAN_POINT('',(-56.2,-13.,-80.6));
#713=CARTESIAN_POINT('Origin',(-56.2,-13.,-78.6));
#714=CARTESIAN_POINT('',(-56.2,-13.,-80.6));
#715=CARTESIAN_POINT('',(-58.025,-13.,-78.));
#716=CARTESIAN_POINT('Origin',(-57.,-13.,-78.));
#717=CARTESIAN_POINT('Origin',(-57.,-20.10417624123,-78.));
#718=CARTESIAN_POINT('',(-58.025,-20.10417624123,-78.));
#719=CARTESIAN_POINT('Origin',(-60.1,-14.25,-80.6));
#720=CARTESIAN_POINT('',(-56.2,-13.,-80.6));
#721=CARTESIAN_POINT('Origin',(-56.2,26.65588,-78.6));
#722=CARTESIAN_POINT('',(-54.2,-13.,-78.6));
#723=CARTESIAN_POINT('Origin',(-54.2,1.55,-70.));
#724=CARTESIAN_POINT('',(-54.2,-11.5,-65.5));
#725=CARTESIAN_POINT('Origin',(-54.2,-11.5,-67.));
#726=CARTESIAN_POINT('',(-54.2,-1.2,-65.5));
#727=CARTESIAN_POINT('',(-54.2,-11.5,-65.5));
#728=CARTESIAN_POINT('Origin',(-54.2,-1.2,-67.));
#729=CARTESIAN_POINT('',(-54.2,0.3,-71.));
#730=CARTESIAN_POINT('',(-54.2,-1.2,-63.));
#731=CARTESIAN_POINT('Origin',(-54.2,-1.2,-67.));
#732=CARTESIAN_POINT('',(-54.2,-11.5,-63.));
#733=CARTESIAN_POINT('',(-54.2,-1.2,-63.));
#734=CARTESIAN_POINT('Origin',(-54.2,-11.5,-67.));
#735=CARTESIAN_POINT('Origin',(-113.1373245265,-11.5,-67.));
#736=CARTESIAN_POINT('',(-54.2,-11.5,-63.));
#737=CARTESIAN_POINT('Origin',(0.,-13.,-63.));
#738=CARTESIAN_POINT('',(-54.2,-1.2,-63.));
#739=CARTESIAN_POINT('Origin',(-113.1373245265,-1.2,-67.));
#740=CARTESIAN_POINT('Origin',(-56.2,-39.35588,-71.));
#741=CARTESIAN_POINT('',(-56.2,0.3,-73.));
#742=CARTESIAN_POINT('Origin',(-60.1,1.55,-73.));
#743=CARTESIAN_POINT('Origin',(-113.1373245265,-1.2,-67.));
#744=CARTESIAN_POINT('',(-66.,-1.2,-65.5));
#745=CARTESIAN_POINT('Origin',(0.,-13.,-65.5));
#746=CARTESIAN_POINT('',(-66.,-11.5,-65.5));
#747=CARTESIAN_POINT('Origin',(-113.1373245265,-11.5,-67.));
#748=UNCERTAINTY_MEASURE_WITH_UNIT(LENGTH_MEASURE(0.01),#752,
'DISTANCE_ACCURACY_VALUE',
'Maximum model space distance between geometric entities at asserted c
onnectivities');
#749=UNCERTAINTY_MEASURE_WITH_UNIT(LENGTH_MEASURE(0.01),#752,
'DISTANCE_ACCURACY_VALUE',
'Maximum model space distance between geometric entities at asserted c
onnectivities');
#750=(
GEOMETRIC_REPRESENTATION_CONTEXT(3)
GLOBAL_UNCERTAINTY_ASSIGNED_CONTEXT((#748))
GLOBAL_UNIT_ASSIGNED_CONTEXT((#752,#754,#755))
REPRESENTATION_CONTEXT('','3D')
);
#751=(
GEOMETRIC_REPRESENTATION_CONTEXT(3)
GLOBAL_UNCERTAINTY_ASSIGNED_CONTEXT((#749))
GLOBAL_UNIT_ASSIGNED_CONTEXT((#752,#754,#755))
REPRESENTATION_CONTEXT('','3D')
);
#752=(
LENGTH_UNIT()
NAMED_UNIT(*)
SI_UNIT(.MILLI.,.METRE.)
);
#753=(
LENGTH_UNIT()
NAMED_UNIT(*)
SI_UNIT($,.METRE.)
);
#754=(
NAMED_UNIT(*)
PLANE_ANGLE_UNIT()
SI_UNIT($,.RADIAN.)
);
#755=(
NAMED_UNIT(*)
SI_UNIT($,.STERADIAN.)
SOLID_ANGLE_UNIT()
);
#756=SHAPE_DEFINITION_REPRESENTATION(#757,#758);
#757=PRODUCT_DEFINITION_SHAPE('',$,#760);
#758=SHAPE_REPRESENTATION('',(#448),#750);
#759=PRODUCT_DEFINITION_CONTEXT('part definition',#764,'design');
#760=PRODUCT_DEFINITION('2025-06-05-11-22-18-745',
'ZHUANZHOULIANJIEJIAN',#761,#759);
#761=PRODUCT_DEFINITION_FORMATION('',$,#766);
#762=PRODUCT_RELATED_PRODUCT_CATEGORY('ZHUANZHOULIANJIEJIAN',
'ZHUANZHOULIANJIEJIAN',(#766));
#763=APPLICATION_PROTOCOL_DEFINITION('international standard',
'automotive_design',2009,#764);
#764=APPLICATION_CONTEXT(
'Core Data for Automotive Mechanical Design Process');
#765=PRODUCT_CONTEXT('part definition',#764,'mechanical');
#766=PRODUCT('2025-06-05-11-22-18-745','ZHUANZHOULIANJIEJIAN',
'NOT SPECIFIED',(#765));
#767=PRESENTATION_STYLE_ASSIGNMENT((#768));
#768=SURFACE_STYLE_USAGE(.BOTH.,#769);
#769=SURFACE_SIDE_STYLE('',(#770));
#770=SURFACE_STYLE_FILL_AREA(#771);
#771=FILL_AREA_STYLE('\X2\94A2\X0\ - \X2\7F0E5149\X0\',(#772));
#772=FILL_AREA_STYLE_COLOUR('\X2\94A2\X0\ - \X2\7F0E5149\X0\',#773);
#773=COLOUR_RGB('\X2\94A2\X0\ - \X2\7F0E5149\X0\',0.627450980392157,0.627450980392157,
0.627450980392157);
ENDSEC;
END-ISO-10303-21;
