ISO-10303-21;
HEADER;
FILE_DESCRIPTION (( 'STEP AP214' ),
    '1' );
FILE_NAME ('03004安装隔板..STEP',
    '2025-07-07T10:22:23',
    ( '' ),
    ( '' ),
    'SwSTEP 2.0',
    'SolidWorks 2016',
    '' );
FILE_SCHEMA (( 'AUTOMOTIVE_DESIGN' ));
ENDSEC;

DATA;
#1 = EDGE_CURVE ( 'NONE', #244, #773, #412, .T. ) ;
#2 = DIRECTION ( 'NONE',  ( 0.0000000000000000000, 0.0000000000000000000, 1.000000000000000000 ) ) ;
#3 = VERTEX_POINT ( 'NONE', #42 ) ;
#4 = ORIENTED_EDGE ( 'NONE', *, *, #177, .T. ) ;
#5 = UNCERTAINTY_MEASURE_WITH_UNIT (LENGTH_MEASURE( 1.000000000000000100E-005 ), #13, 'distance_accuracy_value', 'NONE');
#6 = CARTESIAN_POINT ( 'NONE',  ( 3.000000000000000000, 4.408728476930457300E-016, 14.40000000000001300 ) ) ;
#7 = SURFACE_SIDE_STYLE ('',( #770 ) ) ;
#8 = VECTOR ( 'NONE', #275, 1000.000000000000000 ) ;
#9 = MECHANICAL_DESIGN_GEOMETRIC_PRESENTATION_REPRESENTATION (  '', ( #193 ), #158 ) ;
#10 = CARTESIAN_POINT ( 'NONE',  ( -7.000000000000000000, 4.460000000000000000, -8.250000000000001800 ) ) ;
#11 = AXIS2_PLACEMENT_3D ( 'NONE', #22, #484, #155 ) ;
#12 = CARTESIAN_POINT ( 'NONE',  ( 10.00000000000000000, 0.0000000000000000000, 18.00000000000000400 ) ) ;
#13 =( LENGTH_UNIT ( ) NAMED_UNIT ( * ) SI_UNIT ( .MILLI., .METRE. ) );
#14 = CARTESIAN_POINT ( 'NONE',  ( 0.0000000000000000000, 2.712226387043103800E-015, -9.850000000000003200 ) ) ;
#15 = LINE ( 'NONE', #132, #164 ) ;
#16 = DIRECTION ( 'NONE',  ( 1.000000000000000000, -0.0000000000000000000, 0.0000000000000000000 ) ) ;
#17 = DIRECTION ( 'NONE',  ( -1.000000000000000000, 0.0000000000000000000, 0.0000000000000000000 ) ) ;
#18 = FACE_BOUND ( 'NONE', #808, .T. ) ;
#19 = ORIENTED_EDGE ( 'NONE', *, *, #615, .F. ) ;
#20 = ADVANCED_FACE ( 'NONE', ( #188 ), #702, .F. ) ;
#21 = DIRECTION ( 'NONE',  ( 0.0000000000000000000, 0.0000000000000000000, 1.000000000000000000 ) ) ;
#22 = CARTESIAN_POINT ( 'NONE',  ( 0.0000000000000000000, 0.0000000000000000000, 18.00000000000000400 ) ) ;
#23 = VECTOR ( 'NONE', #92, 1000.000000000000000 ) ;
#24 = EDGE_CURVE ( 'NONE', #746, #705, #834, .T. ) ;
#25 = DIRECTION ( 'NONE',  ( 0.0000000000000000000, 0.0000000000000000000, 1.000000000000000000 ) ) ;
#26 = AXIS2_PLACEMENT_3D ( 'NONE', #333, #836, #461 ) ;
#27 = EDGE_LOOP ( 'NONE', ( #433, #532 ) ) ;
#28 = CARTESIAN_POINT ( 'NONE',  ( 0.0000000000000000000, 2.859999999999999000, -6.150000000000000400 ) ) ;
#29 = CARTESIAN_POINT ( 'NONE',  ( 0.0000000000000000000, -8.000000000000003600, -25.99999999999998200 ) ) ;
#30 = ORIENTED_EDGE ( 'NONE', *, *, #183, .T. ) ;
#31 = CARTESIAN_POINT ( 'NONE',  ( 0.0000000000000000000, 0.0000000000000000000, 21.59999999999999100 ) ) ;
#32 = EDGE_LOOP ( 'NONE', ( #727, #581, #714, #752 ) ) ;
#33 = EDGE_CURVE ( 'NONE', #773, #162, #534, .T. ) ;
#34 = EDGE_LOOP ( 'NONE', ( #36, #445 ) ) ;
#35 = LINE ( 'NONE', #219, #203 ) ;
#36 = ORIENTED_EDGE ( 'NONE', *, *, #70, .F. ) ;
#37 = AXIS2_PLACEMENT_3D ( 'NONE', #577, #636, #381 ) ;
#38 = VECTOR ( 'NONE', #527, 1000.000000000000000 ) ;
#39 = ORIENTED_EDGE ( 'NONE', *, *, #605, .T. ) ;
#40 = EDGE_LOOP ( 'NONE', ( #383, #122, #751, #86, #198, #490, #572, #470 ) ) ;
#41 = AXIS2_PLACEMENT_3D ( 'NONE', #131, #194, #641 ) ;
#42 = CARTESIAN_POINT ( 'NONE',  ( 3.000000000000000000, -8.000000000000001800, 26.00000000000001400 ) ) ;
#43 = EDGE_CURVE ( 'NONE', #189, #628, #235, .T. ) ;
#44 = VECTOR ( 'NONE', #116, 1000.000000000000000 ) ;
#45 = ORIENTED_EDGE ( 'NONE', *, *, #134, .F. ) ;
#46 = FACE_OUTER_BOUND ( 'NONE', #603, .T. ) ;
#47 = ORIENTED_EDGE ( 'NONE', *, *, #441, .T. ) ;
#48 = DIRECTION ( 'NONE',  ( 1.000000000000000000, -0.0000000000000000000, -0.0000000000000000000 ) ) ;
#49 = EDGE_CURVE ( 'NONE', #556, #682, #64, .T. ) ;
#50 = VECTOR ( 'NONE', #278, 1000.000000000000000 ) ;
#51 = CARTESIAN_POINT ( 'NONE',  ( 3.000000000000000000, -10.00000000000000200, -23.99999999999997200 ) ) ;
#52 = VERTEX_POINT ( 'NONE', #694 ) ;
#53 = ORIENTED_EDGE ( 'NONE', *, *, #511, .F. ) ;
#54 = AXIS2_PLACEMENT_3D ( 'NONE', #502, #238, #758 ) ;
#55 = DIRECTION ( 'NONE',  ( 0.0000000000000000000, 0.0000000000000000000, 1.000000000000000000 ) ) ;
#56 = EDGE_LOOP ( 'NONE', ( #270, #619, #296, #266 ) ) ;
#57 = ORIENTED_EDGE ( 'NONE', *, *, #463, .T. ) ;
#58 = AXIS2_PLACEMENT_3D ( 'NONE', #488, #151, #345 ) ;
#59 = VECTOR ( 'NONE', #16, 1000.000000000000000 ) ;
#60 = ORIENTED_EDGE ( 'NONE', *, *, #78, .F. ) ;
#61 = DIRECTION ( 'NONE',  ( 0.0000000000000000000, 0.0000000000000000000, -1.000000000000000000 ) ) ;
#62 = ORIENTED_EDGE ( 'NONE', *, *, #123, .T. ) ;
#63 = DIRECTION ( 'NONE',  ( -0.0000000000000000000, 0.0000000000000000000, -1.000000000000000000 ) ) ;
#64 = CIRCLE ( 'NONE', #828, 2.499999999999998700 ) ;
#65 = EDGE_LOOP ( 'NONE', ( #807, #100, #76, #519 ) ) ;
#66 = ORIENTED_EDGE ( 'NONE', *, *, #776, .F. ) ;
#67 = CIRCLE ( 'NONE', #739, 1.600000000000002500 ) ;
#68 = CARTESIAN_POINT ( 'NONE',  ( 10.00000000000000000, 0.0000000000000000000, 18.00000000000000400 ) ) ;
#69 = CARTESIAN_POINT ( 'NONE',  ( 3.000000000000000000, 2.859999999999999000, -6.150000000000000400 ) ) ;
#70 = EDGE_CURVE ( 'NONE', #417, #395, #170, .T. ) ;
#71 = DIRECTION ( 'NONE',  ( 0.0000000000000000000, 0.0000000000000000000, 1.000000000000000000 ) ) ;
#72 = CARTESIAN_POINT ( 'NONE',  ( 0.0000000000000000000, 0.0000000000000000000, 3.999999999999998200 ) ) ;
#73 = CIRCLE ( 'NONE', #813, 2.000000000000001800 ) ;
#74 = ORIENTED_EDGE ( 'NONE', *, *, #95, .T. ) ;
#75 = DIRECTION ( 'NONE',  ( 1.000000000000000000, -0.0000000000000000000, -0.0000000000000000000 ) ) ;
#76 = ORIENTED_EDGE ( 'NONE', *, *, #257, .T. ) ;
#77 = ADVANCED_FACE ( 'NONE', ( #730 ), #439, .T. ) ;
#78 = EDGE_CURVE ( 'NONE', #407, #249, #213, .T. ) ;
#79 = DIRECTION ( 'NONE',  ( -0.0000000000000000000, 1.000000000000000000, 2.753529326947312900E-016 ) ) ;
#80 = AXIS2_PLACEMENT_3D ( 'NONE', #598, #664, #660 ) ;
#81 = LINE ( 'NONE', #115, #136 ) ;
#82 = DIRECTION ( 'NONE',  ( -1.000000000000000000, 0.0000000000000000000, 0.0000000000000000000 ) ) ;
#83 = VERTEX_POINT ( 'NONE', #570 ) ;
#84 = DIRECTION ( 'NONE',  ( 0.0000000000000000000, 0.0000000000000000000, -1.000000000000000000 ) ) ;
#85 = CARTESIAN_POINT ( 'NONE',  ( 0.0000000000000000000, 0.0000000000000000000, 7.599999999999997000 ) ) ;
#86 = ORIENTED_EDGE ( 'NONE', *, *, #338, .T. ) ;
#87 = VERTEX_POINT ( 'NONE', #629 ) ;
#88 = ORIENTED_EDGE ( 'NONE', *, *, #169, .T. ) ;
#89 = ORIENTED_EDGE ( 'NONE', *, *, #156, .T. ) ;
#90 = EDGE_CURVE ( 'NONE', #249, #728, #112, .T. ) ;
#91 = DIRECTION ( 'NONE',  ( 1.000000000000000000, -0.0000000000000000000, -0.0000000000000000000 ) ) ;
#92 = DIRECTION ( 'NONE',  ( -1.000000000000000000, -0.0000000000000000000, -0.0000000000000000000 ) ) ;
#93 = CARTESIAN_POINT ( 'NONE',  ( 3.000000000000000000, 0.0000000000000000000, 18.00000000000000400 ) ) ;
#94 = LINE ( 'NONE', #255, #232 ) ;
#95 = EDGE_CURVE ( 'NONE', #548, #173, #385, .T. ) ;
#96 = CARTESIAN_POINT ( 'NONE',  ( 0.0000000000000000000, -5.040000000000001800, -7.750000000000001800 ) ) ;
#97 = CARTESIAN_POINT ( 'NONE',  ( 3.000000000000000000, -5.040000000000001800, -8.250000000000001800 ) ) ;
#98 = VECTOR ( 'NONE', #541, 1000.000000000000000 ) ;
#99 = DIRECTION ( 'NONE',  ( 0.0000000000000000000, 0.0000000000000000000, 1.000000000000000000 ) ) ;
#100 = ORIENTED_EDGE ( 'NONE', *, *, #647, .F. ) ;
#101 = ORIENTED_EDGE ( 'NONE', *, *, #323, .F. ) ;
#102 = AXIS2_PLACEMENT_3D ( 'NONE', #409, #356, #676 ) ;
#103 = FACE_OUTER_BOUND ( 'NONE', #56, .T. ) ;
#104 = EDGE_LOOP ( 'NONE', ( #242, #424 ) ) ;
#105 = EDGE_CURVE ( 'NONE', #593, #332, #513, .T. ) ;
#106 = ORIENTED_EDGE ( 'NONE', *, *, #95, .F. ) ;
#107 = ADVANCED_FACE ( 'NONE', ( #498 ), #818, .T. ) ;
#108 = DIRECTION ( 'NONE',  ( 1.000000000000000000, 0.0000000000000000000, 0.0000000000000000000 ) ) ;
#109 = FACE_OUTER_BOUND ( 'NONE', #373, .T. ) ;
#110 = AXIS2_PLACEMENT_3D ( 'NONE', #320, #199, #650 ) ;
#111 = CARTESIAN_POINT ( 'NONE',  ( 0.0000000000000000000, 0.0000000000000000000, -6.150000000000000400 ) ) ;
#112 = LINE ( 'NONE', #51, #644 ) ;
#113 = CARTESIAN_POINT ( 'NONE',  ( 3.000000000000000000, 0.0000000000000000000, 18.00000000000000400 ) ) ;
#114 = CIRCLE ( 'NONE', #26, 1.600000000000002500 ) ;
#115 = CARTESIAN_POINT ( 'NONE',  ( 10.00000000000000000, 4.408728476930457300E-016, 14.40000000000001300 ) ) ;
#116 = DIRECTION ( 'NONE',  ( 0.0000000000000000000, 1.000000000000000000, 0.0000000000000000000 ) ) ;
#117 = ORIENTED_EDGE ( 'NONE', *, *, #554, .F. ) ;
#118 = PRESENTATION_LAYER_ASSIGNMENT (  '', '', ( #677 ) ) ;
#119 = DIRECTION ( 'NONE',  ( 1.000000000000000000, -0.0000000000000000000, -0.0000000000000000000 ) ) ;
#120 = ORIENTED_EDGE ( 'NONE', *, *, #640, .T. ) ;
#121 = FACE_OUTER_BOUND ( 'NONE', #233, .T. ) ;
#122 = ORIENTED_EDGE ( 'NONE', *, *, #683, .T. ) ;
#123 = EDGE_CURVE ( 'NONE', #87, #83, #154, .T. ) ;
#124 = CARTESIAN_POINT ( 'NONE',  ( -7.000000000000000000, 2.859999999999999400, -8.250000000000001800 ) ) ;
#125 = DIRECTION ( 'NONE',  ( 0.0000000000000000000, 0.0000000000000000000, 1.000000000000000000 ) ) ;
#126 = ORIENTED_EDGE ( 'NONE', *, *, #421, .F. ) ;
#127 = CARTESIAN_POINT ( 'NONE',  ( -7.000000000000000000, -3.440000000000001300, -6.150000000000001200 ) ) ;
#128 = CARTESIAN_POINT ( 'NONE',  ( 0.0000000000000000000, 9.999999999999998200, 24.00000000000001400 ) ) ;
#129 = CARTESIAN_POINT ( 'NONE',  ( 0.0000000000000000000, 9.999999999999998200, -23.99999999999997200 ) ) ;
#130 = CYLINDRICAL_SURFACE ( 'NONE', #378, 3.599999999999988500 ) ;
#131 = CARTESIAN_POINT ( 'NONE',  ( 3.000000000000000000, 0.0000000000000000000, 3.999999999999998200 ) ) ;
#132 = CARTESIAN_POINT ( 'NONE',  ( 10.00000000000000000, 0.0000000000000000000, 7.599999999999997000 ) ) ;
#133 = LINE ( 'NONE', #377, #803 ) ;
#134 = EDGE_CURVE ( 'NONE', #773, #236, #300, .T. ) ;
#135 = DIRECTION ( 'NONE',  ( 0.0000000000000000000, -0.0000000000000000000, 1.000000000000000000 ) ) ;
#136 = VECTOR ( 'NONE', #689, 1000.000000000000000 ) ;
#137 = PLANE ( 'NONE',  #528 ) ;
#138 = ORIENTED_EDGE ( 'NONE', *, *, #421, .T. ) ;
#139 = AXIS2_PLACEMENT_3D ( 'NONE', #72, #695, #393 ) ;
#140 = CARTESIAN_POINT ( 'NONE',  ( 3.000000000000000000, 7.999999999999998200, -25.99999999999998200 ) ) ;
#141 = EDGE_LOOP ( 'NONE', ( #101, #209, #703, #827 ) ) ;
#142 = CIRCLE ( 'NONE', #428, 3.599999999999988500 ) ;
#143 = ORIENTED_EDGE ( 'NONE', *, *, #543, .T. ) ;
#144 = CARTESIAN_POINT ( 'NONE',  ( 3.000000000000000000, -8.000000000000001800, 24.00000000000001100 ) ) ;
#145 = DIRECTION ( 'NONE',  ( -1.000000000000000000, -0.0000000000000000000, -0.0000000000000000000 ) ) ;
#146 = EDGE_CURVE ( 'NONE', #368, #248, #133, .T. ) ;
#147 = CARTESIAN_POINT ( 'NONE',  ( 3.000000000000000000, 4.460000000000000900, -7.750000000000001800 ) ) ;
#148 = AXIS2_PLACEMENT_3D ( 'NONE', #491, #354, #217 ) ;
#149 = CARTESIAN_POINT ( 'NONE',  ( 3.000000000000000000, 4.460000000000000000, -8.250000000000001800 ) ) ;
#150 = DIRECTION ( 'NONE',  ( 0.0000000000000000000, 1.000000000000000000, 2.753529326947312900E-016 ) ) ;
#151 = DIRECTION ( 'NONE',  ( 1.000000000000000000, -0.0000000000000000000, 0.0000000000000000000 ) ) ;
#152 = CIRCLE ( 'NONE', #471, 2.000000000000001800 ) ;
#153 =( NAMED_UNIT ( * ) PLANE_ANGLE_UNIT ( ) SI_UNIT ( $, .RADIAN. ) );
#154 = CIRCLE ( 'NONE', #816, 3.599999999999999200 ) ;
#155 = DIRECTION ( 'NONE',  ( 0.0000000000000000000, 0.0000000000000000000, 1.000000000000000000 ) ) ;
#156 = EDGE_CURVE ( 'NONE', #545, #364, #681, .T. ) ;
#157 = CARTESIAN_POINT ( 'NONE',  ( 3.000000000000000000, 9.999999999999998200, -25.99999999999998200 ) ) ;
#158 =( GEOMETRIC_REPRESENTATION_CONTEXT ( 3 ) GLOBAL_UNCERTAINTY_ASSIGNED_CONTEXT ( ( #293 ) ) GLOBAL_UNIT_ASSIGNED_CONTEXT ( ( #362, #623, #617 ) ) REPRESENTATION_CONTEXT ( 'NONE', 'WORKASPACE' ) );
#159 = LINE ( 'NONE', #469, #525 ) ;
#160 = DIRECTION ( 'NONE',  ( 1.000000000000000000, -0.0000000000000000000, -0.0000000000000000000 ) ) ;
#161 = VERTEX_POINT ( 'NONE', #711 ) ;
#162 = VERTEX_POINT ( 'NONE', #69 ) ;
#163 = SURFACE_SIDE_STYLE ('',( #779 ) ) ;
#164 = VECTOR ( 'NONE', #315, 1000.000000000000000 ) ;
#165 = ORIENTED_EDGE ( 'NONE', *, *, #253, .F. ) ;
#166 = LINE ( 'NONE', #486, #290 ) ;
#167 = CIRCLE ( 'NONE', #184, 1.600000000000000800 ) ;
#168 = ADVANCED_FACE ( 'NONE', ( #18, #319, #625, #485, #288 ), #700, .T. ) ;
#169 = EDGE_CURVE ( 'NONE', #395, #417, #437, .T. ) ;
#170 = CIRCLE ( 'NONE', #672, 3.599999999999999200 ) ;
#171 = EDGE_LOOP ( 'NONE', ( #748, #495, #536, #366 ) ) ;
#172 = CYLINDRICAL_SURFACE ( 'NONE', #561, 3.599999999999988500 ) ;
#173 = VERTEX_POINT ( 'NONE', #465 ) ;
#174 = DIRECTION ( 'NONE',  ( 0.0000000000000000000, -1.000000000000000000, 0.0000000000000000000 ) ) ;
#175 = DIRECTION ( 'NONE',  ( 1.000000000000000000, -0.0000000000000000000, 0.0000000000000000000 ) ) ;
#176 = VERTEX_POINT ( 'NONE', #327 ) ;
#177 = EDGE_CURVE ( 'NONE', #628, #368, #696, .T. ) ;
#178 = ORIENTED_EDGE ( 'NONE', *, *, #647, .T. ) ;
#179 = ADVANCED_FACE ( 'NONE', ( #482, #726, #451, #826, #406 ), #396, .F. ) ;
#180 = DIRECTION ( 'NONE',  ( -0.0000000000000000000, -0.0000000000000000000, 1.000000000000000000 ) ) ;
#181 = ORIENTED_EDGE ( 'NONE', *, *, #78, .T. ) ;
#182 = LINE ( 'NONE', #147, #8 ) ;
#183 = EDGE_CURVE ( 'NONE', #407, #582, #256, .T. ) ;
#184 = AXIS2_PLACEMENT_3D ( 'NONE', #197, #201, #720 ) ;
#185 = PRODUCT_DEFINITION_CONTEXT ( 'detailed design', #432, 'design' ) ;
#186 = CYLINDRICAL_SURFACE ( 'NONE', #493, 1.999999999999998200 ) ;
#187 = EDGE_LOOP ( 'NONE', ( #569, #466, #330, #503, #413, #106, #297, #523 ) ) ;
#188 = FACE_OUTER_BOUND ( 'NONE', #430, .T. ) ;
#189 = VERTEX_POINT ( 'NONE', #129 ) ;
#190 = LINE ( 'NONE', #741, #98 ) ;
#191 = CIRCLE ( 'NONE', #375, 2.000000000000001800 ) ;
#192 = AXIS2_PLACEMENT_3D ( 'NONE', #760, #310, #55 ) ;
#193 = STYLED_ITEM ( 'NONE', ( #274 ), #447 ) ;
#194 = DIRECTION ( 'NONE',  ( -1.000000000000000000, -0.0000000000000000000, -0.0000000000000000000 ) ) ;
#195 = CARTESIAN_POINT ( 'NONE',  ( 10.00000000000000000, 0.0000000000000000000, 3.999999999999998200 ) ) ;
#196 = ORIENTED_EDGE ( 'NONE', *, *, #662, .F. ) ;
#197 = CARTESIAN_POINT ( 'NONE',  ( 0.0000000000000000000, 2.859999999999999400, -8.250000000000001800 ) ) ;
#198 = ORIENTED_EDGE ( 'NONE', *, *, #823, .T. ) ;
#199 = DIRECTION ( 'NONE',  ( 1.000000000000000000, -0.0000000000000000000, 0.0000000000000000000 ) ) ;
#200 =( GEOMETRIC_REPRESENTATION_CONTEXT ( 3 ) GLOBAL_UNCERTAINTY_ASSIGNED_CONTEXT ( ( #757 ) ) GLOBAL_UNIT_ASSIGNED_CONTEXT ( ( #648, #791, #716 ) ) REPRESENTATION_CONTEXT ( 'NONE', 'WORKASPACE' ) );
#201 = DIRECTION ( 'NONE',  ( 1.000000000000000000, -0.0000000000000000000, 0.0000000000000000000 ) ) ;
#202 = ORIENTED_EDGE ( 'NONE', *, *, #511, .T. ) ;
#203 = VECTOR ( 'NONE', #612, 1000.000000000000000 ) ;
#204 = ORIENTED_EDGE ( 'NONE', *, *, #177, .F. ) ;
#205 = PLANE ( 'NONE',  #287 ) ;
#206 = EDGE_CURVE ( 'NONE', #559, #3, #587, .T. ) ;
#207 = DIRECTION ( 'NONE',  ( -1.000000000000000000, -0.0000000000000000000, -0.0000000000000000000 ) ) ;
#208 = LINE ( 'NONE', #337, #38 ) ;
#209 = ORIENTED_EDGE ( 'NONE', *, *, #49, .F. ) ;
#210 = EDGE_LOOP ( 'NONE', ( #143, #450, #181, #492 ) ) ;
#211 = CARTESIAN_POINT ( 'NONE',  ( 0.0000000000000000000, -5.040000000000001800, 0.0000000000000000000 ) ) ;
#212 = CARTESIAN_POINT ( 'NONE',  ( -7.000000000000000000, -1.200000000000002000, -14.50000000000000200 ) ) ;
#213 = CIRCLE ( 'NONE', #54, 2.000000000000001800 ) ;
#214 = ORIENTED_EDGE ( 'NONE', *, *, #313, .F. ) ;
#215 = DIRECTION ( 'NONE',  ( -1.000000000000000000, -0.0000000000000000000, -0.0000000000000000000 ) ) ;
#216 = FACE_OUTER_BOUND ( 'NONE', #557, .T. ) ;
#217 = DIRECTION ( 'NONE',  ( 0.0000000000000000000, 0.0000000000000000000, 1.000000000000000000 ) ) ;
#218 = ORIENTED_EDGE ( 'NONE', *, *, #637, .T. ) ;
#219 = CARTESIAN_POINT ( 'NONE',  ( 0.0000000000000000000, 4.460000000000013300, -7.736866702856577000E-015 ) ) ;
#220 = CARTESIAN_POINT ( 'NONE',  ( 0.0000000000000000000, 0.0000000000000000000, 18.00000000000000400 ) ) ;
#221 = CARTESIAN_POINT ( 'NONE',  ( 0.0000000000000000000, 2.859999999999999400, -9.850000000000003200 ) ) ;
#222 = EDGE_CURVE ( 'NONE', #332, #249, #295, .T. ) ;
#223 = DIRECTION ( 'NONE',  ( 1.000000000000000000, -0.0000000000000000000, -0.0000000000000000000 ) ) ;
#224 = LINE ( 'NONE', #14, #497 ) ;
#225 = ORIENTED_EDGE ( 'NONE', *, *, #455, .T. ) ;
#226 = PLANE ( 'NONE',  #769 ) ;
#227 = EDGE_LOOP ( 'NONE', ( #225, #218, #53, #566 ) ) ;
#228 = ORIENTED_EDGE ( 'NONE', *, *, #206, .F. ) ;
#229 = CIRCLE ( 'NONE', #331, 2.000000000000001800 ) ;
#230 = EDGE_LOOP ( 'NONE', ( #391, #789, #47, #277 ) ) ;
#231 = AXIS2_PLACEMENT_3D ( 'NONE', #423, #606, #614 ) ;
#232 = VECTOR ( 'NONE', #638, 1000.000000000000000 ) ;
#233 = EDGE_LOOP ( 'NONE', ( #732, #654, #88, #386 ) ) ;
#234 = ORIENTED_EDGE ( 'NONE', *, *, #305, .F. ) ;
#235 = LINE ( 'NONE', #633, #667 ) ;
#236 = VERTEX_POINT ( 'NONE', #830 ) ;
#237 = LINE ( 'NONE', #140, #515 ) ;
#238 = DIRECTION ( 'NONE',  ( -1.000000000000000000, 0.0000000000000000000, 0.0000000000000000000 ) ) ;
#239 = AXIS2_PLACEMENT_3D ( 'NONE', #259, #458, #642 ) ;
#240 = DIRECTION ( 'NONE',  ( 1.000000000000000000, -0.0000000000000000000, -0.0000000000000000000 ) ) ;
#241 = DIRECTION ( 'NONE',  ( 0.0000000000000000000, 0.0000000000000000000, -1.000000000000000000 ) ) ;
#242 = ORIENTED_EDGE ( 'NONE', *, *, #722, .F. ) ;
#243 = VECTOR ( 'NONE', #477, 1000.000000000000000 ) ;
#244 = VERTEX_POINT ( 'NONE', #508 ) ;
#245 = DIRECTION ( 'NONE',  ( -1.000000000000000000, 0.0000000000000000000, 0.0000000000000000000 ) ) ;
#246 = CARTESIAN_POINT ( 'NONE',  ( 0.0000000000000000000, -1.200000000000002200, -17.00000000000000000 ) ) ;
#247 = AXIS2_PLACEMENT_3D ( 'NONE', #372, #245, #765 ) ;
#248 = VERTEX_POINT ( 'NONE', #128 ) ;
#249 = VERTEX_POINT ( 'NONE', #580 ) ;
#250 = ORIENTED_EDGE ( 'NONE', *, *, #323, .T. ) ;
#251 = AXIS2_PLACEMENT_3D ( 'NONE', #124, #306, #61 ) ;
#252 = PLANE ( 'NONE',  #431 ) ;
#253 = EDGE_CURVE ( 'NONE', #244, #744, #94, .T. ) ;
#254 = DIRECTION ( 'NONE',  ( 0.0000000000000000000, 0.0000000000000000000, 1.000000000000000000 ) ) ;
#255 = CARTESIAN_POINT ( 'NONE',  ( -7.000000000000000000, 4.460000000000000900, -7.750000000000001800 ) ) ;
#256 = LINE ( 'NONE', #456, #316 ) ;
#257 = EDGE_CURVE ( 'NONE', #83, #417, #15, .T. ) ;
#258 = CARTESIAN_POINT ( 'NONE',  ( 0.0000000000000000000, -3.440000000000001300, -9.850000000000005000 ) ) ;
#259 = CARTESIAN_POINT ( 'NONE',  ( 3.000000000000000000, 0.0000000000000000000, 0.0000000000000000000 ) ) ;
#260 = ADVANCED_FACE ( 'NONE', ( #109 ), #186, .T. ) ;
#261 = DIRECTION ( 'NONE',  ( 1.000000000000000000, -0.0000000000000000000, 0.0000000000000000000 ) ) ;
#262 = LINE ( 'NONE', #351, #243 ) ;
#263 = CARTESIAN_POINT ( 'NONE',  ( 10.00000000000000000, 0.0000000000000000000, 3.999999999999998200 ) ) ;
#264 = ORIENTED_EDGE ( 'NONE', *, *, #602, .F. ) ;
#265 = ADVANCED_FACE ( 'NONE', ( #509 ), #252, .F. ) ;
#266 = ORIENTED_EDGE ( 'NONE', *, *, #683, .F. ) ;
#267 = CARTESIAN_POINT ( 'NONE',  ( -7.000000000000000000, -3.440000000000001300, -6.150000000000000400 ) ) ;
#268 = CARTESIAN_POINT ( 'NONE',  ( 3.000000000000000000, -5.040000000000001800, -7.750000000000001800 ) ) ;
#269 = CARTESIAN_POINT ( 'NONE',  ( 3.000000000000000000, 9.999999999999998200, 26.00000000000002100 ) ) ;
#270 = ORIENTED_EDGE ( 'NONE', *, *, #655, .T. ) ;
#271 = CARTESIAN_POINT ( 'NONE',  ( 3.000000000000000000, -8.000000000000003600, -25.99999999999998200 ) ) ;
#272 = VECTOR ( 'NONE', #145, 1000.000000000000000 ) ;
#273 = ORIENTED_EDGE ( 'NONE', *, *, #105, .F. ) ;
#274 = PRESENTATION_STYLE_ASSIGNMENT (( #753 ) ) ;
#275 = DIRECTION ( 'NONE',  ( -0.0000000000000000000, 1.734723475976805500E-015, 1.000000000000000000 ) ) ;
#276 = CARTESIAN_POINT ( 'NONE',  ( 3.000000000000000000, 7.999999999999998200, 24.00000000000001400 ) ) ;
#277 = ORIENTED_EDGE ( 'NONE', *, *, #361, .F. ) ;
#278 = DIRECTION ( 'NONE',  ( -0.0000000000000000000, -1.000000000000000000, -0.0000000000000000000 ) ) ;
#279 = CARTESIAN_POINT ( 'NONE',  ( 0.0000000000000000000, -8.000000000000001800, 26.00000000000001800 ) ) ;
#280 = DIRECTION ( 'NONE',  ( 1.000000000000000000, -0.0000000000000000000, -0.0000000000000000000 ) ) ;
#281 = CARTESIAN_POINT ( 'NONE',  ( 0.0000000000000000000, 0.0000000000000000000, 26.00000000000002100 ) ) ;
#282 = DIRECTION ( 'NONE',  ( 0.0000000000000000000, 0.0000000000000000000, -1.000000000000000000 ) ) ;
#283 = CARTESIAN_POINT ( 'NONE',  ( 3.000000000000000000, 7.999999999999998200, 24.00000000000001400 ) ) ;
#284 = ADVANCED_FACE ( 'NONE', ( #555 ), #775, .F. ) ;
#285 = DIRECTION ( 'NONE',  ( 1.000000000000000000, -0.0000000000000000000, -0.0000000000000000000 ) ) ;
#286 = DIRECTION ( 'NONE',  ( 1.000000000000000000, 0.0000000000000000000, -0.0000000000000000000 ) ) ;
#287 = AXIS2_PLACEMENT_3D ( 'NONE', #267, #657, #785 ) ;
#288 = FACE_BOUND ( 'NONE', #371, .T. ) ;
#289 = DIRECTION ( 'NONE',  ( 0.0000000000000000000, 0.0000000000000000000, -1.000000000000000000 ) ) ;
#290 = VECTOR ( 'NONE', #404, 1000.000000000000000 ) ;
#291 = APPLICATION_PROTOCOL_DEFINITION ( 'draft international standard', 'automotive_design', 1998, #432 ) ;
#292 = AXIS2_PLACEMENT_3D ( 'NONE', #283, #535, #736 ) ;
#293 = UNCERTAINTY_MEASURE_WITH_UNIT (LENGTH_MEASURE( 1.000000000000000100E-005 ), #362, 'distance_accuracy_value', 'NONE');
#294 = ORIENTED_EDGE ( 'NONE', *, *, #618, .T. ) ;
#295 = LINE ( 'NONE', #772, #679 ) ;
#296 = ORIENTED_EDGE ( 'NONE', *, *, #455, .F. ) ;
#297 = ORIENTED_EDGE ( 'NONE', *, *, #543, .F. ) ;
#298 = AXIS2_PLACEMENT_3D ( 'NONE', #594, #718, #797 ) ;
#299 = VECTOR ( 'NONE', #584, 1000.000000000000000 ) ;
#300 = LINE ( 'NONE', #111, #462 ) ;
#301 = DIRECTION ( 'NONE',  ( 0.0000000000000000000, 0.0000000000000000000, 1.000000000000000000 ) ) ;
#302 = EDGE_CURVE ( 'NONE', #176, #559, #653, .T. ) ;
#303 = VECTOR ( 'NONE', #666, 1000.000000000000000 ) ;
#304 = EDGE_LOOP ( 'NONE', ( #613, #74, #374, #833 ) ) ;
#305 = EDGE_CURVE ( 'NONE', #556, #355, #344, .T. ) ;
#306 = DIRECTION ( 'NONE',  ( 1.000000000000000000, -0.0000000000000000000, -0.0000000000000000000 ) ) ;
#307 = DIRECTION ( 'NONE',  ( 1.000000000000000000, 0.0000000000000000000, -0.0000000000000000000 ) ) ;
#308 = EDGE_LOOP ( 'NONE', ( #697, #717, #755, #531 ) ) ;
#309 = ORIENTED_EDGE ( 'NONE', *, *, #823, .F. ) ;
#310 = DIRECTION ( 'NONE',  ( -1.000000000000000000, 0.0000000000000000000, 0.0000000000000000000 ) ) ;
#311 = ADVANCED_FACE ( 'NONE', ( #103 ), #472, .F. ) ;
#312 = CARTESIAN_POINT ( 'NONE',  ( 3.000000000000000000, 9.999999999999998200, 26.00000000000002100 ) ) ;
#313 = EDGE_CURVE ( 'NONE', #559, #368, #152, .T. ) ;
#314 = AXIS2_PLACEMENT_3D ( 'NONE', #609, #604, #601 ) ;
#315 = DIRECTION ( 'NONE',  ( -1.000000000000000000, -0.0000000000000000000, -0.0000000000000000000 ) ) ;
#316 = VECTOR ( 'NONE', #506, 1000.000000000000000 ) ;
#317 = CARTESIAN_POINT ( 'NONE',  ( 0.0000000000000000000, -10.00000000000000200, 24.00000000000001100 ) ) ;
#318 = DIRECTION ( 'NONE',  ( 0.0000000000000000000, 1.000000000000000000, 0.0000000000000000000 ) ) ;
#319 = FACE_BOUND ( 'NONE', #104, .T. ) ;
#320 = CARTESIAN_POINT ( 'NONE',  ( 0.0000000000000000000, -3.440000000000001300, -7.750000000000001800 ) ) ;
#321 = CARTESIAN_POINT ( 'NONE',  ( 3.000000000000000000, -8.000000000000001800, 24.00000000000001100 ) ) ;
#322 = LINE ( 'NONE', #774, #23 ) ;
#323 = EDGE_CURVE ( 'NONE', #682, #52, #610, .T. ) ;
#324 = AXIS2_PLACEMENT_3D ( 'NONE', #144, #707, #467 ) ;
#325 = ADVANCED_FACE ( 'NONE', ( #750 ), #530, .F. ) ;
#326 = CARTESIAN_POINT ( 'NONE',  ( 3.000000000000000000, 2.859999999999999400, -7.750000000000001800 ) ) ;
#327 = CARTESIAN_POINT ( 'NONE',  ( 0.0000000000000000000, 7.999999999999998200, 26.00000000000002100 ) ) ;
#328 = CARTESIAN_POINT ( 'NONE',  ( 0.0000000000000000000, 7.999999999999998200, 24.00000000000001400 ) ) ;
#329 = CARTESIAN_POINT ( 'NONE',  ( -7.000000000000000000, -1.200000000000002200, -19.50000000000000000 ) ) ;
#330 = ORIENTED_EDGE ( 'NONE', *, *, #605, .F. ) ;
#331 = AXIS2_PLACEMENT_3D ( 'NONE', #328, #457, #71 ) ;
#332 = VERTEX_POINT ( 'NONE', #468 ) ;
#333 = CARTESIAN_POINT ( 'NONE',  ( 3.000000000000000000, -3.440000000000001300, -8.250000000000001800 ) ) ;
#334 = AXIS2_PLACEMENT_3D ( 'NONE', #390, #786, #784 ) ;
#335 = SURFACE_STYLE_USAGE ( .BOTH. , #7 ) ;
#336 = FACE_OUTER_BOUND ( 'NONE', #630, .T. ) ;
#337 = CARTESIAN_POINT ( 'NONE',  ( 3.000000000000000000, -3.440000000000001300, -6.150000000000000400 ) ) ;
#338 = EDGE_CURVE ( 'NONE', #505, #764, #167, .T. ) ;
#339 = CARTESIAN_POINT ( 'NONE',  ( 3.000000000000000000, -5.040000000000001800, -8.250000000000001800 ) ) ;
#340 = DIRECTION ( 'NONE',  ( -1.000000000000000000, -0.0000000000000000000, -0.0000000000000000000 ) ) ;
#341 = ADVANCED_FACE ( 'NONE', ( #121 ), #620, .F. ) ;
#342 = CARTESIAN_POINT ( 'NONE',  ( 0.0000000000000000000, 4.408728476930457300E-016, 14.40000000000001300 ) ) ;
#343 = DIRECTION ( 'NONE',  ( 1.000000000000000000, 0.0000000000000000000, 0.0000000000000000000 ) ) ;
#344 = LINE ( 'NONE', #329, #631 ) ;
#345 = DIRECTION ( 'NONE',  ( 0.0000000000000000000, 0.0000000000000000000, -1.000000000000000000 ) ) ;
#346 =( GEOMETRIC_REPRESENTATION_CONTEXT ( 3 ) GLOBAL_UNCERTAINTY_ASSIGNED_CONTEXT ( ( #5 ) ) GLOBAL_UNIT_ASSIGNED_CONTEXT ( ( #13, #153, #419 ) ) REPRESENTATION_CONTEXT ( 'NONE', 'WORKASPACE' ) );
#347 = VECTOR ( 'NONE', #240, 1000.000000000000000 ) ;
#348 = DIRECTION ( 'NONE',  ( 1.000000000000000000, -0.0000000000000000000, -0.0000000000000000000 ) ) ;
#349 = EDGE_LOOP ( 'NONE', ( #178, #62 ) ) ;
#350 = CYLINDRICAL_SURFACE ( 'NONE', #684, 3.599999999999999200 ) ;
#351 = CARTESIAN_POINT ( 'NONE',  ( -7.000000000000000000, -5.040000000000001800, -7.750000000000001800 ) ) ;
#352 = DIRECTION ( 'NONE',  ( 0.0000000000000000000, 0.0000000000000000000, 1.000000000000000000 ) ) ;
#353 = DIRECTION ( 'NONE',  ( 0.0000000000000000000, 0.0000000000000000000, -1.000000000000000000 ) ) ;
#354 = DIRECTION ( 'NONE',  ( 1.000000000000000000, -0.0000000000000000000, -0.0000000000000000000 ) ) ;
#355 = VERTEX_POINT ( 'NONE', #798 ) ;
#356 = DIRECTION ( 'NONE',  ( 0.0000000000000000000, 0.0000000000000000000, 1.000000000000000000 ) ) ;
#357 = ORIENTED_EDGE ( 'NONE', *, *, #463, .F. ) ;
#358 = AXIS2_PLACEMENT_3D ( 'NONE', #838, #840, #517 ) ;
#359 = ORIENTED_EDGE ( 'NONE', *, *, #105, .T. ) ;
#360 = FACE_OUTER_BOUND ( 'NONE', #632, .T. ) ;
#361 = EDGE_CURVE ( 'NONE', #746, #475, #788, .T. ) ;
#362 =( LENGTH_UNIT ( ) NAMED_UNIT ( * ) SI_UNIT ( .MILLI., .METRE. ) );
#363 = FACE_OUTER_BOUND ( 'NONE', #227, .T. ) ;
#364 = VERTEX_POINT ( 'NONE', #268 ) ;
#365 = MANIFOLD_SOLID_BREP ( '切除-拉伸1', #579 ) ;
#366 = ORIENTED_EDGE ( 'NONE', *, *, #812, .F. ) ;
#367 = VECTOR ( 'NONE', #307, 1000.000000000000000 ) ;
#368 = VERTEX_POINT ( 'NONE', #794 ) ;
#369 = ORIENTED_EDGE ( 'NONE', *, *, #518, .T. ) ;
#370 = LINE ( 'NONE', #663, #782 ) ;
#371 = EDGE_LOOP ( 'NONE', ( #473, #551 ) ) ;
#372 = CARTESIAN_POINT ( 'NONE',  ( 3.000000000000000000, 7.999999999999998200, -23.99999999999997900 ) ) ;
#373 = EDGE_LOOP ( 'NONE', ( #369, #359, #294, #382 ) ) ;
#374 = ORIENTED_EDGE ( 'NONE', *, *, #693, .F. ) ;
#375 = AXIS2_PLACEMENT_3D ( 'NONE', #799, #223, #21 ) ;
#376 = EDGE_LOOP ( 'NONE', ( #546, #399 ) ) ;
#377 = CARTESIAN_POINT ( 'NONE',  ( 3.000000000000000000, 10.00000000000000000, 24.00000000000001400 ) ) ;
#378 = AXIS2_PLACEMENT_3D ( 'NONE', #12, #207, #410 ) ;
#379 = CYLINDRICAL_SURFACE ( 'NONE', #766, 2.499999999999998700 ) ;
#380 = VERTEX_POINT ( 'NONE', #658 ) ;
#381 = DIRECTION ( 'NONE',  ( 0.0000000000000000000, 0.0000000000000000000, -1.000000000000000000 ) ) ;
#382 = ORIENTED_EDGE ( 'NONE', *, *, #776, .T. ) ;
#383 = ORIENTED_EDGE ( 'NONE', *, *, #812, .T. ) ;
#384 = CARTESIAN_POINT ( 'NONE',  ( 3.000000000000000000, 0.0000000000000000000, 3.999999999999998200 ) ) ;
#385 = LINE ( 'NONE', #819, #44 ) ;
#386 = ORIENTED_EDGE ( 'NONE', *, *, #257, .F. ) ;
#387 = ORIENTED_EDGE ( 'NONE', *, *, #596, .T. ) ;
#388 = PRESENTATION_LAYER_ASSIGNMENT (  '', '', ( #193 ) ) ;
#389 = CIRCLE ( 'NONE', #41, 3.599999999999999200 ) ;
#390 = CARTESIAN_POINT ( 'NONE',  ( 3.000000000000000000, 9.999999999999998200, 26.00000000000002100 ) ) ;
#391 = ORIENTED_EDGE ( 'NONE', *, *, #552, .F. ) ;
#392 = DIRECTION ( 'NONE',  ( 0.0000000000000000000, 1.000000000000000000, 1.734723475976806800E-016 ) ) ;
#393 = DIRECTION ( 'NONE',  ( 0.0000000000000000000, 0.0000000000000000000, 1.000000000000000000 ) ) ;
#394 = CIRCLE ( 'NONE', #58, 2.499999999999998700 ) ;
#395 = VERTEX_POINT ( 'NONE', #724 ) ;
#396 = PLANE ( 'NONE',  #358 ) ;
#397 = EDGE_LOOP ( 'NONE', ( #792, #138, #264, #45 ) ) ;
#398 = DIRECTION ( 'NONE',  ( -1.000000000000000000, -0.0000000000000000000, -0.0000000000000000000 ) ) ;
#399 = ORIENTED_EDGE ( 'NONE', *, *, #441, .F. ) ;
#400 = FACE_OUTER_BOUND ( 'NONE', #230, .T. ) ;
#401 = ORIENTED_EDGE ( 'NONE', *, *, #313, .T. ) ;
#402 = CARTESIAN_POINT ( 'NONE',  ( -7.000000000000000000, 2.859999999999999400, -7.750000000000001800 ) ) ;
#403 = AXIS2_PLACEMENT_3D ( 'NONE', #157, #99, #286 ) ;
#404 = DIRECTION ( 'NONE',  ( -1.000000000000000000, 0.0000000000000000000, 0.0000000000000000000 ) ) ;
#405 = FILL_AREA_STYLE_COLOUR ( '', #832 ) ;
#406 = FACE_BOUND ( 'NONE', #376, .T. ) ;
#407 = VERTEX_POINT ( 'NONE', #271 ) ;
#408 = ORIENTED_EDGE ( 'NONE', *, *, #476, .F. ) ;
#409 = CARTESIAN_POINT ( 'NONE',  ( 0.0000000000000000000, 0.0000000000000000000, 0.0000000000000000000 ) ) ;
#410 = DIRECTION ( 'NONE',  ( 0.0000000000000000000, 0.0000000000000000000, 1.000000000000000000 ) ) ;
#411 = DIRECTION ( 'NONE',  ( -0.0000000000000000000, -0.0000000000000000000, -1.000000000000000000 ) ) ;
#412 = CIRCLE ( 'NONE', #589, 1.600000000000000800 ) ;
#413 = ORIENTED_EDGE ( 'NONE', *, *, #796, .F. ) ;
#414 = CARTESIAN_POINT ( 'NONE',  ( 3.000000000000000000, 7.999999999999998200, 26.00000000000002100 ) ) ;
#415 = VECTOR ( 'NONE', #79, 1000.000000000000000 ) ;
#416 = CARTESIAN_POINT ( 'NONE',  ( -7.000000000000000000, 2.859999999999999400, -9.850000000000003200 ) ) ;
#417 = VERTEX_POINT ( 'NONE', #85 ) ;
#418 = DIRECTION ( 'NONE',  ( 0.0000000000000000000, -1.000000000000000000, 0.0000000000000000000 ) ) ;
#419 =( NAMED_UNIT ( * ) SI_UNIT ( $, .STERADIAN. ) SOLID_ANGLE_UNIT ( ) );
#420 = LINE ( 'NONE', #281, #50 ) ;
#421 = EDGE_CURVE ( 'NONE', #162, #545, #208, .T. ) ;
#422 = PRODUCT_RELATED_PRODUCT_CATEGORY ( 'part', '', ( #778 ) ) ;
#423 = CARTESIAN_POINT ( 'NONE',  ( 0.0000000000000000000, -8.000000000000003600, -23.99999999999997900 ) ) ;
#424 = ORIENTED_EDGE ( 'NONE', *, *, #701, .F. ) ;
#425 = LINE ( 'NONE', #97, #592 ) ;
#426 = ORIENTED_EDGE ( 'NONE', *, *, #156, .F. ) ;
#427 = AXIS2_PLACEMENT_3D ( 'NONE', #669, #483, #526 ) ;
#428 = AXIS2_PLACEMENT_3D ( 'NONE', #220, #215, #479 ) ;
#429 = ORIENTED_EDGE ( 'NONE', *, *, #206, .T. ) ;
#430 = EDGE_LOOP ( 'NONE', ( #675, #89, #767, #19 ) ) ;
#431 = AXIS2_PLACEMENT_3D ( 'NONE', #704, #318, #135 ) ;
#432 = APPLICATION_CONTEXT ( 'automotive_design' ) ;
#433 = ORIENTED_EDGE ( 'NONE', *, *, #49, .T. ) ;
#434 = VERTEX_POINT ( 'NONE', #149 ) ;
#435 = ADVANCED_FACE ( 'NONE', ( #665 ), #130, .F. ) ;
#436 = PRODUCT_DEFINITION_FORMATION_WITH_SPECIFIED_SOURCE ( '任何', '', #778, .NOT_KNOWN. ) ;
#437 = CIRCLE ( 'NONE', #139, 3.599999999999999200 ) ;
#438 = DIRECTION ( 'NONE',  ( 0.0000000000000000000, 0.0000000000000000000, -1.000000000000000000 ) ) ;
#439 = CYLINDRICAL_SURFACE ( 'NONE', #192, 2.000000000000001800 ) ;
#440 = CARTESIAN_POINT ( 'NONE',  ( -7.000000000000000000, -3.440000000000001300, -7.750000000000001800 ) ) ;
#441 = EDGE_CURVE ( 'NONE', #558, #475, #142, .T. ) ;
#442 = CIRCLE ( 'NONE', #231, 2.000000000000001800 ) ;
#443 = ADVANCED_FACE ( 'NONE', ( #494 ), #800, .T. ) ;
#444 = DIRECTION ( 'NONE',  ( -1.000000000000000000, -0.0000000000000000000, -0.0000000000000000000 ) ) ;
#445 = ORIENTED_EDGE ( 'NONE', *, *, #169, .F. ) ;
#446 = EDGE_CURVE ( 'NONE', #475, #558, #639, .T. ) ;
#447 = ADVANCED_BREP_SHAPE_REPRESENTATION ( '03004安装隔板.', ( #365, #102 ), #346 ) ;
#448 = CARTESIAN_POINT ( 'NONE',  ( 3.000000000000000000, 7.999999999999998200, -25.99999999999998200 ) ) ;
#449 = DIRECTION ( 'NONE',  ( -1.000000000000000000, -0.0000000000000000000, 0.0000000000000000000 ) ) ;
#450 = ORIENTED_EDGE ( 'NONE', *, *, #738, .T. ) ;
#451 = FACE_OUTER_BOUND ( 'NONE', #187, .T. ) ;
#452 = ORIENTED_EDGE ( 'NONE', *, *, #637, .F. ) ;
#453 = DIRECTION ( 'NONE',  ( -1.000000000000000000, -0.0000000000000000000, -0.0000000000000000000 ) ) ;
#454 = EDGE_LOOP ( 'NONE', ( #562, #120, #578, #688 ) ) ;
#455 = EDGE_CURVE ( 'NONE', #651, #380, #459, .T. ) ;
#456 = CARTESIAN_POINT ( 'NONE',  ( 3.000000000000000000, 9.999999999999998200, -25.99999999999998200 ) ) ;
#457 = DIRECTION ( 'NONE',  ( 1.000000000000000000, -0.0000000000000000000, -0.0000000000000000000 ) ) ;
#458 = DIRECTION ( 'NONE',  ( 1.000000000000000000, -0.0000000000000000000, 0.0000000000000000000 ) ) ;
#459 = LINE ( 'NONE', #670, #777 ) ;
#460 = ADVANCED_FACE ( 'NONE', ( #363 ), #540, .F. ) ;
#461 = DIRECTION ( 'NONE',  ( 0.0000000000000000000, 0.0000000000000000000, -1.000000000000000000 ) ) ;
#462 = VECTOR ( 'NONE', #174, 1000.000000000000000 ) ;
#463 = EDGE_CURVE ( 'NONE', #787, #434, #565, .T. ) ;
#464 = VECTOR ( 'NONE', #119, 1000.000000000000000 ) ;
#465 = CARTESIAN_POINT ( 'NONE',  ( 0.0000000000000000000, 7.999999999999998200, -25.99999999999998200 ) ) ;
#466 = ORIENTED_EDGE ( 'NONE', *, *, #489, .F. ) ;
#467 = DIRECTION ( 'NONE',  ( 0.0000000000000000000, 0.0000000000000000000, 1.000000000000000000 ) ) ;
#468 = CARTESIAN_POINT ( 'NONE',  ( 3.000000000000000000, -10.00000000000000200, 24.00000000000001100 ) ) ;
#469 = CARTESIAN_POINT ( 'NONE',  ( -7.000000000000000000, -5.040000000000001800, -8.250000000000001800 ) ) ;
#470 = ORIENTED_EDGE ( 'NONE', *, *, #615, .T. ) ;
#471 = AXIS2_PLACEMENT_3D ( 'NONE', #276, #82, #521 ) ;
#472 = CYLINDRICAL_SURFACE ( 'NONE', #80, 1.600000000000002500 ) ;
#473 = ORIENTED_EDGE ( 'NONE', *, *, #24, .T. ) ;
#474 = FILL_AREA_STYLE ('',( #405 ) ) ;
#475 = VERTEX_POINT ( 'NONE', #31 ) ;
#476 = EDGE_CURVE ( 'NONE', #628, #582, #73, .T. ) ;
#477 = DIRECTION ( 'NONE',  ( 1.000000000000000000, -0.0000000000000000000, -0.0000000000000000000 ) ) ;
#478 = DIRECTION ( 'NONE',  ( 1.000000000000000000, 0.0000000000000000000, -0.0000000000000000000 ) ) ;
#479 = DIRECTION ( 'NONE',  ( 0.0000000000000000000, 0.0000000000000000000, 1.000000000000000000 ) ) ;
#480 = EDGE_CURVE ( 'NONE', #682, #556, #394, .T. ) ;
#481 = CARTESIAN_POINT ( 'NONE',  ( 3.000000000000000000, -3.440000000000001300, -6.150000000000001200 ) ) ;
#482 = FACE_BOUND ( 'NONE', #40, .T. ) ;
#483 = DIRECTION ( 'NONE',  ( 0.0000000000000000000, 1.000000000000000000, -1.734723475976805500E-015 ) ) ;
#484 = DIRECTION ( 'NONE',  ( -1.000000000000000000, -0.0000000000000000000, -0.0000000000000000000 ) ) ;
#485 = FACE_BOUND ( 'NONE', #349, .T. ) ;
#486 = CARTESIAN_POINT ( 'NONE',  ( 3.000000000000000000, -8.000000000000001800, 26.00000000000001100 ) ) ;
#487 = FACE_OUTER_BOUND ( 'NONE', #397, .T. ) ;
#488 = CARTESIAN_POINT ( 'NONE',  ( 0.0000000000000000000, -1.200000000000002200, -17.00000000000000000 ) ) ;
#489 = EDGE_CURVE ( 'NONE', #176, #811, #420, .T. ) ;
#490 = ORIENTED_EDGE ( 'NONE', *, *, #1, .T. ) ;
#491 = CARTESIAN_POINT ( 'NONE',  ( 0.0000000000000000000, -8.000000000000001800, 24.00000000000001100 ) ) ;
#492 = ORIENTED_EDGE ( 'NONE', *, *, #90, .T. ) ;
#493 = AXIS2_PLACEMENT_3D ( 'NONE', #321, #588, #125 ) ;
#494 = FACE_OUTER_BOUND ( 'NONE', #520, .T. ) ;
#495 = ORIENTED_EDGE ( 'NONE', *, *, #554, .T. ) ;
#496 = DIRECTION ( 'NONE',  ( 0.0000000000000000000, -0.0000000000000000000, -1.000000000000000000 ) ) ;
#497 = VECTOR ( 'NONE', #150, 1000.000000000000000 ) ;
#498 = FACE_OUTER_BOUND ( 'NONE', #308, .T. ) ;
#499 = FACE_OUTER_BOUND ( 'NONE', #171, .T. ) ;
#500 = EDGE_CURVE ( 'NONE', #651, #505, #224, .T. ) ;
#501 = CARTESIAN_POINT ( 'NONE',  ( -7.000000000000000000, 2.859999999999999000, -6.150000000000000400 ) ) ;
#502 = CARTESIAN_POINT ( 'NONE',  ( 3.000000000000000000, -8.000000000000003600, -23.99999999999997900 ) ) ;
#503 = ORIENTED_EDGE ( 'NONE', *, *, #596, .F. ) ;
#504 = PRESENTATION_STYLE_ASSIGNMENT (( #335 ) ) ;
#505 = VERTEX_POINT ( 'NONE', #221 ) ;
#506 = DIRECTION ( 'NONE',  ( -0.0000000000000000000, 1.000000000000000000, 0.0000000000000000000 ) ) ;
#507 = EDGE_CURVE ( 'NONE', #593, #728, #190, .T. ) ;
#508 = CARTESIAN_POINT ( 'NONE',  ( 0.0000000000000000000, 4.460000000000000900, -7.750000000000001800 ) ) ;
#509 = FACE_OUTER_BOUND ( 'NONE', #771, .T. ) ;
#510 = CARTESIAN_POINT ( 'NONE',  ( 3.000000000000000000, 9.999999999999998200, 26.00000000000002100 ) ) ;
#511 = EDGE_CURVE ( 'NONE', #505, #787, #583, .T. ) ;
#512 = AXIS2_PLACEMENT_3D ( 'NONE', #793, #160, #353 ) ;
#513 = LINE ( 'NONE', #690, #367 ) ;
#514 = ORIENTED_EDGE ( 'NONE', *, *, #302, .F. ) ;
#515 = VECTOR ( 'NONE', #715, 1000.000000000000000 ) ;
#516 = DIRECTION ( 'NONE',  ( 0.0000000000000000000, 0.0000000000000000000, -1.000000000000000000 ) ) ;
#517 = DIRECTION ( 'NONE',  ( 0.0000000000000000000, 0.0000000000000000000, -1.000000000000000000 ) ) ;
#518 = EDGE_CURVE ( 'NONE', #811, #593, #671, .T. ) ;
#519 = ORIENTED_EDGE ( 'NONE', *, *, #70, .T. ) ;
#520 = EDGE_LOOP ( 'NONE', ( #39, #734, #401, #621 ) ) ;
#521 = DIRECTION ( 'NONE',  ( 0.0000000000000000000, 0.0000000000000000000, 1.000000000000000000 ) ) ;
#522 = AXIS2_PLACEMENT_3D ( 'NONE', #113, #453, #685 ) ;
#523 = ORIENTED_EDGE ( 'NONE', *, *, #507, .F. ) ;
#524 = DIRECTION ( 'NONE',  ( -1.000000000000000000, -0.0000000000000000000, -0.0000000000000000000 ) ) ;
#525 = VECTOR ( 'NONE', #586, 1000.000000000000000 ) ;
#526 = DIRECTION ( 'NONE',  ( 0.0000000000000000000, 1.734723475976805500E-015, 1.000000000000000000 ) ) ;
#527 = DIRECTION ( 'NONE',  ( -0.0000000000000000000, -1.000000000000000000, -0.0000000000000000000 ) ) ;
#528 = AXIS2_PLACEMENT_3D ( 'NONE', #269, #783, #392 ) ;
#529 = CARTESIAN_POINT ( 'NONE',  ( 3.000000000000000000, 0.0000000000000000000, 21.59999999999999100 ) ) ;
#530 = CYLINDRICAL_SURFACE ( 'NONE', #597, 1.600000000000000800 ) ;
#531 = ORIENTED_EDGE ( 'NONE', *, *, #693, .T. ) ;
#532 = ORIENTED_EDGE ( 'NONE', *, *, #480, .T. ) ;
#533 = CARTESIAN_POINT ( 'NONE',  ( 3.000000000000000000, 7.999999999999998200, -23.99999999999997900 ) ) ;
#534 = LINE ( 'NONE', #501, #347 ) ;
#535 = DIRECTION ( 'NONE',  ( -1.000000000000000000, 0.0000000000000000000, 0.0000000000000000000 ) ) ;
#536 = ORIENTED_EDGE ( 'NONE', *, *, #655, .F. ) ;
#537 = ORIENTED_EDGE ( 'NONE', *, *, #713, .F. ) ;
#538 = FACE_OUTER_BOUND ( 'NONE', #65, .T. ) ;
#539 = CARTESIAN_POINT ( 'NONE',  ( 0.0000000000000000000, -10.00000000000000200, -23.99999999999997500 ) ) ;
#540 = PLANE ( 'NONE',  #314 ) ;
#541 = DIRECTION ( 'NONE',  ( 0.0000000000000000000, 0.0000000000000000000, -1.000000000000000000 ) ) ;
#542 = CARTESIAN_POINT ( 'NONE',  ( 3.000000000000000000, 2.859999999999999400, -9.850000000000003200 ) ) ;
#543 = EDGE_CURVE ( 'NONE', #728, #548, #442, .T. ) ;
#544 = ADVANCED_FACE ( 'NONE', ( #645 ), #745, .F. ) ;
#545 = VERTEX_POINT ( 'NONE', #481 ) ;
#546 = ORIENTED_EDGE ( 'NONE', *, *, #446, .F. ) ;
#547 = APPLICATION_PROTOCOL_DEFINITION ( 'draft international standard', 'automotive_design', 1998, #809 ) ;
#548 = VERTEX_POINT ( 'NONE', #29 ) ;
#549 = FACE_OUTER_BOUND ( 'NONE', #141, .T. ) ;
#550 = PRODUCT_DEFINITION ( '未知', '', #436, #185 ) ;
#551 = ORIENTED_EDGE ( 'NONE', *, *, #552, .T. ) ;
#552 = EDGE_CURVE ( 'NONE', #705, #746, #837, .T. ) ;
#553 = FILL_AREA_STYLE ('',( #725 ) ) ;
#554 = EDGE_CURVE ( 'NONE', #364, #737, #425, .T. ) ;
#555 = FACE_OUTER_BOUND ( 'NONE', #743, .T. ) ;
#556 = VERTEX_POINT ( 'NONE', #673 ) ;
#557 = EDGE_LOOP ( 'NONE', ( #66, #228, #514, #835 ) ) ;
#558 = VERTEX_POINT ( 'NONE', #342 ) ;
#559 = VERTEX_POINT ( 'NONE', #795 ) ;
#560 = CIRCLE ( 'NONE', #607, 2.499999999999998700 ) ;
#561 = AXIS2_PLACEMENT_3D ( 'NONE', #68, #524, #254 ) ;
#562 = ORIENTED_EDGE ( 'NONE', *, *, #253, .T. ) ;
#563 = ADVANCED_FACE ( 'NONE', ( #499 ), #226, .F. ) ;
#564 = DIRECTION ( 'NONE',  ( -1.000000000000000000, 0.0000000000000000000, 0.0000000000000000000 ) ) ;
#565 = CIRCLE ( 'NONE', #768, 1.600000000000000800 ) ;
#566 = ORIENTED_EDGE ( 'NONE', *, *, #500, .F. ) ;
#567 = ORIENTED_EDGE ( 'NONE', *, *, #222, .T. ) ;
#568 = EDGE_CURVE ( 'NONE', #87, #395, #322, .T. ) ;
#569 = ORIENTED_EDGE ( 'NONE', *, *, #518, .F. ) ;
#570 = CARTESIAN_POINT ( 'NONE',  ( 3.000000000000000000, 0.0000000000000000000, 7.599999999999997000 ) ) ;
#571 = VECTOR ( 'NONE', #282, 1000.000000000000000 ) ;
#572 = ORIENTED_EDGE ( 'NONE', *, *, #134, .T. ) ;
#573 = EDGE_CURVE ( 'NONE', #705, #558, #81, .T. ) ;
#574 = CARTESIAN_POINT ( 'NONE',  ( 0.0000000000000000000, 9.999999999999998200, 0.0000000000000000000 ) ) ;
#575 = ADVANCED_FACE ( 'NONE', ( #336 ), #756, .F. ) ;
#576 = AXIS2_PLACEMENT_3D ( 'NONE', #93, #661, #25 ) ;
#577 = CARTESIAN_POINT ( 'NONE',  ( 3.000000000000000000, -3.440000000000001300, -7.750000000000001800 ) ) ;
#578 = ORIENTED_EDGE ( 'NONE', *, *, #33, .F. ) ;
#579 = CLOSED_SHELL ( 'NONE', ( #733, #341, #649, #179, #265, #260, #680, #443, #284, #107, #544, #77, #709, #435, #168, #815, #311, #563, #20, #656, #325, #817, #575, #460 ) ) ;
#580 = CARTESIAN_POINT ( 'NONE',  ( 3.000000000000000000, -10.00000000000000200, -23.99999999999997500 ) ) ;
#581 = ORIENTED_EDGE ( 'NONE', *, *, #24, .F. ) ;
#582 = VERTEX_POINT ( 'NONE', #448 ) ;
#583 = LINE ( 'NONE', #416, #303 ) ;
#584 = DIRECTION ( 'NONE',  ( -0.0000000000000000000, -1.000000000000000000, -1.734723475976806800E-016 ) ) ;
#585 = ORIENTED_EDGE ( 'NONE', *, *, #480, .F. ) ;
#586 = DIRECTION ( 'NONE',  ( 1.000000000000000000, -0.0000000000000000000, -0.0000000000000000000 ) ) ;
#587 = LINE ( 'NONE', #312, #299 ) ;
#588 = DIRECTION ( 'NONE',  ( -1.000000000000000000, 0.0000000000000000000, 0.0000000000000000000 ) ) ;
#589 = AXIS2_PLACEMENT_3D ( 'NONE', #624, #175, #438 ) ;
#590 = CARTESIAN_POINT ( 'NONE',  ( 0.0000000000000000000, -3.440000000000001300, -8.250000000000001800 ) ) ;
#591 = DIRECTION ( 'NONE',  ( 0.0000000000000000000, 0.0000000000000000000, -1.000000000000000000 ) ) ;
#592 = VECTOR ( 'NONE', #411, 1000.000000000000000 ) ;
#593 = VERTEX_POINT ( 'NONE', #317 ) ;
#594 = CARTESIAN_POINT ( 'NONE',  ( 3.000000000000000000, -1.200000000000002200, -17.00000000000000000 ) ) ;
#595 = DIRECTION ( 'NONE',  ( 0.0000000000000000000, 0.0000000000000000000, 1.000000000000000000 ) ) ;
#596 = EDGE_CURVE ( 'NONE', #189, #248, #805, .T. ) ;
#597 = AXIS2_PLACEMENT_3D ( 'NONE', #402, #280, #591 ) ;
#598 = CARTESIAN_POINT ( 'NONE',  ( -7.000000000000000000, -3.440000000000001300, -8.250000000000001800 ) ) ;
#599 = ORIENTED_EDGE ( 'NONE', *, *, #831, .T. ) ;
#600 = CARTESIAN_POINT ( 'NONE',  ( -7.000000000000000000, -1.200000000000002200, -17.00000000000000000 ) ) ;
#601 = DIRECTION ( 'NONE',  ( 0.0000000000000000000, 1.000000000000000000, 2.753529326947312900E-016 ) ) ;
#602 = EDGE_CURVE ( 'NONE', #236, #545, #678, .T. ) ;
#603 = EDGE_LOOP ( 'NONE', ( #585, #250, #710, #234 ) ) ;
#604 = DIRECTION ( 'NONE',  ( 0.0000000000000000000, 2.753529326947312900E-016, -1.000000000000000000 ) ) ;
#605 = EDGE_CURVE ( 'NONE', #248, #176, #229, .T. ) ;
#606 = DIRECTION ( 'NONE',  ( 1.000000000000000000, -0.0000000000000000000, -0.0000000000000000000 ) ) ;
#607 = AXIS2_PLACEMENT_3D ( 'NONE', #729, #343, #608 ) ;
#608 = DIRECTION ( 'NONE',  ( 0.0000000000000000000, 0.0000000000000000000, -1.000000000000000000 ) ) ;
#609 = CARTESIAN_POINT ( 'NONE',  ( -7.000000000000000000, 2.859999999999999000, -9.850000000000003200 ) ) ;
#610 = LINE ( 'NONE', #212, #810 ) ;
#611 = DIRECTION ( 'NONE',  ( 0.0000000000000000000, 0.0000000000000000000, -1.000000000000000000 ) ) ;
#612 = DIRECTION ( 'NONE',  ( 0.0000000000000000000, 1.734723475976805500E-015, 1.000000000000000000 ) ) ;
#613 = ORIENTED_EDGE ( 'NONE', *, *, #738, .F. ) ;
#614 = DIRECTION ( 'NONE',  ( 0.0000000000000000000, 0.0000000000000000000, 1.000000000000000000 ) ) ;
#615 = EDGE_CURVE ( 'NONE', #236, #721, #626, .T. ) ;
#616 = EDGE_LOOP ( 'NONE', ( #4, #214, #429, #687, #567, #60, #30, #408 ) ) ;
#617 =( NAMED_UNIT ( * ) SI_UNIT ( $, .STERADIAN. ) SOLID_ANGLE_UNIT ( ) );
#618 = EDGE_CURVE ( 'NONE', #332, #3, #829, .T. ) ;
#619 = ORIENTED_EDGE ( 'NONE', *, *, #662, .T. ) ;
#620 = CYLINDRICAL_SURFACE ( 'NONE', #634, 3.599999999999999200 ) ;
#621 = ORIENTED_EDGE ( 'NONE', *, *, #146, .T. ) ;
#622 = ORIENTED_EDGE ( 'NONE', *, *, #640, .F. ) ;
#623 =( NAMED_UNIT ( * ) PLANE_ANGLE_UNIT ( ) SI_UNIT ( $, .RADIAN. ) );
#624 = CARTESIAN_POINT ( 'NONE',  ( 0.0000000000000000000, 2.859999999999999400, -7.750000000000001800 ) ) ;
#625 = FACE_OUTER_BOUND ( 'NONE', #616, .T. ) ;
#626 = CIRCLE ( 'NONE', #110, 1.600000000000000800 ) ;
#627 = DIRECTION ( 'NONE',  ( 1.000000000000000000, -0.0000000000000000000, 0.0000000000000000000 ) ) ;
#628 = VERTEX_POINT ( 'NONE', #723 ) ;
#629 = CARTESIAN_POINT ( 'NONE',  ( 3.000000000000000000, 4.408728476930471200E-016, 0.3999999999999988600 ) ) ;
#630 = EDGE_LOOP ( 'NONE', ( #202, #57, #537, #691 ) ) ;
#631 = VECTOR ( 'NONE', #75, 1000.000000000000000 ) ;
#632 = EDGE_LOOP ( 'NONE', ( #635, #599, #165, #309 ) ) ;
#633 = CARTESIAN_POINT ( 'NONE',  ( 3.000000000000000000, 9.999999999999998200, -23.99999999999996800 ) ) ;
#634 = AXIS2_PLACEMENT_3D ( 'NONE', #263, #340, #595 ) ;
#635 = ORIENTED_EDGE ( 'NONE', *, *, #713, .T. ) ;
#636 = DIRECTION ( 'NONE',  ( 1.000000000000000000, 0.0000000000000000000, 0.0000000000000000000 ) ) ;
#637 = EDGE_CURVE ( 'NONE', #380, #787, #735, .T. ) ;
#638 = DIRECTION ( 'NONE',  ( 1.000000000000000000, -0.0000000000000000000, -0.0000000000000000000 ) ) ;
#639 = CIRCLE ( 'NONE', #11, 3.599999999999988500 ) ;
#640 = EDGE_CURVE ( 'NONE', #744, #162, #719, .T. ) ;
#641 = DIRECTION ( 'NONE',  ( 0.0000000000000000000, 0.0000000000000000000, 1.000000000000000000 ) ) ;
#642 = DIRECTION ( 'NONE',  ( 0.0000000000000000000, 0.0000000000000000000, -1.000000000000000000 ) ) ;
#643 = PRODUCT_DEFINITION_SHAPE ( 'NONE', 'NONE',  #550 ) ;
#644 = VECTOR ( 'NONE', #449, 1000.000000000000000 ) ;
#645 = FACE_OUTER_BOUND ( 'NONE', #304, .T. ) ;
#646 = DIRECTION ( 'NONE',  ( -0.0000000000000000000, 0.0000000000000000000, 1.000000000000000000 ) ) ;
#647 = EDGE_CURVE ( 'NONE', #83, #87, #389, .T. ) ;
#648 =( LENGTH_UNIT ( ) NAMED_UNIT ( * ) SI_UNIT ( .MILLI., .METRE. ) );
#649 = ADVANCED_FACE ( 'NONE', ( #400 ), #172, .F. ) ;
#650 = DIRECTION ( 'NONE',  ( 0.0000000000000000000, 0.0000000000000000000, -1.000000000000000000 ) ) ;
#651 = VERTEX_POINT ( 'NONE', #258 ) ;
#652 = CARTESIAN_POINT ( 'NONE',  ( 10.00000000000000000, 0.0000000000000000000, 21.59999999999999100 ) ) ;
#653 = LINE ( 'NONE', #414, #59 ) ;
#654 = ORIENTED_EDGE ( 'NONE', *, *, #568, .T. ) ;
#655 = EDGE_CURVE ( 'NONE', #161, #737, #159, .T. ) ;
#656 = ADVANCED_FACE ( 'NONE', ( #487 ), #205, .F. ) ;
#657 = DIRECTION ( 'NONE',  ( 0.0000000000000000000, -0.0000000000000000000, 1.000000000000000000 ) ) ;
#658 = CARTESIAN_POINT ( 'NONE',  ( 3.000000000000000000, -3.440000000000001300, -9.850000000000005000 ) ) ;
#659 = PLANE ( 'NONE',  #427 ) ;
#660 = DIRECTION ( 'NONE',  ( 0.0000000000000000000, 0.0000000000000000000, -1.000000000000000000 ) ) ;
#661 = DIRECTION ( 'NONE',  ( -1.000000000000000000, -0.0000000000000000000, -0.0000000000000000000 ) ) ;
#662 = EDGE_CURVE ( 'NONE', #737, #380, #114, .T. ) ;
#663 = CARTESIAN_POINT ( 'NONE',  ( 3.000000000000000000, -8.000000000000003600, -25.99999999999998200 ) ) ;
#664 = DIRECTION ( 'NONE',  ( 1.000000000000000000, -0.0000000000000000000, -0.0000000000000000000 ) ) ;
#665 = FACE_OUTER_BOUND ( 'NONE', #32, .T. ) ;
#666 = DIRECTION ( 'NONE',  ( 1.000000000000000000, -0.0000000000000000000, -0.0000000000000000000 ) ) ;
#667 = VECTOR ( 'NONE', #108, 1000.000000000000000 ) ;
#668 = ORIENTED_EDGE ( 'NONE', *, *, #43, .F. ) ;
#669 = CARTESIAN_POINT ( 'NONE',  ( -7.000000000000000000, 4.460000000000000900, -7.750000000000001800 ) ) ;
#670 = CARTESIAN_POINT ( 'NONE',  ( -7.000000000000000000, -3.440000000000001300, -9.850000000000005000 ) ) ;
#671 = CIRCLE ( 'NONE', #148, 1.999999999999998200 ) ;
#672 = AXIS2_PLACEMENT_3D ( 'NONE', #762, #444, #301 ) ;
#673 = CARTESIAN_POINT ( 'NONE',  ( 0.0000000000000000000, -1.200000000000002200, -19.50000000000000000 ) ) ;
#674 = ORIENTED_EDGE ( 'NONE', *, *, #146, .F. ) ;
#675 = ORIENTED_EDGE ( 'NONE', *, *, #602, .T. ) ;
#676 = DIRECTION ( 'NONE',  ( 1.000000000000000000, 0.0000000000000000000, 0.0000000000000000000 ) ) ;
#677 = STYLED_ITEM ( 'NONE', ( #504 ), #365 ) ;
#678 = LINE ( 'NONE', #127, #464 ) ;
#679 = VECTOR ( 'NONE', #63, 1000.000000000000000 ) ;
#680 = ADVANCED_FACE ( 'NONE', ( #216 ), #137, .F. ) ;
#681 = CIRCLE ( 'NONE', #37, 1.600000000000000800 ) ;
#682 = VERTEX_POINT ( 'NONE', #839 ) ;
#683 = EDGE_CURVE ( 'NONE', #161, #651, #67, .T. ) ;
#684 = AXIS2_PLACEMENT_3D ( 'NONE', #195, #398, #2 ) ;
#685 = DIRECTION ( 'NONE',  ( 0.0000000000000000000, 0.0000000000000000000, 1.000000000000000000 ) ) ;
#686 = CIRCLE ( 'NONE', #298, 2.499999999999998700 ) ;
#687 = ORIENTED_EDGE ( 'NONE', *, *, #618, .F. ) ;
#688 = ORIENTED_EDGE ( 'NONE', *, *, #1, .F. ) ;
#689 = DIRECTION ( 'NONE',  ( -1.000000000000000000, -0.0000000000000000000, -0.0000000000000000000 ) ) ;
#690 = CARTESIAN_POINT ( 'NONE',  ( 3.000000000000000000, -10.00000000000000200, 24.00000000000001100 ) ) ;
#691 = ORIENTED_EDGE ( 'NONE', *, *, #338, .F. ) ;
#692 = LINE ( 'NONE', #10, #763 ) ;
#693 = EDGE_CURVE ( 'NONE', #582, #173, #237, .T. ) ;
#694 = CARTESIAN_POINT ( 'NONE',  ( 3.000000000000000000, -1.200000000000002000, -14.50000000000000200 ) ) ;
#695 = DIRECTION ( 'NONE',  ( -1.000000000000000000, -0.0000000000000000000, -0.0000000000000000000 ) ) ;
#696 = LINE ( 'NONE', #510, #759 ) ;
#697 = ORIENTED_EDGE ( 'NONE', *, *, #796, .T. ) ;
#698 = ORIENTED_EDGE ( 'NONE', *, *, #222, .F. ) ;
#699 = SHAPE_DEFINITION_REPRESENTATION ( #643, #447 ) ;
#700 = PLANE ( 'NONE',  #239 ) ;
#701 = EDGE_CURVE ( 'NONE', #52, #355, #686, .T. ) ;
#702 = CYLINDRICAL_SURFACE ( 'NONE', #749, 1.600000000000000800 ) ;
#703 = ORIENTED_EDGE ( 'NONE', *, *, #305, .T. ) ;
#704 = CARTESIAN_POINT ( 'NONE',  ( 3.000000000000000000, -10.00000000000000200, 26.00000000000001800 ) ) ;
#705 = VERTEX_POINT ( 'NONE', #6 ) ;
#706 = CYLINDRICAL_SURFACE ( 'NONE', #512, 2.499999999999998700 ) ;
#707 = DIRECTION ( 'NONE',  ( -1.000000000000000000, 0.0000000000000000000, 0.0000000000000000000 ) ) ;
#708 = DIRECTION ( 'NONE',  ( -1.000000000000000000, -0.0000000000000000000, -0.0000000000000000000 ) ) ;
#709 = ADVANCED_FACE ( 'NONE', ( #538 ), #350, .F. ) ;
#710 = ORIENTED_EDGE ( 'NONE', *, *, #701, .T. ) ;
#711 = CARTESIAN_POINT ( 'NONE',  ( 0.0000000000000000000, -5.040000000000001800, -8.250000000000001800 ) ) ;
#712 = ORIENTED_EDGE ( 'NONE', *, *, #90, .F. ) ;
#713 = EDGE_CURVE ( 'NONE', #764, #434, #692, .T. ) ;
#714 = ORIENTED_EDGE ( 'NONE', *, *, #361, .T. ) ;
#715 = DIRECTION ( 'NONE',  ( -1.000000000000000000, 0.0000000000000000000, 0.0000000000000000000 ) ) ;
#716 =( NAMED_UNIT ( * ) SI_UNIT ( $, .STERADIAN. ) SOLID_ANGLE_UNIT ( ) );
#717 = ORIENTED_EDGE ( 'NONE', *, *, #43, .T. ) ;
#718 = DIRECTION ( 'NONE',  ( 1.000000000000000000, 0.0000000000000000000, 0.0000000000000000000 ) ) ;
#719 = CIRCLE ( 'NONE', #754, 1.600000000000000800 ) ;
#720 = DIRECTION ( 'NONE',  ( 0.0000000000000000000, 0.0000000000000000000, -1.000000000000000000 ) ) ;
#721 = VERTEX_POINT ( 'NONE', #96 ) ;
#722 = EDGE_CURVE ( 'NONE', #355, #52, #560, .T. ) ;
#723 = CARTESIAN_POINT ( 'NONE',  ( 3.000000000000000000, 9.999999999999998200, -23.99999999999997200 ) ) ;
#724 = CARTESIAN_POINT ( 'NONE',  ( 0.0000000000000000000, 4.408728476930471200E-016, 0.3999999999999988600 ) ) ;
#725 = FILL_AREA_STYLE_COLOUR ( '', #742 ) ;
#726 = FACE_BOUND ( 'NONE', #27, .T. ) ;
#727 = ORIENTED_EDGE ( 'NONE', *, *, #573, .F. ) ;
#728 = VERTEX_POINT ( 'NONE', #539 ) ;
#729 = CARTESIAN_POINT ( 'NONE',  ( 3.000000000000000000, -1.200000000000002200, -17.00000000000000000 ) ) ;
#730 = FACE_OUTER_BOUND ( 'NONE', #210, .T. ) ;
#731 = DIRECTION ( 'NONE',  ( 1.000000000000000000, -0.0000000000000000000, -0.0000000000000000000 ) ) ;
#732 = ORIENTED_EDGE ( 'NONE', *, *, #123, .F. ) ;
#733 = ADVANCED_FACE ( 'NONE', ( #46 ), #379, .F. ) ;
#734 = ORIENTED_EDGE ( 'NONE', *, *, #302, .T. ) ;
#735 = LINE ( 'NONE', #790, #415 ) ;
#736 = DIRECTION ( 'NONE',  ( 0.0000000000000000000, 0.0000000000000000000, 1.000000000000000000 ) ) ;
#737 = VERTEX_POINT ( 'NONE', #339 ) ;
#738 = EDGE_CURVE ( 'NONE', #548, #407, #370, .T. ) ;
#739 = AXIS2_PLACEMENT_3D ( 'NONE', #590, #261, #84 ) ;
#740 = CARTESIAN_POINT ( 'NONE',  ( 3.000000000000000000, 4.460000000000000900, -7.750000000000001800 ) ) ;
#741 = CARTESIAN_POINT ( 'NONE',  ( 0.0000000000000000000, -10.00000000000000200, 0.0000000000000000000 ) ) ;
#742 = COLOUR_RGB ( '',1.000000000000000000, 1.000000000000000000, 1.000000000000000000 ) ;
#743 = EDGE_LOOP ( 'NONE', ( #668, #387, #674, #204 ) ) ;
#744 = VERTEX_POINT ( 'NONE', #740 ) ;
#745 = PLANE ( 'NONE',  #403 ) ;
#746 = VERTEX_POINT ( 'NONE', #529 ) ;
#747 = LINE ( 'NONE', #211, #571 ) ;
#748 = ORIENTED_EDGE ( 'NONE', *, *, #761, .T. ) ;
#749 = AXIS2_PLACEMENT_3D ( 'NONE', #440, #48, #821 ) ;
#750 = FACE_OUTER_BOUND ( 'NONE', #454, .T. ) ;
#751 = ORIENTED_EDGE ( 'NONE', *, *, #500, .T. ) ;
#752 = ORIENTED_EDGE ( 'NONE', *, *, #446, .T. ) ;
#753 = SURFACE_STYLE_USAGE ( .BOTH. , #163 ) ;
#754 = AXIS2_PLACEMENT_3D ( 'NONE', #326, #780, #516 ) ;
#755 = ORIENTED_EDGE ( 'NONE', *, *, #476, .T. ) ;
#756 = CYLINDRICAL_SURFACE ( 'NONE', #251, 1.600000000000000800 ) ;
#757 = UNCERTAINTY_MEASURE_WITH_UNIT (LENGTH_MEASURE( 1.000000000000000100E-005 ), #648, 'distance_accuracy_value', 'NONE');
#758 = DIRECTION ( 'NONE',  ( 0.0000000000000000000, 0.0000000000000000000, 1.000000000000000000 ) ) ;
#759 = VECTOR ( 'NONE', #646, 1000.000000000000000 ) ;
#760 = CARTESIAN_POINT ( 'NONE',  ( 3.000000000000000000, -8.000000000000003600, -23.99999999999997900 ) ) ;
#761 = EDGE_CURVE ( 'NONE', #721, #364, #262, .T. ) ;
#762 = CARTESIAN_POINT ( 'NONE',  ( 0.0000000000000000000, 0.0000000000000000000, 3.999999999999998200 ) ) ;
#763 = VECTOR ( 'NONE', #91, 1000.000000000000000 ) ;
#764 = VERTEX_POINT ( 'NONE', #802 ) ;
#765 = DIRECTION ( 'NONE',  ( 0.0000000000000000000, 0.0000000000000000000, 1.000000000000000000 ) ) ;
#766 = AXIS2_PLACEMENT_3D ( 'NONE', #600, #285, #289 ) ;
#767 = ORIENTED_EDGE ( 'NONE', *, *, #761, .F. ) ;
#768 = AXIS2_PLACEMENT_3D ( 'NONE', #806, #804, #611 ) ;
#769 = AXIS2_PLACEMENT_3D ( 'NONE', #801, #418, #496 ) ;
#770 = SURFACE_STYLE_FILL_AREA ( #474 ) ;
#771 = EDGE_LOOP ( 'NONE', ( #273, #822, #712, #698 ) ) ;
#772 = CARTESIAN_POINT ( 'NONE',  ( 3.000000000000000000, -10.00000000000000200, 26.00000000000001800 ) ) ;
#773 = VERTEX_POINT ( 'NONE', #28 ) ;
#774 = CARTESIAN_POINT ( 'NONE',  ( 10.00000000000000000, 4.408728476930471200E-016, 0.3999999999999988600 ) ) ;
#775 = PLANE ( 'NONE',  #334 ) ;
#776 = EDGE_CURVE ( 'NONE', #3, #811, #166, .T. ) ;
#777 = VECTOR ( 'NONE', #348, 1000.000000000000000 ) ;
#778 = PRODUCT ( '03004安装隔板.', '03004安装隔板.', '', ( #814 ) ) ;
#779 = SURFACE_STYLE_FILL_AREA ( #553 ) ;
#780 = DIRECTION ( 'NONE',  ( 1.000000000000000000, 0.0000000000000000000, 0.0000000000000000000 ) ) ;
#781 = DIRECTION ( 'NONE',  ( 0.0000000000000000000, 0.0000000000000000000, 1.000000000000000000 ) ) ;
#782 = VECTOR ( 'NONE', #478, 1000.000000000000000 ) ;
#783 = DIRECTION ( 'NONE',  ( 0.0000000000000000000, 1.734723475976806800E-016, -1.000000000000000000 ) ) ;
#784 = DIRECTION ( 'NONE',  ( 0.0000000000000000000, -0.0000000000000000000, -1.000000000000000000 ) ) ;
#785 = DIRECTION ( 'NONE',  ( 1.000000000000000000, 0.0000000000000000000, -0.0000000000000000000 ) ) ;
#786 = DIRECTION ( 'NONE',  ( 0.0000000000000000000, -1.000000000000000000, 0.0000000000000000000 ) ) ;
#787 = VERTEX_POINT ( 'NONE', #542 ) ;
#788 = LINE ( 'NONE', #652, #272 ) ;
#789 = ORIENTED_EDGE ( 'NONE', *, *, #573, .T. ) ;
#790 = CARTESIAN_POINT ( 'NONE',  ( 3.000000000000000000, 2.859999999999999000, -9.850000000000003200 ) ) ;
#791 =( NAMED_UNIT ( * ) PLANE_ANGLE_UNIT ( ) SI_UNIT ( $, .RADIAN. ) );
#792 = ORIENTED_EDGE ( 'NONE', *, *, #33, .T. ) ;
#793 = CARTESIAN_POINT ( 'NONE',  ( -7.000000000000000000, -1.200000000000002200, -17.00000000000000000 ) ) ;
#794 = CARTESIAN_POINT ( 'NONE',  ( 3.000000000000000000, 9.999999999999998200, 24.00000000000001400 ) ) ;
#795 = CARTESIAN_POINT ( 'NONE',  ( 3.000000000000000000, 7.999999999999998200, 26.00000000000002100 ) ) ;
#796 = EDGE_CURVE ( 'NONE', #173, #189, #191, .T. ) ;
#797 = DIRECTION ( 'NONE',  ( 0.0000000000000000000, 0.0000000000000000000, -1.000000000000000000 ) ) ;
#798 = CARTESIAN_POINT ( 'NONE',  ( 3.000000000000000000, -1.200000000000002200, -19.50000000000000000 ) ) ;
#799 = CARTESIAN_POINT ( 'NONE',  ( 0.0000000000000000000, 7.999999999999998200, -23.99999999999997900 ) ) ;
#800 = CYLINDRICAL_SURFACE ( 'NONE', #292, 2.000000000000001800 ) ;
#801 = CARTESIAN_POINT ( 'NONE',  ( -7.000000000000000000, -5.040000000000001800, -8.250000000000001800 ) ) ;
#802 = CARTESIAN_POINT ( 'NONE',  ( 0.0000000000000000000, 4.460000000000000000, -8.250000000000001800 ) ) ;
#803 = VECTOR ( 'NONE', #564, 1000.000000000000000 ) ;
#804 = DIRECTION ( 'NONE',  ( 1.000000000000000000, 0.0000000000000000000, 0.0000000000000000000 ) ) ;
#805 = LINE ( 'NONE', #574, #820 ) ;
#806 = CARTESIAN_POINT ( 'NONE',  ( 3.000000000000000000, 2.859999999999999400, -8.250000000000001800 ) ) ;
#807 = ORIENTED_EDGE ( 'NONE', *, *, #568, .F. ) ;
#808 = EDGE_LOOP ( 'NONE', ( #196, #117, #426, #126, #622, #825, #357, #452 ) ) ;
#809 = APPLICATION_CONTEXT ( 'automotive_design' ) ;
#810 = VECTOR ( 'NONE', #731, 1000.000000000000000 ) ;
#811 = VERTEX_POINT ( 'NONE', #279 ) ;
#812 = EDGE_CURVE ( 'NONE', #721, #161, #747, .T. ) ;
#813 = AXIS2_PLACEMENT_3D ( 'NONE', #533, #17, #352 ) ;
#814 = PRODUCT_CONTEXT ( 'NONE', #809, 'mechanical' ) ;
#815 = ADVANCED_FACE ( 'NONE', ( #549 ), #706, .F. ) ;
#816 = AXIS2_PLACEMENT_3D ( 'NONE', #384, #708, #781 ) ;
#817 = ADVANCED_FACE ( 'NONE', ( #360 ), #659, .F. ) ;
#818 = CYLINDRICAL_SURFACE ( 'NONE', #247, 2.000000000000001800 ) ;
#819 = CARTESIAN_POINT ( 'NONE',  ( 0.0000000000000000000, 0.0000000000000000000, -25.99999999999998200 ) ) ;
#820 = VECTOR ( 'NONE', #180, 1000.000000000000000 ) ;
#821 = DIRECTION ( 'NONE',  ( 0.0000000000000000000, 0.0000000000000000000, -1.000000000000000000 ) ) ;
#822 = ORIENTED_EDGE ( 'NONE', *, *, #507, .T. ) ;
#823 = EDGE_CURVE ( 'NONE', #764, #244, #35, .T. ) ;
#824 = MECHANICAL_DESIGN_GEOMETRIC_PRESENTATION_REPRESENTATION (  '', ( #677 ), #200 ) ;
#825 = ORIENTED_EDGE ( 'NONE', *, *, #831, .F. ) ;
#826 = FACE_BOUND ( 'NONE', #34, .T. ) ;
#827 = ORIENTED_EDGE ( 'NONE', *, *, #722, .T. ) ;
#828 = AXIS2_PLACEMENT_3D ( 'NONE', #246, #627, #241 ) ;
#829 = CIRCLE ( 'NONE', #324, 1.999999999999998200 ) ;
#830 = CARTESIAN_POINT ( 'NONE',  ( 0.0000000000000000000, -3.440000000000001300, -6.150000000000001200 ) ) ;
#831 = EDGE_CURVE ( 'NONE', #434, #744, #182, .T. ) ;
#832 = COLOUR_RGB ( '',1.000000000000000000, 1.000000000000000000, 1.000000000000000000 ) ;
#833 = ORIENTED_EDGE ( 'NONE', *, *, #183, .F. ) ;
#834 = CIRCLE ( 'NONE', #522, 3.599999999999988500 ) ;
#835 = ORIENTED_EDGE ( 'NONE', *, *, #489, .T. ) ;
#836 = DIRECTION ( 'NONE',  ( 1.000000000000000000, 0.0000000000000000000, 0.0000000000000000000 ) ) ;
#837 = CIRCLE ( 'NONE', #576, 3.599999999999988500 ) ;
#838 = CARTESIAN_POINT ( 'NONE',  ( 0.0000000000000000000, 0.0000000000000000000, 0.0000000000000000000 ) ) ;
#839 = CARTESIAN_POINT ( 'NONE',  ( 0.0000000000000000000, -1.200000000000002000, -14.50000000000000200 ) ) ;
#840 = DIRECTION ( 'NONE',  ( 1.000000000000000000, -0.0000000000000000000, 0.0000000000000000000 ) ) ;
ENDSEC;
END-ISO-10303-21;
