ISO-10303-21;
HEADER;
FILE_DESCRIPTION (( 'STEP AP203' ),
    '1' );
FILE_NAME ('03004安装隔板更新..STEP',
    '2025-10-09T02:37:24',
    ( '' ),
    ( '' ),
    'SwSTEP 2.0',
    'SolidWorks 2016',
    '' );
FILE_SCHEMA (( 'CONFIG_CONTROL_DESIGN' ));
ENDSEC;

DATA;
#1 = EDGE_CURVE ( 'NONE', #138, #26, #566, .T. ) ;
#2 = APPLICATION_PROTOCOL_DEFINITION ( 'international standard', 'config_control_design', 1994, #724 ) ;
#3 = DIRECTION ( 'NONE',  ( 0.0000000000000000000, 0.0000000000000000000, 1.000000000000000000 ) ) ;
#4 = AXIS2_PLACEMENT_3D ( 'NONE', #503, #550, #327 ) ;
#5 = CARTESIAN_POINT ( 'NONE',  ( -7.000000000000000000, 4.460000000000000900, -7.750000000000001800 ) ) ;
#6 = DATE_TIME_ROLE ( 'creation_date' ) ;
#7 = PERSON_AND_ORGANIZATION ( #22, #639 ) ;
#8 = LINE ( 'NONE', #212, #719 ) ;
#9 = VECTOR ( 'NONE', #610, 1000.000000000000000 ) ;
#10 = EDGE_CURVE ( 'NONE', #251, #465, #183, .T. ) ;
#11 = ORIENTED_EDGE ( 'NONE', *, *, #438, .T. ) ;
#12 = VERTEX_POINT ( 'NONE', #515 ) ;
#13 = EDGE_CURVE ( 'NONE', #136, #119, #341, .T. ) ;
#14 = COORDINATED_UNIVERSAL_TIME_OFFSET ( 8, 0, .AHEAD. ) ;
#15 = FACE_OUTER_BOUND ( 'NONE', #146, .T. ) ;
#16 = FACE_OUTER_BOUND ( 'NONE', #376, .T. ) ;
#17 = ORIENTED_EDGE ( 'NONE', *, *, #706, .T. ) ;
#18 = ADVANCED_FACE ( 'NONE', ( #477 ), #23, .F. ) ;
#19 = ORIENTED_EDGE ( 'NONE', *, *, #349, .T. ) ;
#20 = DIRECTION ( 'NONE',  ( 1.000000000000000000, -0.0000000000000000000, -0.0000000000000000000 ) ) ;
#21 = PERSON_AND_ORGANIZATION ( #22, #639 ) ;
#22 = PERSON ( '未指定', '未指定', '未指定', ('未指定'), ('未指定'), ('未指定') ) ;
#23 = CYLINDRICAL_SURFACE ( 'NONE', #115, 1.600000000000000800 ) ;
#24 = ORIENTED_EDGE ( 'NONE', *, *, #71, .T. ) ;
#25 = EDGE_CURVE ( 'NONE', #602, #40, #696, .T. ) ;
#26 = VERTEX_POINT ( 'NONE', #139 ) ;
#27 = ORIENTED_EDGE ( 'NONE', *, *, #325, .T. ) ;
#28 = DIRECTION ( 'NONE',  ( 0.0000000000000000000, 1.000000000000000000, 2.753529326947312900E-016 ) ) ;
#29 = AXIS2_PLACEMENT_3D ( 'NONE', #53, #457, #111 ) ;
#30 = CARTESIAN_POINT ( 'NONE',  ( 0.0000000000000000000, 7.999999999999998200, 26.00000000000002100 ) ) ;
#31 = ORIENTED_EDGE ( 'NONE', *, *, #64, .T. ) ;
#32 = EDGE_CURVE ( 'NONE', #437, #40, #418, .T. ) ;
#33 = ORIENTED_EDGE ( 'NONE', *, *, #552, .T. ) ;
#34 = CARTESIAN_POINT ( 'NONE',  ( -7.000000000000000000, -1.200000000000002200, -17.00000000000000000 ) ) ;
#35 = DIRECTION ( 'NONE',  ( 0.0000000000000000000, 0.0000000000000000000, -1.000000000000000000 ) ) ;
#36 = CARTESIAN_POINT ( 'NONE',  ( 0.0000000000000000000, 9.999999999999998200, 24.00000000000001400 ) ) ;
#37 = CARTESIAN_POINT ( 'NONE',  ( 3.000000000000000000, 7.999999999999998200, -25.99999999999998200 ) ) ;
#38 = DIRECTION ( 'NONE',  ( 0.0000000000000000000, 0.0000000000000000000, -1.000000000000000000 ) ) ;
#39 = CARTESIAN_POINT ( 'NONE',  ( 3.000000000000000000, -8.000000000000001800, 26.00000000000001800 ) ) ;
#40 = VERTEX_POINT ( 'NONE', #240 ) ;
#41 = VERTEX_POINT ( 'NONE', #690 ) ;
#42 = EDGE_CURVE ( 'NONE', #557, #567, #295, .T. ) ;
#43 = CARTESIAN_POINT ( 'NONE',  ( 3.000000000000000000, -8.000000000000001800, 24.00000000000001100 ) ) ;
#44 = EDGE_LOOP ( 'NONE', ( #443, #584, #420, #497 ) ) ;
#45 = CARTESIAN_POINT ( 'NONE',  ( 0.0000000000000000000, -1.200000000000002000, -14.50000000000000200 ) ) ;
#46 = DIRECTION ( 'NONE',  ( 0.0000000000000000000, 0.0000000000000000000, -1.000000000000000000 ) ) ;
#47 = APPROVAL_DATE_TIME ( #409, #554 ) ;
#48 = EDGE_CURVE ( 'NONE', #429, #260, #227, .T. ) ;
#49 = DIRECTION ( 'NONE',  ( -1.000000000000000000, 0.0000000000000000000, 0.0000000000000000000 ) ) ;
#50 = DIRECTION ( 'NONE',  ( 0.0000000000000000000, 0.0000000000000000000, 1.000000000000000000 ) ) ;
#51 = ORIENTED_EDGE ( 'NONE', *, *, #100, .F. ) ;
#52 = DIRECTION ( 'NONE',  ( -0.0000000000000000000, -0.0000000000000000000, 1.000000000000000000 ) ) ;
#53 = CARTESIAN_POINT ( 'NONE',  ( -7.000000000000000000, -1.200000000000002200, -17.00000000000000000 ) ) ;
#54 = VERTEX_POINT ( 'NONE', #135 ) ;
#55 = DIRECTION ( 'NONE',  ( 0.0000000000000000000, 0.0000000000000000000, -1.000000000000000000 ) ) ;
#56 = DIRECTION ( 'NONE',  ( 0.0000000000000000000, 0.0000000000000000000, 1.000000000000000000 ) ) ;
#57 = DIRECTION ( 'NONE',  ( 1.000000000000000000, 0.0000000000000000000, 0.0000000000000000000 ) ) ;
#58 = EDGE_CURVE ( 'NONE', #108, #465, #694, .T. ) ;
#59 = VECTOR ( 'NONE', #216, 1000.000000000000000 ) ;
#60 = ORIENTED_EDGE ( 'NONE', *, *, #507, .T. ) ;
#61 = ORIENTED_EDGE ( 'NONE', *, *, #297, .F. ) ;
#62 = ORIENTED_EDGE ( 'NONE', *, *, #438, .F. ) ;
#63 = ORIENTED_EDGE ( 'NONE', *, *, #176, .T. ) ;
#64 = EDGE_CURVE ( 'NONE', #260, #26, #127, .T. ) ;
#65 = VERTEX_POINT ( 'NONE', #525 ) ;
#66 = DATE_AND_TIME ( #124, #103 ) ;
#67 = FACE_OUTER_BOUND ( 'NONE', #714, .T. ) ;
#68 = ORIENTED_EDGE ( 'NONE', *, *, #625, .T. ) ;
#69 = ADVANCED_FACE ( 'NONE', ( #401 ), #304, .F. ) ;
#70 = ORIENTED_EDGE ( 'NONE', *, *, #1, .T. ) ;
#71 = EDGE_CURVE ( 'NONE', #621, #722, #242, .T. ) ;
#72 = DIRECTION ( 'NONE',  ( 0.0000000000000000000, -8.131516293641279300E-016, -1.000000000000000000 ) ) ;
#73 = APPLICATION_CONTEXT ( 'configuration controlled 3d designs of mechanical parts and assemblies' ) ;
#74 = VECTOR ( 'NONE', #543, 1000.000000000000000 ) ;
#75 = DIRECTION ( 'NONE',  ( 0.0000000000000000000, 0.0000000000000000000, -1.000000000000000000 ) ) ;
#76 = ADVANCED_FACE ( 'NONE', ( #107 ), #580, .F. ) ;
#77 = VECTOR ( 'NONE', #530, 1000.000000000000000 ) ;
#78 = AXIS2_PLACEMENT_3D ( 'NONE', #598, #541, #163 ) ;
#79 = ORIENTED_EDGE ( 'NONE', *, *, #517, .F. ) ;
#80 = ORIENTED_EDGE ( 'NONE', *, *, #467, .F. ) ;
#81 = VERTEX_POINT ( 'NONE', #490 ) ;
#82 = DIRECTION ( 'NONE',  ( 0.0000000000000000000, -0.0000000000000000000, 1.000000000000000000 ) ) ;
#83 = CC_DESIGN_APPROVAL ( #569, ( #347 ) ) ;
#84 = DATE_AND_TIME ( #245, #424 ) ;
#85 = PERSON_AND_ORGANIZATION ( #22, #639 ) ;
#86 = CARTESIAN_POINT ( 'NONE',  ( 0.0000000000000000000, -3.440000000000001300, -6.150000000000000400 ) ) ;
#87 = FACE_OUTER_BOUND ( 'NONE', #638, .T. ) ;
#88 = EDGE_CURVE ( 'NONE', #439, #548, #234, .T. ) ;
#89 = ORIENTED_EDGE ( 'NONE', *, *, #42, .F. ) ;
#90 = ORIENTED_EDGE ( 'NONE', *, *, #32, .T. ) ;
#91 = CARTESIAN_POINT ( 'NONE',  ( 3.000000000000000000, -1.200000000000002200, -17.00000000000000000 ) ) ;
#92 = EDGE_CURVE ( 'NONE', #138, #536, #685, .T. ) ;
#93 = CARTESIAN_POINT ( 'NONE',  ( 3.000000000000000000, 7.999999999999998200, 26.00000000000002100 ) ) ;
#94 = DIRECTION ( 'NONE',  ( 1.000000000000000000, 0.0000000000000000000, -0.0000000000000000000 ) ) ;
#95 = VECTOR ( 'NONE', #170, 1000.000000000000000 ) ;
#96 = DIRECTION ( 'NONE',  ( 0.0000000000000000000, 0.0000000000000000000, -1.000000000000000000 ) ) ;
#97 = CYLINDRICAL_SURFACE ( 'NONE', #353, 2.000000000000001800 ) ;
#98 = VERTEX_POINT ( 'NONE', #93 ) ;
#99 = ORIENTED_EDGE ( 'NONE', *, *, #349, .F. ) ;
#100 = EDGE_CURVE ( 'NONE', #54, #540, #274, .T. ) ;
#101 = CARTESIAN_POINT ( 'NONE',  ( 0.0000000000000000000, 4.460000000000000900, 0.0000000000000000000 ) ) ;
#102 = CARTESIAN_POINT ( 'NONE',  ( 3.000000000000000000, 0.0000000000000000000, -25.99999999999998200 ) ) ;
#103 = LOCAL_TIME ( 10, 37, 24.00000000000000000, #238 ) ;
#104 = DIRECTION ( 'NONE',  ( 0.0000000000000000000, 1.000000000000000000, 0.0000000000000000000 ) ) ;
#105 = VECTOR ( 'NONE', #120, 1000.000000000000000 ) ;
#106 = DIRECTION ( 'NONE',  ( -0.0000000000000000000, -0.0000000000000000000, 1.000000000000000000 ) ) ;
#107 = FACE_OUTER_BOUND ( 'NONE', #237, .T. ) ;
#108 = VERTEX_POINT ( 'NONE', #640 ) ;
#109 = CC_DESIGN_PERSON_AND_ORGANIZATION_ASSIGNMENT ( #85, #620, ( #357 ) ) ;
#110 = DIRECTION ( 'NONE',  ( 0.0000000000000000000, -0.0000000000000000000, -1.000000000000000000 ) ) ;
#111 = DIRECTION ( 'NONE',  ( 0.0000000000000000000, 0.0000000000000000000, -1.000000000000000000 ) ) ;
#112 = CARTESIAN_POINT ( 'NONE',  ( 0.0000000000000000000, -3.440000000000001300, -8.250000000000001800 ) ) ;
#113 = CARTESIAN_POINT ( 'NONE',  ( 3.000000000000000000, -5.040000000000001800, -8.250000000000001800 ) ) ;
#114 = CARTESIAN_POINT ( 'NONE',  ( 3.000000000000000000, -8.000000000000001800, 24.00000000000001100 ) ) ;
#115 = AXIS2_PLACEMENT_3D ( 'NONE', #667, #392, #247 ) ;
#116 = LINE ( 'NONE', #177, #329 ) ;
#117 = CARTESIAN_POINT ( 'NONE',  ( 0.0000000000000000000, -3.440000000000001300, -6.150000000000000400 ) ) ;
#118 = MECHANICAL_CONTEXT ( 'NONE', #724, 'mechanical' ) ;
#119 = VERTEX_POINT ( 'NONE', #30 ) ;
#120 = DIRECTION ( 'NONE',  ( 0.0000000000000000000, -0.0000000000000000000, 1.000000000000000000 ) ) ;
#121 = DIRECTION ( 'NONE',  ( -0.0000000000000000000, 0.0000000000000000000, 1.000000000000000000 ) ) ;
#122 = AXIS2_PLACEMENT_3D ( 'NONE', #559, #616, #676 ) ;
#123 = ORIENTED_EDGE ( 'NONE', *, *, #628, .F. ) ;
#124 = CALENDAR_DATE ( 2025, 9, 10 ) ;
#125 = PERSON_AND_ORGANIZATION ( #22, #639 ) ;
#126 = CC_DESIGN_SECURITY_CLASSIFICATION ( #535, ( #347 ) ) ;
#127 = LINE ( 'NONE', #300, #468 ) ;
#128 = ORIENTED_EDGE ( 'NONE', *, *, #706, .F. ) ;
#129 = ORIENTED_EDGE ( 'NONE', *, *, #92, .F. ) ;
#130 = CLOSED_SHELL ( 'NONE', ( #132, #630, #292, #410, #356, #69, #231, #193, #352, #299, #635, #76, #189, #18, #577, #474, #573, #142, #188, #692 ) ) ;
#131 = VECTOR ( 'NONE', #553, 1000.000000000000000 ) ;
#132 = ADVANCED_FACE ( 'NONE', ( #16 ), #705, .F. ) ;
#133 = AXIS2_PLACEMENT_3D ( 'NONE', #381, #444, #531 ) ;
#134 = PERSON_AND_ORGANIZATION_ROLE ( 'creator' ) ;
#135 = CARTESIAN_POINT ( 'NONE',  ( 3.000000000000000000, 2.859999999999999900, -6.150000000000001200 ) ) ;
#136 = VERTEX_POINT ( 'NONE', #36 ) ;
#137 = APPROVAL_ROLE ( '' ) ;
#138 = VERTEX_POINT ( 'NONE', #432 ) ;
#139 = CARTESIAN_POINT ( 'NONE',  ( 3.000000000000000000, -5.040000000000001800, -7.750000000000001800 ) ) ;
#140 = ORIENTED_EDGE ( 'NONE', *, *, #236, .T. ) ;
#141 = AXIS2_PLACEMENT_3D ( 'NONE', #521, #20, #415 ) ;
#142 = ADVANCED_FACE ( 'NONE', ( #67, #436, #374 ), #154, .F. ) ;
#143 = ORIENTED_EDGE ( 'NONE', *, *, #529, .T. ) ;
#144 = ORIENTED_EDGE ( 'NONE', *, *, #612, .T. ) ;
#145 = ORIENTED_EDGE ( 'NONE', *, *, #100, .T. ) ;
#146 = EDGE_LOOP ( 'NONE', ( #151, #123, #192, #79 ) ) ;
#147 = DIRECTION ( 'NONE',  ( 0.0000000000000000000, 1.734723475976805500E-015, 1.000000000000000000 ) ) ;
#148 = CC_DESIGN_PERSON_AND_ORGANIZATION_ASSIGNMENT ( #246, #473, ( #535 ) ) ;
#149 = CYLINDRICAL_SURFACE ( 'NONE', #253, 2.000000000000001800 ) ;
#150 = AXIS2_PLACEMENT_3D ( 'NONE', #700, #629, #296 ) ;
#151 = ORIENTED_EDGE ( 'NONE', *, *, #58, .F. ) ;
#152 = ORIENTED_EDGE ( 'NONE', *, *, #88, .F. ) ;
#153 = CARTESIAN_POINT ( 'NONE',  ( -7.000000000000000000, -3.440000000000001300, -7.750000000000001800 ) ) ;
#154 = PLANE ( 'NONE',  #287 ) ;
#155 = CARTESIAN_POINT ( 'NONE',  ( 3.000000000000000000, 7.999999999999998200, -25.99999999999998200 ) ) ;
#156 = CARTESIAN_POINT ( 'NONE',  ( -7.000000000000000000, -3.440000000000001300, -6.150000000000000400 ) ) ;
#157 = AXIS2_PLACEMENT_3D ( 'NONE', #114, #275, #506 ) ;
#158 = CARTESIAN_POINT ( 'NONE',  ( 3.000000000000000000, -3.440000000000001300, -6.150000000000001200 ) ) ;
#159 = COORDINATED_UNIVERSAL_TIME_OFFSET ( 8, 0, .AHEAD. ) ;
#160 = VECTOR ( 'NONE', #280, 1000.000000000000000 ) ;
#161 = CARTESIAN_POINT ( 'NONE',  ( 3.000000000000000000, 9.999999999999998200, 0.0000000000000000000 ) ) ;
#162 = LINE ( 'NONE', #496, #9 ) ;
#163 = DIRECTION ( 'NONE',  ( 0.0000000000000000000, 0.0000000000000000000, 1.000000000000000000 ) ) ;
#164 = EDGE_LOOP ( 'NONE', ( #604, #11, #345, #19 ) ) ;
#165 = ORIENTED_EDGE ( 'NONE', *, *, #670, .F. ) ;
#166 = DIRECTION ( 'NONE',  ( 1.000000000000000000, 0.0000000000000000000, 0.0000000000000000000 ) ) ;
#167 = VERTEX_POINT ( 'NONE', #311 ) ;
#168 = PLANE ( 'NONE',  #305 ) ;
#169 = CARTESIAN_POINT ( 'NONE',  ( 0.0000000000000000000, -10.00000000000000400, -23.99999999999997900 ) ) ;
#170 = DIRECTION ( 'NONE',  ( -1.000000000000000000, 0.0000000000000000000, 0.0000000000000000000 ) ) ;
#171 = EDGE_CURVE ( 'NONE', #481, #54, #350, .T. ) ;
#172 = APPROVAL_PERSON_ORGANIZATION ( #518, #569, #681 ) ;
#173 = CIRCLE ( 'NONE', #686, 2.499999999999998700 ) ;
#174 = CARTESIAN_POINT ( 'NONE',  ( 0.0000000000000000000, -1.200000000000002200, -17.00000000000000000 ) ) ;
#175 = EDGE_LOOP ( 'NONE', ( #51, #519, #359, #62 ) ) ;
#176 = EDGE_CURVE ( 'NONE', #422, #429, #486, .T. ) ;
#177 = CARTESIAN_POINT ( 'NONE',  ( -7.000000000000000000, 2.859999999999999900, -6.150000000000001200 ) ) ;
#178 = CARTESIAN_POINT ( 'NONE',  ( 0.0000000000000000000, 9.999999999999998200, -23.99999999999997500 ) ) ;
#179 = ORIENTED_EDGE ( 'NONE', *, *, #411, .T. ) ;
#180 = AXIS2_PLACEMENT_3D ( 'NONE', #250, #258, #147 ) ;
#181 = VECTOR ( 'NONE', #279, 1000.000000000000000 ) ;
#182 = APPLICATION_PROTOCOL_DEFINITION ( 'international standard', 'config_control_design', 1994, #73 ) ;
#183 = CIRCLE ( 'NONE', #560, 2.000000000000001800 ) ;
#184 = ORIENTED_EDGE ( 'NONE', *, *, #13, .T. ) ;
#185 = ORIENTED_EDGE ( 'NONE', *, *, #585, .F. ) ;
#186 = DIRECTION ( 'NONE',  ( 0.0000000000000000000, 0.0000000000000000000, 1.000000000000000000 ) ) ;
#187 = ORIENTED_EDGE ( 'NONE', *, *, #688, .T. ) ;
#188 = ADVANCED_FACE ( 'NONE', ( #642 ), #593, .F. ) ;
#189 = ADVANCED_FACE ( 'NONE', ( #310 ), #704, .F. ) ;
#190 = LINE ( 'NONE', #319, #340 ) ;
#191 = VECTOR ( 'NONE', #710, 1000.000000000000000 ) ;
#192 = ORIENTED_EDGE ( 'NONE', *, *, #571, .F. ) ;
#193 = ADVANCED_FACE ( 'NONE', ( #684 ), #716, .F. ) ;
#194 = EDGE_CURVE ( 'NONE', #654, #41, #564, .T. ) ;
#195 = CARTESIAN_POINT ( 'NONE',  ( 3.000000000000000000, 10.00000000000000000, -23.99999999999997200 ) ) ;
#196 = FACE_OUTER_BOUND ( 'NONE', #380, .T. ) ;
#197 = ORIENTED_EDGE ( 'NONE', *, *, #290, .F. ) ;
#198 = ORIENTED_EDGE ( 'NONE', *, *, #25, .T. ) ;
#199 = EDGE_LOOP ( 'NONE', ( #680, #417, #494, #407 ) ) ;
#200 = AXIS2_PLACEMENT_3D ( 'NONE', #715, #538, #372 ) ;
#201 = EDGE_CURVE ( 'NONE', #12, #251, #348, .T. ) ;
#202 = VECTOR ( 'NONE', #434, 1000.000000000000000 ) ;
#203 = ORIENTED_EDGE ( 'NONE', *, *, #71, .F. ) ;
#204 = EDGE_CURVE ( 'NONE', #722, #567, #364, .T. ) ;
#205 = VECTOR ( 'NONE', #104, 1000.000000000000000 ) ;
#206 = CARTESIAN_POINT ( 'NONE',  ( 0.0000000000000000000, -3.440000000000000800, -9.850000000000005000 ) ) ;
#207 = AXIS2_PLACEMENT_3D ( 'NONE', #273, #328, #655 ) ;
#208 = DIRECTION ( 'NONE',  ( 0.0000000000000000000, 0.0000000000000000000, 1.000000000000000000 ) ) ;
#209 = ORIENTED_EDGE ( 'NONE', *, *, #48, .T. ) ;
#210 = CARTESIAN_POINT ( 'NONE',  ( 0.0000000000000000000, -8.000000000000003600, -25.99999999999998200 ) ) ;
#211 = ORIENTED_EDGE ( 'NONE', *, *, #297, .T. ) ;
#212 = CARTESIAN_POINT ( 'NONE',  ( 3.000000000000000000, 10.00000000000000000, 24.00000000000001400 ) ) ;
#213 = CARTESIAN_POINT ( 'NONE',  ( 3.000000000000000000, 4.460000000000000900, -7.750000000000001800 ) ) ;
#214 = DIRECTION ( 'NONE',  ( 0.0000000000000000000, -1.000000000000000000, 0.0000000000000000000 ) ) ;
#215 = FACE_OUTER_BOUND ( 'NONE', #342, .T. ) ;
#216 = DIRECTION ( 'NONE',  ( 1.000000000000000000, 0.0000000000000000000, 0.0000000000000000000 ) ) ;
#217 = CARTESIAN_POINT ( 'NONE',  ( 0.0000000000000000000, 7.999999999999998200, -23.99999999999997900 ) ) ;
#218 = AXIS2_PLACEMENT_3D ( 'NONE', #549, #166, #38 ) ;
#219 = ORIENTED_EDGE ( 'NONE', *, *, #360, .T. ) ;
#220 = PLANE ( 'NONE',  #501 ) ;
#221 = DIRECTION ( 'NONE',  ( -0.0000000000000000000, -1.000000000000000000, -0.0000000000000000000 ) ) ;
#222 = AXIS2_PLACEMENT_3D ( 'NONE', #355, #419, #75 ) ;
#223 = DIRECTION ( 'NONE',  ( 0.0000000000000000000, 0.0000000000000000000, 1.000000000000000000 ) ) ;
#224 = CARTESIAN_POINT ( 'NONE',  ( -7.000000000000000000, -5.040000000000001800, -8.250000000000001800 ) ) ;
#225 = CYLINDRICAL_SURFACE ( 'NONE', #229, 1.600000000000000800 ) ;
#226 = DIRECTION ( 'NONE',  ( 1.000000000000000000, 0.0000000000000000000, 0.0000000000000000000 ) ) ;
#227 = CIRCLE ( 'NONE', #222, 1.600000000000000800 ) ;
#228 = EDGE_LOOP ( 'NONE', ( #344, #450, #211, #152 ) ) ;
#229 = AXIS2_PLACEMENT_3D ( 'NONE', #153, #263, #35 ) ;
#230 = SECURITY_CLASSIFICATION_LEVEL ( 'unclassified' ) ;
#231 = ADVANCED_FACE ( 'NONE', ( #87 ), #683, .T. ) ;
#232 = SHAPE_DEFINITION_REPRESENTATION ( #288, #587 ) ;
#233 = CYLINDRICAL_SURFACE ( 'NONE', #29, 2.499999999999998700 ) ;
#234 = CIRCLE ( 'NONE', #461, 2.499999999999998700 ) ;
#235 = ORIENTED_EDGE ( 'NONE', *, *, #307, .T. ) ;
#236 = EDGE_CURVE ( 'NONE', #429, #481, #309, .T. ) ;
#237 = EDGE_LOOP ( 'NONE', ( #537, #558, #203, #303 ) ) ;
#238 = COORDINATED_UNIVERSAL_TIME_OFFSET ( 8, 0, .AHEAD. ) ;
#239 = EDGE_CURVE ( 'NONE', #26, #481, #703, .T. ) ;
#240 = CARTESIAN_POINT ( 'NONE',  ( 3.000000000000000000, 9.999999999999998200, -23.99999999999997500 ) ) ;
#241 = FACE_OUTER_BOUND ( 'NONE', #575, .T. ) ;
#242 = LINE ( 'NONE', #697, #387 ) ;
#243 = ORIENTED_EDGE ( 'NONE', *, *, #92, .T. ) ;
#244 = AXIS2_PLACEMENT_3D ( 'NONE', #370, #483, #96 ) ;
#245 = CALENDAR_DATE ( 2025, 9, 10 ) ;
#246 = PERSON_AND_ORGANIZATION ( #22, #639 ) ;
#247 = DIRECTION ( 'NONE',  ( 0.0000000000000000000, 0.0000000000000000000, -1.000000000000000000 ) ) ;
#248 = VECTOR ( 'NONE', #55, 1000.000000000000000 ) ;
#249 = UNCERTAINTY_MEASURE_WITH_UNIT (LENGTH_MEASURE( 1.000000000000000100E-005 ), #281, 'distance_accuracy_value', 'NONE');
#250 = CARTESIAN_POINT ( 'NONE',  ( -7.000000000000000000, 4.460000000000000900, -7.750000000000001800 ) ) ;
#251 = VERTEX_POINT ( 'NONE', #169 ) ;
#252 = DIRECTION ( 'NONE',  ( -1.000000000000000000, -0.0000000000000000000, -0.0000000000000000000 ) ) ;
#253 = AXIS2_PLACEMENT_3D ( 'NONE', #462, #337, #223 ) ;
#254 = CARTESIAN_POINT ( 'NONE',  ( 0.0000000000000000000, 0.0000000000000000000, 0.0000000000000000000 ) ) ;
#255 = CARTESIAN_POINT ( 'NONE',  ( 3.000000000000000000, -8.000000000000003600, -25.99999999999998200 ) ) ;
#256 = VECTOR ( 'NONE', #285, 1000.000000000000000 ) ;
#257 = CYLINDRICAL_SURFACE ( 'NONE', #133, 1.600000000000002500 ) ;
#258 = DIRECTION ( 'NONE',  ( 0.0000000000000000000, 1.000000000000000000, -1.734723475976805500E-015 ) ) ;
#259 = DIRECTION ( 'NONE',  ( -1.000000000000000000, 0.0000000000000000000, 0.0000000000000000000 ) ) ;
#260 = VERTEX_POINT ( 'NONE', #539 ) ;
#261 = EDGE_LOOP ( 'NONE', ( #284, #24, #592, #313, #235, #63, #209, #412 ) ) ;
#262 = CARTESIAN_POINT ( 'NONE',  ( 3.000000000000000000, 2.859999999999999900, -7.750000000000001800 ) ) ;
#263 = DIRECTION ( 'NONE',  ( 1.000000000000000000, 0.0000000000000000000, 0.0000000000000000000 ) ) ;
#264 = VERTEX_POINT ( 'NONE', #265 ) ;
#265 = CARTESIAN_POINT ( 'NONE',  ( 3.000000000000000000, -10.00000000000000200, 24.00000000000001100 ) ) ;
#266 = AXIS2_PLACEMENT_3D ( 'NONE', #112, #613, #726 ) ;
#267 = CARTESIAN_POINT ( 'NONE',  ( -7.000000000000000000, -3.440000000000000800, -9.850000000000005000 ) ) ;
#268 = CARTESIAN_POINT ( 'NONE',  ( -7.000000000000000000, 4.460000000000000900, -8.250000000000001800 ) ) ;
#269 = PERSON_AND_ORGANIZATION ( #22, #639 ) ;
#270 = CIRCLE ( 'NONE', #441, 2.499999999999998700 ) ;
#271 = DIRECTION ( 'NONE',  ( -0.0000000000000000000, -1.000000000000000000, -0.0000000000000000000 ) ) ;
#272 =( GEOMETRIC_REPRESENTATION_CONTEXT ( 3 ) GLOBAL_UNCERTAINTY_ASSIGNED_CONTEXT ( ( #249 ) ) GLOBAL_UNIT_ASSIGNED_CONTEXT ( ( #281, #673, #336 ) ) REPRESENTATION_CONTEXT ( 'NONE', 'WORKASPACE' ) );
#273 = CARTESIAN_POINT ( 'NONE',  ( 0.0000000000000000000, -8.000000000000001800, 24.00000000000001100 ) ) ;
#274 = CIRCLE ( 'NONE', #597, 1.600000000000000800 ) ;
#275 = DIRECTION ( 'NONE',  ( 1.000000000000000000, -0.0000000000000000000, -0.0000000000000000000 ) ) ;
#276 = EDGE_LOOP ( 'NONE', ( #312, #33, #693, #70, #656, #596, #145, #27 ) ) ;
#277 = CARTESIAN_POINT ( 'NONE',  ( 0.0000000000000000000, -8.000000000000001800, 26.00000000000001800 ) ) ;
#278 = EDGE_CURVE ( 'NONE', #81, #668, #475, .T. ) ;
#279 = DIRECTION ( 'NONE',  ( 1.000000000000000000, 0.0000000000000000000, -0.0000000000000000000 ) ) ;
#280 = DIRECTION ( 'NONE',  ( -1.000000000000000000, -0.0000000000000000000, -0.0000000000000000000 ) ) ;
#281 =( LENGTH_UNIT ( ) NAMED_UNIT ( * ) SI_UNIT ( .MILLI., .METRE. ) );
#282 = ORIENTED_EDGE ( 'NONE', *, *, #644, .T. ) ;
#283 = DIRECTION ( 'NONE',  ( 0.0000000000000000000, 0.0000000000000000000, -1.000000000000000000 ) ) ;
#284 = ORIENTED_EDGE ( 'NONE', *, *, #397, .T. ) ;
#285 = DIRECTION ( 'NONE',  ( -1.000000000000000000, 0.0000000000000000000, 0.0000000000000000000 ) ) ;
#286 = CARTESIAN_POINT ( 'NONE',  ( 0.0000000000000000000, -5.040000000000001800, 0.0000000000000000000 ) ) ;
#287 = AXIS2_PLACEMENT_3D ( 'NONE', #254, #645, #431 ) ;
#288 = PRODUCT_DEFINITION_SHAPE ( 'NONE', 'NONE',  #512 ) ;
#289 = ORIENTED_EDGE ( 'NONE', *, *, #589, .F. ) ;
#290 = EDGE_CURVE ( 'NONE', #40, #323, #534, .T. ) ;
#291 = APPROVAL_DATE_TIME ( #454, #569 ) ;
#292 = ADVANCED_FACE ( 'NONE', ( #241 ), #97, .T. ) ;
#293 = LINE ( 'NONE', #648, #181 ) ;
#294 = ORIENTED_EDGE ( 'NONE', *, *, #58, .T. ) ;
#295 = CIRCLE ( 'NONE', #320, 1.600000000000000800 ) ;
#296 = DIRECTION ( 'NONE',  ( 0.0000000000000000000, 0.0000000000000000000, 1.000000000000000000 ) ) ;
#297 = EDGE_CURVE ( 'NONE', #167, #548, #162, .T. ) ;
#298 = CARTESIAN_POINT ( 'NONE',  ( 3.000000000000000000, 2.859999999999999900, -8.250000000000001800 ) ) ;
#299 = ADVANCED_FACE ( 'NONE', ( #399 ), #220, .F. ) ;
#300 = CARTESIAN_POINT ( 'NONE',  ( -7.000000000000000000, -5.040000000000001800, -7.750000000000001800 ) ) ;
#301 = ORIENTED_EDGE ( 'NONE', *, *, #659, .T. ) ;
#302 = EDGE_LOOP ( 'NONE', ( #678, #723, #184, #143 ) ) ;
#303 = ORIENTED_EDGE ( 'NONE', *, *, #507, .F. ) ;
#304 = PLANE ( 'NONE',  #369 ) ;
#305 = AXIS2_PLACEMENT_3D ( 'NONE', #224, #214, #611 ) ;
#306 = DIRECTION ( 'NONE',  ( 0.0000000000000000000, 1.000000000000000000, 1.734723475976806800E-016 ) ) ;
#307 = EDGE_CURVE ( 'NONE', #81, #422, #448, .T. ) ;
#308 = CIRCLE ( 'NONE', #4, 1.600000000000002500 ) ;
#309 = LINE ( 'NONE', #156, #691 ) ;
#310 = FACE_OUTER_BOUND ( 'NONE', #346, .T. ) ;
#311 = CARTESIAN_POINT ( 'NONE',  ( 0.0000000000000000000, -1.200000000000002200, -19.50000000000000000 ) ) ;
#312 = ORIENTED_EDGE ( 'NONE', *, *, #42, .T. ) ;
#313 = ORIENTED_EDGE ( 'NONE', *, *, #278, .F. ) ;
#314 = CARTESIAN_POINT ( 'NONE',  ( -7.000000000000000000, -3.440000000000001300, -6.150000000000000400 ) ) ;
#315 = EDGE_CURVE ( 'NONE', #722, #668, #373, .T. ) ;
#316 = CARTESIAN_POINT ( 'NONE',  ( 3.000000000000000000, 0.0000000000000000000, -6.150000000000001200 ) ) ;
#317 = AXIS2_PLACEMENT_3D ( 'NONE', #618, #56, #672 ) ;
#318 = DIRECTION ( 'NONE',  ( 0.0000000000000000000, -0.0000000000000000000, -1.000000000000000000 ) ) ;
#319 = CARTESIAN_POINT ( 'NONE',  ( 0.0000000000000000000, 9.999999999999998200, 26.00000000000002100 ) ) ;
#320 = AXIS2_PLACEMENT_3D ( 'NONE', #298, #476, #72 ) ;
#321 = DIRECTION ( 'NONE',  ( -1.000000000000000000, -0.0000000000000000000, -0.0000000000000000000 ) ) ;
#322 = CARTESIAN_POINT ( 'NONE',  ( 0.0000000000000000000, -5.040000000000002700, -8.250000000000001800 ) ) ;
#323 = VERTEX_POINT ( 'NONE', #375 ) ;
#324 = DIRECTION ( 'NONE',  ( 1.000000000000000000, -0.0000000000000000000, 0.0000000000000000000 ) ) ;
#325 = EDGE_CURVE ( 'NONE', #540, #557, #652, .T. ) ;
#326 = DIRECTION ( 'NONE',  ( -1.000000000000000000, 0.0000000000000000000, 0.0000000000000000000 ) ) ;
#327 = DIRECTION ( 'NONE',  ( 0.0000000000000000000, 0.0000000000000000000, -1.000000000000000000 ) ) ;
#328 = DIRECTION ( 'NONE',  ( 1.000000000000000000, -0.0000000000000000000, -0.0000000000000000000 ) ) ;
#329 = VECTOR ( 'NONE', #57, 1000.000000000000000 ) ;
#330 = CC_DESIGN_DATE_AND_TIME_ASSIGNMENT ( #84, #463, ( #535 ) ) ;
#331 = DIRECTION ( 'NONE',  ( -0.0000000000000000000, -1.734723475976805500E-015, -1.000000000000000000 ) ) ;
#332 = ORIENTED_EDGE ( 'NONE', *, *, #397, .F. ) ;
#333 = ORIENTED_EDGE ( 'NONE', *, *, #416, .T. ) ;
#334 = CARTESIAN_POINT ( 'NONE',  ( 0.0000000000000000000, 2.859999999999999900, -6.150000000000001200 ) ) ;
#335 = ORIENTED_EDGE ( 'NONE', *, *, #88, .T. ) ;
#336 =( NAMED_UNIT ( * ) SI_UNIT ( $, .STERADIAN. ) SOLID_ANGLE_UNIT ( ) );
#337 = DIRECTION ( 'NONE',  ( -1.000000000000000000, 0.0000000000000000000, 0.0000000000000000000 ) ) ;
#338 = CARTESIAN_POINT ( 'NONE',  ( -7.000000000000000000, -1.200000000000002000, -14.50000000000000200 ) ) ;
#339 = DIRECTION ( 'NONE',  ( -1.000000000000000000, -0.0000000000000000000, -0.0000000000000000000 ) ) ;
#340 = VECTOR ( 'NONE', #493, 1000.000000000000000 ) ;
#341 = CIRCLE ( 'NONE', #141, 2.000000000000001800 ) ;
#342 = EDGE_LOOP ( 'NONE', ( #623, #243, #333, #31 ) ) ;
#343 = ORIENTED_EDGE ( 'NONE', *, *, #290, .T. ) ;
#344 = ORIENTED_EDGE ( 'NONE', *, *, #659, .F. ) ;
#345 = ORIENTED_EDGE ( 'NONE', *, *, #278, .T. ) ;
#346 = EDGE_LOOP ( 'NONE', ( #89, #99, #406, #365 ) ) ;
#347 = PRODUCT_DEFINITION_FORMATION_WITH_SPECIFIED_SOURCE ( '任何', '', #357, .NOT_KNOWN. ) ;
#348 = LINE ( 'NONE', #599, #456 ) ;
#349 = EDGE_CURVE ( 'NONE', #668, #557, #358, .T. ) ;
#350 = LINE ( 'NONE', #316, #202 ) ;
#351 = ORIENTED_EDGE ( 'NONE', *, *, #13, .F. ) ;
#352 = ADVANCED_FACE ( 'NONE', ( #524 ), #665, .T. ) ;
#353 = AXIS2_PLACEMENT_3D ( 'NONE', #669, #49, #453 ) ;
#354 = LINE ( 'NONE', #393, #472 ) ;
#355 = CARTESIAN_POINT ( 'NONE',  ( 0.0000000000000000000, -3.440000000000001300, -7.750000000000001800 ) ) ;
#356 = ADVANCED_FACE ( 'NONE', ( #632 ), #149, .T. ) ;
#357 = PRODUCT ( '03004安装隔板更新.', '03004安装隔板更新.', '', ( #118 ) ) ;
#358 = LINE ( 'NONE', #268, #59 ) ;
#359 = ORIENTED_EDGE ( 'NONE', *, *, #307, .F. ) ;
#360 = EDGE_CURVE ( 'NONE', #251, #41, #582, .T. ) ;
#361 = DIRECTION ( 'NONE',  ( 0.0000000000000000000, 1.000000000000000000, 2.753529326947312900E-016 ) ) ;
#362 = CALENDAR_DATE ( 2025, 9, 10 ) ;
#363 = DIRECTION ( 'NONE',  ( 0.0000000000000000000, 2.753529326947312900E-016, -1.000000000000000000 ) ) ;
#364 = LINE ( 'NONE', #708, #435 ) ;
#365 = ORIENTED_EDGE ( 'NONE', *, *, #204, .T. ) ;
#366 = ORIENTED_EDGE ( 'NONE', *, *, #64, .F. ) ;
#367 = DIRECTION ( 'NONE',  ( 0.0000000000000000000, 0.0000000000000000000, -1.000000000000000000 ) ) ;
#368 = DIRECTION ( 'NONE',  ( -1.000000000000000000, -0.0000000000000000000, -0.0000000000000000000 ) ) ;
#369 = AXIS2_PLACEMENT_3D ( 'NONE', #699, #526, #82 ) ;
#370 = CARTESIAN_POINT ( 'NONE',  ( -7.000000000000000000, 2.859999999999999900, -8.250000000000001800 ) ) ;
#371 = VECTOR ( 'NONE', #52, 1000.000000000000000 ) ;
#372 = DIRECTION ( 'NONE',  ( 0.0000000000000000000, 0.0000000000000000000, -1.000000000000000000 ) ) ;
#373 = CIRCLE ( 'NONE', #218, 1.600000000000000800 ) ;
#374 = FACE_BOUND ( 'NONE', #261, .T. ) ;
#375 = CARTESIAN_POINT ( 'NONE',  ( 3.000000000000000000, 9.999999999999998200, 24.00000000000001400 ) ) ;
#376 = EDGE_LOOP ( 'NONE', ( #713, #301, #624, #61 ) ) ;
#377 = CARTESIAN_POINT ( 'NONE',  ( 3.000000000000000000, -1.200000000000002200, -19.50000000000000000 ) ) ;
#378 = EDGE_CURVE ( 'NONE', #548, #439, #270, .T. ) ;
#379 = CARTESIAN_POINT ( 'NONE',  ( 3.000000000000000000, 0.0000000000000000000, -9.850000000000003200 ) ) ;
#380 = EDGE_LOOP ( 'NONE', ( #400, #366, #460, #140 ) ) ;
#381 = CARTESIAN_POINT ( 'NONE',  ( -7.000000000000000000, -3.440000000000001300, -8.250000000000001800 ) ) ;
#382 = FACE_OUTER_BOUND ( 'NONE', #721, .T. ) ;
#383 = PRODUCT_RELATED_PRODUCT_CATEGORY ( 'detail', '', ( #357 ) ) ;
#384 = MANIFOLD_SOLID_BREP ( '切除-拉伸1', #130 ) ;
#385 = VECTOR ( 'NONE', #106, 1000.000000000000000 ) ;
#386 = CARTESIAN_POINT ( 'NONE',  ( 3.000000000000000000, -8.000000000000003600, -23.99999999999997900 ) ) ;
#387 = VECTOR ( 'NONE', #361, 1000.000000000000000 ) ;
#388 = DIRECTION ( 'NONE',  ( 0.0000000000000000000, 0.0000000000000000000, -1.000000000000000000 ) ) ;
#389 = DIRECTION ( 'NONE',  ( 0.0000000000000000000, 0.0000000000000000000, -1.000000000000000000 ) ) ;
#390 = EDGE_CURVE ( 'NONE', #505, #167, #173, .T. ) ;
#391 = CARTESIAN_POINT ( 'NONE',  ( 3.000000000000000000, -1.200000000000002000, -14.50000000000000200 ) ) ;
#392 = DIRECTION ( 'NONE',  ( 1.000000000000000000, 0.0000000000000000000, 0.0000000000000000000 ) ) ;
#393 = CARTESIAN_POINT ( 'NONE',  ( 3.000000000000000000, 0.0000000000000000000, 26.00000000000002100 ) ) ;
#394 = APPROVAL_PERSON_ORGANIZATION ( #647, #470, #137 ) ;
#395 = CARTESIAN_POINT ( 'NONE',  ( 3.000000000000000000, -1.200000000000002200, -17.00000000000000000 ) ) ;
#396 = FACE_OUTER_BOUND ( 'NONE', #413, .T. ) ;
#397 = EDGE_CURVE ( 'NONE', #536, #621, #711, .T. ) ;
#398 = CIRCLE ( 'NONE', #78, 2.000000000000001800 ) ;
#399 = FACE_OUTER_BOUND ( 'NONE', #614, .T. ) ;
#400 = ORIENTED_EDGE ( 'NONE', *, *, #239, .F. ) ;
#401 = FACE_OUTER_BOUND ( 'NONE', #199, .T. ) ;
#402 = ORIENTED_EDGE ( 'NONE', *, *, #517, .T. ) ;
#403 = VECTOR ( 'NONE', #633, 1000.000000000000000 ) ;
#404 = CARTESIAN_POINT ( 'NONE',  ( 3.000000000000000000, -8.000000000000001800, 26.00000000000001100 ) ) ;
#405 = CARTESIAN_POINT ( 'NONE',  ( 3.000000000000000000, -10.00000000000000200, 0.0000000000000000000 ) ) ;
#406 = ORIENTED_EDGE ( 'NONE', *, *, #315, .F. ) ;
#407 = ORIENTED_EDGE ( 'NONE', *, *, #612, .F. ) ;
#408 = AXIS2_PLACEMENT_3D ( 'NONE', #482, #527, #306 ) ;
#409 = DATE_AND_TIME ( #362, #701 ) ;
#410 = ADVANCED_FACE ( 'NONE', ( #15 ), #459, .F. ) ;
#411 = EDGE_CURVE ( 'NONE', #264, #12, #556, .T. ) ;
#412 = ORIENTED_EDGE ( 'NONE', *, *, #416, .F. ) ;
#413 = EDGE_LOOP ( 'NONE', ( #165, #60, #332, #129 ) ) ;
#414 = AXIS2_PLACEMENT_3D ( 'NONE', #386, #615, #3 ) ;
#415 = DIRECTION ( 'NONE',  ( 0.0000000000000000000, 0.0000000000000000000, 1.000000000000000000 ) ) ;
#416 = EDGE_CURVE ( 'NONE', #536, #260, #545, .T. ) ;
#417 = ORIENTED_EDGE ( 'NONE', *, *, #201, .F. ) ;
#418 = LINE ( 'NONE', #195, #403 ) ;
#419 = DIRECTION ( 'NONE',  ( 1.000000000000000000, 0.0000000000000000000, 0.0000000000000000000 ) ) ;
#420 = ORIENTED_EDGE ( 'NONE', *, *, #176, .F. ) ;
#421 = APPROVAL_STATUS ( 'not_yet_approved' ) ;
#422 = VERTEX_POINT ( 'NONE', #334 ) ;
#423 = APPROVAL_STATUS ( 'not_yet_approved' ) ;
#424 = LOCAL_TIME ( 10, 37, 24.00000000000000000, #682 ) ;
#425 = DATE_AND_TIME ( #579, #466 ) ;
#426 = LINE ( 'NONE', #379, #514 ) ;
#427 = ORIENTED_EDGE ( 'NONE', *, *, #201, .T. ) ;
#428 = AXIS2_PLACEMENT_3D ( 'NONE', #314, #712, #94 ) ;
#429 = VERTEX_POINT ( 'NONE', #117 ) ;
#430 = EDGE_LOOP ( 'NONE', ( #289, #427, #627, #402 ) ) ;
#431 = DIRECTION ( 'NONE',  ( 0.0000000000000000000, 0.0000000000000000000, -1.000000000000000000 ) ) ;
#432 = CARTESIAN_POINT ( 'NONE',  ( 3.000000000000000000, -5.040000000000002700, -8.250000000000001800 ) ) ;
#433 = FACE_BOUND ( 'NONE', #516, .T. ) ;
#434 = DIRECTION ( 'NONE',  ( 0.0000000000000000000, 1.000000000000000000, 0.0000000000000000000 ) ) ;
#435 = VECTOR ( 'NONE', #324, 1000.000000000000000 ) ;
#436 = FACE_BOUND ( 'NONE', #528, .T. ) ;
#437 = VERTEX_POINT ( 'NONE', #178 ) ;
#438 = EDGE_CURVE ( 'NONE', #540, #81, #455, .T. ) ;
#439 = VERTEX_POINT ( 'NONE', #391 ) ;
#440 = DIRECTION ( 'NONE',  ( 0.0000000000000000000, 0.0000000000000000000, -1.000000000000000000 ) ) ;
#441 = AXIS2_PLACEMENT_3D ( 'NONE', #395, #339, #513 ) ;
#442 = DIRECTION ( 'NONE',  ( 1.000000000000000000, 0.0000000000000000000, -0.0000000000000000000 ) ) ;
#443 = ORIENTED_EDGE ( 'NONE', *, *, #171, .F. ) ;
#444 = DIRECTION ( 'NONE',  ( 1.000000000000000000, 0.0000000000000000000, 0.0000000000000000000 ) ) ;
#445 = AXIS2_PLACEMENT_3D ( 'NONE', #449, #321, #46 ) ;
#446 = DIRECTION ( 'NONE',  ( 0.0000000000000000000, -1.000000000000000000, 0.0000000000000000000 ) ) ;
#447 = LOCAL_TIME ( 10, 37, 24.00000000000000000, #14 ) ;
#448 = CIRCLE ( 'NONE', #622, 1.600000000000000800 ) ;
#449 = CARTESIAN_POINT ( 'NONE',  ( 3.000000000000000000, -3.440000000000001300, -7.750000000000001800 ) ) ;
#450 = ORIENTED_EDGE ( 'NONE', *, *, #581, .F. ) ;
#451 = ORIENTED_EDGE ( 'NONE', *, *, #625, .F. ) ;
#452 = CARTESIAN_POINT ( 'NONE',  ( 3.000000000000000000, -8.000000000000003600, -25.99999999999998200 ) ) ;
#453 = DIRECTION ( 'NONE',  ( 0.0000000000000000000, 0.0000000000000000000, 1.000000000000000000 ) ) ;
#454 = DATE_AND_TIME ( #544, #447 ) ;
#455 = LINE ( 'NONE', #5, #160 ) ;
#456 = VECTOR ( 'NONE', #660, 1000.000000000000000 ) ;
#457 = DIRECTION ( 'NONE',  ( 1.000000000000000000, 0.0000000000000000000, 0.0000000000000000000 ) ) ;
#458 = ORIENTED_EDGE ( 'NONE', *, *, #25, .F. ) ;
#459 = PLANE ( 'NONE',  #317 ) ;
#460 = ORIENTED_EDGE ( 'NONE', *, *, #48, .F. ) ;
#461 = AXIS2_PLACEMENT_3D ( 'NONE', #91, #252, #440 ) ;
#462 = CARTESIAN_POINT ( 'NONE',  ( 3.000000000000000000, -8.000000000000003600, -23.99999999999997900 ) ) ;
#463 = DATE_TIME_ROLE ( 'classification_date' ) ;
#464 = LINE ( 'NONE', #267, #74 ) ;
#465 = VERTEX_POINT ( 'NONE', #210 ) ;
#466 = LOCAL_TIME ( 10, 37, 24.00000000000000000, #608 ) ;
#467 = EDGE_CURVE ( 'NONE', #654, #119, #190, .T. ) ;
#468 = VECTOR ( 'NONE', #479, 1000.000000000000000 ) ;
#469 = ORIENTED_EDGE ( 'NONE', *, *, #522, .F. ) ;
#470 = APPROVAL ( #574, '未指定' ) ;
#471 = DIRECTION ( 'NONE',  ( 0.0000000000000000000, -1.000000000000000000, -0.0000000000000000000 ) ) ;
#472 = VECTOR ( 'NONE', #221, 1000.000000000000000 ) ;
#473 = PERSON_AND_ORGANIZATION_ROLE ( 'classification_officer' ) ;
#474 = ADVANCED_FACE ( 'NONE', ( #196 ), #225, .F. ) ;
#475 = LINE ( 'NONE', #101, #675 ) ;
#476 = DIRECTION ( 'NONE',  ( -1.000000000000000000, -0.0000000000000000000, -0.0000000000000000000 ) ) ;
#477 = FACE_OUTER_BOUND ( 'NONE', #175, .T. ) ;
#478 = ORIENTED_EDGE ( 'NONE', *, *, #378, .T. ) ;
#479 = DIRECTION ( 'NONE',  ( 1.000000000000000000, 0.0000000000000000000, 0.0000000000000000000 ) ) ;
#480 = ORIENTED_EDGE ( 'NONE', *, *, #390, .T. ) ;
#481 = VERTEX_POINT ( 'NONE', #158 ) ;
#482 = CARTESIAN_POINT ( 'NONE',  ( 3.000000000000000000, 9.999999999999998200, 26.00000000000002100 ) ) ;
#483 = DIRECTION ( 'NONE',  ( 1.000000000000000000, 0.0000000000000000000, 0.0000000000000000000 ) ) ;
#484 = LINE ( 'NONE', #338, #131 ) ;
#485 = EDGE_CURVE ( 'NONE', #323, #98, #398, .T. ) ;
#486 = LINE ( 'NONE', #86, #191 ) ;
#487 = VERTEX_POINT ( 'NONE', #452 ) ;
#488 = DESIGN_CONTEXT ( 'detailed design', #73, 'design' ) ;
#489 = AXIS2_PLACEMENT_3D ( 'NONE', #586, #363, #28 ) ;
#490 = CARTESIAN_POINT ( 'NONE',  ( 0.0000000000000000000, 4.460000000000000900, -7.750000000000001800 ) ) ;
#491 = CARTESIAN_POINT ( 'NONE',  ( 3.000000000000000000, 9.999999999999998200, 26.00000000000002100 ) ) ;
#492 = VECTOR ( 'NONE', #121, 1000.000000000000000 ) ;
#493 = DIRECTION ( 'NONE',  ( 0.0000000000000000000, 1.000000000000000000, 1.734723475976806800E-016 ) ) ;
#494 = ORIENTED_EDGE ( 'NONE', *, *, #411, .F. ) ;
#495 = VERTEX_POINT ( 'NONE', #39 ) ;
#496 = CARTESIAN_POINT ( 'NONE',  ( -7.000000000000000000, -1.200000000000002200, -19.50000000000000000 ) ) ;
#497 = ORIENTED_EDGE ( 'NONE', *, *, #666, .T. ) ;
#498 = DIRECTION ( 'NONE',  ( 1.000000000000000000, -0.0000000000000000000, 0.0000000000000000000 ) ) ;
#499 = DIRECTION ( 'NONE',  ( 0.0000000000000000000, 0.0000000000000000000, -1.000000000000000000 ) ) ;
#500 = CARTESIAN_POINT ( 'NONE',  ( 3.000000000000000000, 0.0000000000000000000, 0.0000000000000000000 ) ) ;
#501 = AXIS2_PLACEMENT_3D ( 'NONE', #491, #446, #110 ) ;
#502 = DIRECTION ( 'NONE',  ( 1.000000000000000000, 0.0000000000000000000, -0.0000000000000000000 ) ) ;
#503 = CARTESIAN_POINT ( 'NONE',  ( 3.000000000000000000, -3.440000000000001300, -8.250000000000001800 ) ) ;
#504 = DIRECTION ( 'NONE',  ( 0.0000000000000000000, 0.0000000000000000000, 1.000000000000000000 ) ) ;
#505 = VERTEX_POINT ( 'NONE', #45 ) ;
#506 = DIRECTION ( 'NONE',  ( 0.0000000000000000000, 0.0000000000000000000, 1.000000000000000000 ) ) ;
#507 = EDGE_CURVE ( 'NONE', #65, #621, #464, .T. ) ;
#508 = EDGE_LOOP ( 'NONE', ( #128, #594, #80, #451 ) ) ;
#509 = CARTESIAN_POINT ( 'NONE',  ( 0.0000000000000000000, -10.00000000000000200, 26.00000000000002100 ) ) ;
#510 = ORIENTED_EDGE ( 'NONE', *, *, #467, .T. ) ;
#511 = CIRCLE ( 'NONE', #200, 2.499999999999998700 ) ;
#512 = PRODUCT_DEFINITION ( '未知', '', #347, #488 ) ;
#513 = DIRECTION ( 'NONE',  ( 0.0000000000000000000, 0.0000000000000000000, -1.000000000000000000 ) ) ;
#514 = VECTOR ( 'NONE', #271, 1000.000000000000000 ) ;
#515 = CARTESIAN_POINT ( 'NONE',  ( 3.000000000000000000, -10.00000000000000400, -23.99999999999997900 ) ) ;
#516 = EDGE_LOOP ( 'NONE', ( #478, #335 ) ) ;
#517 = EDGE_CURVE ( 'NONE', #465, #487, #533, .T. ) ;
#518 = PERSON_AND_ORGANIZATION ( #22, #639 ) ;
#519 = ORIENTED_EDGE ( 'NONE', *, *, #666, .F. ) ;
#520 = CC_DESIGN_APPROVAL ( #554, ( #512 ) ) ;
#521 = CARTESIAN_POINT ( 'NONE',  ( 0.0000000000000000000, 7.999999999999998200, 24.00000000000001400 ) ) ;
#522 = EDGE_CURVE ( 'NONE', #323, #136, #8, .T. ) ;
#523 = PERSON_AND_ORGANIZATION_ROLE ( 'creator' ) ;
#524 = FACE_OUTER_BOUND ( 'NONE', #302, .T. ) ;
#525 = CARTESIAN_POINT ( 'NONE',  ( 3.000000000000000000, -3.440000000000001300, -9.850000000000005000 ) ) ;
#526 = DIRECTION ( 'NONE',  ( 0.0000000000000000000, 1.000000000000000000, 0.0000000000000000000 ) ) ;
#527 = DIRECTION ( 'NONE',  ( 0.0000000000000000000, 1.734723475976806800E-016, -1.000000000000000000 ) ) ;
#528 = EDGE_LOOP ( 'NONE', ( #707, #480 ) ) ;
#529 = EDGE_CURVE ( 'NONE', #119, #98, #702, .T. ) ;
#530 = DIRECTION ( 'NONE',  ( -1.000000000000000000, -0.0000000000000000000, -0.0000000000000000000 ) ) ;
#531 = DIRECTION ( 'NONE',  ( 0.0000000000000000000, 0.0000000000000000000, -1.000000000000000000 ) ) ;
#532 = CIRCLE ( 'NONE', #671, 2.000000000000001800 ) ;
#533 = LINE ( 'NONE', #255, #600 ) ;
#534 = LINE ( 'NONE', #161, #385 ) ;
#535 = SECURITY_CLASSIFICATION ( '', '', #230 ) ;
#536 = VERTEX_POINT ( 'NONE', #322 ) ;
#537 = ORIENTED_EDGE ( 'NONE', *, *, #552, .F. ) ;
#538 = DIRECTION ( 'NONE',  ( 1.000000000000000000, 0.0000000000000000000, 0.0000000000000000000 ) ) ;
#539 = CARTESIAN_POINT ( 'NONE',  ( 0.0000000000000000000, -5.040000000000001800, -7.750000000000001800 ) ) ;
#540 = VERTEX_POINT ( 'NONE', #657 ) ;
#541 = DIRECTION ( 'NONE',  ( 1.000000000000000000, -0.0000000000000000000, -0.0000000000000000000 ) ) ;
#542 = AXIS2_PLACEMENT_3D ( 'NONE', #43, #720, #504 ) ;
#543 = DIRECTION ( 'NONE',  ( -1.000000000000000000, 0.0000000000000000000, -0.0000000000000000000 ) ) ;
#544 = CALENDAR_DATE ( 2025, 9, 10 ) ;
#545 = LINE ( 'NONE', #286, #371 ) ;
#546 = VECTOR ( 'NONE', #331, 1000.000000000000000 ) ;
#547 = PLANE ( 'NONE',  #617 ) ;
#548 = VERTEX_POINT ( 'NONE', #377 ) ;
#549 = CARTESIAN_POINT ( 'NONE',  ( 0.0000000000000000000, 2.859999999999999900, -8.250000000000001800 ) ) ;
#550 = DIRECTION ( 'NONE',  ( -1.000000000000000000, -0.0000000000000000000, -0.0000000000000000000 ) ) ;
#551 = ORIENTED_EDGE ( 'NONE', *, *, #194, .F. ) ;
#552 = EDGE_CURVE ( 'NONE', #567, #65, #426, .T. ) ;
#553 = DIRECTION ( 'NONE',  ( 1.000000000000000000, 0.0000000000000000000, 0.0000000000000000000 ) ) ;
#554 = APPROVAL ( #421, '未指定' ) ;
#555 = CARTESIAN_POINT ( 'NONE',  ( 0.0000000000000000000, 2.859999999999999900, -9.850000000000003200 ) ) ;
#556 = LINE ( 'NONE', #405, #248 ) ;
#557 = VERTEX_POINT ( 'NONE', #661 ) ;
#558 = ORIENTED_EDGE ( 'NONE', *, *, #204, .F. ) ;
#559 = CARTESIAN_POINT ( 'NONE',  ( 0.0000000000000000000, 0.0000000000000000000, 0.0000000000000000000 ) ) ;
#560 = AXIS2_PLACEMENT_3D ( 'NONE', #679, #606, #186 ) ;
#561 = PERSON_AND_ORGANIZATION_ROLE ( 'design_supplier' ) ;
#562 = APPROVAL_PERSON_ORGANIZATION ( #125, #554, #578 ) ;
#563 = VECTOR ( 'NONE', #498, 1000.000000000000000 ) ;
#564 = CIRCLE ( 'NONE', #207, 1.999999999999998200 ) ;
#565 = ORIENTED_EDGE ( 'NONE', *, *, #571, .T. ) ;
#566 = LINE ( 'NONE', #113, #492 ) ;
#567 = VERTEX_POINT ( 'NONE', #718 ) ;
#568 = ORIENTED_EDGE ( 'NONE', *, *, #10, .F. ) ;
#569 = APPROVAL ( #423, '未指定' ) ;
#570 = ORIENTED_EDGE ( 'NONE', *, *, #628, .T. ) ;
#571 = EDGE_CURVE ( 'NONE', #487, #602, #649, .T. ) ;
#572 = CIRCLE ( 'NONE', #414, 2.000000000000001800 ) ;
#573 = ADVANCED_FACE ( 'NONE', ( #396 ), #257, .F. ) ;
#574 = APPROVAL_STATUS ( 'not_yet_approved' ) ;
#575 = EDGE_LOOP ( 'NONE', ( #458, #570, #187, #90 ) ) ;
#576 = AXIS2_PLACEMENT_3D ( 'NONE', #603, #326, #208 ) ;
#577 = ADVANCED_FACE ( 'NONE', ( #663 ), #646, .F. ) ;
#578 = APPROVAL_ROLE ( '' ) ;
#579 = CALENDAR_DATE ( 2025, 9, 10 ) ;
#580 = PLANE ( 'NONE',  #489 ) ;
#581 = EDGE_CURVE ( 'NONE', #167, #505, #511, .T. ) ;
#582 = LINE ( 'NONE', #509, #105 ) ;
#583 = ORIENTED_EDGE ( 'NONE', *, *, #589, .T. ) ;
#584 = ORIENTED_EDGE ( 'NONE', *, *, #236, .F. ) ;
#585 = EDGE_CURVE ( 'NONE', #136, #437, #626, .T. ) ;
#586 = CARTESIAN_POINT ( 'NONE',  ( -7.000000000000000000, 2.859999999999999400, -9.850000000000003200 ) ) ;
#587 = ADVANCED_BREP_SHAPE_REPRESENTATION ( '03004安装隔板更新.', ( #384, #122 ), #272 ) ;
#588 = CARTESIAN_POINT ( 'NONE',  ( -7.000000000000000000, -5.040000000000003600, -8.250000000000001800 ) ) ;
#589 = EDGE_CURVE ( 'NONE', #12, #487, #572, .T. ) ;
#590 = CC_DESIGN_PERSON_AND_ORGANIZATION_ASSIGNMENT ( #269, #561, ( #347 ) ) ;
#591 = VECTOR ( 'NONE', #471, 1000.000000000000000 ) ;
#592 = ORIENTED_EDGE ( 'NONE', *, *, #315, .T. ) ;
#593 = PLANE ( 'NONE',  #180 ) ;
#594 = ORIENTED_EDGE ( 'NONE', *, *, #529, .F. ) ;
#595 = CARTESIAN_POINT ( 'NONE',  ( 0.0000000000000000000, 9.999999999999998200, 26.00000000000002100 ) ) ;
#596 = ORIENTED_EDGE ( 'NONE', *, *, #171, .T. ) ;
#597 = AXIS2_PLACEMENT_3D ( 'NONE', #262, #368, #367 ) ;
#598 = CARTESIAN_POINT ( 'NONE',  ( 3.000000000000000000, 7.999999999999998200, 24.00000000000001400 ) ) ;
#599 = CARTESIAN_POINT ( 'NONE',  ( 3.000000000000000000, -10.00000000000000500, -23.99999999999997500 ) ) ;
#600 = VECTOR ( 'NONE', #442, 1000.000000000000000 ) ;
#601 = CARTESIAN_POINT ( 'NONE',  ( 0.0000000000000000000, 2.859999999999999900, -7.750000000000001800 ) ) ;
#602 = VERTEX_POINT ( 'NONE', #37 ) ;
#603 = CARTESIAN_POINT ( 'NONE',  ( 3.000000000000000000, 7.999999999999998200, 24.00000000000001400 ) ) ;
#604 = ORIENTED_EDGE ( 'NONE', *, *, #325, .F. ) ;
#605 = CC_DESIGN_PERSON_AND_ORGANIZATION_ASSIGNMENT ( #7, #523, ( #512 ) ) ;
#606 = DIRECTION ( 'NONE',  ( 1.000000000000000000, -0.0000000000000000000, -0.0000000000000000000 ) ) ;
#607 = DIRECTION ( 'NONE',  ( 1.000000000000000000, -0.0000000000000000000, 0.0000000000000000000 ) ) ;
#608 = COORDINATED_UNIVERSAL_TIME_OFFSET ( 8, 0, .AHEAD. ) ;
#609 = VECTOR ( 'NONE', #318, 1000.000000000000000 ) ;
#610 = DIRECTION ( 'NONE',  ( 1.000000000000000000, 0.0000000000000000000, 0.0000000000000000000 ) ) ;
#611 = DIRECTION ( 'NONE',  ( 0.0000000000000000000, -0.0000000000000000000, -1.000000000000000000 ) ) ;
#612 = EDGE_CURVE ( 'NONE', #41, #264, #293, .T. ) ;
#613 = DIRECTION ( 'NONE',  ( 1.000000000000000000, 0.0000000000000000000, 0.0000000000000000000 ) ) ;
#614 = EDGE_LOOP ( 'NONE', ( #185, #469, #197, #695 ) ) ;
#615 = DIRECTION ( 'NONE',  ( 1.000000000000000000, -0.0000000000000000000, -0.0000000000000000000 ) ) ;
#616 = DIRECTION ( 'NONE',  ( 0.0000000000000000000, 0.0000000000000000000, 1.000000000000000000 ) ) ;
#617 = AXIS2_PLACEMENT_3D ( 'NONE', #500, #607, #389 ) ;
#618 = CARTESIAN_POINT ( 'NONE',  ( 3.000000000000000000, 9.999999999999998200, -25.99999999999998200 ) ) ;
#619 = LINE ( 'NONE', #404, #256 ) ;
#620 = PERSON_AND_ORGANIZATION_ROLE ( 'design_owner' ) ;
#621 = VERTEX_POINT ( 'NONE', #206 ) ;
#622 = AXIS2_PLACEMENT_3D ( 'NONE', #601, #717, #499 ) ;
#623 = ORIENTED_EDGE ( 'NONE', *, *, #1, .F. ) ;
#624 = ORIENTED_EDGE ( 'NONE', *, *, #378, .F. ) ;
#625 = EDGE_CURVE ( 'NONE', #495, #654, #619, .T. ) ;
#626 = LINE ( 'NONE', #595, #609 ) ;
#627 = ORIENTED_EDGE ( 'NONE', *, *, #10, .T. ) ;
#628 = EDGE_CURVE ( 'NONE', #602, #108, #727, .T. ) ;
#629 = DIRECTION ( 'NONE',  ( 1.000000000000000000, -0.0000000000000000000, -0.0000000000000000000 ) ) ;
#630 = ADVANCED_FACE ( 'NONE', ( #382, #433, #689 ), #547, .T. ) ;
#631 = CIRCLE ( 'NONE', #157, 1.999999999999998200 ) ;
#632 = FACE_OUTER_BOUND ( 'NONE', #430, .T. ) ;
#633 = DIRECTION ( 'NONE',  ( 1.000000000000000000, -0.0000000000000000000, -0.0000000000000000000 ) ) ;
#634 = ORIENTED_EDGE ( 'NONE', *, *, #644, .F. ) ;
#635 = ADVANCED_FACE ( 'NONE', ( #674 ), #233, .F. ) ;
#636 = CARTESIAN_POINT ( 'NONE',  ( 0.0000000000000000000, 9.999999999999998200, -25.99999999999998200 ) ) ;
#637 = ORIENTED_EDGE ( 'NONE', *, *, #688, .F. ) ;
#638 = EDGE_LOOP ( 'NONE', ( #634, #68, #658, #144 ) ) ;
#639 = ORGANIZATION ( '未指定', '未指定', '' ) ;
#640 = CARTESIAN_POINT ( 'NONE',  ( 0.0000000000000000000, 7.999999999999998200, -25.99999999999998200 ) ) ;
#641 = CC_DESIGN_PERSON_AND_ORGANIZATION_ASSIGNMENT ( #21, #134, ( #347 ) ) ;
#642 = FACE_OUTER_BOUND ( 'NONE', #164, .T. ) ;
#643 = ORIENTED_EDGE ( 'NONE', *, *, #585, .T. ) ;
#644 = EDGE_CURVE ( 'NONE', #495, #264, #631, .T. ) ;
#645 = DIRECTION ( 'NONE',  ( 1.000000000000000000, -0.0000000000000000000, 0.0000000000000000000 ) ) ;
#646 = PLANE ( 'NONE',  #428 ) ;
#647 = PERSON_AND_ORGANIZATION ( #22, #639 ) ;
#648 = CARTESIAN_POINT ( 'NONE',  ( 3.000000000000000000, -10.00000000000000200, 24.00000000000001100 ) ) ;
#649 = LINE ( 'NONE', #102, #205 ) ;
#650 = DIRECTION ( 'NONE',  ( 0.0000000000000000000, 0.0000000000000000000, -1.000000000000000000 ) ) ;
#651 = CC_DESIGN_DATE_AND_TIME_ASSIGNMENT ( #425, #6, ( #512 ) ) ;
#652 = LINE ( 'NONE', #213, #546 ) ;
#653 = CARTESIAN_POINT ( 'NONE',  ( 3.000000000000000000, 7.999999999999998200, 26.00000000000002100 ) ) ;
#654 = VERTEX_POINT ( 'NONE', #277 ) ;
#655 = DIRECTION ( 'NONE',  ( 0.0000000000000000000, 0.0000000000000000000, 1.000000000000000000 ) ) ;
#656 = ORIENTED_EDGE ( 'NONE', *, *, #239, .T. ) ;
#657 = CARTESIAN_POINT ( 'NONE',  ( 3.000000000000000000, 4.460000000000000900, -7.750000000000003600 ) ) ;
#658 = ORIENTED_EDGE ( 'NONE', *, *, #194, .T. ) ;
#659 = EDGE_CURVE ( 'NONE', #505, #439, #484, .T. ) ;
#660 = DIRECTION ( 'NONE',  ( -1.000000000000000000, 0.0000000000000000000, 0.0000000000000000000 ) ) ;
#661 = CARTESIAN_POINT ( 'NONE',  ( 3.000000000000000000, 4.460000000000000900, -8.250000000000003600 ) ) ;
#662 = APPROVAL_DATE_TIME ( #66, #470 ) ;
#663 = FACE_OUTER_BOUND ( 'NONE', #44, .T. ) ;
#664 = CARTESIAN_POINT ( 'NONE',  ( 0.0000000000000000000, 4.460000000000000900, -8.250000000000001800 ) ) ;
#665 = CYLINDRICAL_SURFACE ( 'NONE', #576, 2.000000000000001800 ) ;
#666 = EDGE_CURVE ( 'NONE', #422, #54, #116, .T. ) ;
#667 = CARTESIAN_POINT ( 'NONE',  ( -7.000000000000000000, 2.859999999999999900, -7.750000000000001800 ) ) ;
#668 = VERTEX_POINT ( 'NONE', #664 ) ;
#669 = CARTESIAN_POINT ( 'NONE',  ( 3.000000000000000000, 7.999999999999998200, -23.99999999999997900 ) ) ;
#670 = EDGE_CURVE ( 'NONE', #65, #138, #308, .T. ) ;
#671 = AXIS2_PLACEMENT_3D ( 'NONE', #217, #725, #50 ) ;
#672 = DIRECTION ( 'NONE',  ( 1.000000000000000000, 0.0000000000000000000, -0.0000000000000000000 ) ) ;
#673 =( NAMED_UNIT ( * ) PLANE_ANGLE_UNIT ( ) SI_UNIT ( $, .RADIAN. ) );
#674 = FACE_OUTER_BOUND ( 'NONE', #228, .T. ) ;
#675 = VECTOR ( 'NONE', #388, 1000.000000000000000 ) ;
#676 = DIRECTION ( 'NONE',  ( 1.000000000000000000, 0.0000000000000000000, 0.0000000000000000000 ) ) ;
#677 = AXIS2_PLACEMENT_3D ( 'NONE', #34, #709, #650 ) ;
#678 = ORIENTED_EDGE ( 'NONE', *, *, #485, .F. ) ;
#679 = CARTESIAN_POINT ( 'NONE',  ( 0.0000000000000000000, -8.000000000000003600, -23.99999999999997900 ) ) ;
#680 = ORIENTED_EDGE ( 'NONE', *, *, #360, .F. ) ;
#681 = APPROVAL_ROLE ( '' ) ;
#682 = COORDINATED_UNIVERSAL_TIME_OFFSET ( 8, 0, .AHEAD. ) ;
#683 = CYLINDRICAL_SURFACE ( 'NONE', #542, 1.999999999999998200 ) ;
#684 = FACE_OUTER_BOUND ( 'NONE', #508, .T. ) ;
#685 = LINE ( 'NONE', #588, #77 ) ;
#686 = AXIS2_PLACEMENT_3D ( 'NONE', #174, #226, #283 ) ;
#687 = ORIENTED_EDGE ( 'NONE', *, *, #485, .T. ) ;
#688 = EDGE_CURVE ( 'NONE', #108, #437, #532, .T. ) ;
#689 = FACE_BOUND ( 'NONE', #276, .T. ) ;
#690 = CARTESIAN_POINT ( 'NONE',  ( 0.0000000000000000000, -10.00000000000000200, 24.00000000000001100 ) ) ;
#691 = VECTOR ( 'NONE', #502, 1000.000000000000000 ) ;
#692 = ADVANCED_FACE ( 'NONE', ( #215 ), #168, .F. ) ;
#693 = ORIENTED_EDGE ( 'NONE', *, *, #670, .T. ) ;
#694 = LINE ( 'NONE', #636, #591 ) ;
#695 = ORIENTED_EDGE ( 'NONE', *, *, #32, .F. ) ;
#696 = CIRCLE ( 'NONE', #150, 2.000000000000001800 ) ;
#697 = CARTESIAN_POINT ( 'NONE',  ( 0.0000000000000000000, 2.859999999999999400, -9.850000000000003200 ) ) ;
#698 = CC_DESIGN_APPROVAL ( #470, ( #535 ) ) ;
#699 = CARTESIAN_POINT ( 'NONE',  ( 3.000000000000000000, -10.00000000000000200, 26.00000000000002100 ) ) ;
#700 = CARTESIAN_POINT ( 'NONE',  ( 3.000000000000000000, 7.999999999999998200, -23.99999999999997900 ) ) ;
#701 = LOCAL_TIME ( 10, 37, 24.00000000000000000, #159 ) ;
#702 = LINE ( 'NONE', #653, #563 ) ;
#703 = CIRCLE ( 'NONE', #445, 1.600000000000000800 ) ;
#704 = CYLINDRICAL_SURFACE ( 'NONE', #244, 1.600000000000000800 ) ;
#705 = CYLINDRICAL_SURFACE ( 'NONE', #677, 2.499999999999998700 ) ;
#706 = EDGE_CURVE ( 'NONE', #98, #495, #354, .T. ) ;
#707 = ORIENTED_EDGE ( 'NONE', *, *, #581, .T. ) ;
#708 = CARTESIAN_POINT ( 'NONE',  ( -7.000000000000000000, 2.859999999999999900, -9.850000000000003200 ) ) ;
#709 = DIRECTION ( 'NONE',  ( 1.000000000000000000, 0.0000000000000000000, 0.0000000000000000000 ) ) ;
#710 = DIRECTION ( 'NONE',  ( 0.0000000000000000000, -1.000000000000000000, -0.0000000000000000000 ) ) ;
#711 = CIRCLE ( 'NONE', #266, 1.600000000000002500 ) ;
#712 = DIRECTION ( 'NONE',  ( 0.0000000000000000000, 0.0000000000000000000, 1.000000000000000000 ) ) ;
#713 = ORIENTED_EDGE ( 'NONE', *, *, #390, .F. ) ;
#714 = EDGE_LOOP ( 'NONE', ( #510, #351, #643, #637, #294, #568, #219, #551 ) ) ;
#715 = CARTESIAN_POINT ( 'NONE',  ( 0.0000000000000000000, -1.200000000000002200, -17.00000000000000000 ) ) ;
#716 = PLANE ( 'NONE',  #408 ) ;
#717 = DIRECTION ( 'NONE',  ( 1.000000000000000000, 0.0000000000000000000, 0.0000000000000000000 ) ) ;
#718 = CARTESIAN_POINT ( 'NONE',  ( 3.000000000000000000, 2.859999999999999900, -9.850000000000003200 ) ) ;
#719 = VECTOR ( 'NONE', #259, 1000.000000000000000 ) ;
#720 = DIRECTION ( 'NONE',  ( -1.000000000000000000, 0.0000000000000000000, 0.0000000000000000000 ) ) ;
#721 = EDGE_LOOP ( 'NONE', ( #565, #198, #343, #687, #17, #282, #179, #583 ) ) ;
#722 = VERTEX_POINT ( 'NONE', #555 ) ;
#723 = ORIENTED_EDGE ( 'NONE', *, *, #522, .T. ) ;
#724 = APPLICATION_CONTEXT ( 'configuration controlled 3d designs of mechanical parts and assemblies' ) ;
#725 = DIRECTION ( 'NONE',  ( 1.000000000000000000, -0.0000000000000000000, -0.0000000000000000000 ) ) ;
#726 = DIRECTION ( 'NONE',  ( 0.0000000000000000000, 0.0000000000000000000, -1.000000000000000000 ) ) ;
#727 = LINE ( 'NONE', #155, #95 ) ;
ENDSEC;
END-ISO-10303-21;
